<?xml version='1.0' encoding='utf-8'?>
<svg width="56.18248mm" height="138.68114mm" viewBox="-5.09 -133.59114 56.18248 138.68114" version="1.1" xmlns="http://www.w3.org/2000/svg">
  <g transform="scale(1,-1)" stroke-linecap="round">
    <g fill="none" stroke="rgb(0,0,0)" stroke-width="0.09" id="outline">
      <path d="M 0.0,128.50114 L 0.0,0.0 L 30.00248,0.0 L 30.00248,128.50114 L 0.0,128.50114" />
    </g>
    <g fill="none" stroke="rgb(0,0,0)" stroke-width="0.09" id="cutouts">
      <path d="M 27.40248,123.90114 A 1.6000000000000012,1.6000000000000012 180.0 0,1 27.40248,127.10114 L 26.60248,127.10114 A 1.6000000000000012,1.6000000000000012 0.0 0,1 26.60248,123.90114 L 27.40248,123.90114" />
      <path d="M 3.4,1.4 A 1.6,1.6 180.0 0,1 3.4,4.6 L 2.6,4.6 A 1.6,1.6 0.0 0,1 2.6,1.4 L 3.4,1.4" />
      <path d="M 3.4,123.90114 A 1.6000000000000012,1.6000000000000012 180.0 0,1 3.4,127.10114 L 2.6,127.10114 A 1.6000000000000012,1.6000000000000012 0.0 0,1 2.6,123.90114 L 3.4,123.90114" />
      <path d="M 27.40248,1.4 A 1.6,1.6 180.0 0,1 27.40248,4.6 L 26.60248,4.6 A 1.6,1.6 0.0 0,1 26.60248,1.4 L 27.40248,1.4" />
      <circle cx="6.752515" cy="18.001699" r="3.450915" />
      <circle cx="6.752515" cy="35.271711" r="3.450915" />
      <circle cx="6.752515" cy="52.541635" r="3.450915" />
      <circle cx="6.752515" cy="69.811655" r="3.450915" />
      <circle cx="6.752515" cy="87.08158" r="3.450915" />
      <circle cx="23.26259" cy="18.001699" r="3.450915" />
      <circle cx="23.26259" cy="35.271711" r="3.450915" />
      <circle cx="23.26259" cy="52.541635" r="3.450915" />
      <circle cx="23.26259" cy="69.811655" r="3.450915" />
      <circle cx="23.26259" cy="87.08158" r="3.450915" />
      <path d="M 2.60124,116.59136 L 2.60124,102.99136 L 27.40124,102.99136 L 27.40124,116.59136 L 2.60124,116.59136" />
      <circle cx="2.60124" cy="95.39136" r="1.5" />
      <circle cx="27.40124" cy="95.39136" r="1.5" />
    </g>
    <g fill="none" stroke="rgb(0,0,0)" stroke-width="0.09" id="plaques">
      <path d="M 19.363371,11.986074 L 19.363371,10.017324 A 0.8,0.8 0.0 0,1 20.163371,9.217324 L 26.361809,9.217324 A 0.8,0.8 0.0 0,1 27.161809,10.017324 L 27.161809,11.986074 A 0.8,0.8 0.0 0,1 26.361809,12.786074 L 20.163371,12.786074 A 0.8,0.8 0.0 0,1 19.363371,11.986074" />
      <path d="M 19.58134,29.256086 L 19.58134,27.287336 A 0.8,0.8 0.0 0,1 20.38134,26.487336 L 26.14384,26.487336 A 0.8,0.8 0.0 0,1 26.94384,27.287336 L 26.94384,29.256086 A 0.8,0.8 0.0 0,1 26.14384,30.056086 L 20.38134,30.056086 A 0.8,0.8 0.0 0,1 19.58134,29.256086" />
    </g>
    <g fill="none" stroke="rgb(0,0,0)" stroke-width="0.09" id="labels">
      <path d="M 16.396455,3.151162 L 16.803974,3.151162 L 17.173408,4.542568 L 17.544111,3.151162 L 17.942744,3.151162 L 18.394697,5.012295 L 18.016377,5.012295 L 17.730732,3.712295 L 17.404463,5.012295 L 16.957588,5.012295 L 16.617353,3.733877 L 16.336787,5.012295 L 15.952119,5.012295 L 16.396455,3.151162" />
      <path d="M 12.61833,4.155361 C 12.779507,4.224471 12.876098,4.369357 12.874775,4.540029 C 12.874775,4.678831 12.825898,4.793512 12.728144,4.884072 C 12.63039,4.974632 12.493069,5.019912 12.316181,5.019912 C 12.137601,5.019912 11.999857,4.974632 11.902949,4.884072 C 11.806041,4.793512 11.757588,4.678831 11.757588,4.540029 C 11.75891,4.380042 11.835822,4.230713 12.02165,4.155361 Q 11.86042,4.086807 11.785517,3.960488 Q 11.710615,3.83417 11.710615,3.683096 Q 11.710615,3.408877 11.909931,3.251455 C 12.022497,3.162588 12.163414,3.118154 12.332685,3.118154 C 12.514651,3.118154 12.660436,3.171898 12.770039,3.279385 C 12.879642,3.386872 12.934443,3.52652 12.934443,3.69833 C 12.935104,3.904417 12.824179,4.074535 12.61833,4.155361 M 12.095283,4.514639 C 12.093299,4.646114 12.184864,4.739055 12.31999,4.736807 C 12.449773,4.738923 12.541867,4.647516 12.539619,4.515908 C 12.541735,4.375175 12.449482,4.287207 12.316181,4.288662 C 12.184573,4.28734 12.093167,4.373774 12.095283,4.514639 M 12.062275,3.717373 Q 12.062275,3.822744 12.126386,3.912881 Q 12.190498,4.003018 12.32126,4.003018 Q 12.434248,4.003018 12.507881,3.923672 Q 12.581513,3.844326 12.581513,3.713564 Q 12.581513,3.56376 12.50915,3.484414 Q 12.436787,3.405068 12.326338,3.405068 Q 12.213349,3.405068 12.137812,3.487588 Q 12.062275,3.570107 12.062275,3.717373" />
      <path d="M 13.861201,3.151162 L 14.206513,3.151162 L 14.206513,3.525674 L 14.437568,3.525674 L 14.437568,3.839248 L 14.206513,3.839248 L 14.206513,5.019912 L 13.906904,5.019912 L 13.099482,3.837979 L 13.099482,3.525674 L 13.861201,3.525674 L 13.861201,3.151162 M 13.861201,3.839248 L 13.433369,3.839248 L 13.861201,4.475283 L 13.861201,3.839248" />
      <path d="M 14.626728,4.146475 L 14.950459,4.088076 C 14.996717,4.21532 15.056121,4.25494 15.185322,4.256924 C 15.279267,4.256924 15.343167,4.242324 15.377021,4.213125 C 15.410875,4.183926 15.427802,4.135049 15.427802,4.066494 L 15.427802,4.030947 Q 15.331318,3.990322 15.08122,3.94335 Q 14.895869,3.907803 14.79748,3.860195 Q 14.699092,3.812588 14.644502,3.723086 Q 14.589912,3.633584 14.589912,3.519326 Q 14.589912,3.34667 14.709883,3.233682 Q 14.829853,3.120693 15.038056,3.120693 Q 15.273554,3.120693 15.455732,3.298428 Q 15.459541,3.288271 15.468427,3.256533 Q 15.48874,3.186709 15.502705,3.151162 L 15.855635,3.151162 Q 15.808662,3.247646 15.791523,3.33207 Q 15.774385,3.416494 15.774385,3.594229 L 15.778193,4.010635 Q 15.778193,4.242959 15.730586,4.329922 Q 15.682978,4.416885 15.566181,4.473379 Q 15.449385,4.529873 15.210713,4.529873 Q 14.94792,4.529873 14.814619,4.435928 Q 14.681318,4.341982 14.626728,4.146475 M 15.427802,3.798623 L 15.427802,3.727529 Q 15.427802,3.599307 15.413838,3.553604 Q 15.393525,3.483779 15.328779,3.435537 Q 15.241181,3.372061 15.144697,3.372061 Q 15.058369,3.372061 15.00251,3.42665 Q 14.94665,3.48124 14.94665,3.556143 Q 14.94665,3.632314 15.016474,3.681826 Q 15.062177,3.712295 15.210713,3.744033 Q 15.359248,3.775771 15.427802,3.798623" />
      <path d="M 16.011152,123.632302 L 16.461836,123.632302 L 16.875703,124.275954 L 17.288301,123.632302 L 17.741523,123.632302 L 17.105488,124.589529 L 17.684394,125.493435 L 17.248945,125.493435 L 16.88332,124.895486 L 16.510078,125.493435 L 16.07082,125.493435 L 16.647187,124.603494 L 16.011152,123.632302" />
      <path d="M 12.44123,123.632302 L 12.790351,123.632302 L 12.790351,125.097341 L 13.158515,123.632302 L 13.520332,123.632302 L 13.889765,125.097341 L 13.889765,123.632302 L 14.238886,123.632302 L 14.238886,125.493435 L 13.675215,125.493435 L 13.341328,124.223904 L 13.003633,125.493435 L 12.44123,125.493435 L 12.44123,123.632302" />
      <path d="M 14.614668,123.632302 L 14.990449,123.632302 L 14.990449,124.42322 L 15.767402,124.42322 L 15.767402,124.738064 L 14.990449,124.738064 L 14.990449,125.178591 L 15.890547,125.178591 L 15.890547,125.493435 L 14.614668,125.493435 L 14.614668,123.632302" />
      <path d="M 7.431421,9.944668 L 7.893921,9.944668 L 7.893921,10.900918 L 7.987671,10.900918 Q 8.147046,10.900918 8.220484,10.875136 Q 8.293921,10.849355 8.359546,10.779824 Q 8.425171,10.710293 8.603296,10.443105 L 8.937671,9.944668 L 9.490796,9.944668 L 9.211109,10.391543 Q 9.045484,10.65873 8.947827,10.763418 Q 8.850171,10.868105 8.700171,10.955605 Q 9.001734,10.999355 9.153296,11.167324 Q 9.304859,11.335293 9.304859,11.593105 Q 9.304859,11.79623 9.204859,11.954043 Q 9.104859,12.111855 8.938453,12.173574 Q 8.772046,12.235293 8.404859,12.235293 L 7.431421,12.235293 L 7.431421,9.944668 M 7.893921,11.266543 L 7.893921,11.847793 L 8.254859,11.847793 Q 8.536109,11.847793 8.592359,11.83998 C 8.741219,11.815794 8.829436,11.716771 8.828296,11.563418 C 8.829436,11.426569 8.761011,11.331517 8.651734,11.294668 C 8.596525,11.275918 8.457984,11.266543 8.236109,11.266543 L 7.893921,11.266543" />
      <path d="M 4.215796,9.944668 L 4.678296,9.944668 L 4.678296,12.235293 L 4.215796,12.235293 L 4.215796,9.944668" />
      <path d="M 5.123609,9.944668 L 5.553296,9.944668 L 5.553296,11.438418 L 6.476734,9.944668 L 6.940796,9.944668 L 6.940796,12.235293 L 6.511109,12.235293 L 6.511109,10.705605 L 5.573609,12.235293 L 5.123609,12.235293 L 5.123609,9.944668" />
      <path d="M 24.563371,9.944668 L 25.025871,9.944668 L 25.025871,10.900918 L 25.119621,10.900918 Q 25.278996,10.900918 25.352434,10.875136 Q 25.425871,10.849355 25.491496,10.779824 Q 25.557121,10.710293 25.735246,10.443105 L 26.069621,9.944668 L 26.622746,9.944668 L 26.343059,10.391543 Q 26.177434,10.65873 26.079777,10.763418 Q 25.982121,10.868105 25.832121,10.955605 Q 26.133684,10.999355 26.285246,11.167324 Q 26.436809,11.335293 26.436809,11.593105 Q 26.436809,11.79623 26.336809,11.954043 Q 26.236809,12.111855 26.070403,12.173574 Q 25.903996,12.235293 25.536809,12.235293 L 24.563371,12.235293 L 24.563371,9.944668 M 25.025871,11.266543 L 25.025871,11.847793 L 25.386809,11.847793 Q 25.668059,11.847793 25.724309,11.83998 C 25.873169,11.815794 25.961386,11.716771 25.960246,11.563418 C 25.960246,11.494668 25.944621,11.437376 25.913371,11.391543 C 25.882121,11.345709 25.838892,11.313418 25.783684,11.294668 C 25.728475,11.275918 25.589934,11.266543 25.368059,11.266543 L 25.025871,11.266543" />
      <path d="M 20.128996,11.663418 Q 20.024309,11.425918 20.024309,11.075918 Q 20.024309,10.529043 20.325871,10.217324 Q 20.627434,9.905605 21.138371,9.905605 Q 21.643059,9.905605 21.944621,10.218886 Q 22.246184,10.532168 22.246184,11.086855 Q 22.246184,11.64623 21.942278,11.960293 Q 21.638371,12.274355 21.132121,12.274355 Q 20.852434,12.274355 20.638371,12.18373 Q 20.477434,12.116543 20.342277,11.97748 Q 20.207121,11.838418 20.128996,11.663418 M 20.500871,11.091543 Q 20.500871,11.486855 20.675871,11.682949 Q 20.850871,11.879043 21.136809,11.879043 Q 21.422746,11.879043 21.595403,11.685293 Q 21.768059,11.491543 21.768059,11.097793 Q 21.768059,10.699355 21.590715,10.500136 Q 21.413371,10.300918 21.136809,10.300918 Q 20.860246,10.300918 20.680559,10.501699 Q 20.500871,10.70248 20.500871,11.091543" />
      <path d="M 23.122746,9.944668 L 23.585246,9.944668 L 23.585246,11.847793 L 24.263371,11.847793 L 24.263371,12.235293 L 22.443059,12.235293 L 22.443059,11.847793 L 23.122746,11.847793 L 23.122746,9.944668" />
      <path d="M 7.620484,27.21468 L 9.232984,27.21468 L 9.232984,27.600617 L 8.082984,27.600617 L 8.082984,29.486555 L 7.620484,29.486555 L 7.620484,27.21468" />
      <path d="M 4.393921,27.21468 L 4.856421,27.21468 L 4.856421,29.505305 L 4.393921,29.505305 L 4.393921,27.21468" />
      <path d="M 5.301734,27.21468 L 5.731421,27.21468 L 5.731421,28.70843 L 6.654859,27.21468 L 7.118921,27.21468 L 7.118921,29.505305 L 6.689234,29.505305 L 6.689234,27.975617 L 5.751734,29.505305 L 5.301734,29.505305 L 5.301734,27.21468" />
      <path d="M 24.752434,27.21468 L 26.364934,27.21468 L 26.364934,27.600617 L 25.214934,27.600617 L 25.214934,29.486555 L 24.752434,29.486555 L 24.752434,27.21468" />
      <path d="M 20.307121,28.93343 Q 20.202434,28.69593 20.202434,28.34593 Q 20.202434,27.799055 20.503996,27.487336 Q 20.805559,27.175617 21.316496,27.175617 Q 21.821184,27.175617 22.122746,27.488898 Q 22.424309,27.80218 22.424309,28.356867 Q 22.424309,28.916242 22.120403,29.230305 Q 21.816496,29.544367 21.310246,29.544367 Q 21.030559,29.544367 20.816496,29.453742 Q 20.655559,29.386555 20.520402,29.247492 Q 20.385246,29.10843 20.307121,28.93343 M 20.678996,28.361555 Q 20.678996,28.756867 20.853996,28.952961 Q 21.028996,29.149055 21.314934,29.149055 Q 21.600871,29.149055 21.773528,28.955305 Q 21.946184,28.761555 21.946184,28.367805 Q 21.946184,27.969367 21.76884,27.770149 Q 21.591496,27.57093 21.314934,27.57093 Q 21.038371,27.57093 20.858684,27.771711 Q 20.678996,27.972492 20.678996,28.361555" />
      <path d="M 23.300871,27.21468 L 23.763371,27.21468 L 23.763371,29.117805 L 24.441496,29.117805 L 24.441496,29.505305 L 22.621184,29.505305 L 22.621184,29.117805 L 23.300871,29.117805 L 23.300871,27.21468" />
      <path d="M 9.432984,44.484604 L 9.432984,46.784604 L 9.076734,46.784604 Q 9.001734,46.575229 8.800171,46.418197 Q 8.598609,46.261166 8.426734,46.204916 L 8.426734,45.806479 Q 8.753296,45.914291 8.993921,46.139291 L 8.993921,44.484604 L 9.432984,44.484604" />
      <path d="M 5.875171,45.184604 L 5.426734,45.326791 C 5.352092,44.989584 5.162313,44.842644 4.918921,44.840854 C 4.752255,44.840854 4.616838,44.902312 4.512671,45.025229 C 4.408505,45.148145 4.356421,45.354395 4.356421,45.643979 C 4.356421,45.916895 4.409286,46.114291 4.515015,46.236166 C 4.620744,46.358041 4.758505,46.418979 4.928296,46.418979 C 5.051213,46.418979 5.15564,46.384604 5.241578,46.315854 C 5.327515,46.247104 5.384025,46.153354 5.411109,46.034604 L 5.868921,46.143979 Q 5.790796,46.418979 5.634546,46.565854 C 5.459546,46.731479 5.231942,46.814291 4.951734,46.814291 C 4.6309,46.814291 4.372046,46.708823 4.175171,46.497885 C 3.978296,46.286947 3.879859,45.990854 3.879859,45.609604 C 3.879859,45.249187 3.977775,44.965072 4.173609,44.75726 C 4.369442,44.549448 4.619442,44.445541 4.923609,44.445541 C 5.414462,44.446681 5.738485,44.683464 5.875171,45.184604" />
      <path d="M 6.856421,44.484604 L 7.350171,44.484604 L 8.170484,46.775229 L 7.679859,46.775229 L 7.118921,45.079916 L 6.539234,46.775229 L 6.037671,46.775229 L 6.856421,44.484604" />
      <path d="M 26.214152,44.892416 L 25.342277,44.892416 Q 25.376652,44.951791 25.432121,45.014291 Q 25.48759,45.076791 25.695402,45.267416 Q 25.903215,45.458041 25.982902,45.559604 C 26.144296,45.7667 26.213176,45.937924 26.214152,46.147104 C 26.214152,46.328354 26.149569,46.479916 26.020403,46.601791 C 25.891236,46.723666 25.713632,46.784604 25.48759,46.784604 C 25.28134,46.784604 25.109465,46.732 24.971965,46.626791 C 24.834465,46.521583 24.752694,46.348145 24.726653,46.106479 L 25.164153,46.062729 C 25.179517,46.321746 25.294621,46.417774 25.476653,46.420541 C 25.569361,46.420541 25.642017,46.394239 25.694621,46.341635 C 25.747225,46.289031 25.773528,46.21377 25.773528,46.115854 C 25.773527,46.027312 25.743319,45.937729 25.682902,45.847104 Q 25.615715,45.748666 25.31884,45.472104 Q 24.95009,45.129916 24.82509,44.922885 Q 24.70009,44.715854 24.67509,44.484604 L 26.214152,44.484604 L 26.214152,44.892416" />
      <path d="M 22.296965,45.184604 L 21.848527,45.326791 C 21.773886,44.989584 21.584107,44.842644 21.340715,44.840854 C 21.174048,44.840854 21.038632,44.902312 20.934465,45.025229 C 20.830298,45.148145 20.778215,45.354395 20.778215,45.643979 C 20.778215,45.916895 20.83108,46.114291 20.936809,46.236166 C 21.042538,46.358041 21.180298,46.418979 21.35009,46.418979 C 21.473007,46.418979 21.577434,46.384604 21.663371,46.315854 C 21.749309,46.247104 21.805819,46.153354 21.832902,46.034604 L 22.290715,46.143979 Q 22.21259,46.418979 22.05634,46.565854 C 21.88134,46.731479 21.653736,46.814291 21.373527,46.814291 C 21.052694,46.814291 20.79384,46.708822 20.596965,46.497885 C 20.40009,46.286947 20.301653,45.990854 20.301652,45.609604 C 20.301653,45.249187 20.399569,44.965073 20.595402,44.75726 C 20.791236,44.549448 21.041236,44.445541 21.345402,44.445541 C 21.836255,44.446681 22.160279,44.683464 22.296965,45.184604" />
      <path d="M 23.278215,44.484604 L 23.771965,44.484604 L 24.592278,46.775229 L 24.101653,46.775229 L 23.540715,45.079916 L 22.961028,46.775229 L 22.459465,46.775229 L 23.278215,44.484604" />
      <path d="M 10.770484,62.162436 L 9.898609,62.162436 Q 9.932984,62.221811 9.988453,62.284311 Q 10.043921,62.346811 10.251734,62.537436 Q 10.459546,62.728061 10.539234,62.829624 C 10.700627,63.03672 10.769507,63.207944 10.770484,63.417124 C 10.770484,63.598374 10.7059,63.749936 10.576734,63.871811 C 10.447567,63.993686 10.269963,64.054624 10.043921,64.054624 C 9.837671,64.054624 9.665796,64.00202 9.528296,63.896811 C 9.390796,63.791603 9.309025,63.618165 9.282984,63.376499 L 9.720484,63.332749 C 9.735848,63.591766 9.850953,63.687794 10.032984,63.690561 C 10.125692,63.690561 10.198348,63.664259 10.250953,63.611655 C 10.303557,63.559051 10.329859,63.48379 10.329859,63.385874 C 10.329859,63.297332 10.29965,63.207749 10.239234,63.117124 Q 10.172046,63.018686 9.875171,62.742124 Q 9.506421,62.399936 9.381421,62.192905 Q 9.256421,61.985874 9.231421,61.754624 L 10.770484,61.754624 L 10.770484,62.162436" />
      <path d="M 2.806421,61.754624 L 3.268921,61.754624 L 3.268921,62.618686 L 3.570484,62.618686 Q 3.884546,62.618686 4.050171,62.651499 Q 4.172046,62.678061 4.290015,62.760093 Q 4.407984,62.842124 4.484546,62.985874 Q 4.561109,63.129624 4.561109,63.340561 Q 4.561109,63.613999 4.428296,63.786655 Q 4.295484,63.959311 4.098609,64.010874 Q 3.970484,64.045249 3.548609,64.045249 L 2.806421,64.045249 L 2.806421,61.754624 M 3.268921,63.657749 L 3.492359,63.657749 Q 3.742359,63.657749 3.825171,63.642124 Q 3.937671,63.621811 4.011109,63.540561 Q 4.084546,63.459311 4.084546,63.334311 Q 4.084546,63.232749 4.032202,63.156186 Q 3.979859,63.079624 3.887671,63.043686 Q 3.795484,63.007749 3.522046,63.007749 L 3.268921,63.007749 L 3.268921,63.657749" />
      <path d="M 4.951734,63.473374 Q 4.847046,63.235874 4.847046,62.885874 Q 4.847046,62.338999 5.148609,62.02728 Q 5.450171,61.715561 5.961109,61.715561 Q 6.465796,61.715561 6.767359,62.028843 Q 7.068921,62.342124 7.068921,62.896811 Q 7.068921,63.456186 6.765015,63.770249 Q 6.461109,64.084311 5.954859,64.084311 Q 5.675171,64.084311 5.461109,63.993686 Q 5.300171,63.926499 5.165015,63.787436 Q 5.029859,63.648374 4.951734,63.473374 M 5.323609,62.901499 Q 5.323609,63.296811 5.498609,63.492905 Q 5.673609,63.688999 5.959546,63.688999 Q 6.245484,63.688999 6.41814,63.495249 Q 6.590796,63.301499 6.590796,62.907749 Q 6.590796,62.509311 6.413453,62.310093 Q 6.236109,62.110874 5.959546,62.110874 Q 5.682984,62.110874 5.503296,62.311655 Q 5.323609,62.512436 5.323609,62.901499" />
      <path d="M 7.945484,61.754624 L 8.407984,61.754624 L 8.407984,63.657749 L 9.086109,63.657749 L 9.086109,64.045249 L 7.265796,64.045249 L 7.265796,63.657749 L 7.945484,63.657749 L 7.945484,61.754624" />
      <path d="M 26.207121,62.413999 L 25.782121,62.362436 Q 25.814934,62.073374 26.019621,61.894467 Q 26.224309,61.715561 26.535246,61.715561 Q 26.863371,61.715561 27.083684,61.928061 Q 27.303996,62.140561 27.303996,62.442124 Q 27.303996,62.649936 27.186028,62.796811 Q 27.068059,62.943686 26.871184,62.985874 Q 27.200871,63.165561 27.200871,63.467124 Q 27.200871,63.679624 27.039934,63.848374 Q 26.844621,64.054624 26.521184,64.054624 Q 26.332121,64.054624 26.179778,63.98353 Q 26.027434,63.912436 25.942277,63.788218 Q 25.857121,63.663999 25.814934,63.456186 L 26.219621,63.387436 C 26.239445,63.586785 26.361776,63.694337 26.508684,63.693686 C 26.584725,63.693686 26.645663,63.67077 26.691496,63.624936 C 26.73733,63.579103 26.760246,63.517645 26.760246,63.440561 C 26.760246,63.349936 26.728996,63.27728 26.666496,63.222592 C 26.603996,63.167905 26.513371,63.142124 26.394621,63.145249 L 26.346184,62.787436 C 26.424309,62.809311 26.491496,62.820249 26.547746,62.820249 C 26.633163,62.820249 26.705559,62.787957 26.764934,62.723374 C 26.824309,62.65879 26.853996,62.57129 26.853996,62.460874 C 26.853996,62.344207 26.823007,62.251499 26.761027,62.182749 C 26.699048,62.113999 26.622746,62.079624 26.532121,62.079624 C 26.366627,62.078647 26.230949,62.198309 26.207121,62.413999" />
      <path d="M 19.316496,61.754624 L 19.778996,61.754624 L 19.778996,62.618686 L 20.080559,62.618686 Q 20.394621,62.618686 20.560246,62.651499 Q 20.682121,62.678061 20.80009,62.760093 Q 20.918059,62.842124 20.994621,62.985874 Q 21.071184,63.129624 21.071184,63.340561 Q 21.071184,63.613999 20.938371,63.786655 Q 20.805559,63.959311 20.608684,64.010874 Q 20.480559,64.045249 20.058684,64.045249 L 19.316496,64.045249 L 19.316496,61.754624 M 19.778996,63.657749 L 20.002434,63.657749 Q 20.252434,63.657749 20.335246,63.642124 Q 20.447746,63.621811 20.521184,63.540561 Q 20.594621,63.459311 20.594621,63.334311 Q 20.594621,63.232749 20.542277,63.156186 Q 20.489934,63.079624 20.397746,63.043686 Q 20.305559,63.007749 20.032121,63.007749 L 19.778996,63.007749 L 19.778996,63.657749" />
      <path d="M 21.461809,63.473374 Q 21.357121,63.235874 21.357121,62.885874 Q 21.357121,62.338999 21.658684,62.02728 Q 21.960246,61.715561 22.471184,61.715561 Q 22.975871,61.715561 23.277434,62.028843 Q 23.578996,62.342124 23.578996,62.896811 Q 23.578996,63.456186 23.27509,63.770249 Q 22.971184,64.084311 22.464934,64.084311 Q 22.185246,64.084311 21.971184,63.993686 Q 21.810246,63.926499 21.67509,63.787436 Q 21.539934,63.648374 21.461809,63.473374 M 21.833684,62.901499 Q 21.833684,63.296811 22.008684,63.492905 Q 22.183684,63.688999 22.469621,63.688999 Q 22.755559,63.688999 22.928215,63.495249 Q 23.100871,63.301499 23.100871,62.907749 Q 23.100871,62.509311 22.923527,62.310093 Q 22.746184,62.110874 22.469621,62.110874 Q 22.193059,62.110874 22.013371,62.311655 Q 21.833684,62.512436 21.833684,62.901499" />
      <path d="M 24.455559,61.754624 L 24.918059,61.754624 L 24.918059,63.657749 L 25.596184,63.657749 L 25.596184,64.045249 L 23.775871,64.045249 L 23.775871,63.657749 L 24.455559,63.657749 L 24.455559,61.754624" />
      <path d="M 10.49939,79.024549 L 10.49939,81.324549 L 10.14314,81.324549 Q 10.06814,81.115174 9.866578,80.958143 Q 9.665015,80.801111 9.49314,80.744861 L 9.49314,80.346424 Q 9.819703,80.454236 10.060327,80.679236 L 10.060327,79.024549 L 10.49939,79.024549" />
      <path d="M 2.894702,79.024549 L 3.357202,79.024549 L 3.357202,79.888611 L 3.658765,79.888611 Q 3.972827,79.888611 4.138452,79.921424 Q 4.260327,79.947986 4.378296,80.030018 Q 4.496265,80.112049 4.572828,80.255799 Q 4.64939,80.399549 4.64939,80.610486 Q 4.64939,80.883924 4.516578,81.05658 Q 4.383765,81.229236 4.18689,81.280799 Q 4.058765,81.315174 3.63689,81.315174 L 2.894702,81.315174 L 2.894702,79.024549 M 3.357202,80.927674 L 3.58064,80.927674 Q 3.83064,80.927674 3.913453,80.912049 M 3.913452,80.912049 Q 4.025952,80.891736 4.09939,80.810486 Q 4.172828,80.729236 4.172828,80.604236 Q 4.172828,80.502674 4.120484,80.426111 Q 4.06814,80.349549 3.975953,80.313611 Q 3.883765,80.277674 3.610328,80.277674 M 3.610327,80.277674 L 3.357202,80.277674 L 3.357202,80.927674" />
      <path d="M 5.040015,80.743299 Q 4.935327,80.505799 4.935327,80.155799 Q 4.935327,79.608924 5.23689,79.297205 Q 5.538453,78.985486 6.04939,78.985486 Q 6.554078,78.985486 6.85564,79.298768 Q 7.157203,79.612049 7.157202,80.166736 Q 7.157202,80.726111 6.853296,81.040174 Q 6.54939,81.354236 6.04314,81.354236 Q 5.763453,81.354236 5.54939,81.263611 Q 5.388452,81.196424 5.253296,81.057361 Q 5.11814,80.918299 5.040015,80.743299 M 5.41189,80.171424 Q 5.41189,80.566736 5.58689,80.76283 Q 5.76189,80.958924 6.047828,80.958924 Q 6.333765,80.958924 6.506421,80.765174 Q 6.679077,80.571424 6.679078,80.177674 Q 6.679078,79.779236 6.501734,79.580018 Q 6.32439,79.380799 6.047828,79.380799 Q 5.771265,79.380799 5.591578,79.58158 Q 5.41189,79.782361 5.41189,80.171424" />
      <path d="M 8.033765,79.024549 L 8.496265,79.024549 L 8.496265,80.927674 L 9.17439,80.927674 L 9.17439,81.315174 L 7.354077,81.315174 L 7.354077,80.927674 L 8.033765,80.927674 L 8.033765,79.024549" />
      <path d="M 24.477434,79.024549 L 24.907121,79.024549 L 24.907121,80.518299 L 25.830559,79.024549 L 26.294621,79.024549 L 26.294621,81.315174 L 25.864934,81.315174 L 25.864934,79.785486 L 24.927434,81.315174 L 24.477434,81.315174 L 24.477434,79.024549" />
      <path d="M 20.208684,81.315174 L 20.208684,79.024549 L 20.988371,79.024549 Q 21.430559,79.027674 21.546184,79.040174 C 21.792587,79.066362 21.957333,79.188725 22.054778,79.384705 C 22.103215,79.483143 22.127434,79.584445 22.127434,79.688611 C 22.127434,79.820903 22.089934,79.936007 22.014934,80.033924 C 21.939934,80.13184 21.832642,80.201111 21.693059,80.241736 Q 21.841496,80.308924 21.928215,80.443299 Q 22.014934,80.577674 22.014934,80.738611 Q 22.014934,80.887049 21.944621,81.00658 Q 21.874309,81.126111 21.76884,81.197986 Q 21.663371,81.269861 21.529777,81.292518 Q 21.396184,81.315174 21.124309,81.315174 L 20.208684,81.315174 M 20.671184,80.933924 L 20.936809,80.933924 Q 21.263371,80.933924 21.332121,80.926111 C 21.486125,80.908663 21.565097,80.813351 21.564934,80.672986 C 21.566724,80.526209 21.466789,80.429659 21.310246,80.412049 Q 21.244621,80.404236 20.974309,80.404236 L 20.671184,80.404236 L 20.671184,80.933924 M 20.671184,80.022986 L 21.044621,80.022986 C 21.255038,80.022986 21.391757,80.012049 21.454777,79.990174 C 21.517798,79.968299 21.565975,79.933403 21.599309,79.885486 C 21.632642,79.83757 21.649309,79.779236 21.649309,79.710486 C 21.652076,79.548475 21.551229,79.44906 21.416496,79.424549 Q 21.349309,79.410486 21.099309,79.410486 L 20.671184,79.410486 L 20.671184,80.022986" />
      <path d="M 23.033684,79.024549 L 23.496184,79.024549 L 23.496184,80.927674 L 24.174309,80.927674 L 24.174309,81.315174 L 22.353996,81.315174 L 22.353996,80.927674 L 23.033684,80.927674 L 23.033684,79.024549" />
    </g>
    <g fill="none" stroke="rgb(0,0,0)" stroke-width="0.09" id="secondary">
      <path d="M 7.142676,7.308022 L 7.343653,7.308022 L 7.483106,7.975552 L 7.716895,7.975552 Q 7.836866,7.975552 7.890186,7.951455 Q 7.943506,7.927358 7.994776,7.850454 Q 8.069629,7.739712 8.128077,7.587954 L 8.235743,7.308022 L 8.460303,7.308022 L 8.345459,7.59103 Q 8.288037,7.732534 8.193702,7.864809 Q 8.151661,7.923257 8.069629,7.983755 Q 8.337256,8.019643 8.457227,8.140639 Q 8.577198,8.261636 8.577198,8.44518 Q 8.577198,8.57643 8.522339,8.662563 Q 8.467481,8.748696 8.371094,8.77997 Q 8.274707,8.811245 8.088086,8.811245 L 7.457471,8.811245 L 7.142676,7.308022 M 7.516944,8.138589 L 7.623584,8.646157 L 8.113721,8.646157 C 8.190967,8.646157 8.245655,8.640346 8.277784,8.628725 C 8.309912,8.617104 8.335889,8.595058 8.355713,8.562588 C 8.375537,8.530117 8.38545,8.492007 8.38545,8.448257 C 8.38545,8.396303 8.372119,8.347768 8.345459,8.302651 C 8.291284,8.212524 8.198658,8.158648 8.046045,8.143716 Q 7.987598,8.138589 7.794825,8.138589 L 7.516944,8.138589" />
      <path d="M 5.064209,7.308022 L 5.265186,7.308022 L 5.578955,8.811245 L 5.379004,8.811245 L 5.064209,7.308022" />
      <path d="M 5.630225,7.308022 L 5.826075,7.308022 L 6.016797,8.221645 Q 6.060889,8.434927 6.07627,8.581557 Q 6.131641,8.406216 6.231104,8.176528 L 6.604346,7.308022 L 6.803272,7.308022 L 7.117041,8.811245 L 6.921192,8.811245 L 6.736621,7.927358 Q 6.69458,7.725356 6.666895,7.535659 Q 6.615625,7.709975 6.576661,7.812514 Q 6.508985,7.988882 6.393116,8.24728 L 6.139844,8.811245 L 5.94502,8.811245 L 5.630225,7.308022" />
      <path d="M 24.060857,7.308022 L 24.261833,7.308022 L 24.401286,7.975552 L 24.635075,7.975552 Q 24.755046,7.975552 24.808366,7.951455 Q 24.861687,7.927358 24.912956,7.850454 Q 24.98781,7.739712 25.046257,7.587954 L 25.153923,7.308022 L 25.378484,7.308022 L 25.26364,7.59103 Q 25.206218,7.732534 25.111882,7.864809 Q 25.069841,7.923257 24.98781,7.983755 Q 25.255437,8.019643 25.375407,8.140639 Q 25.495378,8.261636 25.495378,8.44518 Q 25.495378,8.57643 25.44052,8.662563 Q 25.385661,8.748696 25.289275,8.77997 Q 25.192888,8.811245 25.006267,8.811245 L 24.375652,8.811245 L 24.060857,7.308022 M 24.435124,8.138589 L 24.541765,8.646157 L 25.031902,8.646157 C 25.109148,8.646157 25.163835,8.640346 25.195964,8.628725 C 25.259047,8.606979 25.304805,8.534261 25.30363,8.448257 C 25.30363,8.396303 25.2903,8.347768 25.26364,8.302651 C 25.209465,8.212524 25.116838,8.158648 24.964226,8.143716 Q 24.905778,8.138589 24.713005,8.138589 L 24.435124,8.138589" />
      <path d="M 22.579167,7.756118 Q 22.668376,7.943764 22.668376,8.163198 Q 22.668376,8.470815 22.491496,8.653847 Q 22.314616,8.83688 22.033659,8.83688 Q 21.702458,8.83688 21.470207,8.588222 Q 21.237956,8.339565 21.237956,7.937612 Q 21.237956,7.763296 21.314348,7.608974 Q 21.390739,7.454653 21.538908,7.36852 Q 21.687077,7.282387 21.867546,7.282387 Q 22.039812,7.282387 22.19362,7.356216 C 22.345976,7.429189 22.492436,7.569668 22.579167,7.756118 M 21.435857,7.927358 C 21.435857,8.153628 21.496013,8.333926 21.616325,8.468252 C 21.736638,8.602578 21.875407,8.669741 22.032634,8.669741 C 22.155681,8.669741 22.259074,8.625307 22.342815,8.53644 C 22.426555,8.447573 22.468425,8.328286 22.468425,8.178579 C 22.468425,8.086294 22.452531,7.99247 22.420744,7.897109 C 22.388957,7.801748 22.345549,7.721426 22.29052,7.656142 C 22.181583,7.526804 22.036298,7.447272 21.882927,7.448501 C 21.802946,7.448501 21.726726,7.46935 21.654265,7.51105 C 21.581804,7.552749 21.527287,7.610512 21.490715,7.684341 C 21.454143,7.758169 21.435857,7.839175 21.435857,7.927358" />
      <path d="M 23.156462,7.308022 L 23.357439,7.308022 L 23.635319,8.640005 L 24.124431,8.640005 L 24.160319,8.811245 L 22.977019,8.811245 L 22.94113,8.640005 L 23.434343,8.640005 L 23.156462,7.308022" />
      <path d="M 7.302637,24.578034 L 8.283936,24.578034 L 8.319825,24.748249 L 7.539502,24.748249 L 7.817383,26.081257 L 7.616407,26.081257 L 7.302637,24.578034" />
      <path d="M 5.238526,24.578034 L 5.439502,24.578034 L 5.753272,26.081257 L 5.553321,26.081257 L 5.238526,24.578034" />
      <path d="M 5.804541,24.578034 L 6.000391,24.578034 L 6.191114,25.491657 Q 6.235205,25.704939 6.250586,25.851569 Q 6.305957,25.676228 6.40542,25.44654 L 6.778662,24.578034 L 6.977588,24.578034 L 7.291358,26.081257 L 7.095508,26.081257 L 6.910938,25.19737 Q 6.868897,24.995368 6.841211,24.805671 Q 6.789942,24.979987 6.750977,25.082526 Q 6.683301,25.258894 6.567432,25.517292 L 6.314161,26.081257 L 6.119336,26.081257 L 5.804541,24.578034" />
      <path d="M 24.220818,24.578034 L 25.202116,24.578034 L 25.238005,24.748249 L 24.457683,24.748249 L 24.735564,26.081257 L 24.534587,26.081257 L 24.220818,24.578034" />
      <path d="M 22.753484,25.02613 Q 22.842693,25.213776 22.842693,25.43321 Q 22.842693,25.740827 22.665813,25.923859 Q 22.488933,26.106892 22.207976,26.106892 Q 21.876775,26.106892 21.644524,25.858234 Q 21.412273,25.609577 21.412273,25.207624 Q 21.412273,25.033308 21.488664,24.878986 Q 21.565056,24.724665 21.713225,24.638532 Q 21.861394,24.552399 22.041862,24.552399 Q 22.214128,24.552399 22.367937,24.626228 C 22.520292,24.699201 22.666753,24.83968 22.753484,25.02613 M 21.610173,25.19737 C 21.610173,25.42364 21.670329,25.603938 21.790642,25.738264 C 21.910954,25.87259 22.049724,25.939753 22.20695,25.939753 C 22.329997,25.939753 22.433391,25.895319 22.517131,25.806452 C 22.600871,25.717585 22.642741,25.598298 22.642741,25.448591 C 22.642741,25.356306 22.626848,25.262482 22.595061,25.167121 C 22.563274,25.07176 22.519865,24.991438 22.464836,24.926154 C 22.355899,24.796816 22.210614,24.717284 22.057243,24.718513 C 21.977263,24.718513 21.901042,24.739362 21.828581,24.781062 C 21.75612,24.822761 21.701604,24.880524 21.665031,24.954353 C 21.628459,25.028181 21.610173,25.109187 21.610173,25.19737" />
      <path d="M 23.330778,24.578034 L 23.531755,24.578034 L 23.809636,25.910017 L 24.298747,25.910017 L 24.334636,26.081257 L 23.151335,26.081257 L 23.115446,25.910017 L 23.608659,25.910017 L 23.330778,24.578034" />
      <path d="M 8.21062,41.847958 L 8.397242,41.847958 L 8.712036,43.357333 L 8.60437,43.357333 Q 8.567456,43.298886 8.526441,43.25787 Q 8.458765,43.19122 8.323926,43.102011 Q 8.189087,43.012802 8.05066,42.957431 L 8.015796,42.789267 Q 8.294702,42.86207 8.448511,42.983066 L 8.21062,41.847958" />
      <path d="M 6.25315,42.349374 L 6.054224,42.37706 Q 5.996802,42.191464 5.870679,42.08995 Q 5.744556,41.988437 5.588697,41.988437 Q 5.406177,41.988437 5.292359,42.110458 Q 5.17854,42.23248 5.17854,42.464218 Q 5.17854,42.754404 5.326197,42.965634 C 5.439673,43.129013 5.588355,43.210702 5.772242,43.210702 C 5.966788,43.210489 6.095517,43.104275 6.134204,42.886679 L 6.321851,42.904111 Q 6.298267,43.120468 6.150098,43.248642 Q 6.001929,43.376816 5.763013,43.376816 Q 5.440015,43.376816 5.222632,43.13995 Q 4.978589,42.874374 4.978589,42.46832 Q 4.978589,42.156601 5.139063,41.989462 Q 5.299536,41.822323 5.573316,41.822323 Q 5.797876,41.822323 5.978345,41.955624 Q 6.158814,42.088925 6.25315,42.349374" />
      <path d="M 6.854029,41.847958 L 7.069361,41.847958 L 7.893775,43.351181 L 7.686646,43.351181 L 7.150367,42.366806 Q 7.089869,42.254013 6.995533,42.061239 Q 6.981177,42.210947 6.932984,42.454989 L 6.758667,43.351181 L 6.564869,43.351181 L 6.854029,41.847958" />
      <path d="M 24.260295,41.847958 L 25.156486,41.847958 L 25.192375,42.018173 L 24.519719,42.018173 Q 24.553557,42.079697 24.62072,42.149423 Q 24.687883,42.21915 24.825285,42.327841 Q 25.145207,42.581113 25.210832,42.667245 Q 25.317473,42.805673 25.317473,42.95538 Q 25.317473,43.057919 25.265178,43.154306 Q 25.212883,43.250693 25.108806,43.304013 Q 25.004729,43.357333 24.876555,43.357333 Q 24.684807,43.357333 24.55612,43.241977 Q 24.427434,43.12662 24.400774,42.926669 L 24.582268,42.900009 C 24.625462,43.117627 24.740733,43.207049 24.879631,43.208652 C 24.950725,43.208652 25.01071,43.184555 25.059587,43.136362 C 25.108464,43.088168 25.132902,43.02955 25.132903,42.960507 C 25.132902,42.919491 25.125041,42.881552 25.109319,42.846689 Q 25.074455,42.769784 24.997551,42.689804 Q 24.944231,42.634433 24.798625,42.518564 Q 24.558684,42.326816 24.474602,42.245297 Q 24.39052,42.163779 24.339763,42.073031 Q 24.289006,41.982284 24.260295,41.847958" />
      <path d="M 22.685295,42.349374 L 22.486369,42.37706 Q 22.428947,42.191464 22.302824,42.08995 Q 22.176701,41.988437 22.020842,41.988437 Q 21.838322,41.988437 21.724504,42.110458 Q 21.610686,42.23248 21.610686,42.464218 Q 21.610686,42.754404 21.758342,42.965634 C 21.871819,43.129013 22.0205,43.210702 22.204387,43.210702 C 22.398933,43.210489 22.527663,43.104275 22.56635,42.886679 L 22.753996,42.904111 Q 22.730412,43.120468 22.582243,43.248642 Q 22.434074,43.376816 22.195158,43.376816 Q 21.87216,43.376816 21.654778,43.13995 Q 21.410735,42.874374 21.410735,42.46832 Q 21.410735,42.156601 21.571208,41.989462 Q 21.731682,41.822323 22.005461,41.822323 Q 22.230022,41.822323 22.41049,41.955624 Q 22.590959,42.088925 22.685295,42.349374" />
      <path d="M 23.286174,41.847958 L 23.501506,41.847958 L 24.32592,43.351181 L 24.118791,43.351181 L 23.582512,42.366806 Q 23.522014,42.254013 23.427678,42.061239 Q 23.413322,42.210947 23.365129,42.454989 L 23.190813,43.351181 L 22.997014,43.351181 L 23.286174,41.847958" />
      <path d="M 8.450049,59.117978 L 9.346241,59.117978 L 9.382129,59.288193 L 8.709473,59.288193 Q 8.743311,59.349717 8.810474,59.419443 Q 8.877637,59.48917 9.015039,59.597861 Q 9.334961,59.851133 9.400586,59.937265 Q 9.507227,60.075693 9.507227,60.2254 Q 9.507227,60.327939 9.454932,60.424326 Q 9.402637,60.520713 9.29856,60.574033 Q 9.194483,60.627353 9.066309,60.627353 Q 8.874561,60.627353 8.745874,60.511997 Q 8.617188,60.39664 8.590528,60.196689 L 8.772022,60.170029 C 8.815216,60.387647 8.930488,60.477069 9.069385,60.478672 C 9.140479,60.478672 9.200464,60.454575 9.249341,60.406382 C 9.298218,60.358188 9.322657,60.29957 9.322657,60.230527 C 9.322657,60.189511 9.314795,60.151572 9.299073,60.116709 Q 9.264209,60.039804 9.187305,59.959824 Q 9.133985,59.904453 8.988379,59.788584 Q 8.748438,59.596836 8.664356,59.515317 Q 8.580274,59.433799 8.529517,59.343051 Q 8.47876,59.252304 8.450049,59.117978" />
      <path d="M 4.100342,59.117978 L 4.301319,59.117978 L 4.428467,59.728086 L 4.804786,59.728086 Q 4.952442,59.728086 5.097022,59.761924 C 5.187951,59.783927 5.263637,59.818534 5.341578,59.903427 C 5.380201,59.945127 5.412159,59.998105 5.437452,60.062363 C 5.462744,60.126621 5.475391,60.189853 5.475391,60.25206 C 5.475391,60.327256 5.457618,60.395102 5.422071,60.4556 C 5.386524,60.516098 5.341578,60.558823 5.287232,60.583774 C 5.232886,60.608725 5.151368,60.621201 5.042676,60.621201 L 4.415137,60.621201 L 4.100342,59.117978 M 4.464356,59.898301 L 4.58125,60.458164 L 4.966797,60.458164 Q 5.115479,60.458164 5.167774,60.436118 Q 5.220069,60.414072 5.24878,60.367417 Q 5.277491,60.320761 5.277491,60.246933 Q 5.277491,60.151572 5.223145,60.066465 Q 5.168799,59.981357 5.078565,59.939829 Q 4.98833,59.898301 4.795557,59.898301 L 4.464356,59.898301" />
      <path d="M 6.94375,59.566074 Q 7.032959,59.75372 7.032959,59.973154 Q 7.032959,60.280771 6.856079,60.463803 Q 6.6792,60.646836 6.398243,60.646836 Q 6.067041,60.646836 5.83479,60.398178 Q 5.602539,60.149521 5.602539,59.747568 Q 5.602539,59.573252 5.678931,59.41893 Q 5.755323,59.264609 5.903492,59.178476 Q 6.051661,59.092343 6.232129,59.092343 Q 6.404395,59.092343 6.558203,59.166172 C 6.710559,59.239145 6.85702,59.379624 6.94375,59.566074 M 5.80044,59.737314 C 5.80044,59.963584 5.860596,60.143882 5.980909,60.278208 C 6.101221,60.412534 6.239991,60.479697 6.397217,60.479697 C 6.520264,60.479697 6.623658,60.435263 6.707398,60.346396 C 6.791138,60.257529 6.833008,60.138242 6.833008,59.988535 C 6.833008,59.89625 6.817115,59.802426 6.785327,59.707065 C 6.75354,59.611704 6.710132,59.531382 6.655103,59.466098 C 6.546166,59.33676 6.400881,59.257228 6.24751,59.258457 C 6.16753,59.258457 6.091309,59.279306 6.018848,59.321006 C 5.874033,59.401627 5.800333,59.563724 5.80044,59.737314" />
      <path d="M 7.521045,59.117978 L 7.722022,59.117978 L 7.999903,60.449961 L 8.489014,60.449961 L 8.524903,60.621201 L 7.341602,60.621201 L 7.305713,60.449961 L 7.798926,60.449961 L 7.521045,59.117978" />
      <path d="M 25.13239,59.534287 L 24.951921,59.511728 Q 24.966277,59.321006 25.091887,59.206675 Q 25.217497,59.092343 25.42155,59.092343 Q 25.631755,59.092343 25.783,59.240512 Q 25.934245,59.388681 25.934245,59.590683 Q 25.934758,59.781406 25.758903,59.885996 Q 26.007048,60.00289 26.007048,60.240781 Q 26.007048,60.403818 25.892717,60.515586 Q 25.778386,60.627353 25.593816,60.627353 Q 25.418474,60.627353 25.2903,60.52584 Q 25.162126,60.424326 25.117009,60.23873 L 25.299528,60.201816 C 25.314568,60.29 25.348576,60.358188 25.401555,60.406382 C 25.454533,60.454575 25.514177,60.478672 25.580486,60.478672 C 25.648161,60.478672 25.705412,60.455088 25.752238,60.40792 C 25.799065,60.360752 25.822478,60.302646 25.822478,60.233603 C 25.822478,60.158408 25.793938,60.095005 25.736858,60.043393 C 25.670766,59.98512 25.572789,59.955841 25.441032,59.970078 L 25.409245,59.815244 C 25.439323,59.817978 25.459148,59.819345 25.468718,59.819345 C 25.5528,59.819345 25.619792,59.795249 25.669694,59.747055 C 25.719597,59.698862 25.744548,59.637851 25.744548,59.564023 C 25.744548,59.479258 25.711223,59.404062 25.644572,59.338437 C 25.577922,59.272812 25.498796,59.24 25.407194,59.24 C 25.256078,59.242243 25.159093,59.321497 25.13239,59.534287" />
      <path d="M 20.610417,59.117978 L 20.811394,59.117978 L 20.938542,59.728086 L 21.314861,59.728086 Q 21.462517,59.728086 21.607097,59.761924 C 21.698026,59.783927 21.773712,59.818534 21.851653,59.903427 C 21.890276,59.945127 21.922234,59.998105 21.947527,60.062363 C 21.972819,60.126621 21.985466,60.189853 21.985466,60.25206 C 21.985466,60.327256 21.967693,60.395102 21.932146,60.4556 C 21.896599,60.516098 21.851653,60.558823 21.797307,60.583774 C 21.742961,60.608725 21.661443,60.621201 21.552751,60.621201 L 20.925212,60.621201 L 20.610417,59.117978 M 20.974431,59.898301 L 21.091325,60.458164 L 21.476872,60.458164 Q 21.625554,60.458164 21.677849,60.436118 Q 21.730144,60.414072 21.758855,60.367417 Q 21.787566,60.320761 21.787566,60.246933 Q 21.787566,60.151572 21.73322,60.066465 Q 21.678874,59.981357 21.58864,59.939829 Q 21.498405,59.898301 21.305632,59.898301 L 20.974431,59.898301" />
      <path d="M 23.453825,59.566074 Q 23.543034,59.75372 23.543034,59.973154 Q 23.543034,60.280771 23.366154,60.463803 Q 23.189275,60.646836 22.908318,60.646836 Q 22.577116,60.646836 22.344865,60.398178 Q 22.112614,60.149521 22.112614,59.747568 Q 22.112614,59.573252 22.189006,59.41893 Q 22.265398,59.264609 22.413567,59.178476 Q 22.561736,59.092343 22.742204,59.092343 Q 22.91447,59.092343 23.068278,59.166172 C 23.220634,59.239145 23.367095,59.379624 23.453825,59.566074 M 22.310515,59.737314 C 22.310515,59.963584 22.370671,60.143882 22.490984,60.278208 C 22.611296,60.412534 22.750066,60.479697 22.907292,60.479697 C 23.030339,60.479697 23.133733,60.435263 23.217473,60.346396 C 23.301213,60.257529 23.343083,60.138242 23.343083,59.988535 C 23.343083,59.89625 23.32719,59.802426 23.295403,59.707065 C 23.263615,59.611704 23.220207,59.531382 23.165178,59.466098 C 23.056241,59.33676 22.910956,59.257228 22.757585,59.258457 C 22.677605,59.258457 22.601384,59.279306 22.528923,59.321006 C 22.384108,59.401627 22.310408,59.563724 22.310515,59.737314" />
      <path d="M 24.03112,59.117978 L 24.232097,59.117978 L 24.509978,60.449961 L 24.999089,60.449961 L 25.034978,60.621201 L 23.851677,60.621201 L 23.815788,60.449961 L 24.309001,60.449961 L 24.03112,59.117978" />
      <path d="M 8.91045,76.387903 L 9.097071,76.387903 L 9.411866,77.897278 L 9.3042,77.897278 Q 9.267286,77.838831 9.22627,77.797815 Q 9.158594,77.731165 9.023755,77.641956 Q 8.888916,77.552747 8.750489,77.497376 L 8.715625,77.329212 Q 8.994532,77.402015 9.14834,77.523011 L 8.91045,76.387903" />
      <path d="M 4.178272,76.387903 L 4.379248,76.387903 L 4.506397,76.998011 L 4.882715,76.998011 Q 5.030371,76.998011 5.174952,77.031849 C 5.26588,77.053852 5.341567,77.088459 5.419507,77.173352 C 5.45813,77.215052 5.490088,77.26803 5.515381,77.332288 C 5.540674,77.396546 5.553321,77.459778 5.553321,77.521985 C 5.553321,77.597181 5.535547,77.665027 5.5,77.725525 C 5.464453,77.786023 5.419507,77.828748 5.365161,77.853699 C 5.310816,77.87865 5.229297,77.891126 5.120606,77.891126 L 4.493067,77.891126 L 4.178272,76.387903 M 4.542286,77.168226 L 4.65918,77.728089 L 5.044727,77.728089 Q 5.193409,77.728089 5.245703,77.706043 Q 5.297998,77.683997 5.326709,77.637342 Q 5.35542,77.590686 5.35542,77.516858 Q 5.35542,77.421497 5.301075,77.33639 Q 5.246729,77.251282 5.156494,77.209754 Q 5.06626,77.168226 4.873487,77.168226 L 4.542286,77.168226" />
      <path d="M 7.02168,76.835999 Q 7.110889,77.023645 7.110889,77.243079 Q 7.110889,77.550696 6.934009,77.733728 Q 6.757129,77.916761 6.476172,77.916761 Q 6.144971,77.916761 5.91272,77.668103 Q 5.680469,77.419446 5.680469,77.017493 Q 5.680469,76.843177 5.756861,76.688855 Q 5.833252,76.534534 5.981421,76.448401 Q 6.12959,76.362268 6.310059,76.362268 Q 6.482325,76.362268 6.636133,76.436097 C 6.788489,76.50907 6.934949,76.649549 7.02168,76.835999 M 5.878369,77.007239 C 5.878369,77.233509 5.938526,77.413807 6.058838,77.548133 C 6.179151,77.682459 6.31792,77.749622 6.475147,77.749622 C 6.598194,77.749622 6.701587,77.705188 6.785328,77.616321 C 6.869068,77.527454 6.910938,77.408167 6.910938,77.25846 C 6.910938,77.166175 6.895044,77.072351 6.863257,76.97699 C 6.83147,76.881629 6.788062,76.801307 6.733033,76.736023 C 6.624096,76.606685 6.47881,76.527153 6.32544,76.528382 C 6.245459,76.528382 6.169239,76.549231 6.096778,76.590931 C 5.951963,76.671552 5.878263,76.833649 5.878369,77.007239" />
      <path d="M 7.598975,76.387903 L 7.799952,76.387903 L 8.077832,77.719886 L 8.566944,77.719886 L 8.602832,77.891126 L 7.419532,77.891126 L 7.383643,77.719886 L 7.876856,77.719886 L 7.598975,76.387903" />
      <path d="M 23.948576,76.387903 L 24.144426,76.387903 L 24.335149,77.301526 Q 24.37924,77.514808 24.394621,77.661438 Q 24.449992,77.486097 24.549455,77.256409 L 24.922697,76.387903 L 25.121623,76.387903 L 25.435393,77.891126 L 25.239543,77.891126 L 25.054973,77.007239 Q 25.012932,76.805237 24.985246,76.61554 Q 24.933977,76.789856 24.895012,76.892395 Q 24.827336,77.068763 24.711467,77.327161 L 24.458195,77.891126 L 24.263371,77.891126 L 23.948576,76.387903" />
      <path d="M 21.25385,76.387903 L 21.981877,76.387903 C 22.172674,76.386835 22.339493,76.475104 22.432536,76.625794 C 22.480046,76.701673 22.503801,76.78097 22.503801,76.863684 C 22.503694,77.005851 22.423585,77.120395 22.260783,77.172327 C 22.448515,77.23635 22.537212,77.370463 22.537639,77.53429 C 22.538333,77.654314 22.484137,77.763411 22.392546,77.819861 C 22.346403,77.848914 22.289836,77.869251 22.222844,77.880872 Q 22.16132,77.891126 22.034172,77.891126 L 21.568645,77.891126 L 21.25385,76.387903 M 21.635295,77.249231 L 21.733733,77.719886 L 22.053654,77.719886 C 22.145256,77.719886 22.207634,77.712879 22.240788,77.698865 C 22.273943,77.684851 22.300432,77.662464 22.320256,77.631702 C 22.34008,77.60094 22.349992,77.564368 22.349992,77.521985 C 22.347215,77.344892 22.233824,77.24859 21.939836,77.249231 L 21.635295,77.249231 M 21.490715,76.558118 L 21.599406,77.077991 L 21.980852,77.077991 C 22.104582,77.077991 22.188493,77.059705 22.232585,77.023133 C 22.276677,76.98656 22.298723,76.933069 22.298723,76.862659 C 22.299577,76.770299 22.250017,76.673891 22.171574,76.62323 C 22.131926,76.596912 22.080315,76.578284 22.01674,76.567347 Q 21.969572,76.558118 21.833195,76.558118 L 21.490715,76.558118" />
      <path d="M 23.04008,76.387903 L 23.241057,76.387903 L 23.518938,77.719886 L 24.008049,77.719886 L 24.043938,77.891126 L 22.860637,77.891126 L 22.824748,77.719886 L 23.317961,77.719886 L 23.04008,76.387903" />
    </g>
    <g fill="none" stroke="rgb(0,0,0)" stroke-width="0.09" id="calibration">
      <path d="M 36.00248,16.0 L 36.00248,6.0 L 46.00248,6.0 L 46.00248,16.0 L 36.00248,16.0" />
    </g>
  </g>
</svg>