<?xml version='1.0' encoding='utf-8'?>
<svg width="76.98mm" height="138.68mm" viewBox="-5.09 -133.59 76.98 138.68" version="1.1" xmlns="http://www.w3.org/2000/svg">
  <g transform="scale(1,-1)" stroke-linecap="round">
    <g fill="none" stroke="rgb(0,0,0)" stroke-width="0.09" id="outline">
      <path d="M 0.0,128.5 L 0.0,0.0 L 50.8,0.0 L 50.8,128.5 L 0.0,128.5" />
    </g>
    <g fill="none" stroke="rgb(0,0,0)" stroke-width="0.09" id="cutouts">
      <path d="M 24.14,46.295 L 24.14,33.493 L 27.348,33.493 L 27.348,46.295 L 24.14,46.295" />
      <circle cx="7.149999" cy="111.900001" r="3.1" />
      <circle cx="19.316694" cy="111.900001" r="3.1" />
      <circle cx="31.483297" cy="111.900001" r="3.1" />
      <circle cx="43.65" cy="111.900001" r="3.1" />
      <circle cx="7.149999" cy="98.311904" r="3.1" />
      <circle cx="19.316694" cy="98.311904" r="3.1" />
      <circle cx="31.483297" cy="98.311904" r="3.1" />
      <circle cx="43.65" cy="98.311904" r="3.1" />
      <circle cx="7.149999" cy="84.561952" r="3.1" />
      <circle cx="19.316694" cy="84.561903" r="3.1" />
      <circle cx="31.483297" cy="84.561903" r="3.1" />
      <circle cx="43.65" cy="84.561903" r="3.1" />
      <circle cx="25.502894" cy="61.956597" r="3.1" />
      <circle cx="8.649995" cy="59.288225" r="3.1" />
      <circle cx="42.155087" cy="59.288206" r="3.1" />
      <circle cx="11.1755" cy="42.027311" r="3.6" />
      <circle cx="39.649996" cy="42.027311" r="3.6" />
      <circle cx="11.1755" cy="22.904289" r="3.6" />
      <circle cx="39.649996" cy="22.904289" r="3.6" />
      <circle cx="25.399999" cy="19.252005" r="1.6" />
      <path d="M 44.1,124.0 A 1.5,1.5 180.0 0,1 44.1,127.0 L 42.1,127.0 A 1.5,1.5 0.0 0,1 42.1,124.0 L 44.1,124.0" />
      <path d="M 8.5,1.5 A 1.5,1.5 180.0 0,1 8.5,4.5 L 6.5,4.5 A 1.5,1.5 0.0 0,1 6.5,1.5 L 8.5,1.5" />
    </g>
    <g fill="none" stroke="rgb(0,0,0)" stroke-width="0.09" id="labels">
      <path d="M 19.555713,5.23002 L 19.309424,5.23002 Q 19.091064,4.898672 18.99585,4.558438 Q 18.912061,4.25502 18.912061,3.989688 Q 18.912061,3.674844 19.018066,3.368887 Q 19.124072,3.06293 19.315771,2.78998 L 19.558252,2.78998 C 19.442301,3.046426 19.362744,3.264574 19.31958,3.444424 C 19.276416,3.624274 19.254834,3.814915 19.254834,4.016348 C 19.254966,4.216775 19.277976,4.393134 19.327197,4.60541 C 19.351742,4.710358 19.378402,4.803034 19.407178,4.883437 C 19.435954,4.963841 19.485465,5.079368 19.555713,5.23002" />
      <path d="M 31.887939,3.334609 L 31.887939,5.195742 L 31.531201,5.195742 L 31.531201,4.516543 C 31.464339,4.588483 31.400651,4.639264 31.340137,4.668887 C 31.279622,4.698509 31.212126,4.71332 31.137646,4.71332 C 30.981071,4.71332 30.84777,4.650902 30.737744,4.526064 C 30.627718,4.401227 30.572705,4.226243 30.572705,4.001113 C 30.572705,3.781908 30.627295,3.610944 30.736475,3.488223 C 30.845654,3.365501 30.978532,3.304141 31.135107,3.304141 C 31.312286,3.301496 31.471242,3.399885 31.555322,3.532656 L 31.555322,3.334609 L 31.887939,3.334609 M 31.53501,3.985879 Q 31.53501,3.787832 31.448682,3.686904 Q 31.362354,3.585977 31.231592,3.585977 Q 31.105908,3.585977 31.02085,3.688809 Q 30.935791,3.791641 30.935791,4.003652 Q 30.935791,4.230898 31.018311,4.330557 Q 31.10083,4.430215 31.225244,4.430215 Q 31.354736,4.430215 31.444873,4.32167 Q 31.53501,4.213125 31.53501,3.985879" />
      <path d="M 30.346729,3.687539 L 30.022998,3.745937 C 29.976739,3.618693 29.917336,3.579074 29.788135,3.57709 C 29.694189,3.57709 29.63029,3.591689 29.596436,3.620889 C 29.562581,3.650088 29.545654,3.698965 29.545654,3.76752 L 29.545654,3.803066 Q 29.642139,3.843691 29.892236,3.890664 Q 30.077588,3.926211 30.175977,3.973818 Q 30.274365,4.021426 30.328955,4.110928 Q 30.383545,4.20043 30.383545,4.314687 Q 30.383545,4.487344 30.263574,4.600332 Q 30.143604,4.71332 29.9354,4.71332 Q 29.699902,4.71332 29.517725,4.535586 Q 29.513916,4.545742 29.505029,4.57748 Q 29.484717,4.647305 29.470752,4.682852 L 29.117822,4.682852 Q 29.164795,4.586367 29.181934,4.501943 Q 29.199072,4.41752 29.199072,4.239785 L 29.195264,3.823379 Q 29.195264,3.591055 29.242871,3.504092 Q 29.290479,3.417129 29.407275,3.360635 Q 29.524072,3.304141 29.762744,3.304141 Q 30.025537,3.304141 30.158838,3.398086 Q 30.292139,3.492031 30.346729,3.687539 M 29.545654,4.035391 L 29.545654,4.106484 Q 29.545654,4.234707 29.559619,4.28041 Q 29.579932,4.350234 29.644678,4.398477 Q 29.732275,4.461953 29.82876,4.461953 Q 29.915088,4.461953 29.970947,4.407363 Q 30.026807,4.352773 30.026807,4.277871 Q 30.026807,4.201699 29.956982,4.152187 Q 29.911279,4.121719 29.762744,4.08998 Q 29.614209,4.058242 29.545654,4.035391" />
      <path d="M 28.225342,3.334609 L 28.469092,3.334609 L 28.469092,2.858535 L 28.8271,3.066738 L 28.8271,3.334609 L 28.990869,3.334609 L 28.990869,3.618984 L 28.8271,3.618984 L 28.8271,4.206777 Q 28.8271,4.395937 28.815674,4.458145 C 28.79507,4.576727 28.757143,4.635998 28.651904,4.680947 C 28.600277,4.702529 28.542301,4.71332 28.477979,4.71332 C 28.373031,4.71332 28.279085,4.695547 28.196143,4.66 L 28.226611,4.383242 C 28.336736,4.422478 28.390422,4.428103 28.430371,4.399746 C 28.446875,4.387897 28.457454,4.372874 28.462109,4.354678 C 28.466764,4.336481 28.469092,4.27237 28.469092,4.162344 L 28.469092,3.618984 L 28.225342,3.618984 L 28.225342,3.334609" />
      <path d="M 27.153857,3.796719 L 26.802197,3.733242 C 26.888816,3.44326 27.072316,3.30467 27.402686,3.304141 C 27.603271,3.304141 27.762386,3.366136 27.880029,3.490127 C 27.997673,3.614118 28.056494,3.787409 28.056494,4.01 C 28.056494,4.230052 27.997884,4.402285 27.880664,4.526699 C 27.763444,4.651113 27.606234,4.71332 27.409033,4.71332 C 27.061499,4.713849 26.857739,4.546906 26.784424,4.22582 L 27.134814,4.166152 C 27.170229,4.356688 27.257245,4.419953 27.392529,4.422598 C 27.483089,4.422598 27.555241,4.38959 27.608984,4.323574 C 27.662728,4.257559 27.6896,4.14457 27.6896,3.984609 C 27.6896,3.840729 27.663151,3.738109 27.610254,3.676748 C 27.557357,3.615387 27.486475,3.584707 27.397607,3.584707 C 27.264677,3.584575 27.176762,3.656356 27.153857,3.796719" />
      <path d="M 26.176318,2.821719 L 26.533057,2.821719 L 26.533057,4.682852 L 26.176318,4.682852 L 26.176318,4.007461 C 26.176318,3.894049 26.165527,3.808356 26.143945,3.750381 C 26.102699,3.634364 25.999629,3.577156 25.883057,3.57709 C 25.78033,3.576032 25.709025,3.62639 25.682471,3.701504 C 25.668929,3.73959 25.662158,3.829303 25.662158,3.970645 L 25.662158,4.682852 L 25.30542,4.682852 L 25.30542,3.891934 C 25.30542,3.770905 25.311556,3.681615 25.323828,3.624062 C 25.350158,3.510016 25.407736,3.409723 25.541553,3.349844 C 25.607568,3.319375 25.681624,3.304141 25.763721,3.304141 C 25.923682,3.304141 26.061214,3.371426 26.176318,3.505996 L 26.176318,2.821719" />
      <path d="M 24.943604,4.682852 L 24.586865,4.682852 L 24.586865,4.326113 L 24.943604,4.326113 L 24.943604,4.682852" />
      <path d="M 24.22124,4.682852 L 23.864502,4.682852 L 23.864502,3.334609 L 24.22124,3.334609 L 24.22124,4.682852" />
      <path d="M 24.22124,3.151797 L 23.864502,3.151797 L 23.864502,2.821719 L 24.22124,2.821719 L 24.22124,3.151797" />
      <path d="M 22.27251,4.682852 L 22.27251,3.844961 Q 22.27251,3.688809 22.292188,3.60502 Q 22.311865,3.52123 22.362012,3.455215 Q 22.412158,3.389199 22.509912,3.34667 Q 22.607666,3.304141 22.725732,3.304141 Q 22.993604,3.304141 23.170068,3.532656 L 23.170068,3.334609 L 23.501416,3.334609 L 23.501416,4.682852 L 23.144678,4.682852 L 23.144678,4.072207 Q 23.144678,3.84623 23.117383,3.762441 Q 23.090088,3.678652 23.016455,3.627871 Q 22.942822,3.57709 22.850146,3.57709 Q 22.777783,3.57709 22.726367,3.612637 Q 22.674951,3.648184 22.6521,3.712295 Q 22.629248,3.776406 22.629248,3.994766 L 22.629248,4.682852 L 22.27251,4.682852" />
      <path d="M 21.910693,4.682852 L 21.553955,4.682852 L 21.553955,3.334609 L 21.910693,3.334609 L 21.910693,4.682852" />
      <path d="M 21.910693,3.151797 L 21.553955,3.151797 L 21.553955,2.821719 L 21.910693,2.821719 L 21.910693,3.151797" />
      <path d="M 20.570068,3.334609 L 20.813818,3.334609 L 20.813818,2.858535 L 21.171826,3.066738 L 21.171826,3.334609 L 21.335596,3.334609 L 21.335596,3.618984 L 21.171826,3.618984 L 21.171826,4.206777 Q 21.171826,4.395937 21.1604,4.458145 C 21.139797,4.576727 21.10187,4.635998 20.996631,4.680947 C 20.945003,4.702529 20.887028,4.71332 20.822705,4.71332 C 20.717757,4.71332 20.623812,4.695547 20.540869,4.66 L 20.571338,4.383242 C 20.681463,4.422478 20.735149,4.428103 20.775098,4.399746 C 20.791602,4.387897 20.802181,4.372874 20.806836,4.354678 C 20.811491,4.336481 20.813818,4.27237 20.813818,4.162344 L 20.813818,3.618984 L 20.570068,3.618984 L 20.570068,3.334609" />
      <path d="M 19.975928,5.23002 L 19.730908,5.23002 Q 19.842627,4.987539 19.887061,4.858047 C 19.975716,4.598983 20.032845,4.290646 20.031787,4.016348 C 20.031787,3.814915 20.009993,3.624274 19.966406,3.444424 C 19.922819,3.264574 19.84305,3.046426 19.7271,2.78998 L 19.97085,2.78998 Q 20.138428,3.029922 20.247607,3.314297 Q 20.373291,3.641836 20.373291,4.00873 Q 20.373291,4.304531 20.271729,4.620645 Q 20.170166,4.936758 19.975928,5.23002" />
      <path d="M 24.056201,125.407871 L 23.648682,125.407871 L 23.279248,124.016465 L 22.908545,125.407871 L 22.509912,125.407871 L 22.057959,123.546738 L 22.436279,123.546738 L 22.721924,124.846738 L 23.048193,123.546738 L 23.495068,123.546738 L 23.835303,124.825156 L 24.115869,123.546738 L 24.500537,123.546738 L 24.056201,125.407871" />
      <path d="M 27.834326,124.403672 C 27.673149,124.334562 27.576558,124.189676 27.577881,124.019004 C 27.577881,123.880202 27.626758,123.765521 27.724512,123.674961 C 27.822266,123.584401 27.959587,123.539121 28.136475,123.539121 C 28.315055,123.539121 28.452799,123.584401 28.549707,123.674961 C 28.646615,123.765521 28.695068,123.880202 28.695068,124.019004 C 28.693746,124.178991 28.616834,124.32832 28.431006,124.403672 Q 28.592236,124.472227 28.667139,124.598545 Q 28.742041,124.724863 28.742041,124.875937 Q 28.742041,125.150156 28.542725,125.307578 C 28.430159,125.396445 28.289241,125.440879 28.119971,125.440879 C 27.938005,125.440879 27.79222,125.387135 27.682617,125.279648 C 27.573014,125.172161 27.518213,125.032513 27.518213,124.860703 C 27.517552,124.654616 27.628477,124.484499 27.834326,124.403672 M 28.357373,124.044395 C 28.359357,123.912919 28.267792,123.819978 28.132666,123.822227 C 28.002883,123.820111 27.910789,123.911517 27.913037,124.043125 C 27.910921,124.183858 28.003174,124.271826 28.136475,124.270371 C 28.268082,124.271694 28.359489,124.18526 28.357373,124.044395 M 28.390381,124.84166 Q 28.390381,124.736289 28.326269,124.646152 Q 28.262158,124.556016 28.131396,124.556016 Q 28.018408,124.556016 27.944775,124.635361 Q 27.871143,124.714707 27.871143,124.845469 Q 27.871143,124.995273 27.943506,125.074619 Q 28.015869,125.153965 28.126318,125.153965 Q 28.239307,125.153965 28.314844,125.071445 Q 28.390381,124.988926 28.390381,124.84166" />
      <path d="M 26.591455,125.407871 L 26.246143,125.407871 L 26.246143,125.033359 L 26.015088,125.033359 L 26.015088,124.719785 L 26.246143,124.719785 L 26.246143,123.539121 L 26.545752,123.539121 L 27.353174,124.721055 L 27.353174,125.033359 L 26.591455,125.033359 L 26.591455,125.407871 M 26.591455,124.719785 L 27.019287,124.719785 L 26.591455,124.08375 L 26.591455,124.719785" />
      <path d="M 25.825928,124.412559 L 25.502197,124.470957 C 25.455939,124.343713 25.396535,124.304093 25.267334,124.302109 C 25.173389,124.302109 25.109489,124.316709 25.075635,124.345908 C 25.041781,124.375107 25.024853,124.423984 25.024853,124.492539 L 25.024853,124.528086 Q 25.121338,124.568711 25.371435,124.615684 Q 25.556787,124.65123 25.655176,124.698838 Q 25.753564,124.746445 25.808154,124.835947 Q 25.862744,124.925449 25.862744,125.039707 Q 25.862744,125.212363 25.742773,125.325352 Q 25.622803,125.43834 25.4146,125.43834 Q 25.179102,125.43834 24.996924,125.260605 Q 24.993115,125.270762 24.984228,125.3025 Q 24.963916,125.372324 24.949951,125.407871 L 24.597021,125.407871 Q 24.643994,125.311387 24.661133,125.226963 Q 24.678271,125.142539 24.678271,124.964805 L 24.674463,124.548398 Q 24.674463,124.316074 24.72207,124.229111 Q 24.769678,124.142148 24.886475,124.085654 Q 25.003271,124.02916 25.241943,124.02916 Q 25.504736,124.02916 25.638037,124.123105 Q 25.771338,124.217051 25.825928,124.412559 M 25.024853,124.76041 L 25.024853,124.831504 Q 25.024853,124.959727 25.038818,125.00543 Q 25.059131,125.075254 25.123877,125.123496 Q 25.211475,125.186973 25.307959,125.186973 Q 25.394287,125.186973 25.450146,125.132383 Q 25.506006,125.077793 25.506006,125.002891 Q 25.506006,124.926719 25.436182,124.877207 Q 25.390478,124.846738 25.241943,124.815 Q 25.093408,124.783262 25.024853,124.76041" />
      <path d="M 4.754687,120.045313 L 4.292186,120.045313 L 4.292186,119.089063 L 4.198436,119.089063 Q 4.039061,119.089064 3.965624,119.114845 Q 3.892187,119.140626 3.826562,119.210157 Q 3.760936,119.279688 3.582812,119.546876 L 3.248436,120.045313 L 2.695311,120.045313 L 2.974999,119.598438 Q 3.140624,119.331251 3.23828,119.226563 Q 3.335936,119.121876 3.485936,119.034376 Q 3.184374,118.990626 3.032811,118.822657 Q 2.881249,118.654688 2.881249,118.396876 Q 2.881249,118.193751 2.981249,118.035938 Q 3.081249,117.878126 3.247655,117.816407 Q 3.414062,117.754688 3.781249,117.754688 L 4.754687,117.754688 L 4.754687,120.045313 M 4.292186,118.723438 L 4.292186,118.142188 L 3.931249,118.142188 Q 3.649999,118.142188 3.593749,118.150001 C 3.444888,118.174187 3.356672,118.273211 3.357811,118.426564 C 3.356672,118.563412 3.425097,118.658465 3.534374,118.695314 C 3.589582,118.714063 3.728124,118.723439 3.949999,118.723438 L 4.292186,118.723438" />
      <path d="M 11.499999,118.326563 Q 11.604686,118.564063 11.604687,118.914064 Q 11.604687,119.460939 11.303124,119.772657 Q 11.001561,120.084376 10.490624,120.084376 Q 9.985937,120.084376 9.684374,119.771095 Q 9.382812,119.457813 9.382812,118.903126 Q 9.382811,118.343751 9.686718,118.029688 Q 9.990624,117.715626 10.496874,117.715626 Q 10.776562,117.715626 10.990624,117.806251 Q 11.151561,117.873439 11.286718,118.012501 Q 11.421874,118.151563 11.499999,118.326563 M 11.128124,118.898438 Q 11.128124,118.503126 10.953124,118.307032 Q 10.778124,118.110938 10.492187,118.110938 Q 10.206249,118.110939 10.033593,118.304688 Q 9.860937,118.498439 9.860936,118.892188 Q 9.860937,119.290626 10.03828,119.489845 Q 10.215624,119.689064 10.492187,119.689063 Q 10.768749,119.689063 10.948436,119.488282 Q 11.128124,119.287501 11.128124,118.898438" />
      <path d="M 9.024999,117.754688 L 9.024999,118.976563 Q 9.024999,119.360938 8.979687,119.557813 C 8.937613,119.731397 8.808479,119.911053 8.58203,120.008595 C 8.469009,120.059116 8.303124,120.084376 8.084374,120.084376 C 7.903124,120.084376 7.756249,120.061199 7.643749,120.014845 C 7.531249,119.968491 7.441405,119.906251 7.374218,119.828126 C 7.30703,119.750001 7.260936,119.654168 7.235937,119.540626 C 7.210937,119.427084 7.198437,119.232814 7.198437,118.957814 M 7.198437,118.957813 L 7.198437,117.754688 L 7.660937,117.754688 L 7.660937,119.021876 C 7.660936,119.203126 7.667707,119.332814 7.681249,119.410938 C 7.694791,119.489063 7.734895,119.554949 7.801562,119.608595 C 7.868228,119.662241 7.967186,119.689063 8.098437,119.689063 C 8.35677,119.692156 8.505728,119.562533 8.545312,119.378126 Q 8.562499,119.290626 8.562499,118.995313 L 8.562499,117.754688 L 9.024999,117.754688" />
      <path d="M 6.195312,120.045313 L 5.732812,120.045313 L 5.732812,118.142188 L 5.054686,118.142188 L 5.054686,117.754688 L 6.874999,117.754688 L 6.874999,118.142188 L 6.195311,118.142188 L 6.195312,120.045313" />
      <path d="M 12.204687,117.915626 L 12.204687,119.884376 A 0.8,0.8 180.0 0,1 11.404687,120.684376 L 2.895311,120.684376 A 0.8,0.8 180.0 0,1 2.095311,119.884376 L 2.095311,117.915626 A 0.8,0.8 180.0 0,1 2.895311,117.115626 L 11.404687,117.115626 A 0.8,0.8 180.0 0,1 12.204687,117.915626" />
      <path d="M 16.692475,120.045313 L 15.079975,120.045313 L 15.079975,119.659376 L 16.229975,119.659376 L 16.229975,117.773438 L 16.692475,117.773438 L 16.692475,120.045313" />
      <path d="M 23.448725,118.326563 Q 23.553413,118.564063 23.553413,118.914064 Q 23.553413,119.460939 23.25185,119.772657 Q 22.950288,120.084376 22.43935,120.084376 Q 21.934663,120.084376 21.6331,119.771095 Q 21.331538,119.457813 21.331538,118.903126 Q 21.331538,118.343751 21.635444,118.029688 Q 21.93935,117.715626 22.4456,117.715626 Q 22.725288,117.715626 22.93935,117.806251 Q 23.100288,117.873439 23.235444,118.012501 Q 23.3706,118.151563 23.448725,118.326563 M 23.07685,118.898438 Q 23.07685,118.503126 22.90185,118.307032 Q 22.72685,118.110938 22.440913,118.110938 Q 22.154975,118.110939 21.982319,118.304688 Q 21.809663,118.498439 21.809663,118.892188 Q 21.809663,119.290626 21.987006,119.489845 Q 22.16435,119.689063 22.440913,119.689064 Q 22.717475,119.689063 22.897163,119.488282 Q 23.07685,119.287501 23.07685,118.898438" />
      <path d="M 20.973725,117.754688 L 20.973725,118.976563 Q 20.973725,119.360938 20.928413,119.557813 C 20.886339,119.731397 20.757205,119.911053 20.530756,120.008595 C 20.417736,120.059116 20.25185,120.084376 20.0331,120.084376 C 19.85185,120.084376 19.704975,120.061199 19.592475,120.014845 C 19.479975,119.968491 19.390131,119.906251 19.322944,119.828126 C 19.255756,119.750001 19.209663,119.654168 19.184663,119.540626 C 19.159663,119.427084 19.147163,119.232814 19.147163,118.957813 L 19.147163,117.754688 L 19.609663,117.754688 L 19.609663,119.021876 C 19.609663,119.203126 19.616434,119.332814 19.629975,119.410938 C 19.643517,119.489063 19.683621,119.554949 19.750288,119.608595 C 19.816954,119.662241 19.915913,119.689064 20.047163,119.689063 C 20.305496,119.692156 20.454454,119.562533 20.494038,119.378126 Q 20.511225,119.290626 20.511225,118.995313 L 20.511225,117.754688 L 20.973725,117.754688" />
      <path d="M 18.144038,120.045313 L 17.681538,120.045313 L 17.681538,118.142188 L 17.003413,118.142188 L 17.003413,117.754688 L 18.823725,117.754688 L 18.823725,118.142188 L 18.144038,118.142188 L 18.144038,120.045313" />
      <path d="M 24.153413,117.915626 L 24.153413,119.884376 A 0.8,0.8 180.0 0,1 23.353413,120.684376 L 15.279975,120.684376 A 0.8,0.8 180.0 0,1 14.479975,119.884376 L 14.479975,117.915626 A 0.8,0.8 180.0 0,1 15.279975,117.115626 L 23.353413,117.115626 A 0.8,0.8 180.0 0,1 24.153413,117.915626" />
      <path d="M 30.905172,120.045313 L 30.442672,120.045313 L 30.442672,119.089063 L 30.348922,119.089063 Q 30.189547,119.089064 30.11611,119.114845 Q 30.042672,119.140626 29.977047,119.210157 Q 29.911422,119.279688 29.733297,119.546876 L 29.398922,120.045313 L 28.845797,120.045313 L 29.125485,119.598438 Q 29.29111,119.331251 29.388766,119.226563 Q 29.486422,119.121876 29.636422,119.034376 Q 29.33486,118.990626 29.183297,118.822657 Q 29.031735,118.654688 29.031735,118.396876 Q 29.031735,118.193751 29.131735,118.035938 Q 29.231735,117.878126 29.398141,117.816407 Q 29.564547,117.754688 29.931735,117.754688 L 30.905172,117.754688 L 30.905172,120.045313 M 30.442672,118.723438 L 30.442672,118.142188 L 30.081735,118.142188 Q 29.800485,118.142188 29.744235,118.150001 C 29.595374,118.174187 29.507158,118.273211 29.508297,118.426564 C 29.507158,118.563412 29.575582,118.658465 29.68486,118.695313 C 29.740068,118.714063 29.87861,118.723439 30.100485,118.723438 L 30.442672,118.723438" />
      <path d="M 34.120797,120.045313 L 33.658297,120.045313 L 33.658297,117.754688 L 34.120797,117.754688 L 34.120797,120.045313" />
      <path d="M 33.212985,120.045313 L 32.783297,120.045313 L 32.783297,118.551563 L 31.85986,120.045313 L 31.395797,120.045313 L 31.395797,117.754688 L 31.825485,117.754688 L 31.825485,119.284376 L 32.762985,117.754688 L 33.212985,117.754688 L 33.212985,120.045313" />
      <path d="M 42.842969,120.045313 L 41.230469,120.045313 L 41.230469,119.659376 L 42.380469,119.659376 L 42.380469,117.773438 L 42.842969,117.773438 L 42.842969,120.045313" />
      <path d="M 46.069531,120.045313 L 45.607031,120.045313 L 45.607031,117.754688 L 46.069531,117.754688 L 46.069531,120.045313" />
      <path d="M 45.161719,120.045313 L 44.732031,120.045313 L 44.732031,118.551563 L 43.808594,120.045313 L 43.344531,120.045313 L 43.344531,117.754688 L 43.774219,117.754688 L 43.774219,119.284376 L 44.711719,117.754688 L 45.161719,117.754688 L 45.161719,120.045313" />
      <path d="M 3.684374,104.924404 C 3.486002,104.839346 3.367121,104.661025 3.368749,104.450967 C 3.368749,104.280133 3.428905,104.138987 3.549218,104.027529 C 3.66953,103.916071 3.838541,103.860342 4.056249,103.860342 C 4.276041,103.860342 4.445572,103.916071 4.564843,104.027529 C 4.684114,104.138987 4.743749,104.280133 4.743749,104.450967 C 4.742121,104.647874 4.64746,104.831663 4.418749,104.924404 Q 4.617186,105.008779 4.709374,105.164248 Q 4.801562,105.319717 4.801561,105.505654 Q 4.801561,105.843154 4.556249,106.036904 C 4.417707,106.146279 4.24427,106.200967 4.035936,106.200967 C 3.811978,106.200967 3.632551,106.134821 3.497655,106.002529 C 3.362759,105.870237 3.295311,105.698362 3.295311,105.486904 C 3.294498,105.233258 3.431021,105.023883 3.684374,104.924404 M 4.328124,104.482217 C 4.328124,104.399925 4.303124,104.333779 4.253124,104.283779 C 4.203124,104.233779 4.135937,104.208779 4.051561,104.208779 C 3.970311,104.208779 3.904947,104.233519 3.855468,104.282998 C 3.805989,104.332477 3.781249,104.398362 3.781249,104.480654 C 3.778645,104.653864 3.892187,104.762132 4.056249,104.760342 C 4.218228,104.761969 4.330728,104.655589 4.328124,104.482217 M 4.368749,105.463467 Q 4.368749,105.333779 4.289843,105.222842 Q 4.210936,105.111904 4.049999,105.111904 Q 3.910937,105.111904 3.820311,105.20956 Q 3.729687,105.307217 3.729686,105.468154 Q 3.729686,105.652529 3.818749,105.750185 Q 3.907811,105.847842 4.043749,105.847842 Q 4.182811,105.847842 4.27578,105.746279 Q 4.368749,105.644717 4.368749,105.463467" />
      <path d="M 9.009374,105.460342 L 9.457812,105.318154 C 9.532453,105.655361 9.722232,105.802301 9.965624,105.804092 C 10.132291,105.804092 10.267707,105.742633 10.371874,105.619717 C 10.476041,105.4968 10.528124,105.29055 10.528124,105.000967 C 10.528124,104.72805 10.475259,104.530654 10.36953,104.408779 C 10.263801,104.286904 10.126041,104.225967 9.956249,104.225967 C 9.833332,104.225967 9.728905,104.260342 9.642968,104.329092 C 9.55703,104.397842 9.50052,104.491592 9.473436,104.610342 M 9.473437,104.610342 L 9.015624,104.500967 Q 9.093749,104.225967 9.249999,104.079092 C 9.424999,103.913467 9.652603,103.830654 9.932811,103.830654 C 10.253645,103.830654 10.512499,103.936123 10.709374,104.14706 C 10.906249,104.357998 11.004687,104.654092 11.004687,105.035342 C 11.004687,105.395758 10.90677,105.679873 10.710937,105.887685 C 10.515103,106.095498 10.265103,106.199404 9.960937,106.199404 C 9.470084,106.198265 9.14606,105.961481 9.009374,105.460342" />
      <path d="M 8.028124,106.160342 L 7.534374,106.160342 L 6.714062,103.869717 L 7.204687,103.869717 L 7.765624,105.565029 L 8.345312,103.869717 L 8.846874,103.869717 L 8.028124,106.160342" />
      <path d="M 6.740624,106.793154 L 4.915624,106.793154 L 4.915624,106.508779 L 6.740624,106.508779 L 6.740624,106.793154" />
      <path d="M 16.962788,104.308779 L 15.96435,104.308779 Q 16.273725,104.697842 16.458882,105.191592 Q 16.644038,105.685342 16.654975,106.160342 L 16.231538,106.160342 Q 16.2331,105.857217 16.132319,105.47206 Q 16.031538,105.086904 15.83935,104.744717 Q 15.647163,104.402529 15.461225,104.219717 L 15.461225,103.900967 L 16.962788,103.900967 L 16.962788,104.308779" />
      <path d="M 21.17685,105.460342 L 21.625288,105.318154 C 21.69993,105.655361 21.889708,105.802301 22.1331,105.804092 C 22.299767,105.804092 22.435184,105.742633 22.53935,105.619717 C 22.643517,105.4968 22.6956,105.29055 22.6956,105.000967 C 22.6956,104.72805 22.642736,104.530654 22.537006,104.408779 C 22.431277,104.286904 22.293517,104.225967 22.123725,104.225967 C 22.000809,104.225967 21.896381,104.260342 21.810444,104.329092 C 21.724506,104.397842 21.667996,104.491592 21.640913,104.610342 L 21.1831,104.500967 Q 21.261225,104.225967 21.417475,104.079092 C 21.592475,103.913467 21.820079,103.830654 22.100288,103.830654 C 22.421121,103.830654 22.679975,103.936123 22.87685,104.14706 C 23.073725,104.357998 23.172163,104.654092 23.172163,105.035342 C 23.172163,105.395758 23.074246,105.679873 22.878413,105.887685 C 22.682579,106.095498 22.432579,106.199404 22.128413,106.199404 C 21.63756,106.198265 21.313536,105.961481 21.17685,105.460342" />
      <path d="M 20.1956,106.160342 L 19.70185,106.160342 L 18.881538,103.869717 L 19.372163,103.869717 L 19.9331,105.565029 L 20.512788,103.869717 L 21.01435,103.869717 L 20.1956,106.160342" />
      <path d="M 18.9081,106.793154 L 17.0831,106.793154 L 17.0831,106.508779 L 18.9081,106.508779 L 18.9081,106.793154" />
      <path d="M 28.080953,104.477529 L 27.655953,104.430654 Q 27.702828,104.152529 27.873922,104.006435 Q 28.045016,103.860342 28.305953,103.860342 Q 28.677828,103.860342 28.910641,104.138467 Q 29.143453,104.416592 29.143453,105.046279 Q 29.143453,105.660342 28.920016,105.929873 Q 28.696578,106.199404 28.349703,106.199404 Q 28.026266,106.199404 27.820016,105.986904 Q 27.613766,105.774404 27.613766,105.422842 Q 27.613766,105.091592 27.80986,104.882217 Q 28.005953,104.672842 28.280953,104.672842 Q 28.524703,104.672842 28.688766,104.866592 C 28.672099,104.60305 28.631735,104.429612 28.567672,104.346279 C 28.503609,104.262946 28.425224,104.221279 28.332516,104.221279 C 28.194072,104.22193 28.100647,104.301878 28.080953,104.477529 M 28.651266,105.388467 Q 28.651266,105.194717 28.563766,105.095498 Q 28.476266,104.996279 28.349703,104.996279 Q 28.218453,104.996279 28.130953,105.100185 Q 28.043453,105.204092 28.043453,105.427529 Q 28.043453,105.644717 28.124703,105.740029 Q 28.205953,105.835342 28.327828,105.835342 Q 28.454391,105.835342 28.552828,105.718935 Q 28.651266,105.602529 28.651266,105.388467" />
      <path d="M 33.357516,105.460342 L 33.805953,105.318154 C 33.880595,105.655361 34.070374,105.802301 34.313766,105.804092 C 34.480432,105.804092 34.615849,105.742633 34.720016,105.619717 C 34.824182,105.4968 34.876266,105.29055 34.876266,105.000967 C 34.876266,104.72805 34.823401,104.530654 34.717672,104.408779 C 34.611943,104.286904 34.474182,104.225967 34.304391,104.225967 C 34.181474,104.225967 34.077047,104.260342 33.99111,104.329092 C 33.905172,104.397842 33.848662,104.491592 33.821578,104.610342 L 33.363766,104.500967 Q 33.441891,104.225967 33.598141,104.079092 C 33.773141,103.913467 34.000745,103.830654 34.280953,103.830654 C 34.601787,103.830654 34.860641,103.936123 35.057516,104.14706 C 35.254391,104.357998 35.352828,104.654092 35.352828,105.035342 C 35.352828,105.395758 35.254912,105.679873 35.059078,105.887685 C 34.863245,106.095498 34.613245,106.199404 34.309078,106.199404 C 33.818225,106.198265 33.494202,105.961481 33.357516,105.460342" />
      <path d="M 32.376266,106.160342 L 31.882516,106.160342 L 31.062203,103.869717 L 31.552828,103.869717 L 32.113766,105.565029 L 32.693453,103.869717 L 33.195016,103.869717 L 32.376266,106.160342" />
      <path d="M 31.088766,106.793154 L 29.263766,106.793154 L 29.263766,106.508779 L 31.088766,106.508779 L 31.088766,106.793154" />
      <path d="M 40.875,105.525967 L 41.3125,105.571279 Q 41.273438,105.858779 41.073437,106.029092 Q 40.873438,106.199404 40.55625,106.199404 Q 40.159375,106.199404 39.935938,105.896279 Q 39.771875,105.674404 39.771875,105.391592 Q 39.771875,105.052529 39.975,104.840029 Q 40.178125,104.627529 40.470312,104.627529 Q 40.623437,104.627529 40.770312,104.700967 L 40.701563,104.311904 L 39.873438,104.311904 L 39.873438,103.900967 L 41.034375,103.900967 L 41.259375,105.093154 L 40.903125,105.144717 Q 40.753125,104.977529 40.564062,104.977529 Q 40.4125,104.977529 40.317969,105.082998 Q 40.223437,105.188467 40.223437,105.399404 Q 40.223438,105.624404 40.31875,105.736123 Q 40.414062,105.847842 40.551562,105.847842 Q 40.671875,105.847842 40.764062,105.761123 Q 40.85625,105.674404 40.875,105.525967" />
      <path d="M 45.532812,105.460342 L 45.98125,105.318154 C 46.055892,105.655361 46.245671,105.802301 46.489063,105.804092 C 46.655729,105.804092 46.791146,105.742633 46.895313,105.619717 C 46.999479,105.4968 47.051563,105.29055 47.051563,105.000967 C 47.051562,104.72805 46.998698,104.530654 46.892969,104.408779 C 46.78724,104.286904 46.649479,104.225967 46.479687,104.225967 C 46.356771,104.225967 46.252344,104.260342 46.166406,104.329092 C 46.080469,104.397842 46.023958,104.491592 45.996875,104.610342 L 45.539062,104.500967 Q 45.617188,104.225967 45.773438,104.079092 C 45.948437,103.913467 46.176042,103.830654 46.45625,103.830654 C 46.777083,103.830654 47.035938,103.936123 47.232812,104.14706 C 47.429688,104.357998 47.528125,104.654092 47.528125,105.035342 C 47.528125,105.395758 47.430208,105.679873 47.234375,105.887685 C 47.038542,106.095498 46.788542,106.199404 46.484375,106.199404 C 45.993522,106.198265 45.669499,105.961481 45.532812,105.460342" />
      <path d="M 44.551562,106.160342 L 44.057812,106.160342 L 43.2375,103.869717 L 43.728125,103.869717 L 44.289062,105.565029 L 44.86875,103.869717 L 45.370312,103.869717 L 44.551562,106.160342" />
      <path d="M 43.264063,106.793154 L 41.439062,106.793154 L 41.439062,106.508779 L 43.264063,106.508779 L 43.264063,106.793154" />
      <path d="M 5.746093,91.009608 L 5.321093,90.962733 Q 5.367968,90.684608 5.539062,90.538515 Q 5.710155,90.392421 5.971093,90.392421 Q 6.342968,90.392421 6.57578,90.670546 Q 6.808593,90.948671 6.808593,91.578358 Q 6.808593,92.192421 6.585155,92.461952 Q 6.361718,92.731483 6.014843,92.731483 Q 5.691405,92.731483 5.485155,92.518983 Q 5.278905,92.306483 5.278905,91.954921 Q 5.278905,91.623671 5.474999,91.414296 Q 5.671093,91.204921 5.946093,91.204921 Q 6.189843,91.204921 6.353905,91.398671 C 6.337239,91.135129 6.296874,90.961692 6.232812,90.878358 C 6.168749,90.795025 6.090364,90.753358 5.997655,90.753358 C 5.859211,90.754009 5.765787,90.833957 5.746093,91.009608 M 6.316405,91.920546 Q 6.316405,91.726796 6.228905,91.627577 Q 6.141405,91.528358 6.014843,91.528358 Q 5.883593,91.528358 5.796093,91.632264 Q 5.708593,91.736171 5.708593,91.959608 Q 5.708593,92.176796 5.789843,92.272108 Q 5.871093,92.367421 5.992968,92.367421 Q 6.11953,92.367421 6.217968,92.251014 Q 6.316405,92.134608 6.316405,91.920546" />
      <path d="M 9.021093,90.401796 L 9.021093,92.692421 L 8.241405,92.692421 Q 7.799218,92.689296 7.683593,92.676796 C 7.43719,92.650608 7.272444,92.528244 7.174999,92.332265 C 7.126562,92.233827 7.102343,92.132525 7.102343,92.028358 C 7.102343,91.896067 7.139843,91.780962 7.214843,91.683046 C 7.289843,91.585129 7.397134,91.515858 7.536718,91.475233 Q 7.38828,91.408046 7.301561,91.273671 Q 7.214843,91.139296 7.214843,90.978358 Q 7.214843,90.829921 7.285155,90.710389 Q 7.355468,90.590858 7.460937,90.518983 Q 7.566405,90.447108 7.699999,90.424452 Q 7.833593,90.401796 8.105468,90.401796 L 9.021093,90.401796 M 8.558593,90.783046 L 8.292968,90.783046 Q 7.966405,90.783046 7.897655,90.790858 C 7.743651,90.808306 7.66468,90.903619 7.664843,91.043983 C 7.663052,91.190761 7.762987,91.28731 7.91953,91.304921 Q 7.985155,91.312733 8.255468,91.312733 L 8.558593,91.312733 L 8.558593,90.783046 M 8.558593,91.693983 L 8.185155,91.693983 C 7.974739,91.693983 7.83802,91.704921 7.774999,91.726796 C 7.711978,91.748671 7.663801,91.783567 7.630468,91.831483 C 7.597134,91.8794 7.580468,91.937733 7.580468,92.006483 C 7.577701,92.168495 7.678547,92.267909 7.81328,92.292421 Q 7.880468,92.306483 8.130468,92.306483 L 8.558593,92.306483 L 8.558593,91.693983" />
      <path d="M 9.621093,90.592421 L 9.621093,92.531483 A 0.8,0.8 180.0 0,1 8.821093,93.331483 L 5.478905,93.331483 A 0.8,0.8 180.0 0,1 4.678905,92.531483 L 4.678905,90.592421 A 0.8,0.8 180.0 0,1 5.478905,89.792421 L 8.821093,89.792421 A 0.8,0.8 180.0 0,1 9.621093,90.592421" />
      <path d="M 18.540132,92.053309 L 18.977632,92.098622 Q 18.938569,92.386122 18.738569,92.556434 Q 18.538569,92.726747 18.221382,92.726747 Q 17.824506,92.726747 17.601069,92.423622 Q 17.437007,92.201747 17.437006,91.918934 Q 17.437007,91.579872 17.640131,91.367372 Q 17.843256,91.154872 18.135444,91.154872 Q 18.288569,91.154872 18.435444,91.228309 L 18.366694,90.839247 L 17.538569,90.839247 L 17.538569,90.428309 L 18.699506,90.428309 L 18.924506,91.620497 L 18.568257,91.672059 Q 18.418257,91.504872 18.229194,91.504872 Q 18.077632,91.504872 17.9831,91.61034 Q 17.888569,91.715809 17.888569,91.926747 Q 17.888569,92.151747 17.983882,92.263465 Q 18.079194,92.375184 18.216694,92.375184 Q 18.337007,92.375184 18.429194,92.288465 Q 18.521382,92.201747 18.540132,92.053309" />
      <path d="M 21.196382,90.397059 L 21.196382,92.687684 L 20.416694,92.687684 Q 19.974507,92.684559 19.858882,92.672059 C 19.612478,92.645871 19.447732,92.523508 19.350288,92.327528 C 19.30185,92.229091 19.277631,92.127788 19.277632,92.023622 C 19.277631,91.89133 19.315132,91.776226 19.390132,91.678309 C 19.465131,91.580393 19.572423,91.511122 19.712007,91.470497 Q 19.563569,91.403309 19.47685,91.268934 Q 19.390131,91.134559 19.390132,90.973622 Q 19.390131,90.825184 19.460444,90.705653 Q 19.530757,90.586122 19.636225,90.514247 Q 19.741694,90.442372 19.875288,90.419715 Q 20.008882,90.397059 20.280757,90.397059 L 21.196382,90.397059 M 20.733882,90.778309 L 20.468257,90.778309 Q 20.141694,90.778309 20.072944,90.786122 C 19.91894,90.80357 19.839969,90.898882 19.840132,91.039247 C 19.838341,91.186024 19.938276,91.282574 20.094819,91.300184 Q 20.160444,91.307997 20.430757,91.307997 L 20.733882,91.307997 L 20.733882,90.778309 M 20.733882,91.689247 L 20.360444,91.689247 C 20.150027,91.689247 20.013309,91.700184 19.950288,91.722059 C 19.887267,91.743934 19.83909,91.77883 19.805757,91.826747 C 19.772423,91.874663 19.755756,91.932997 19.755756,92.001747 C 19.752989,92.163758 19.853836,92.263173 19.988569,92.287684 Q 20.055757,92.301747 20.305757,92.301747 L 20.733882,92.301747 L 20.733882,91.689247" />
      <path d="M 21.796382,90.597059 L 21.796382,92.526747 A 0.8,0.8 180.0 0,1 20.996382,93.326747 L 17.637006,93.326747 A 0.8,0.8 180.0 0,1 16.837006,92.526747 L 16.837006,90.597059 A 0.8,0.8 180.0 0,1 17.637006,89.797059 L 20.996382,89.797059 A 0.8,0.8 180.0 0,1 21.796382,90.597059" />
      <path d="M 30.690328,92.115028 L 31.115328,92.161903 C 31.054456,92.540907 30.825159,92.732378 30.468453,92.732216 C 30.219495,92.732215 30.017412,92.639507 29.862203,92.45409 C 29.706995,92.268674 29.629391,91.96659 29.629391,91.54784 C 29.629391,91.136382 29.70387,90.840809 29.852828,90.661122 C 30.001787,90.481434 30.192412,90.39159 30.424703,90.39159 C 30.638245,90.391591 30.814026,90.462684 30.952047,90.604872 C 31.090068,90.747059 31.159078,90.934299 31.159078,91.16659 C 31.159078,91.389507 31.093714,91.570497 30.962985,91.709559 C 30.832255,91.848622 30.676787,91.918153 30.496578,91.918153 C 30.330953,91.918153 30.192932,91.85409 30.082516,91.725966 M 30.082516,91.725965 C 30.100224,91.988465 30.140849,92.161382 30.204391,92.244715 C 30.267932,92.328049 30.345016,92.369715 30.435641,92.369715 C 30.578577,92.369227 30.670309,92.288433 30.690328,92.115028 M 30.121578,91.202528 Q 30.121578,91.396278 30.208297,91.496278 Q 30.295016,91.596278 30.421578,91.596278 Q 30.552828,91.596278 30.640328,91.492372 Q 30.727828,91.388465 30.727828,91.16659 Q 30.727828,90.94784 30.64736,90.851747 Q 30.566891,90.755653 30.445016,90.755653 Q 30.316891,90.755653 30.219234,90.87284 Q 30.121578,90.990028 30.121578,91.202528" />
      <path d="M 33.337203,90.400965 L 33.337203,92.69159 L 32.557516,92.69159 Q 32.115328,92.688465 31.999703,92.675965 M 31.999703,92.675966 C 31.7533,92.649777 31.588554,92.527414 31.49111,92.331434 C 31.442672,92.232997 31.418453,92.131695 31.418453,92.027528 C 31.418453,91.895236 31.455953,91.780132 31.530953,91.682215 C 31.605953,91.584299 31.713245,91.515028 31.852828,91.474403 C 31.75387,91.429611 31.675485,91.362424 31.617672,91.27284 C 31.559859,91.183257 31.530953,91.08482 31.530953,90.977528 C 31.530953,90.87857 31.554391,90.789247 31.601266,90.709559 C 31.694283,90.550347 31.838717,90.453667 32.01611,90.423622 C 32.105172,90.408518 32.240328,90.400965 32.421578,90.400965 L 33.337203,90.400965 M 32.874703,90.782215 L 32.609078,90.782215 Q 32.282516,90.782215 32.213766,90.790028 C 32.059762,90.807476 31.98079,90.902789 31.980953,91.043153 C 31.979163,91.18993 32.079098,91.28648 32.235641,91.30409 Q 32.301266,91.311903 32.571578,91.311903 L 32.874703,91.311903 L 32.874703,90.782215 M 32.874703,91.693153 L 32.501266,91.693153 C 32.290849,91.693153 32.15413,91.704091 32.091109,91.725965 C 32.028089,91.74784 31.979912,91.782736 31.946578,91.830653 C 31.913245,91.87857 31.896578,91.936903 31.896578,92.005653 C 31.893811,92.167665 31.994658,92.267079 32.129391,92.29159 Q 32.196578,92.305653 32.446578,92.305653 L 32.874703,92.305653 L 32.874703,91.693153" />
      <path d="M 41.134375,90.629872 Q 41.321875,90.392372 41.654688,90.392372 Q 41.9875,90.392372 42.173437,90.626747 M 42.173438,90.626747 Q 42.398438,90.911122 42.398438,91.557997 Q 42.398438,92.217372 42.19375,92.474403 Q 41.989063,92.731434 41.654688,92.731434 Q 41.321875,92.731434 41.135937,92.497059 Q 40.910937,92.212684 40.910937,91.562684 Q 40.910938,90.911122 41.134375,90.629872 M 41.89375,90.989247 C 41.849056,90.811154 41.759798,90.759527 41.654688,90.756434 C 41.601562,90.756434 41.554427,90.773361 41.513281,90.807215 C 41.472135,90.84107 41.438021,90.908257 41.410937,91.008778 C 41.383854,91.109299 41.370313,91.293934 41.370312,91.562684 C 41.370312,91.831434 41.385417,92.022059 41.415625,92.134559 Q 41.45,92.265809 41.5125,92.31659 Q 41.575,92.367372 41.654688,92.367372 Q 41.734375,92.367372 41.796094,92.317372 Q 41.857812,92.267372 41.898438,92.11659 Q 41.939062,91.965809 41.939062,91.562684 Q 41.939063,91.159559 41.89375,90.989247" />
      <path d="M 46.389062,90.401747 L 46.389062,92.692372 L 45.609375,92.692372 Q 45.167187,92.689247 45.051562,92.676747 C 44.805159,92.650559 44.640413,92.528195 44.542969,92.332215 C 44.494531,92.233778 44.470312,92.132476 44.470312,92.028309 C 44.470312,91.896018 44.507813,91.780913 44.582812,91.682997 C 44.657812,91.58508 44.765104,91.515809 44.904687,91.475184 C 44.805729,91.430393 44.727344,91.363205 44.669531,91.273622 C 44.611719,91.184038 44.582813,91.085601 44.582813,90.978309 C 44.582813,90.879351 44.60625,90.790028 44.653125,90.710341 C 44.746143,90.551128 44.890576,90.454449 45.067969,90.424403 C 45.157031,90.409299 45.292187,90.401747 45.473438,90.401747 M 45.473437,90.401747 L 46.389062,90.401747 M 45.926562,90.782997 L 45.660937,90.782997 Q 45.334375,90.782997 45.265625,90.790809 C 45.111621,90.808257 45.03265,90.90357 45.032812,91.043934 C 45.031022,91.190712 45.130957,91.287261 45.2875,91.304872 Q 45.353125,91.312684 45.623437,91.312684 L 45.926562,91.312684 L 45.926562,90.782997 M 45.926562,91.693934 L 45.553125,91.693934 C 45.342708,91.693934 45.20599,91.704872 45.142969,91.726747 C 45.079948,91.748622 45.031771,91.783518 44.998437,91.831434 C 44.965104,91.879351 44.948437,91.937684 44.948437,92.006434 C 44.94567,92.168446 45.046517,92.26786 45.18125,92.292372 Q 45.248437,92.306434 45.498437,92.306434 L 45.926562,92.306434 L 45.926562,91.693934" />
      <path d="M 43.053125,92.692372 L 43.053125,90.392372 L 43.409375,90.392372 Q 43.484375,90.601747 43.685937,90.758778 Q 43.8875,90.915809 44.059375,90.972059 L 44.059375,91.370497 Q 43.732812,91.262684 43.492187,91.037684 L 43.492187,92.692372 L 43.053125,92.692372" />
      <path d="M 24.035707,68.850347 C 23.837334,68.765289 23.718454,68.586968 23.720082,68.376909 C 23.720081,68.206076 23.780238,68.06493 23.90055,67.953472 C 24.020863,67.842014 24.189873,67.786285 24.407582,67.786285 C 24.627373,67.786284 24.796904,67.842014 24.916175,67.953472 C 25.035446,68.06493 25.095081,68.206076 25.095082,68.376909 C 25.093454,68.573817 24.998793,68.757606 24.770082,68.850347 Q 24.968519,68.934722 25.060707,69.090191 Q 25.152894,69.245659 25.152894,69.431597 Q 25.152894,69.769097 24.907582,69.962847 C 24.76904,70.072222 24.595602,70.126909 24.387269,70.126909 C 24.163311,70.126909 23.983884,70.060764 23.848988,69.928472 C 23.714092,69.79618 23.646644,69.624305 23.646644,69.412847 C 23.64583,69.159201 23.782354,68.949826 24.035707,68.850347 M 24.679457,68.408159 C 24.679456,68.325868 24.654456,68.259722 24.604457,68.209722 C 24.554456,68.159722 24.487269,68.134722 24.402894,68.134722 C 24.321644,68.134722 24.256279,68.159462 24.2068,68.208941 C 24.157321,68.25842 24.132582,68.324305 24.132582,68.406597 C 24.129977,68.579807 24.243519,68.688075 24.407582,68.686284 C 24.56956,68.687912 24.682061,68.581532 24.679457,68.408159 M 24.720082,69.389409 Q 24.720081,69.259722 24.641175,69.148784 Q 24.562269,69.037847 24.401331,69.037847 Q 24.262269,69.037847 24.171644,69.135503 Q 24.081019,69.233159 24.081019,69.394097 Q 24.081019,69.578472 24.170082,69.676128 Q 24.259144,69.773785 24.395082,69.773784 Q 24.534144,69.773785 24.627113,69.672222 Q 24.720082,69.57066 24.720081,69.389409" />
      <path d="M 27.359144,67.795659 L 27.359144,70.086284 L 26.579457,70.086284 Q 26.137269,70.083159 26.021644,70.070659 C 25.775241,70.044471 25.610495,69.922108 25.51305,69.726128 C 25.464613,69.627691 25.440394,69.526389 25.440394,69.422222 C 25.440394,69.28993 25.477894,69.174826 25.552894,69.076909 C 25.627894,68.978993 25.735186,68.909722 25.874769,68.869097 Q 25.726332,68.801909 25.639613,68.667534 Q 25.552894,68.533159 25.552894,68.372222 Q 25.552894,68.223785 25.623207,68.104253 Q 25.693519,67.984722 25.798988,67.912847 Q 25.904457,67.840972 26.03805,67.818316 Q 26.171644,67.795659 26.443519,67.795659 L 27.359144,67.795659 M 26.896644,68.176909 L 26.631019,68.176909 Q 26.304457,68.176909 26.235707,68.184722 M 26.235706,68.184722 C 26.081703,68.20217 26.002731,68.297483 26.002894,68.437847 C 26.001104,68.584624 26.101039,68.681174 26.257582,68.698784 Q 26.323207,68.706597 26.593519,68.706597 L 26.896644,68.706597 L 26.896644,68.176909 M 26.896644,69.087847 L 26.523207,69.087847 C 26.31279,69.087847 26.176071,69.098785 26.11305,69.120659 C 26.050029,69.142534 26.001852,69.17743 25.968519,69.225347 C 25.935186,69.273264 25.918519,69.331597 25.918519,69.400347 C 25.915752,69.562359 26.016599,69.661773 26.151332,69.686284 Q 26.218519,69.700347 26.468519,69.700347 L 26.896644,69.700347 L 26.896644,69.087847" />
      <path d="M 6.092964,65.371037 Q 6.280464,65.133537 6.613276,65.133537 Q 6.946089,65.133537 7.132026,65.367912 Q 7.357026,65.652287 7.357026,66.299162 Q 7.357026,66.958538 7.152339,67.215569 Q 6.947651,67.4726 6.613276,67.4726 Q 6.280464,67.4726 6.094526,67.238225 Q 5.869526,66.95385 5.869526,66.30385 Q 5.869526,65.652287 6.092964,65.371037 M 6.852339,65.730412 Q 6.817964,65.599162 6.755464,65.548381 Q 6.692964,65.4976 6.613276,65.4976 Q 6.533589,65.4976 6.47187,65.548381 Q 6.410151,65.599163 6.369526,65.749944 Q 6.328901,65.900725 6.328901,66.30385 Q 6.328901,66.706975 6.374214,66.875725 Q 6.408589,67.006975 6.471089,67.057756 Q 6.533589,67.108537 6.613276,67.108537 Q 6.692964,67.108537 6.754682,67.058537 Q 6.816401,67.008537 6.857026,66.857756 Q 6.897651,66.706975 6.897651,66.30385 Q 6.897651,65.900725 6.852339,65.730412" />
      <path d="M 9.435151,66.733537 L 9.883589,66.59135 C 9.958231,66.928557 10.148009,67.075497 10.391401,67.077287 C 10.558068,67.077288 10.693485,67.015829 10.797651,66.892912 C 10.901818,66.769996 10.953901,66.563746 10.953901,66.274162 C 10.953901,66.001246 10.901037,65.80385 10.795307,65.681975 C 10.689578,65.5601 10.551818,65.499162 10.382026,65.499162 C 10.25911,65.499162 10.154683,65.533537 10.068745,65.602287 C 9.982807,65.671037 9.926297,65.764788 9.899214,65.883537 L 9.441401,65.774162 Q 9.519526,65.499162 9.675776,65.352287 C 9.850776,65.186662 10.07838,65.10385 10.358589,65.10385 C 10.679422,65.10385 10.938276,65.209319 11.135151,65.420256 C 11.332026,65.631194 11.430464,65.927287 11.430464,66.308537 C 11.430464,66.668954 11.332547,66.953069 11.136714,67.160881 C 10.94088,67.368694 10.69088,67.4726 10.386714,67.4726 C 9.895861,67.471461 9.571837,67.234677 9.435151,66.733537" />
      <path d="M 8.011714,67.433537 L 8.011714,65.133537 L 8.367964,65.133537 Q 8.442964,65.342912 8.644526,65.499944 Q 8.846089,65.656975 9.017964,65.713225 L 9.017964,66.111662 Q 8.691401,66.00385 8.450776,65.77885 L 8.450776,67.433537 L 8.011714,67.433537" />
      <path d="M 12.030464,65.30385 L 12.030464,67.2726 A 0.8,0.8 180.0 0,1 11.230464,68.0726 L 6.069526,68.0726 A 0.8,0.8 180.0 0,1 5.269526,67.2726 L 5.269526,65.30385 A 0.8,0.8 180.0 0,1 6.069526,64.50385 L 11.230464,64.50385 A 0.8,0.8 180.0 0,1 12.030464,65.30385" />
      <path d="M 41.799618,65.581956 L 40.801181,65.581956 Q 41.110556,65.971018 41.295712,66.464768 Q 41.480868,66.958518 41.491806,67.433518 L 41.068368,67.433518 M 41.068368,67.433519 Q 41.069931,67.130393 40.969149,66.745237 Q 40.868368,66.360081 40.676181,66.017893 Q 40.483993,65.675706 40.298056,65.492893 L 40.298056,65.174143 L 41.799618,65.174143 L 41.799618,65.581956" />
      <path d="M 44.012118,65.142893 L 44.012118,67.433518 L 43.232431,67.433518 Q 42.790243,67.430393 42.674618,67.417893 C 42.428215,67.391705 42.263469,67.269342 42.166024,67.073362 C 42.117587,66.974925 42.093368,66.873623 42.093368,66.769456 C 42.093368,66.637164 42.130868,66.52206 42.205868,66.424143 C 42.280868,66.326227 42.38816,66.256956 42.527743,66.216331 C 42.428785,66.171539 42.350399,66.104352 42.292587,66.014768 C 42.234774,65.925185 42.205868,65.826748 42.205868,65.719456 C 42.205868,65.620498 42.229306,65.531175 42.276181,65.451487 C 42.369198,65.292275 42.513632,65.195595 42.691025,65.16555 C 42.780087,65.150446 42.915243,65.142893 43.096493,65.142893 L 44.012118,65.142893 M 43.549618,65.524143 L 43.283993,65.524143 Q 42.957431,65.524143 42.888681,65.531956 C 42.734677,65.549404 42.655705,65.644717 42.655868,65.785081 C 42.654078,65.931858 42.754013,66.028408 42.910556,66.046018 Q 42.976181,66.053831 43.246493,66.053831 L 43.549618,66.053831 L 43.549618,65.524143 M 43.549618,66.435081 L 43.176181,66.435081 C 42.965764,66.435081 42.829045,66.446018 42.766025,66.467893 C 42.703004,66.489768 42.654827,66.524664 42.621493,66.572581 C 42.58816,66.620498 42.571493,66.678831 42.571493,66.747581 C 42.568726,66.909593 42.669573,67.009007 42.804306,67.033518 Q 42.871493,67.047581 43.121493,67.047581 L 43.549618,67.047581 L 43.549618,66.435081" />
      <path d="M 7.995031,49.875749 L 7.570031,49.875749 L 7.570031,49.414811 L 7.285656,49.414811 L 7.285656,49.028874 L 7.570031,49.028874 L 7.570031,47.575749 L 7.938781,47.575749 L 8.932531,49.030436 L 8.932531,49.414811 L 7.995031,49.414811 L 7.995031,49.875749 M 7.995031,49.028874 L 8.521594,49.028874 L 7.995031,48.246061 L 7.995031,49.028874" />
      <path d="M 13.070031,49.175749 L 13.518469,49.033561 C 13.59311,49.370768 13.782889,49.517708 14.026281,49.519499 C 14.192948,49.519499 14.328365,49.45804 14.432531,49.335124 C 14.536698,49.212207 14.588781,49.005957 14.588781,48.716374 C 14.588781,48.443457 14.535917,48.246061 14.430187,48.124186 C 14.324458,48.002311 14.186698,47.941374 14.016906,47.941374 C 13.89399,47.941374 13.789562,47.975749 13.703625,48.044499 C 13.617687,48.113249 13.561177,48.206999 13.534094,48.325749 L 13.076281,48.216374 Q 13.154406,47.941374 13.310656,47.794499 C 13.485656,47.628874 13.71326,47.546061 13.993469,47.546061 C 14.314302,47.546061 14.573156,47.65153 14.770031,47.862467 C 14.966906,48.073405 15.065344,48.369499 15.065344,48.750749 C 15.065344,49.111165 14.967427,49.39528 14.771594,49.603092 C 14.57576,49.810905 14.32576,49.914811 14.021594,49.914811 C 13.530741,49.913672 13.206717,49.676888 13.070031,49.175749" />
      <path d="M 12.088781,49.875749 L 11.595031,49.875749 L 10.774719,47.585124 L 11.265344,47.585124 L 11.826281,49.280436 L 12.405969,47.585124 L 12.907531,47.585124 L 12.088781,49.875749" />
      <path d="M 10.801281,50.508561 L 8.976281,50.508561 L 8.976281,50.224186 L 10.801281,50.224186 L 10.801281,50.508561" />
      <path d="M 36.889058,49.216374 L 37.314059,49.267936 Q 37.281246,49.556999 37.076558,49.735905 Q 36.871871,49.914811 36.560933,49.914811 Q 36.232808,49.914811 36.012496,49.702311 Q 35.792184,49.489811 35.792184,49.188249 Q 35.792183,48.980436 35.910152,48.833561 Q 36.028121,48.686686 36.224996,48.644499 Q 35.895308,48.464811 35.895308,48.163249 Q 35.895308,47.950749 36.056246,47.781999 Q 36.251559,47.575749 36.574996,47.575749 Q 36.764058,47.575749 36.916402,47.646842 Q 37.068746,47.717936 37.153902,47.842155 Q 37.239058,47.966374 37.281246,48.174186 L 36.876559,48.242936 C 36.856734,48.043587 36.734403,47.936035 36.587496,47.936686 C 36.511454,47.936686 36.450517,47.959603 36.404683,48.005436 C 36.35885,48.051269 36.335933,48.112728 36.335934,48.189811 C 36.335933,48.280436 36.367184,48.353092 36.429683,48.40778 C 36.492183,48.462467 36.582809,48.488249 36.701558,48.485124 L 36.749996,48.842936 C 36.671871,48.821061 36.604683,48.810124 36.548434,48.810124 C 36.463017,48.810124 36.390621,48.842415 36.331246,48.906999 C 36.271871,48.971582 36.242183,49.059082 36.242184,49.169499 C 36.242184,49.286165 36.273173,49.378874 36.335152,49.447624 C 36.397131,49.516374 36.473434,49.550749 36.564059,49.550749 C 36.729553,49.551725 36.865231,49.432064 36.889058,49.216374" />
      <path d="M 41.512496,49.175749 L 41.960934,49.033561 C 42.035575,49.370768 42.225354,49.517708 42.468746,49.519499 C 42.635413,49.519499 42.770829,49.45804 42.874996,49.335124 C 42.979163,49.212207 43.031246,49.005957 43.031246,48.716374 C 43.031246,48.443457 42.978381,48.246061 42.872652,48.124186 C 42.766923,48.002311 42.629163,47.941374 42.459371,47.941374 C 42.336454,47.941374 42.232027,47.975749 42.14609,48.044499 C 42.060152,48.113249 42.003642,48.206999 41.976559,48.325749 L 41.518746,48.216374 Q 41.596871,47.941374 41.753121,47.794499 C 41.928121,47.628874 42.155725,47.546061 42.435933,47.546061 C 42.756767,47.546061 43.015621,47.65153 43.212496,47.862467 C 43.409371,48.073405 43.507809,48.369499 43.507808,48.750749 C 43.507808,49.111165 43.409892,49.39528 43.214059,49.603092 C 43.018225,49.810905 42.768225,49.914811 42.464058,49.914811 C 41.973206,49.913672 41.649182,49.676888 41.512496,49.175749" />
      <path d="M 40.531246,49.875749 L 40.037496,49.875749 L 39.217183,47.585124 L 39.707808,47.585124 L 40.268746,49.280436 L 40.848433,47.585124 L 41.349996,47.585124 L 40.531246,49.875749" />
      <path d="M 39.243746,50.508561 L 37.418746,50.508561 L 37.418746,50.224186 L 39.243746,50.224186 L 39.243746,50.508561" />
      <path d="M 7.329406,30.344914 L 8.201281,30.344914 Q 8.166906,30.285539 8.111437,30.223039 Q 8.055969,30.160539 7.848156,29.969914 Q 7.640344,29.779289 7.560656,29.677727 C 7.399263,29.47063 7.330383,29.299406 7.329406,29.090227 C 7.329406,28.908977 7.39399,28.757414 7.523156,28.635539 C 7.652323,28.513664 7.829927,28.452727 8.055969,28.452727 C 8.262219,28.452727 8.434094,28.505331 8.571594,28.610539 C 8.709094,28.715747 8.790865,28.889185 8.816906,29.130852 L 8.379406,29.174602 C 8.364042,28.915584 8.248937,28.819556 8.066906,28.816789 C 7.974198,28.816789 7.901542,28.843091 7.848937,28.895695 C 7.796333,28.948299 7.770031,29.02356 7.770031,29.121477 C 7.770031,29.210018 7.80024,29.299602 7.860656,29.390227 Q 7.927844,29.488664 8.224719,29.765227 Q 8.593469,30.107414 8.718469,30.314445 Q 8.843469,30.521477 8.868469,30.752727 L 7.329406,30.752727 L 7.329406,30.344914" />
      <path d="M 13.026281,30.052727 L 13.474719,29.910539 C 13.549361,30.247746 13.739139,30.394686 13.982531,30.396477 C 14.149198,30.396477 14.284615,30.335018 14.388781,30.212102 C 14.492948,30.089185 14.545031,29.882935 14.545031,29.593352 C 14.545031,29.320435 14.492167,29.123039 14.386438,29.001164 C 14.280708,28.879289 14.142948,28.818352 13.973156,28.818352 C 13.85024,28.818352 13.745813,28.852727 13.659875,28.921477 C 13.573937,28.990227 13.517427,29.083977 13.490344,29.202727 L 13.032531,29.093352 Q 13.110656,28.818352 13.266906,28.671477 C 13.441906,28.505852 13.66951,28.423039 13.949719,28.423039 C 14.270552,28.423039 14.529406,28.528508 14.726281,28.739445 C 14.923156,28.950383 15.021594,29.246477 15.021594,29.627727 C 15.021594,29.988143 14.923677,30.272258 14.727844,30.48007 C 14.53201,30.687883 14.28201,30.791789 13.977844,30.791789 C 13.486991,30.79065 13.162967,30.553866 13.026281,30.052727" />
      <path d="M 12.045031,30.752727 L 11.551281,30.752727 L 10.730969,28.462102 L 11.221594,28.462102 L 11.782531,30.157414 L 12.362219,28.462102 L 12.863781,28.462102 L 12.045031,30.752727" />
      <path d="M 10.757531,31.385539 L 8.932531,31.385539 L 8.932531,31.101164 L 10.757531,31.101164 L 10.757531,31.385539" />
      <path d="M 35.98359,30.752727 L 35.98359,28.452727 L 36.33984,28.452727 Q 36.41484,28.662102 36.616402,28.819133 Q 36.817965,28.976164 36.98984,29.032414 L 36.98984,29.430852 Q 36.663277,29.323039 36.422652,29.098039 L 36.422652,30.752727 L 35.98359,30.752727" />
      <path d="M 41.32109,30.052727 L 41.769527,29.910539 C 41.844169,30.247746 42.033948,30.394686 42.27734,30.396477 C 42.444006,30.396477 42.579423,30.335018 42.68359,30.212102 C 42.787756,30.089185 42.83984,29.882935 42.83984,29.593352 C 42.83984,29.320435 42.786975,29.123039 42.681246,29.001164 C 42.575517,28.879289 42.437756,28.818352 42.267965,28.818352 C 42.145048,28.818352 42.040621,28.852727 41.954683,28.921477 C 41.868746,28.990227 41.812236,29.083977 41.785152,29.202727 L 41.32734,29.093352 Q 41.405465,28.818352 41.561715,28.671477 C 41.736715,28.505852 41.964319,28.423039 42.244527,28.423039 C 42.565361,28.423039 42.824215,28.528508 43.02109,28.739445 C 43.217965,28.950383 43.316402,29.246477 43.316402,29.627727 C 43.316402,29.988143 43.218486,30.272258 43.022652,30.48007 C 42.826819,30.687883 42.576819,30.791789 42.272652,30.791789 C 41.781799,30.79065 41.457776,30.553866 41.32109,30.052727" />
      <path d="M 40.33984,30.752727 L 39.84609,30.752727 L 39.025777,28.462102 L 39.516402,28.462102 L 40.07734,30.157414 L 40.657027,28.462102 L 41.15859,28.462102 L 40.33984,30.752727" />
      <path d="M 39.05234,31.385539 L 37.22734,31.385539 L 37.22734,31.101164 L 39.05234,31.101164 L 39.05234,31.385539" />
    </g>
    <g fill="none" stroke="rgb(0,0,0)" stroke-width="0.09" id="calibration">
      <path d="M 56.8,16.0 L 56.8,6.0 L 66.8,6.0 L 66.8,16.0 L 56.8,16.0" />
    </g>
  </g>
</svg>