<?xml version='1.0' encoding='utf-8'?>
<svg width="56.18248mm" height="138.68114mm" viewBox="-5.09 -133.59114 56.18248 138.68114" version="1.1" xmlns="http://www.w3.org/2000/svg">
  <g transform="scale(1,-1)" stroke-linecap="round">
    <g fill="none" stroke="rgb(0,0,0)" stroke-width="0.09" id="outline">
      <path d="M 0.0,128.50114 L 0.0,0.0 L 30.00248,0.0 L 30.00248,128.50114 L 0.0,128.50114" />
    </g>
    <g fill="none" stroke="rgb(0,0,0)" stroke-width="0.09" id="cutouts">
      <path d="M 27.40248,123.90114 A 1.6000000000000012,1.6000000000000012 180.0 0,1 27.40248,127.10114 L 26.60248,127.10114 A 1.6000000000000012,1.6000000000000012 0.0 0,1 26.60248,123.90114 L 27.40248,123.90114" />
      <path d="M 3.4,1.4 A 1.6,1.6 180.0 0,1 3.4,4.6 L 2.6,4.6 A 1.6,1.6 0.0 0,1 2.6,1.4 L 3.4,1.4" />
      <path d="M 3.4,123.90114 A 1.6000000000000012,1.6000000000000012 180.0 0,1 3.4,127.10114 L 2.6,127.10114 A 1.6000000000000012,1.6000000000000012 0.0 0,1 2.6,123.90114 L 3.4,123.90114" />
      <path d="M 27.40248,1.4 A 1.6,1.6 180.0 0,1 27.40248,4.6 L 26.60248,4.6 A 1.6,1.6 0.0 0,1 26.60248,1.4 L 27.40248,1.4" />
      <circle cx="6.752515" cy="18.001699" r="3.450915" />
      <circle cx="6.752515" cy="35.271711" r="3.450915" />
      <circle cx="6.752515" cy="52.541635" r="3.450915" />
      <circle cx="6.752515" cy="69.811655" r="3.450915" />
      <circle cx="6.752515" cy="87.08158" r="3.450915" />
      <circle cx="23.26259" cy="18.001699" r="3.450915" />
      <circle cx="23.26259" cy="35.271711" r="3.450915" />
      <circle cx="23.26259" cy="52.541635" r="3.450915" />
      <circle cx="23.26259" cy="69.811655" r="3.450915" />
      <circle cx="23.26259" cy="87.08158" r="3.450915" />
      <path d="M 2.60124,115.59136 L 2.60124,101.99136 L 27.40124,101.99136 L 27.40124,115.59136 L 2.60124,115.59136" />
      <circle cx="3.10124" cy="94.39136" r="1.5" />
      <circle cx="26.90124" cy="94.39136" r="1.5" />
      <circle cx="3.10124" cy="117.79136" r="1.5" />
      <circle cx="26.90124" cy="117.79136" r="1.5" />
    </g>
    <g fill="none" stroke="rgb(0,0,0)" stroke-width="0.09" id="labels">
      <path d="M 21.744355,5.012295 L 21.387617,5.012295 L 21.387617,3.151162 L 21.744355,3.151162 L 21.744355,3.826553 C 21.744355,3.939964 21.755146,4.025658 21.776728,4.083633 C 21.79831,4.141608 21.832376,4.184984 21.878926,4.21376 C 21.925475,4.242536 21.978372,4.256924 22.037617,4.256924 C 22.140343,4.257982 22.211649,4.207624 22.238203,4.13251 C 22.251745,4.094424 22.258515,4.00471 22.258515,3.863369 L 22.258515,3.151162 L 22.615254,3.151162 L 22.615254,3.94208 C 22.615254,4.063109 22.609118,4.152399 22.596845,4.209951 C 22.570516,4.323997 22.512938,4.42429 22.379121,4.48417 C 22.313105,4.514639 22.239049,4.529873 22.156953,4.529873 C 21.996992,4.529873 21.859459,4.462588 21.744355,4.328018 L 21.744355,5.012295" />
      <path d="M 7.401191,3.151162 L 8.816719,3.151162 L 8.816719,3.464736 L 7.776972,3.464736 L 7.776972,3.971279 L 8.711347,3.971279 L 8.711347,4.284854 L 7.776972,4.284854 L 7.776972,4.697451 L 8.781172,4.697451 L 8.781172,5.012295 L 7.401191,5.012295 L 7.401191,3.151162" />
      <path d="M 9.132832,3.151162 L 9.48957,3.151162 L 9.48957,4.499404 L 9.132832,4.499404 L 9.132832,3.151162" />
      <path d="M 9.132832,4.682217 L 9.48957,4.682217 L 9.48957,5.012295 L 9.132832,5.012295 L 9.132832,4.682217" />
      <path d="M 10.229707,3.012783 L 9.822187,3.062295 C 9.821341,3.045368 9.820918,3.03098 9.820918,3.019131 C 9.820918,2.898949 9.868737,2.799714 9.964375,2.721426 C 10.060013,2.643138 10.22209,2.603994 10.450605,2.603994 C 10.69425,2.603068 10.844266,2.658663 10.940644,2.747451 C 10.98804,2.792308 11.024857,2.854092 11.051094,2.932803 C 11.07733,3.011514 11.090449,3.130426 11.090449,3.289541 L 11.090449,4.499404 L 10.756562,4.499404 L 10.756562,4.310244 Q 10.594062,4.529873 10.343965,4.529873 Q 10.101484,4.529873 9.938349,4.350869 Q 9.775215,4.171865 9.775215,3.8329 Q 9.775215,3.56249 9.899629,3.380947 Q 10.05832,3.151162 10.33,3.151162 Q 10.57375,3.151162 10.733711,3.369521 L 10.733711,3.172744 Q 10.733711,3.053408 10.717207,3.008975 Q 10.693086,2.946768 10.646113,2.918838 Q 10.576289,2.876943 10.43664,2.876943 Q 10.327461,2.876943 10.276679,2.915029 Q 10.239863,2.941689 10.229707,3.012783 M 10.14084,3.853213 Q 10.14084,4.057607 10.223994,4.157266 Q 10.307148,4.256924 10.435371,4.256924 Q 10.567402,4.256924 10.65373,4.155361 Q 10.740058,4.053799 10.740058,3.844326 Q 10.740058,3.64374 10.649922,3.541543 Q 10.559785,3.439346 10.429023,3.439346 Q 10.307148,3.439346 10.223994,3.539004 Q 10.14084,3.638662 10.14084,3.853213" />
      <path d="M 11.798847,5.012295 L 11.442109,5.012295 L 11.442109,3.151162 L 11.798847,3.151162 L 11.798847,3.826553 C 11.798847,3.939964 11.809638,4.025658 11.83122,4.083633 C 11.852803,4.141608 11.886868,4.184984 11.933418,4.21376 C 11.979967,4.242536 12.032864,4.256924 12.092109,4.256924 C 12.194835,4.257982 12.266141,4.207624 12.292695,4.13251 C 12.306237,4.094424 12.313008,4.00471 12.313008,3.863369 L 12.313008,3.151162 L 12.669746,3.151162 L 12.669746,3.94208 C 12.669746,4.063109 12.66361,4.152399 12.651338,4.209951 C 12.625008,4.323997 12.56743,4.42429 12.433613,4.48417 C 12.367597,4.514639 12.293541,4.529873 12.211445,4.529873 C 12.051484,4.529873 11.913952,4.462588 11.798847,4.328018 L 11.798847,5.012295" />
      <path d="M 13.649824,4.499404 L 13.406074,4.499404 L 13.406074,4.975479 L 13.048066,4.767275 L 13.048066,4.499404 L 12.884297,4.499404 L 12.884297,4.215029 L 13.048066,4.215029 L 13.048066,3.627236 Q 13.048066,3.438076 13.059492,3.375869 C 13.080096,3.257287 13.118022,3.198016 13.223261,3.153066 C 13.274889,3.131484 13.332864,3.120693 13.397187,3.120693 C 13.502135,3.120693 13.59608,3.138467 13.679023,3.174014 L 13.648554,3.450771 C 13.53843,3.411536 13.484744,3.405911 13.444795,3.434268 C 13.428291,3.446117 13.417711,3.461139 13.413056,3.479336 C 13.408401,3.497533 13.406074,3.561644 13.406074,3.67167 L 13.406074,4.215029 L 13.649824,4.215029 L 13.649824,4.499404" />
      <path d="M 14.520722,3.151162 L 14.866035,3.151162 L 14.866035,3.525674 L 15.09709,3.525674 L 15.09709,3.839248 L 14.866035,3.839248 L 14.866035,5.019912 L 14.566426,5.019912 L 13.759004,3.837979 L 13.759004,3.525674 L 14.520722,3.525674 L 14.520722,3.151162 M 14.520722,3.839248 L 14.09289,3.839248 L 14.520722,4.475283 L 14.520722,3.839248" />
      <path d="M 15.28625,4.146475 L 15.60998,4.088076 C 15.656239,4.21532 15.715642,4.25494 15.844844,4.256924 C 15.938789,4.256924 16.002689,4.242324 16.036543,4.213125 C 16.070397,4.183926 16.087324,4.135049 16.087324,4.066494 L 16.087324,4.030947 Q 15.99084,3.990322 15.740742,3.94335 Q 15.55539,3.907803 15.457002,3.860195 Q 15.358613,3.812588 15.304023,3.723086 Q 15.249433,3.633584 15.249433,3.519326 Q 15.249433,3.34667 15.369404,3.233682 Q 15.489375,3.120693 15.697578,3.120693 Q 15.933076,3.120693 16.115254,3.298428 Q 16.119062,3.288271 16.127949,3.256533 Q 16.148261,3.186709 16.162226,3.151162 L 16.515156,3.151162 Q 16.468183,3.247646 16.451045,3.33207 Q 16.433906,3.416494 16.433906,3.594229 L 16.437715,4.010635 Q 16.437715,4.242959 16.390107,4.329922 Q 16.3425,4.416885 16.225703,4.473379 Q 16.108906,4.529873 15.870234,4.529873 Q 15.607441,4.529873 15.47414,4.435928 Q 15.34084,4.341982 15.28625,4.146475 M 16.087324,3.798623 L 16.087324,3.727529 Q 16.087324,3.599307 16.073359,3.553604 Q 16.053047,3.483779 15.988301,3.435537 Q 15.900703,3.372061 15.804219,3.372061 Q 15.71789,3.372061 15.662031,3.42665 Q 15.606172,3.48124 15.606172,3.556143 Q 15.606172,3.632314 15.675996,3.681826 Q 15.721699,3.712295 15.870234,3.744033 Q 16.018769,3.775771 16.087324,3.798623" />
      <path d="M 17.055976,3.151162 L 17.463496,3.151162 L 17.832929,4.542568 L 18.203633,3.151162 L 18.602265,3.151162 L 19.054219,5.012295 L 18.675898,5.012295 L 18.390254,3.712295 L 18.063984,5.012295 L 17.617109,5.012295 L 17.276875,3.733877 L 16.996308,5.012295 L 16.61164,5.012295 L 17.055976,3.151162" />
      <path d="M 19.220527,3.151162 L 19.577265,3.151162 L 19.577265,4.499404 L 19.220527,4.499404 L 19.220527,3.151162" />
      <path d="M 19.220527,4.682217 L 19.577265,4.682217 L 19.577265,5.012295 L 19.220527,5.012295 L 19.220527,4.682217" />
      <path d="M 20.175215,3.59042 L 19.817207,3.53583 C 19.883619,3.283537 20.095684,3.117387 20.463398,3.120693 C 20.665677,3.120693 20.818444,3.165127 20.921699,3.253994 C 21.024954,3.342861 21.076582,3.449079 21.076582,3.572646 C 21.076582,3.686058 21.039342,3.774502 20.964863,3.837979 Q 20.851875,3.931924 20.566865,3.99667 Q 20.281855,4.061416 20.233613,4.096963 Q 20.198066,4.123623 20.198066,4.161709 Q 20.198066,4.206143 20.238691,4.234072 C 20.279316,4.260309 20.346601,4.273428 20.440547,4.273428 C 20.590827,4.273957 20.664354,4.215347 20.694453,4.110928 L 21.030879,4.173135 Q 20.980097,4.3496 20.845527,4.439736 Q 20.710957,4.529873 20.434199,4.529873 Q 20.143476,4.529873 20.005097,4.410537 Q 19.866719,4.291201 19.866719,4.116006 Q 19.866719,3.921768 20.026679,3.812588 Q 20.142207,3.733877 20.573847,3.638662 Q 20.666523,3.61708 20.693183,3.591689 Q 20.718574,3.565029 20.718574,3.524404 Q 20.718574,3.464736 20.671601,3.429189 C 20.625052,3.395335 20.555651,3.378408 20.463398,3.378408 C 20.294894,3.378011 20.206609,3.452015 20.175215,3.59042" />
      <path d="M 17.960517,123.632302 L 18.411201,123.632302 L 18.825068,124.275954 L 19.237666,123.632302 L 19.690888,123.632302 L 19.054853,124.589529 L 19.63376,125.493435 L 19.19831,125.493435 L 18.832685,124.895486 L 18.459443,125.493435 L 18.020185,125.493435 L 18.596552,124.603494 L 17.960517,123.632302" />
      <path d="M 10.491865,123.632302 L 10.840986,123.632302 L 10.840986,125.097341 L 11.20915,123.632302 L 11.570967,123.632302 L 11.9404,125.097341 L 11.9404,123.632302 L 12.289521,123.632302 L 12.289521,125.493435 L 11.725849,125.493435 L 11.391963,124.223904 L 11.054267,125.493435 L 10.491865,125.493435 L 10.491865,123.632302" />
      <path d="M 13.547627,123.632302 L 13.878974,123.632302 L 13.878974,124.980544 L 13.522236,124.980544 L 13.522236,124.411794 Q 13.522236,124.122341 13.495576,124.048074 Q 13.468916,123.973806 13.396553,123.92366 Q 13.324189,123.873513 13.232783,123.873513 Q 13.152803,123.873513 13.100752,123.910964 Q 13.048701,123.948415 13.029023,124.012527 Q 13.009345,124.076638 13.009345,124.361013 L 13.009345,124.980544 L 12.652607,124.980544 L 12.652607,124.127419 Q 12.652607,123.93699 12.700849,123.829079 Q 12.749092,123.721169 12.857002,123.661501 Q 12.964912,123.601833 13.100752,123.601833 Q 13.234053,123.601833 13.354023,123.66404 Q 13.473994,123.726247 13.547627,123.834158 L 13.547627,123.632302" />
      <path d="M 14.248408,123.632302 L 14.605146,123.632302 L 14.605146,125.493435 L 14.248408,125.493435 L 14.248408,123.632302" />
      <path d="M 15.589033,124.980544 L 15.345283,124.980544 L 15.345283,125.456619 L 14.987275,125.248415 L 14.987275,124.980544 L 14.823506,124.980544 L 14.823506,124.696169 L 14.987275,124.696169 L 14.987275,124.108376 Q 14.987275,123.919216 14.998701,123.857009 C 15.019305,123.738427 15.057231,123.679156 15.16247,123.634206 C 15.214098,123.612624 15.272073,123.601833 15.336396,123.601833 C 15.441344,123.601833 15.535289,123.619607 15.618232,123.655154 L 15.587763,123.931911 C 15.477639,123.892676 15.423953,123.887051 15.384004,123.915408 C 15.3675,123.927257 15.35692,123.942279 15.352265,123.960476 C 15.34761,123.978673 15.345283,124.042784 15.345283,124.15281 L 15.345283,124.696169 L 15.589033,124.696169 L 15.589033,124.980544" />
      <path d="M 15.836592,123.632302 L 16.19333,123.632302 L 16.19333,124.980544 L 15.836592,124.980544 L 15.836592,123.632302" />
      <path d="M 15.836592,125.163357 L 16.19333,125.163357 L 16.19333,125.493435 L 15.836592,125.493435 L 15.836592,125.163357" />
      <path d="M 16.564033,123.632302 L 16.939814,123.632302 L 16.939814,124.42322 L 17.716767,124.42322 L 17.716767,124.738064 L 16.939814,124.738064 L 16.939814,125.178591 L 17.839912,125.178591 L 17.839912,125.493435 L 16.564033,125.493435 L 16.564033,123.632302" />
      <path d="M 7.964234,9.944668 L 8.426734,9.944668 L 8.426734,10.900918 L 8.520484,10.900918 Q 8.679859,10.900918 8.753296,10.875137 Q 8.826734,10.849355 8.892359,10.779824 Q 8.957984,10.710293 9.136109,10.443105 L 9.470484,9.944668 L 10.023609,9.944668 L 9.743921,10.391543 Q 9.578296,10.65873 9.48064,10.763418 Q 9.382984,10.868105 9.232984,10.955605 Q 9.534546,10.999355 9.686109,11.167324 Q 9.837671,11.335293 9.837671,11.593105 Q 9.837671,11.79623 9.737671,11.954043 Q 9.637671,12.111855 9.471265,12.173574 Q 9.304859,12.235293 8.937671,12.235293 L 7.964234,12.235293 L 7.964234,9.944668 M 8.426734,11.266543 L 8.426734,11.847793 L 8.787671,11.847793 Q 9.068921,11.847793 9.125171,11.83998 C 9.274032,11.815794 9.362248,11.716771 9.361109,11.563418 C 9.361109,11.494668 9.345484,11.437376 9.314234,11.391543 C 9.282984,11.345709 9.239755,11.313418 9.184546,11.294668 C 9.129338,11.275918 8.990796,11.266543 8.768921,11.266543 L 8.426734,11.266543" />
      <path d="M 3.682984,9.944668 L 4.145484,9.944668 L 4.145484,12.235293 L 3.682984,12.235293 L 3.682984,9.944668" />
      <path d="M 4.590796,9.944668 L 5.020484,9.944668 L 5.020484,11.438418 L 5.943921,9.944668 L 6.407984,9.944668 L 6.407984,12.235293 L 5.978296,12.235293 L 5.978296,10.705605 L 5.040796,12.235293 L 4.590796,12.235293 L 4.590796,9.944668" />
      <path d="M 6.843921,10.555605 L 7.706421,10.555605 L 7.706421,10.994668 L 6.843921,10.994668 L 6.843921,10.555605" />
      <path d="M 26.163371,9.944668 L 26.625871,9.944668 L 26.625871,10.900918 L 26.719621,10.900918 Q 26.878996,10.900918 26.952434,10.875136 Q 27.025871,10.849355 27.091496,10.779824 Q 27.157121,10.710293 27.335246,10.443105 L 27.669621,9.944668 L 28.222746,9.944668 L 27.943059,10.391543 Q 27.777434,10.65873 27.679778,10.763418 Q 27.582121,10.868105 27.432121,10.955605 Q 27.733684,10.999355 27.885246,11.167324 Q 28.036809,11.335293 28.036809,11.593105 Q 28.036809,11.79623 27.936809,11.954043 Q 27.836809,12.111855 27.670403,12.173574 Q 27.503996,12.235293 27.136809,12.235293 L 26.163371,12.235293 L 26.163371,9.944668 M 26.625871,11.266543 L 26.625871,11.847793 L 26.986809,11.847793 Q 27.268059,11.847793 27.324309,11.83998 C 27.473169,11.815794 27.561386,11.716771 27.560246,11.563418 C 27.560246,11.494668 27.544621,11.437376 27.513371,11.391543 C 27.482121,11.345709 27.438892,11.313418 27.383684,11.294668 C 27.328475,11.275918 27.189934,11.266543 26.968059,11.266543 L 26.625871,11.266543" />
      <path d="M 18.528996,11.663418 Q 18.424309,11.425918 18.424309,11.075918 Q 18.424309,10.529043 18.725871,10.217324 Q 19.027434,9.905605 19.538371,9.905605 Q 20.043059,9.905605 20.344621,10.218886 Q 20.646184,10.532168 20.646184,11.086855 Q 20.646184,11.64623 20.342278,11.960293 Q 20.038371,12.274355 19.532121,12.274355 Q 19.252434,12.274355 19.038371,12.18373 Q 18.877434,12.116543 18.742278,11.97748 Q 18.607121,11.838418 18.528996,11.663418 M 18.900871,11.091543 Q 18.900871,11.486855 19.075871,11.682949 Q 19.250871,11.879043 19.536809,11.879043 Q 19.822746,11.879043 19.995402,11.685293 Q 20.168059,11.491543 20.168059,11.097793 Q 20.168059,10.699355 19.990715,10.500136 Q 19.813371,10.300918 19.536809,10.300918 Q 19.260246,10.300918 19.080559,10.501699 Q 18.900871,10.70248 18.900871,11.091543" />
      <path d="M 21.003996,12.235293 L 21.003996,11.013418 Q 21.003996,10.629043 21.049309,10.432168 C 21.091382,10.258584 21.220516,10.078929 21.446965,9.981387 C 21.559986,9.930866 21.725871,9.905605 21.944621,9.905605 C 22.125871,9.905605 22.272746,9.928782 22.385246,9.975137 C 22.497746,10.021491 22.58759,10.08373 22.654778,10.161855 C 22.721965,10.23998 22.768059,10.335814 22.793059,10.449355 C 22.818059,10.562897 22.830559,10.757168 22.830559,11.032168 L 22.830559,12.235293 L 22.368059,12.235293 L 22.368059,10.968105 C 22.368059,10.786855 22.361288,10.657168 22.347746,10.579043 C 22.334205,10.500918 22.2941,10.435032 22.227434,10.381386 C 22.160767,10.327741 22.061809,10.300918 21.930559,10.300918 C 21.672225,10.297825 21.523267,10.427448 21.483684,10.611855 Q 21.466496,10.699355 21.466496,10.994668 L 21.466496,12.235293 L 21.003996,12.235293" />
      <path d="M 23.833684,9.944668 L 24.296184,9.944668 L 24.296184,11.847793 L 24.974309,11.847793 L 24.974309,12.235293 L 23.153996,12.235293 L 23.153996,11.847793 L 23.833684,11.847793 L 23.833684,9.944668" />
      <path d="M 25.043059,10.555605 L 25.905559,10.555605 L 25.905559,10.994668 L 25.043059,10.994668 L 25.043059,10.555605" />
      <path d="M 8.153296,27.21468 L 9.765796,27.21468 L 9.765796,27.600617 L 8.615796,27.600617 L 8.615796,29.486555 L 8.153296,29.486555 L 8.153296,27.21468" />
      <path d="M 3.861109,27.21468 L 4.323609,27.21468 L 4.323609,29.505305 L 3.861109,29.505305 L 3.861109,27.21468" />
      <path d="M 4.768921,27.21468 L 5.198609,27.21468 L 5.198609,28.70843 L 6.122046,27.21468 L 6.586109,27.21468 L 6.586109,29.505305 L 6.156421,29.505305 L 6.156421,27.975617 L 5.218921,29.505305 L 4.768921,29.505305 L 4.768921,27.21468" />
      <path d="M 7.022046,27.825617 L 7.884546,27.825617 L 7.884546,28.26468 L 7.022046,28.26468 L 7.022046,27.825617" />
      <path d="M 26.352434,27.21468 L 27.964934,27.21468 L 27.964934,27.600617 L 26.814934,27.600617 L 26.814934,29.486555 L 26.352434,29.486555 L 26.352434,27.21468" />
      <path d="M 18.707121,28.93343 Q 18.602434,28.69593 18.602434,28.34593 Q 18.602434,27.799055 18.903996,27.487336 Q 19.205559,27.175617 19.716496,27.175617 Q 20.221184,27.175617 20.522746,27.488898 Q 20.824309,27.80218 20.824309,28.356867 Q 20.824309,28.916242 20.520403,29.230305 Q 20.216496,29.544367 19.710246,29.544367 Q 19.430559,29.544367 19.216496,29.453742 Q 19.055559,29.386555 18.920402,29.247492 Q 18.785246,29.10843 18.707121,28.93343 M 19.078996,28.361555 Q 19.078996,28.756867 19.253996,28.952961 Q 19.428996,29.149055 19.714934,29.149055 Q 20.000871,29.149055 20.173527,28.955305 Q 20.346184,28.761555 20.346184,28.367805 Q 20.346184,27.969367 20.16884,27.770149 Q 19.991496,27.57093 19.714934,27.57093 Q 19.438371,27.57093 19.258684,27.771711 Q 19.078996,27.972492 19.078996,28.361555" />
      <path d="M 21.182121,29.505305 L 21.182121,28.28343 Q 21.182121,27.899055 21.227434,27.70218 Q 21.258684,27.569367 21.357121,27.448274 Q 21.455559,27.32718 21.62509,27.251399 Q 21.794621,27.175617 22.122746,27.175617 Q 22.394621,27.175617 22.563371,27.245149 Q 22.732121,27.31468 22.832902,27.431867 Q 22.933684,27.549055 22.971184,27.719367 Q 23.008684,27.88968 23.008684,28.30218 L 23.008684,29.505305 L 22.546184,29.505305 L 22.546184,28.238117 C 22.546184,28.056867 22.539413,27.92718 22.525871,27.849055 C 22.51233,27.77093 22.472225,27.705044 22.405559,27.651399 C 22.338892,27.597753 22.239934,27.57093 22.108684,27.57093 C 21.85035,27.567837 21.701392,27.69746 21.661809,27.881867 Q 21.644621,27.969367 21.644621,28.26468 L 21.644621,29.505305 L 21.182121,29.505305" />
      <path d="M 24.011809,27.21468 L 24.474309,27.21468 L 24.474309,29.117805 L 25.152434,29.117805 L 25.152434,29.505305 L 23.332121,29.505305 L 23.332121,29.117805 L 24.011809,29.117805 L 24.011809,27.21468" />
      <path d="M 25.221184,27.825617 L 26.083684,27.825617 L 26.083684,28.26468 L 25.221184,28.26468 L 25.221184,27.825617" />
      <path d="M 9.432984,44.484604 L 9.432984,46.784604 L 9.076734,46.784604 Q 9.001734,46.575229 8.800171,46.418197 Q 8.598609,46.261166 8.426734,46.204916 L 8.426734,45.806479 Q 8.753296,45.914291 8.993921,46.139291 L 8.993921,44.484604 L 9.432984,44.484604" />
      <path d="M 5.875171,45.184604 L 5.426734,45.326791 C 5.352092,44.989584 5.162313,44.842644 4.918921,44.840854 C 4.752255,44.840854 4.616838,44.902312 4.512671,45.025229 C 4.408505,45.148145 4.356421,45.354395 4.356421,45.643979 C 4.356421,45.916895 4.409286,46.114291 4.515015,46.236166 C 4.620744,46.358041 4.758505,46.418979 4.928296,46.418979 C 5.051213,46.418979 5.15564,46.384604 5.241578,46.315854 C 5.327515,46.247104 5.384025,46.153354 5.411109,46.034604 L 5.868921,46.143979 Q 5.790796,46.418979 5.634546,46.565854 C 5.459546,46.731479 5.231942,46.814291 4.951734,46.814291 C 4.6309,46.814291 4.372046,46.708823 4.175171,46.497885 C 3.978296,46.286947 3.879859,45.990854 3.879859,45.609604 C 3.879859,45.249187 3.977775,44.965072 4.173609,44.75726 C 4.369442,44.549448 4.619442,44.445541 4.923609,44.445541 C 5.414462,44.446681 5.738485,44.683464 5.875171,45.184604" />
      <path d="M 6.856421,44.484604 L 7.350171,44.484604 L 8.170484,46.775229 L 7.679859,46.775229 L 7.118921,45.079916 L 6.539234,46.775229 L 6.037671,46.775229 L 6.856421,44.484604" />
      <path d="M 26.214152,44.892416 L 25.342277,44.892416 Q 25.376652,44.951791 25.432121,45.014291 Q 25.48759,45.076791 25.695402,45.267416 Q 25.903215,45.458041 25.982902,45.559604 C 26.144296,45.7667 26.213176,45.937924 26.214152,46.147104 C 26.214152,46.328354 26.149569,46.479916 26.020403,46.601791 C 25.891236,46.723666 25.713632,46.784604 25.48759,46.784604 C 25.28134,46.784604 25.109465,46.732 24.971965,46.626791 C 24.834465,46.521583 24.752694,46.348145 24.726653,46.106479 L 25.164153,46.062729 C 25.179517,46.321746 25.294621,46.417774 25.476653,46.420541 C 25.569361,46.420541 25.642017,46.394239 25.694621,46.341635 C 25.747225,46.289031 25.773528,46.21377 25.773528,46.115854 C 25.773527,46.027312 25.743319,45.937729 25.682902,45.847104 Q 25.615715,45.748666 25.31884,45.472104 Q 24.95009,45.129916 24.82509,44.922885 Q 24.70009,44.715854 24.67509,44.484604 L 26.214152,44.484604 L 26.214152,44.892416" />
      <path d="M 22.296965,45.184604 L 21.848527,45.326791 C 21.773886,44.989584 21.584107,44.842644 21.340715,44.840854 C 21.174048,44.840854 21.038632,44.902312 20.934465,45.025229 C 20.830298,45.148145 20.778215,45.354395 20.778215,45.643979 C 20.778215,45.916895 20.83108,46.114291 20.936809,46.236166 C 21.042538,46.358041 21.180298,46.418979 21.35009,46.418979 C 21.473007,46.418979 21.577434,46.384604 21.663371,46.315854 C 21.749309,46.247104 21.805819,46.153354 21.832902,46.034604 L 22.290715,46.143979 Q 22.21259,46.418979 22.05634,46.565854 C 21.88134,46.731479 21.653736,46.814291 21.373527,46.814291 C 21.052694,46.814291 20.79384,46.708822 20.596965,46.497885 C 20.40009,46.286947 20.301653,45.990854 20.301652,45.609604 C 20.301653,45.249187 20.399569,44.965073 20.595402,44.75726 C 20.791236,44.549448 21.041236,44.445541 21.345402,44.445541 C 21.836255,44.446681 22.160279,44.683464 22.296965,45.184604" />
      <path d="M 23.278215,44.484604 L 23.771965,44.484604 L 24.592278,46.775229 L 24.101653,46.775229 L 23.540715,45.079916 L 22.961028,46.775229 L 22.459465,46.775229 L 23.278215,44.484604" />
      <path d="M 9.432984,61.754624 L 9.432984,64.054624 L 9.076734,64.054624 Q 9.001734,63.845249 8.800171,63.688218 Q 8.598609,63.531186 8.426734,63.474936 L 8.426734,63.076499 Q 8.753296,63.184311 8.993921,63.409311 L 8.993921,61.754624 L 9.432984,61.754624" />
      <path d="M 5.875171,62.454624 L 5.426734,62.596811 C 5.352092,62.259604 5.162313,62.112664 4.918921,62.110874 C 4.752255,62.110874 4.616838,62.172332 4.512671,62.295249 C 4.408505,62.418165 4.356421,62.624415 4.356421,62.913999 C 4.356421,63.186915 4.409286,63.384311 4.515015,63.506186 C 4.620744,63.628061 4.758505,63.688999 4.928296,63.688999 C 5.051213,63.688999 5.15564,63.654624 5.241578,63.585874 C 5.327515,63.517124 5.384025,63.423374 5.411109,63.304624 L 5.868921,63.413999 Q 5.790796,63.688999 5.634546,63.835874 C 5.459546,64.001499 5.231942,64.084311 4.951734,64.084311 C 4.6309,64.084311 4.372046,63.978843 4.175171,63.767905 C 3.978296,63.556967 3.879859,63.260874 3.879859,62.879624 C 3.879859,62.519207 3.977775,62.235092 4.173609,62.02728 C 4.369442,61.819468 4.619442,61.715561 4.923609,61.715561 C 5.414462,61.716701 5.738485,61.953484 5.875171,62.454624" />
      <path d="M 6.856421,61.754624 L 7.350171,61.754624 L 8.170484,64.045249 L 7.679859,64.045249 L 7.118921,62.349936 L 6.539234,64.045249 L 6.037671,64.045249 L 6.856421,61.754624" />
      <path d="M 26.214152,62.162436 L 25.342277,62.162436 Q 25.376652,62.221811 25.432121,62.284311 Q 25.48759,62.346811 25.695402,62.537436 Q 25.903215,62.728061 25.982902,62.829624 C 26.144296,63.03672 26.213176,63.207944 26.214153,63.417124 C 26.214152,63.598374 26.149569,63.749936 26.020403,63.871811 C 25.891236,63.993686 25.713632,64.054624 25.48759,64.054624 C 25.28134,64.054624 25.109465,64.00202 24.971965,63.896811 C 24.834465,63.791603 24.752694,63.618165 24.726653,63.376499 L 25.164153,63.332749 C 25.179517,63.591766 25.294621,63.687794 25.476653,63.690561 C 25.569361,63.690561 25.642017,63.664259 25.694621,63.611655 C 25.747225,63.559051 25.773528,63.48379 25.773528,63.385874 C 25.773527,63.297332 25.743319,63.207749 25.682902,63.117124 Q 25.615715,63.018686 25.31884,62.742124 Q 24.95009,62.399936 24.82509,62.192905 Q 24.70009,61.985874 24.67509,61.754624 L 26.214152,61.754624 L 26.214152,62.162436" />
      <path d="M 22.296965,62.454624 L 21.848527,62.596811 C 21.773886,62.259604 21.584107,62.112664 21.340715,62.110874 C 21.174048,62.110874 21.038632,62.172332 20.934465,62.295249 C 20.830298,62.418165 20.778215,62.624415 20.778215,62.913999 C 20.778215,63.186915 20.83108,63.384311 20.936809,63.506186 C 21.042538,63.628061 21.180298,63.688999 21.35009,63.688999 C 21.473007,63.688999 21.577434,63.654624 21.663371,63.585874 C 21.749309,63.517124 21.805819,63.423374 21.832902,63.304624 L 22.290715,63.413999 Q 22.21259,63.688999 22.05634,63.835874 C 21.88134,64.001499 21.653736,64.084311 21.373527,64.084311 C 21.052694,64.084311 20.79384,63.978842 20.596965,63.767905 C 20.40009,63.556967 20.301653,63.260874 20.301652,62.879624 C 20.301653,62.519207 20.399569,62.235093 20.595402,62.02728 C 20.791236,61.819468 21.041236,61.715561 21.345402,61.715561 C 21.836255,61.716701 22.160279,61.953484 22.296965,62.454624" />
      <path d="M 23.278215,61.754624 L 23.771965,61.754624 L 24.592278,64.045249 L 24.101653,64.045249 L 23.540715,62.349936 L 22.961028,64.045249 L 22.459465,64.045249 L 23.278215,61.754624" />
      <path d="M 7.462671,79.024549 L 8.017359,79.024549 L 8.526734,79.816736 L 9.034546,79.024549 L 9.592359,79.024549 L 8.809546,80.202674 L 9.522046,81.315174 L 8.986109,81.315174 L 8.536109,80.579236 L 8.076734,81.315174 L 7.536109,81.315174 L 8.245484,80.219861 L 7.462671,79.024549" />
      <path d="M 4.134546,79.024549 L 4.564234,79.024549 L 4.564234,80.827674 L 5.017359,79.024549 L 5.462671,79.024549 L 5.917359,80.827674 L 5.917359,79.024549 L 6.347046,79.024549 L 6.347046,81.315174 L 5.653296,81.315174 L 5.242359,79.752674 L 4.826734,81.315174 L 4.134546,81.315174 L 4.134546,79.024549" />
      <path d="M 6.792359,79.024549 L 7.254859,79.024549 L 7.254859,81.315174 L 6.792359,81.315174 L 6.792359,79.024549" />
      <path d="M 28.368059,79.024549 L 28.830559,79.024549 L 28.830559,80.927674 L 29.508684,80.927674 L 29.508684,81.315174 L 27.688371,81.315174 L 27.688371,80.927674 L 28.368059,80.927674 L 28.368059,79.024549" />
      <path d="M 17.516496,79.813611 L 17.066496,79.769861 C 17.128378,79.259152 17.431177,78.982133 18.011809,78.983924 C 18.410539,78.984412 18.672974,79.093331 18.819621,79.322986 C 18.892538,79.43757 18.928996,79.560486 18.928996,79.691736 C 18.928996,79.836528 18.898527,79.958142 18.83759,80.05658 C 18.776653,80.155018 18.692277,80.232622 18.584465,80.289393 C 18.476653,80.346163 18.310246,80.401111 18.085246,80.454236 C 17.860246,80.507361 17.71858,80.558403 17.660246,80.607361 Q 17.591496,80.665174 17.591496,80.746424 Q 17.591496,80.835486 17.664934,80.888611 Q 17.778996,80.971424 17.980559,80.971424 Q 18.175871,80.971424 18.273528,80.89408 Q 18.371184,80.816736 18.400871,80.640174 L 18.863371,80.660486 Q 18.852434,80.976111 18.634465,81.165174 Q 18.416496,81.354236 17.985246,81.354236 Q 17.721184,81.354236 17.534465,81.274549 Q 17.347746,81.194861 17.248527,81.042518 Q 17.149309,80.890174 17.149309,80.715174 Q 17.149309,80.443299 17.360246,80.254236 Q 17.510246,80.119861 17.882121,80.027674 Q 18.171184,79.955799 18.252434,79.927674 C 18.413209,79.870447 18.464055,79.799484 18.466496,79.690174 C 18.466496,79.605799 18.428736,79.532101 18.353215,79.46908 C 18.277694,79.406059 18.165455,79.374549 18.016496,79.374549 C 17.734921,79.376014 17.570988,79.510063 17.516496,79.813611" />
      <path d="M 19.318059,79.024549 L 21.060246,79.024549 L 21.060246,79.410486 L 19.780559,79.410486 L 19.780559,80.033924 L 20.930559,80.033924 L 20.930559,80.419861 L 19.780559,80.419861 L 19.780559,80.927674 L 21.016496,80.927674 L 21.016496,81.315174 L 19.318059,81.315174 L 19.318059,79.024549" />
      <path d="M 21.464934,79.024549 L 23.077434,79.024549 L 23.077434,79.410486 L 21.927434,79.410486 L 21.927434,81.296424 L 21.464934,81.296424 L 21.464934,79.024549" />
      <path d="M 23.407121,79.024549 L 25.149309,79.024549 L 25.149309,79.410486 L 23.869621,79.410486 L 23.869621,80.033924 L 25.019621,80.033924 L 25.019621,80.419861 L 23.869621,80.419861 L 23.869621,80.927674 L 25.105559,80.927674 L 25.105559,81.315174 L 23.407121,81.315174 L 23.407121,79.024549" />
      <path d="M 27.455559,79.724549 L 27.007121,79.866736 C 26.932479,79.529529 26.742701,79.382589 26.499309,79.380799 C 26.332642,79.380799 26.197225,79.442257 26.093059,79.565174 C 25.988892,79.68809 25.936809,79.89434 25.936809,80.183924 C 25.936809,80.45684 25.989673,80.654236 26.095403,80.776111 C 26.201132,80.897986 26.338892,80.958924 26.508684,80.958924 C 26.6316,80.958924 26.736028,80.924549 26.821965,80.855799 C 26.907902,80.787049 26.964413,80.693299 26.991496,80.574549 L 27.449309,80.683924 Q 27.371184,80.958924 27.214934,81.105799 C 27.039934,81.271424 26.81233,81.354236 26.532121,81.354236 C 26.211288,81.354236 25.952434,81.248767 25.755559,81.03783 C 25.558684,80.826892 25.460246,80.530799 25.460246,80.149549 C 25.460246,79.789132 25.558163,79.505017 25.753996,79.297205 C 25.94983,79.089392 26.19983,78.985486 26.503996,78.985486 C 26.994849,78.986626 27.318873,79.223409 27.455559,79.724549" />
    </g>
    <g fill="none" stroke="rgb(0,0,0)" stroke-width="0.09" id="secondary">
      <path d="M 24.060857,41.847958 L 24.364372,41.847958 L 24.364372,42.302206 L 24.610466,42.553427 L 25.023698,41.847958 L 25.416423,41.847958 L 24.819646,42.765683 L 25.385661,43.351181 L 24.977556,43.351181 L 24.364372,42.683652 L 24.364372,43.351181 L 24.060857,43.351181 L 24.060857,41.847958" />
      <path d="M 22.513542,42.307333 L 22.219255,42.400644 C 22.170271,42.179352 22.045729,42.082922 21.886003,42.081747 C 21.776628,42.081747 21.687761,42.122079 21.619402,42.202743 C 21.551042,42.283407 21.516862,42.418759 21.516862,42.608798 C 21.516862,42.7879 21.551555,42.917441 21.62094,42.997421 C 21.690324,43.077402 21.78073,43.117392 21.892155,43.117392 C 22.05124,43.119315 22.175697,43.019082 22.209001,42.865146 L 22.509441,42.936923 Q 22.458171,43.117392 22.355632,43.213779 C 22.240788,43.32247 22.091423,43.376816 21.907536,43.376816 C 21.696989,43.376816 21.527116,43.307602 21.397917,43.169174 C 21.268718,43.030746 21.204118,42.836435 21.204118,42.586239 C 21.204118,42.349716 21.268376,42.163266 21.396892,42.026889 C 21.525407,41.890512 21.68947,41.822323 21.889079,41.822323 C 22.211201,41.823071 22.423842,41.978461 22.513542,42.307333" />
      <path d="M 22.782194,41.847958 L 23.840398,41.847958 L 23.840398,42.10123 L 23.08571,42.10123 L 23.08571,43.338876 L 22.782194,43.338876 L 22.782194,41.847958" />
      <path d="M 24.988322,77.891126 L 24.988322,77.08927 Q 24.988322,76.837024 25.018059,76.707825 C 25.031731,76.64972 25.0601,76.594178 25.103166,76.541199 C 25.146233,76.488221 25.204851,76.445154 25.279021,76.412 C 25.353191,76.378846 25.462053,76.362268 25.605608,76.362268 C 25.845902,76.360773 25.981061,76.429389 26.071648,76.530433 C 26.115739,76.581702 26.145988,76.644593 26.162395,76.719104 C 26.178801,76.793616 26.187004,76.921106 26.187004,77.101575 L 26.187004,77.891126 L 25.883488,77.891126 L 25.883488,77.059534 C 25.883488,76.940589 25.879045,76.855481 25.870158,76.804212 C 25.861272,76.752942 25.834953,76.709705 25.791203,76.6745 C 25.747453,76.639295 25.682512,76.621692 25.596379,76.621692 C 25.426848,76.619663 25.329094,76.704728 25.303117,76.825745 Q 25.291838,76.883167 25.291838,77.076966 L 25.291838,77.891126 L 24.988322,77.891126" />
      <path d="M 20.319719,76.387903 L 20.601701,76.387903 L 20.601701,77.571204 L 20.899065,76.387903 L 21.191301,76.387903 L 21.48969,77.571204 L 21.48969,76.387903 L 21.771672,76.387903 L 21.771672,77.891126 L 21.316399,77.891126 L 21.046721,76.865735 L 20.773967,77.891126 L 20.319719,77.891126 L 20.319719,76.387903" />
      <path d="M 22.073137,76.387903 L 23.216447,76.387903 L 23.216447,76.641175 L 22.376652,76.641175 L 22.376652,77.050306 L 23.13134,77.050306 L 23.13134,77.303577 L 22.376652,77.303577 L 22.376652,77.636829 L 23.187736,77.636829 L 23.187736,77.891126 L 22.073137,77.891126 L 22.073137,76.387903" />
      <path d="M 23.476897,76.387903 L 23.758879,76.387903 L 23.758879,77.368177 L 24.364885,76.387903 L 24.669426,76.387903 L 24.669426,77.891126 L 24.387444,77.891126 L 24.387444,76.887268 L 23.772209,77.891126 L 23.476897,77.891126 L 23.476897,76.387903" />
    </g>
    <g fill="none" stroke="rgb(0,0,0)" stroke-width="0.09" id="calibration">
      <path d="M 36.00248,16.0 L 36.00248,6.0 L 46.00248,6.0 L 46.00248,16.0 L 36.00248,16.0" />
    </g>
  </g>
</svg>