M48
METRIC,TZ
T1C3.000
T2C3.200
T3C5.500
T4C6.200
T5C7.200
%
G90
G05
T2
X51945Y-46347
T3
X35195Y-86383
T4
X33695Y-111657
X33695Y-125407
X33695Y-138995
X45862Y-111657
X45862Y-125407
X45862Y-138995
X52048Y-89052
X58028Y-111657
X58028Y-125407
X58028Y-138995
X68700Y-86383
X70195Y-111657
X70195Y-125407
X70195Y-138995
T5
X37721Y-49999
X37721Y-69122
X66195Y-49999
X66195Y-69122
T1
G00X33045Y-30095
M15
G01X35045Y-30095
M16
G05
G00X68645Y-152595
M15
G01X70645Y-152595
M16
G05
M30
