M48
; DRILL file {KiCad 9.0.7} date 2026-08-24T11:25:08+0100
; FORMAT={-:-/ absolute / metric / decimal}
; #@! TF.CreationDate,2026-08-24T11:25:08+01:00
; #@! TF.GenerationSoftware,Kicad,Pcbnew,9.0.7
; #@! TF.FileFunction,NonPlated,1,2,NPTH
FMAT,2
METRIC
; #@! TA.AperFunction,NonPlated,NPTH,ComponentDrill
T1C1.700
; #@! TA.AperFunction,NonPlated,NPTH,ComponentDrill
T2C2.200
; #@! TA.AperFunction,NonPlated,NPTH,ComponentDrill
T3C3.200
; #@! TA.AperFunction,NonPlated,NPTH,ComponentDrill
T4C7.200
; #@! TA.AperFunction,NonPlated,NPTH,ComponentDrill
T5C7.500
; #@! TA.AperFunction,NonPlated,NPTH,ComponentDrill
T6C8.000
%
G90
G05
T1
X27.92Y-28.8
T2
X44.77Y-84.2
X44.77Y-89.3
X52.27Y-84.2
X52.27Y-89.3
X77.02Y-79.2
X82.35Y-79.2
X87.69Y-79.2
X93.02Y-79.2
T4
X5.0Y-100.0
X5.0Y-112.7
X5.5Y-87.3
X15.16Y-100.0
X15.16Y-112.7
X15.66Y-87.3
X25.32Y-100.0
X25.32Y-112.7
X35.48Y-100.0
X35.48Y-112.7
X48.18Y-100.0
X48.18Y-112.7
X60.88Y-100.0
X60.88Y-112.7
X71.04Y-100.0
X71.04Y-112.7
X83.74Y-100.0
X83.74Y-112.7
X96.44Y-100.0
X96.44Y-112.7
T5
X39.35Y-87.2
X62.21Y-87.2
T6
X16.49Y-17.4
X16.49Y-40.3
X16.49Y-64.38
X39.35Y-17.4
X39.35Y-40.3
X62.21Y-17.4
X62.21Y-40.3
X85.07Y-17.4
X85.07Y-40.3
X85.07Y-64.38
T3
X6.025Y-3.025G85X9.025Y-3.025
G05
X6.025Y-125.525G85X9.025Y-125.525
G05
X92.385Y-3.025G85X95.385Y-3.025
G05
X92.385Y-125.525G85X95.385Y-125.525
G05
M30
