%TF.GenerationSoftware,KiCad,Pcbnew,9.0.7*%
%TF.CreationDate,2026-08-24T11:25:08+01:00*%
%TF.ProjectId,girl_20hp,6769726c-5f32-4306-9870-2e6b69636164,rev?*%
%TF.SameCoordinates,Original*%
%TF.FileFunction,Soldermask,Bot*%
%TF.FilePolarity,Negative*%
%FSLAX46Y46*%
G04 Gerber Fmt 4.6, Leading zero omitted, Abs format (unit mm)*
G04 Created by KiCad (PCBNEW 9.0.7) date 2026-08-24 11:25:08*
%MOMM*%
%LPD*%
G01*
G04 APERTURE LIST*
%ADD10O,6.600000X3.600000*%
%ADD11C,8.200000*%
%ADD12C,1.900000*%
%ADD13C,2.400000*%
%ADD14C,7.700000*%
%ADD15C,7.400000*%
G04 APERTURE END LIST*
D10*
%TO.C,PANEL*%
X7525000Y-3025000D03*
X93885000Y-3025000D03*
D11*
X16490000Y-17400000D03*
X39350000Y-17400000D03*
X62210000Y-17400000D03*
X85070000Y-17400000D03*
D12*
X27920000Y-28800000D03*
D11*
X16490000Y-40300000D03*
X39350000Y-40300000D03*
X62210000Y-40300000D03*
X85070000Y-40300000D03*
X16490000Y-64380000D03*
X85070000Y-64380000D03*
D13*
X77020000Y-79200000D03*
X82350000Y-79200000D03*
X87690000Y-79200000D03*
X93020000Y-79200000D03*
X44770000Y-84200000D03*
X52270000Y-84200000D03*
D14*
X39350000Y-87200000D03*
X62210000Y-87200000D03*
D15*
X5500000Y-87300000D03*
X15660000Y-87300000D03*
D13*
X44770000Y-89300000D03*
X52270000Y-89300000D03*
D15*
X5000000Y-100000000D03*
X15160000Y-100000000D03*
X25320000Y-100000000D03*
X35480000Y-100000000D03*
X48180000Y-100000000D03*
X60880000Y-100000000D03*
X71040000Y-100000000D03*
X83740000Y-100000000D03*
X96440000Y-100000000D03*
X5000000Y-112700000D03*
X15160000Y-112700000D03*
X25320000Y-112700000D03*
X35480000Y-112700000D03*
X48180000Y-112700000D03*
X60880000Y-112700000D03*
X71040000Y-112700000D03*
X83740000Y-112700000D03*
X96440000Y-112700000D03*
D10*
X7525000Y-125525000D03*
X93885000Y-125525000D03*
%TD*%
M02*
