%TF.GenerationSoftware,KiCad,Pcbnew,9.0.7*%
%TF.CreationDate,2026-08-24T11:25:08+01:00*%
%TF.ProjectId,girl_20hp,6769726c-5f32-4306-9870-2e6b69636164,rev?*%
%TF.SameCoordinates,Original*%
%TF.FileFunction,Legend,Top*%
%TF.FilePolarity,Positive*%
%FSLAX46Y46*%
G04 Gerber Fmt 4.6, Leading zero omitted, Abs format (unit mm)*
G04 Created by KiCad (PCBNEW 9.0.7) date 2026-08-24 11:25:08*
%MOMM*%
%LPD*%
G01*
G04 APERTURE LIST*
%ADD10C,0.323000*%
%ADD11C,0.255000*%
%ADD12C,0.340000*%
%ADD13C,0.272000*%
%ADD14C,0.238000*%
%ADD15C,0.510000*%
%ADD16C,1.200000*%
G04 APERTURE END LIST*
D10*
X14731142Y-26852656D02*
X14600857Y-26762180D01*
X14600857Y-26762180D02*
X14405428Y-26762180D01*
X14405428Y-26762180D02*
X14209999Y-26852656D01*
X14209999Y-26852656D02*
X14079714Y-27033608D01*
X14079714Y-27033608D02*
X14014571Y-27214561D01*
X14014571Y-27214561D02*
X13949428Y-27576465D01*
X13949428Y-27576465D02*
X13949428Y-27847894D01*
X13949428Y-27847894D02*
X14014571Y-28209799D01*
X14014571Y-28209799D02*
X14079714Y-28390751D01*
X14079714Y-28390751D02*
X14209999Y-28571704D01*
X14209999Y-28571704D02*
X14405428Y-28662180D01*
X14405428Y-28662180D02*
X14535714Y-28662180D01*
X14535714Y-28662180D02*
X14731142Y-28571704D01*
X14731142Y-28571704D02*
X14796285Y-28481227D01*
X14796285Y-28481227D02*
X14796285Y-27847894D01*
X14796285Y-27847894D02*
X14535714Y-27847894D01*
X15382571Y-27666942D02*
X15838571Y-27666942D01*
X16033999Y-28662180D02*
X15382571Y-28662180D01*
X15382571Y-28662180D02*
X15382571Y-26762180D01*
X15382571Y-26762180D02*
X16033999Y-26762180D01*
X16880856Y-26762180D02*
X17141428Y-26762180D01*
X17141428Y-26762180D02*
X17271713Y-26852656D01*
X17271713Y-26852656D02*
X17401999Y-27033608D01*
X17401999Y-27033608D02*
X17467142Y-27395513D01*
X17467142Y-27395513D02*
X17467142Y-28028846D01*
X17467142Y-28028846D02*
X17401999Y-28390751D01*
X17401999Y-28390751D02*
X17271713Y-28571704D01*
X17271713Y-28571704D02*
X17141428Y-28662180D01*
X17141428Y-28662180D02*
X16880856Y-28662180D01*
X16880856Y-28662180D02*
X16750571Y-28571704D01*
X16750571Y-28571704D02*
X16620285Y-28390751D01*
X16620285Y-28390751D02*
X16555142Y-28028846D01*
X16555142Y-28028846D02*
X16555142Y-27395513D01*
X16555142Y-27395513D02*
X16620285Y-27033608D01*
X16620285Y-27033608D02*
X16750571Y-26852656D01*
X16750571Y-26852656D02*
X16880856Y-26762180D01*
X18053428Y-28662180D02*
X18053428Y-26762180D01*
X18053428Y-26762180D02*
X18509428Y-28119323D01*
X18509428Y-28119323D02*
X18965428Y-26762180D01*
X18965428Y-26762180D02*
X18965428Y-28662180D01*
D11*
X14895714Y-30480668D02*
X14895714Y-28980668D01*
X14895714Y-28980668D02*
X15152857Y-28980668D01*
X15152857Y-28980668D02*
X15307143Y-29052097D01*
X15307143Y-29052097D02*
X15410000Y-29194954D01*
X15410000Y-29194954D02*
X15461429Y-29337811D01*
X15461429Y-29337811D02*
X15512857Y-29623525D01*
X15512857Y-29623525D02*
X15512857Y-29837811D01*
X15512857Y-29837811D02*
X15461429Y-30123525D01*
X15461429Y-30123525D02*
X15410000Y-30266382D01*
X15410000Y-30266382D02*
X15307143Y-30409240D01*
X15307143Y-30409240D02*
X15152857Y-30480668D01*
X15152857Y-30480668D02*
X14895714Y-30480668D01*
X15975714Y-30480668D02*
X15975714Y-28980668D01*
X16438572Y-30409240D02*
X16592858Y-30480668D01*
X16592858Y-30480668D02*
X16850000Y-30480668D01*
X16850000Y-30480668D02*
X16952858Y-30409240D01*
X16952858Y-30409240D02*
X17004286Y-30337811D01*
X17004286Y-30337811D02*
X17055715Y-30194954D01*
X17055715Y-30194954D02*
X17055715Y-30052097D01*
X17055715Y-30052097D02*
X17004286Y-29909240D01*
X17004286Y-29909240D02*
X16952858Y-29837811D01*
X16952858Y-29837811D02*
X16850000Y-29766382D01*
X16850000Y-29766382D02*
X16644286Y-29694954D01*
X16644286Y-29694954D02*
X16541429Y-29623525D01*
X16541429Y-29623525D02*
X16490000Y-29552097D01*
X16490000Y-29552097D02*
X16438572Y-29409240D01*
X16438572Y-29409240D02*
X16438572Y-29266382D01*
X16438572Y-29266382D02*
X16490000Y-29123525D01*
X16490000Y-29123525D02*
X16541429Y-29052097D01*
X16541429Y-29052097D02*
X16644286Y-28980668D01*
X16644286Y-28980668D02*
X16901429Y-28980668D01*
X16901429Y-28980668D02*
X17055715Y-29052097D01*
X17518571Y-30480668D02*
X17518571Y-28980668D01*
X17518571Y-28980668D02*
X17930000Y-28980668D01*
X17930000Y-28980668D02*
X18032857Y-29052097D01*
X18032857Y-29052097D02*
X18084286Y-29123525D01*
X18084286Y-29123525D02*
X18135714Y-29266382D01*
X18135714Y-29266382D02*
X18135714Y-29480668D01*
X18135714Y-29480668D02*
X18084286Y-29623525D01*
X18084286Y-29623525D02*
X18032857Y-29694954D01*
X18032857Y-29694954D02*
X17930000Y-29766382D01*
X17930000Y-29766382D02*
X17518571Y-29766382D01*
X15178571Y-32337811D02*
X15127143Y-32409240D01*
X15127143Y-32409240D02*
X14972857Y-32480668D01*
X14972857Y-32480668D02*
X14870000Y-32480668D01*
X14870000Y-32480668D02*
X14715714Y-32409240D01*
X14715714Y-32409240D02*
X14612857Y-32266382D01*
X14612857Y-32266382D02*
X14561428Y-32123525D01*
X14561428Y-32123525D02*
X14510000Y-31837811D01*
X14510000Y-31837811D02*
X14510000Y-31623525D01*
X14510000Y-31623525D02*
X14561428Y-31337811D01*
X14561428Y-31337811D02*
X14612857Y-31194954D01*
X14612857Y-31194954D02*
X14715714Y-31052097D01*
X14715714Y-31052097D02*
X14870000Y-30980668D01*
X14870000Y-30980668D02*
X14972857Y-30980668D01*
X14972857Y-30980668D02*
X15127143Y-31052097D01*
X15127143Y-31052097D02*
X15178571Y-31123525D01*
X15641428Y-32480668D02*
X15641428Y-30980668D01*
X15641428Y-31694954D02*
X16258571Y-31694954D01*
X16258571Y-32480668D02*
X16258571Y-30980668D01*
X17390000Y-32480668D02*
X17030000Y-31766382D01*
X16772857Y-32480668D02*
X16772857Y-30980668D01*
X16772857Y-30980668D02*
X17184286Y-30980668D01*
X17184286Y-30980668D02*
X17287143Y-31052097D01*
X17287143Y-31052097D02*
X17338572Y-31123525D01*
X17338572Y-31123525D02*
X17390000Y-31266382D01*
X17390000Y-31266382D02*
X17390000Y-31480668D01*
X17390000Y-31480668D02*
X17338572Y-31623525D01*
X17338572Y-31623525D02*
X17287143Y-31694954D01*
X17287143Y-31694954D02*
X17184286Y-31766382D01*
X17184286Y-31766382D02*
X16772857Y-31766382D01*
X17852857Y-32480668D02*
X17852857Y-30980668D01*
X17852857Y-30980668D02*
X18110000Y-30980668D01*
X18110000Y-30980668D02*
X18264286Y-31052097D01*
X18264286Y-31052097D02*
X18367143Y-31194954D01*
X18367143Y-31194954D02*
X18418572Y-31337811D01*
X18418572Y-31337811D02*
X18470000Y-31623525D01*
X18470000Y-31623525D02*
X18470000Y-31837811D01*
X18470000Y-31837811D02*
X18418572Y-32123525D01*
X18418572Y-32123525D02*
X18367143Y-32266382D01*
X18367143Y-32266382D02*
X18264286Y-32409240D01*
X18264286Y-32409240D02*
X18110000Y-32480668D01*
X18110000Y-32480668D02*
X17852857Y-32480668D01*
D10*
X36516285Y-27666942D02*
X36711713Y-27757418D01*
X36711713Y-27757418D02*
X36776856Y-27847894D01*
X36776856Y-27847894D02*
X36841999Y-28028846D01*
X36841999Y-28028846D02*
X36841999Y-28300275D01*
X36841999Y-28300275D02*
X36776856Y-28481227D01*
X36776856Y-28481227D02*
X36711713Y-28571704D01*
X36711713Y-28571704D02*
X36581428Y-28662180D01*
X36581428Y-28662180D02*
X36060285Y-28662180D01*
X36060285Y-28662180D02*
X36060285Y-26762180D01*
X36060285Y-26762180D02*
X36516285Y-26762180D01*
X36516285Y-26762180D02*
X36646571Y-26852656D01*
X36646571Y-26852656D02*
X36711713Y-26943132D01*
X36711713Y-26943132D02*
X36776856Y-27124084D01*
X36776856Y-27124084D02*
X36776856Y-27305037D01*
X36776856Y-27305037D02*
X36711713Y-27485989D01*
X36711713Y-27485989D02*
X36646571Y-27576465D01*
X36646571Y-27576465D02*
X36516285Y-27666942D01*
X36516285Y-27666942D02*
X36060285Y-27666942D01*
X38209999Y-28662180D02*
X37753999Y-27757418D01*
X37428285Y-28662180D02*
X37428285Y-26762180D01*
X37428285Y-26762180D02*
X37949428Y-26762180D01*
X37949428Y-26762180D02*
X38079713Y-26852656D01*
X38079713Y-26852656D02*
X38144856Y-26943132D01*
X38144856Y-26943132D02*
X38209999Y-27124084D01*
X38209999Y-27124084D02*
X38209999Y-27395513D01*
X38209999Y-27395513D02*
X38144856Y-27576465D01*
X38144856Y-27576465D02*
X38079713Y-27666942D01*
X38079713Y-27666942D02*
X37949428Y-27757418D01*
X37949428Y-27757418D02*
X37428285Y-27757418D01*
X38796285Y-28662180D02*
X38796285Y-26762180D01*
X40164285Y-26852656D02*
X40034000Y-26762180D01*
X40034000Y-26762180D02*
X39838571Y-26762180D01*
X39838571Y-26762180D02*
X39643142Y-26852656D01*
X39643142Y-26852656D02*
X39512857Y-27033608D01*
X39512857Y-27033608D02*
X39447714Y-27214561D01*
X39447714Y-27214561D02*
X39382571Y-27576465D01*
X39382571Y-27576465D02*
X39382571Y-27847894D01*
X39382571Y-27847894D02*
X39447714Y-28209799D01*
X39447714Y-28209799D02*
X39512857Y-28390751D01*
X39512857Y-28390751D02*
X39643142Y-28571704D01*
X39643142Y-28571704D02*
X39838571Y-28662180D01*
X39838571Y-28662180D02*
X39968857Y-28662180D01*
X39968857Y-28662180D02*
X40164285Y-28571704D01*
X40164285Y-28571704D02*
X40229428Y-28481227D01*
X40229428Y-28481227D02*
X40229428Y-27847894D01*
X40229428Y-27847894D02*
X39968857Y-27847894D01*
X40815714Y-28662180D02*
X40815714Y-26762180D01*
X40815714Y-27666942D02*
X41597428Y-27666942D01*
X41597428Y-28662180D02*
X41597428Y-26762180D01*
X42053428Y-26762180D02*
X42835143Y-26762180D01*
X42444285Y-28662180D02*
X42444285Y-26762180D01*
X59799714Y-28662180D02*
X59799714Y-26762180D01*
X59799714Y-26762180D02*
X60125428Y-26762180D01*
X60125428Y-26762180D02*
X60320857Y-26852656D01*
X60320857Y-26852656D02*
X60451142Y-27033608D01*
X60451142Y-27033608D02*
X60516285Y-27214561D01*
X60516285Y-27214561D02*
X60581428Y-27576465D01*
X60581428Y-27576465D02*
X60581428Y-27847894D01*
X60581428Y-27847894D02*
X60516285Y-28209799D01*
X60516285Y-28209799D02*
X60451142Y-28390751D01*
X60451142Y-28390751D02*
X60320857Y-28571704D01*
X60320857Y-28571704D02*
X60125428Y-28662180D01*
X60125428Y-28662180D02*
X59799714Y-28662180D01*
X61102571Y-28119323D02*
X61754000Y-28119323D01*
X60972285Y-28662180D02*
X61428285Y-26762180D01*
X61428285Y-26762180D02*
X61884285Y-28662180D01*
X62340285Y-28662180D02*
X62340285Y-26762180D01*
X62340285Y-26762180D02*
X62796285Y-28119323D01*
X62796285Y-28119323D02*
X63252285Y-26762180D01*
X63252285Y-26762180D02*
X63252285Y-28662180D01*
X63903714Y-28662180D02*
X63903714Y-26762180D01*
X63903714Y-26762180D02*
X64424857Y-26762180D01*
X64424857Y-26762180D02*
X64555142Y-26852656D01*
X64555142Y-26852656D02*
X64620285Y-26943132D01*
X64620285Y-26943132D02*
X64685428Y-27124084D01*
X64685428Y-27124084D02*
X64685428Y-27395513D01*
X64685428Y-27395513D02*
X64620285Y-27576465D01*
X64620285Y-27576465D02*
X64555142Y-27666942D01*
X64555142Y-27666942D02*
X64424857Y-27757418D01*
X64424857Y-27757418D02*
X63903714Y-27757418D01*
X83343714Y-28662180D02*
X83343714Y-26762180D01*
X83343714Y-26762180D02*
X83864857Y-26762180D01*
X83864857Y-26762180D02*
X83995142Y-26852656D01*
X83995142Y-26852656D02*
X84060285Y-26943132D01*
X84060285Y-26943132D02*
X84125428Y-27124084D01*
X84125428Y-27124084D02*
X84125428Y-27395513D01*
X84125428Y-27395513D02*
X84060285Y-27576465D01*
X84060285Y-27576465D02*
X83995142Y-27666942D01*
X83995142Y-27666942D02*
X83864857Y-27757418D01*
X83864857Y-27757418D02*
X83343714Y-27757418D01*
X84972285Y-26762180D02*
X85232857Y-26762180D01*
X85232857Y-26762180D02*
X85363142Y-26852656D01*
X85363142Y-26852656D02*
X85493428Y-27033608D01*
X85493428Y-27033608D02*
X85558571Y-27395513D01*
X85558571Y-27395513D02*
X85558571Y-28028846D01*
X85558571Y-28028846D02*
X85493428Y-28390751D01*
X85493428Y-28390751D02*
X85363142Y-28571704D01*
X85363142Y-28571704D02*
X85232857Y-28662180D01*
X85232857Y-28662180D02*
X84972285Y-28662180D01*
X84972285Y-28662180D02*
X84842000Y-28571704D01*
X84842000Y-28571704D02*
X84711714Y-28390751D01*
X84711714Y-28390751D02*
X84646571Y-28028846D01*
X84646571Y-28028846D02*
X84646571Y-27395513D01*
X84646571Y-27395513D02*
X84711714Y-27033608D01*
X84711714Y-27033608D02*
X84842000Y-26852656D01*
X84842000Y-26852656D02*
X84972285Y-26762180D01*
X86079714Y-28571704D02*
X86275143Y-28662180D01*
X86275143Y-28662180D02*
X86600857Y-28662180D01*
X86600857Y-28662180D02*
X86731143Y-28571704D01*
X86731143Y-28571704D02*
X86796285Y-28481227D01*
X86796285Y-28481227D02*
X86861428Y-28300275D01*
X86861428Y-28300275D02*
X86861428Y-28119323D01*
X86861428Y-28119323D02*
X86796285Y-27938370D01*
X86796285Y-27938370D02*
X86731143Y-27847894D01*
X86731143Y-27847894D02*
X86600857Y-27757418D01*
X86600857Y-27757418D02*
X86340285Y-27666942D01*
X86340285Y-27666942D02*
X86210000Y-27576465D01*
X86210000Y-27576465D02*
X86144857Y-27485989D01*
X86144857Y-27485989D02*
X86079714Y-27305037D01*
X86079714Y-27305037D02*
X86079714Y-27124084D01*
X86079714Y-27124084D02*
X86144857Y-26943132D01*
X86144857Y-26943132D02*
X86210000Y-26852656D01*
X86210000Y-26852656D02*
X86340285Y-26762180D01*
X86340285Y-26762180D02*
X86666000Y-26762180D01*
X86666000Y-26762180D02*
X86861428Y-26852656D01*
X15089428Y-49366942D02*
X15284856Y-49457418D01*
X15284856Y-49457418D02*
X15349999Y-49547894D01*
X15349999Y-49547894D02*
X15415142Y-49728846D01*
X15415142Y-49728846D02*
X15415142Y-50000275D01*
X15415142Y-50000275D02*
X15349999Y-50181227D01*
X15349999Y-50181227D02*
X15284856Y-50271704D01*
X15284856Y-50271704D02*
X15154571Y-50362180D01*
X15154571Y-50362180D02*
X14633428Y-50362180D01*
X14633428Y-50362180D02*
X14633428Y-48462180D01*
X14633428Y-48462180D02*
X15089428Y-48462180D01*
X15089428Y-48462180D02*
X15219714Y-48552656D01*
X15219714Y-48552656D02*
X15284856Y-48643132D01*
X15284856Y-48643132D02*
X15349999Y-48824084D01*
X15349999Y-48824084D02*
X15349999Y-49005037D01*
X15349999Y-49005037D02*
X15284856Y-49185989D01*
X15284856Y-49185989D02*
X15219714Y-49276465D01*
X15219714Y-49276465D02*
X15089428Y-49366942D01*
X15089428Y-49366942D02*
X14633428Y-49366942D01*
X16261999Y-48462180D02*
X16522571Y-48462180D01*
X16522571Y-48462180D02*
X16652856Y-48552656D01*
X16652856Y-48552656D02*
X16783142Y-48733608D01*
X16783142Y-48733608D02*
X16848285Y-49095513D01*
X16848285Y-49095513D02*
X16848285Y-49728846D01*
X16848285Y-49728846D02*
X16783142Y-50090751D01*
X16783142Y-50090751D02*
X16652856Y-50271704D01*
X16652856Y-50271704D02*
X16522571Y-50362180D01*
X16522571Y-50362180D02*
X16261999Y-50362180D01*
X16261999Y-50362180D02*
X16131714Y-50271704D01*
X16131714Y-50271704D02*
X16001428Y-50090751D01*
X16001428Y-50090751D02*
X15936285Y-49728846D01*
X15936285Y-49728846D02*
X15936285Y-49095513D01*
X15936285Y-49095513D02*
X16001428Y-48733608D01*
X16001428Y-48733608D02*
X16131714Y-48552656D01*
X16131714Y-48552656D02*
X16261999Y-48462180D01*
X17304285Y-48462180D02*
X17629999Y-50362180D01*
X17629999Y-50362180D02*
X17890571Y-49005037D01*
X17890571Y-49005037D02*
X18151142Y-50362180D01*
X18151142Y-50362180D02*
X18476857Y-48462180D01*
D11*
X14767143Y-50680668D02*
X15384286Y-50680668D01*
X15075714Y-52180668D02*
X15075714Y-50680668D01*
X15744285Y-52180668D02*
X15744285Y-50680668D01*
X16258571Y-52180668D02*
X16258571Y-50680668D01*
X16258571Y-50680668D02*
X16618571Y-51752097D01*
X16618571Y-51752097D02*
X16978571Y-50680668D01*
X16978571Y-50680668D02*
X16978571Y-52180668D01*
X17852857Y-51394954D02*
X18007143Y-51466382D01*
X18007143Y-51466382D02*
X18058572Y-51537811D01*
X18058572Y-51537811D02*
X18110000Y-51680668D01*
X18110000Y-51680668D02*
X18110000Y-51894954D01*
X18110000Y-51894954D02*
X18058572Y-52037811D01*
X18058572Y-52037811D02*
X18007143Y-52109240D01*
X18007143Y-52109240D02*
X17904286Y-52180668D01*
X17904286Y-52180668D02*
X17492857Y-52180668D01*
X17492857Y-52180668D02*
X17492857Y-50680668D01*
X17492857Y-50680668D02*
X17852857Y-50680668D01*
X17852857Y-50680668D02*
X17955715Y-50752097D01*
X17955715Y-50752097D02*
X18007143Y-50823525D01*
X18007143Y-50823525D02*
X18058572Y-50966382D01*
X18058572Y-50966382D02*
X18058572Y-51109240D01*
X18058572Y-51109240D02*
X18007143Y-51252097D01*
X18007143Y-51252097D02*
X17955715Y-51323525D01*
X17955715Y-51323525D02*
X17852857Y-51394954D01*
X17852857Y-51394954D02*
X17492857Y-51394954D01*
X14767143Y-52680668D02*
X15384286Y-52680668D01*
X15075714Y-54180668D02*
X15075714Y-52680668D01*
X15744285Y-54180668D02*
X15744285Y-52680668D01*
X16258571Y-54180668D02*
X16258571Y-52680668D01*
X16258571Y-52680668D02*
X16618571Y-53752097D01*
X16618571Y-53752097D02*
X16978571Y-52680668D01*
X16978571Y-52680668D02*
X16978571Y-54180668D01*
X17852857Y-53394954D02*
X18007143Y-53466382D01*
X18007143Y-53466382D02*
X18058572Y-53537811D01*
X18058572Y-53537811D02*
X18110000Y-53680668D01*
X18110000Y-53680668D02*
X18110000Y-53894954D01*
X18110000Y-53894954D02*
X18058572Y-54037811D01*
X18058572Y-54037811D02*
X18007143Y-54109240D01*
X18007143Y-54109240D02*
X17904286Y-54180668D01*
X17904286Y-54180668D02*
X17492857Y-54180668D01*
X17492857Y-54180668D02*
X17492857Y-52680668D01*
X17492857Y-52680668D02*
X17852857Y-52680668D01*
X17852857Y-52680668D02*
X17955715Y-52752097D01*
X17955715Y-52752097D02*
X18007143Y-52823525D01*
X18007143Y-52823525D02*
X18058572Y-52966382D01*
X18058572Y-52966382D02*
X18058572Y-53109240D01*
X18058572Y-53109240D02*
X18007143Y-53252097D01*
X18007143Y-53252097D02*
X17955715Y-53323525D01*
X17955715Y-53323525D02*
X17852857Y-53394954D01*
X17852857Y-53394954D02*
X17492857Y-53394954D01*
D10*
X37395714Y-49366942D02*
X37591142Y-49457418D01*
X37591142Y-49457418D02*
X37656285Y-49547894D01*
X37656285Y-49547894D02*
X37721428Y-49728846D01*
X37721428Y-49728846D02*
X37721428Y-50000275D01*
X37721428Y-50000275D02*
X37656285Y-50181227D01*
X37656285Y-50181227D02*
X37591142Y-50271704D01*
X37591142Y-50271704D02*
X37460857Y-50362180D01*
X37460857Y-50362180D02*
X36939714Y-50362180D01*
X36939714Y-50362180D02*
X36939714Y-48462180D01*
X36939714Y-48462180D02*
X37395714Y-48462180D01*
X37395714Y-48462180D02*
X37526000Y-48552656D01*
X37526000Y-48552656D02*
X37591142Y-48643132D01*
X37591142Y-48643132D02*
X37656285Y-48824084D01*
X37656285Y-48824084D02*
X37656285Y-49005037D01*
X37656285Y-49005037D02*
X37591142Y-49185989D01*
X37591142Y-49185989D02*
X37526000Y-49276465D01*
X37526000Y-49276465D02*
X37395714Y-49366942D01*
X37395714Y-49366942D02*
X36939714Y-49366942D01*
X38959142Y-50362180D02*
X38307714Y-50362180D01*
X38307714Y-50362180D02*
X38307714Y-48462180D01*
X39675714Y-48462180D02*
X39936286Y-48462180D01*
X39936286Y-48462180D02*
X40066571Y-48552656D01*
X40066571Y-48552656D02*
X40196857Y-48733608D01*
X40196857Y-48733608D02*
X40262000Y-49095513D01*
X40262000Y-49095513D02*
X40262000Y-49728846D01*
X40262000Y-49728846D02*
X40196857Y-50090751D01*
X40196857Y-50090751D02*
X40066571Y-50271704D01*
X40066571Y-50271704D02*
X39936286Y-50362180D01*
X39936286Y-50362180D02*
X39675714Y-50362180D01*
X39675714Y-50362180D02*
X39545429Y-50271704D01*
X39545429Y-50271704D02*
X39415143Y-50090751D01*
X39415143Y-50090751D02*
X39350000Y-49728846D01*
X39350000Y-49728846D02*
X39350000Y-49095513D01*
X39350000Y-49095513D02*
X39415143Y-48733608D01*
X39415143Y-48733608D02*
X39545429Y-48552656D01*
X39545429Y-48552656D02*
X39675714Y-48462180D01*
X40718000Y-48462180D02*
X41043714Y-50362180D01*
X41043714Y-50362180D02*
X41304286Y-49005037D01*
X41304286Y-49005037D02*
X41564857Y-50362180D01*
X41564857Y-50362180D02*
X41890572Y-48462180D01*
D11*
X37884285Y-51394954D02*
X37524285Y-51394954D01*
X37524285Y-52180668D02*
X37524285Y-50680668D01*
X37524285Y-50680668D02*
X38038571Y-50680668D01*
X38964285Y-52180668D02*
X38449999Y-52180668D01*
X38449999Y-52180668D02*
X38449999Y-50680668D01*
X39530000Y-50680668D02*
X39735714Y-50680668D01*
X39735714Y-50680668D02*
X39838571Y-50752097D01*
X39838571Y-50752097D02*
X39941428Y-50894954D01*
X39941428Y-50894954D02*
X39992857Y-51180668D01*
X39992857Y-51180668D02*
X39992857Y-51680668D01*
X39992857Y-51680668D02*
X39941428Y-51966382D01*
X39941428Y-51966382D02*
X39838571Y-52109240D01*
X39838571Y-52109240D02*
X39735714Y-52180668D01*
X39735714Y-52180668D02*
X39530000Y-52180668D01*
X39530000Y-52180668D02*
X39427143Y-52109240D01*
X39427143Y-52109240D02*
X39324285Y-51966382D01*
X39324285Y-51966382D02*
X39272857Y-51680668D01*
X39272857Y-51680668D02*
X39272857Y-51180668D01*
X39272857Y-51180668D02*
X39324285Y-50894954D01*
X39324285Y-50894954D02*
X39427143Y-50752097D01*
X39427143Y-50752097D02*
X39530000Y-50680668D01*
X40352857Y-50680668D02*
X40610000Y-52180668D01*
X40610000Y-52180668D02*
X40815714Y-51109240D01*
X40815714Y-51109240D02*
X41021429Y-52180668D01*
X41021429Y-52180668D02*
X41278572Y-50680668D01*
X37627143Y-52680668D02*
X38244286Y-52680668D01*
X37935714Y-54180668D02*
X37935714Y-52680668D01*
X38604285Y-54180668D02*
X38604285Y-52680668D01*
X39118571Y-54180668D02*
X39118571Y-52680668D01*
X39118571Y-52680668D02*
X39478571Y-53752097D01*
X39478571Y-53752097D02*
X39838571Y-52680668D01*
X39838571Y-52680668D02*
X39838571Y-54180668D01*
X40712857Y-53394954D02*
X40867143Y-53466382D01*
X40867143Y-53466382D02*
X40918572Y-53537811D01*
X40918572Y-53537811D02*
X40970000Y-53680668D01*
X40970000Y-53680668D02*
X40970000Y-53894954D01*
X40970000Y-53894954D02*
X40918572Y-54037811D01*
X40918572Y-54037811D02*
X40867143Y-54109240D01*
X40867143Y-54109240D02*
X40764286Y-54180668D01*
X40764286Y-54180668D02*
X40352857Y-54180668D01*
X40352857Y-54180668D02*
X40352857Y-52680668D01*
X40352857Y-52680668D02*
X40712857Y-52680668D01*
X40712857Y-52680668D02*
X40815715Y-52752097D01*
X40815715Y-52752097D02*
X40867143Y-52823525D01*
X40867143Y-52823525D02*
X40918572Y-52966382D01*
X40918572Y-52966382D02*
X40918572Y-53109240D01*
X40918572Y-53109240D02*
X40867143Y-53252097D01*
X40867143Y-53252097D02*
X40815715Y-53323525D01*
X40815715Y-53323525D02*
X40712857Y-53394954D01*
X40712857Y-53394954D02*
X40352857Y-53394954D01*
D10*
X58985428Y-50271704D02*
X59180857Y-50362180D01*
X59180857Y-50362180D02*
X59506571Y-50362180D01*
X59506571Y-50362180D02*
X59636857Y-50271704D01*
X59636857Y-50271704D02*
X59701999Y-50181227D01*
X59701999Y-50181227D02*
X59767142Y-50000275D01*
X59767142Y-50000275D02*
X59767142Y-49819323D01*
X59767142Y-49819323D02*
X59701999Y-49638370D01*
X59701999Y-49638370D02*
X59636857Y-49547894D01*
X59636857Y-49547894D02*
X59506571Y-49457418D01*
X59506571Y-49457418D02*
X59245999Y-49366942D01*
X59245999Y-49366942D02*
X59115714Y-49276465D01*
X59115714Y-49276465D02*
X59050571Y-49185989D01*
X59050571Y-49185989D02*
X58985428Y-49005037D01*
X58985428Y-49005037D02*
X58985428Y-48824084D01*
X58985428Y-48824084D02*
X59050571Y-48643132D01*
X59050571Y-48643132D02*
X59115714Y-48552656D01*
X59115714Y-48552656D02*
X59245999Y-48462180D01*
X59245999Y-48462180D02*
X59571714Y-48462180D01*
X59571714Y-48462180D02*
X59767142Y-48552656D01*
X60157999Y-48462180D02*
X60939714Y-48462180D01*
X60548856Y-50362180D02*
X60548856Y-48462180D01*
X62177428Y-50362180D02*
X61721428Y-49457418D01*
X61395714Y-50362180D02*
X61395714Y-48462180D01*
X61395714Y-48462180D02*
X61916857Y-48462180D01*
X61916857Y-48462180D02*
X62047142Y-48552656D01*
X62047142Y-48552656D02*
X62112285Y-48643132D01*
X62112285Y-48643132D02*
X62177428Y-48824084D01*
X62177428Y-48824084D02*
X62177428Y-49095513D01*
X62177428Y-49095513D02*
X62112285Y-49276465D01*
X62112285Y-49276465D02*
X62047142Y-49366942D01*
X62047142Y-49366942D02*
X61916857Y-49457418D01*
X61916857Y-49457418D02*
X61395714Y-49457418D01*
X62763714Y-50362180D02*
X62763714Y-48462180D01*
X63415143Y-50362180D02*
X63415143Y-48462180D01*
X64196857Y-50362180D02*
X63610571Y-49276465D01*
X64196857Y-48462180D02*
X63415143Y-49547894D01*
X64783143Y-49366942D02*
X65239143Y-49366942D01*
X65434571Y-50362180D02*
X64783143Y-50362180D01*
X64783143Y-50362180D02*
X64783143Y-48462180D01*
X64783143Y-48462180D02*
X65434571Y-48462180D01*
D11*
X59612856Y-52180668D02*
X59612856Y-50680668D01*
X59612856Y-50680668D02*
X59972856Y-51752097D01*
X59972856Y-51752097D02*
X60332856Y-50680668D01*
X60332856Y-50680668D02*
X60332856Y-52180668D01*
X60795714Y-51752097D02*
X61310000Y-51752097D01*
X60692857Y-52180668D02*
X61052857Y-50680668D01*
X61052857Y-50680668D02*
X61412857Y-52180668D01*
X62287142Y-52180668D02*
X61772856Y-52180668D01*
X61772856Y-52180668D02*
X61772856Y-50680668D01*
X63161428Y-52180668D02*
X62647142Y-52180668D01*
X62647142Y-52180668D02*
X62647142Y-50680668D01*
X63521428Y-51394954D02*
X63881428Y-51394954D01*
X64035714Y-52180668D02*
X63521428Y-52180668D01*
X63521428Y-52180668D02*
X63521428Y-50680668D01*
X63521428Y-50680668D02*
X64035714Y-50680668D01*
X64344286Y-50680668D02*
X64961429Y-50680668D01*
X64652857Y-52180668D02*
X64652857Y-50680668D01*
X60487143Y-52680668D02*
X61104286Y-52680668D01*
X60795714Y-54180668D02*
X60795714Y-52680668D01*
X61464285Y-54180668D02*
X61464285Y-52680668D01*
X61978571Y-54180668D02*
X61978571Y-52680668D01*
X61978571Y-52680668D02*
X62338571Y-53752097D01*
X62338571Y-53752097D02*
X62698571Y-52680668D01*
X62698571Y-52680668D02*
X62698571Y-54180668D01*
X63572857Y-53394954D02*
X63727143Y-53466382D01*
X63727143Y-53466382D02*
X63778572Y-53537811D01*
X63778572Y-53537811D02*
X63830000Y-53680668D01*
X63830000Y-53680668D02*
X63830000Y-53894954D01*
X63830000Y-53894954D02*
X63778572Y-54037811D01*
X63778572Y-54037811D02*
X63727143Y-54109240D01*
X63727143Y-54109240D02*
X63624286Y-54180668D01*
X63624286Y-54180668D02*
X63212857Y-54180668D01*
X63212857Y-54180668D02*
X63212857Y-52680668D01*
X63212857Y-52680668D02*
X63572857Y-52680668D01*
X63572857Y-52680668D02*
X63675715Y-52752097D01*
X63675715Y-52752097D02*
X63727143Y-52823525D01*
X63727143Y-52823525D02*
X63778572Y-52966382D01*
X63778572Y-52966382D02*
X63778572Y-53109240D01*
X63778572Y-53109240D02*
X63727143Y-53252097D01*
X63727143Y-53252097D02*
X63675715Y-53323525D01*
X63675715Y-53323525D02*
X63572857Y-53394954D01*
X63572857Y-53394954D02*
X63212857Y-53394954D01*
D10*
X82106000Y-50271704D02*
X82301429Y-50362180D01*
X82301429Y-50362180D02*
X82627143Y-50362180D01*
X82627143Y-50362180D02*
X82757429Y-50271704D01*
X82757429Y-50271704D02*
X82822571Y-50181227D01*
X82822571Y-50181227D02*
X82887714Y-50000275D01*
X82887714Y-50000275D02*
X82887714Y-49819323D01*
X82887714Y-49819323D02*
X82822571Y-49638370D01*
X82822571Y-49638370D02*
X82757429Y-49547894D01*
X82757429Y-49547894D02*
X82627143Y-49457418D01*
X82627143Y-49457418D02*
X82366571Y-49366942D01*
X82366571Y-49366942D02*
X82236286Y-49276465D01*
X82236286Y-49276465D02*
X82171143Y-49185989D01*
X82171143Y-49185989D02*
X82106000Y-49005037D01*
X82106000Y-49005037D02*
X82106000Y-48824084D01*
X82106000Y-48824084D02*
X82171143Y-48643132D01*
X82171143Y-48643132D02*
X82236286Y-48552656D01*
X82236286Y-48552656D02*
X82366571Y-48462180D01*
X82366571Y-48462180D02*
X82692286Y-48462180D01*
X82692286Y-48462180D02*
X82887714Y-48552656D01*
X83474000Y-50362180D02*
X83474000Y-48462180D01*
X83474000Y-48462180D02*
X83995143Y-48462180D01*
X83995143Y-48462180D02*
X84125428Y-48552656D01*
X84125428Y-48552656D02*
X84190571Y-48643132D01*
X84190571Y-48643132D02*
X84255714Y-48824084D01*
X84255714Y-48824084D02*
X84255714Y-49095513D01*
X84255714Y-49095513D02*
X84190571Y-49276465D01*
X84190571Y-49276465D02*
X84125428Y-49366942D01*
X84125428Y-49366942D02*
X83995143Y-49457418D01*
X83995143Y-49457418D02*
X83474000Y-49457418D01*
X84776857Y-49819323D02*
X85428286Y-49819323D01*
X84646571Y-50362180D02*
X85102571Y-48462180D01*
X85102571Y-48462180D02*
X85558571Y-50362180D01*
X86796285Y-50181227D02*
X86731142Y-50271704D01*
X86731142Y-50271704D02*
X86535714Y-50362180D01*
X86535714Y-50362180D02*
X86405428Y-50362180D01*
X86405428Y-50362180D02*
X86209999Y-50271704D01*
X86209999Y-50271704D02*
X86079714Y-50090751D01*
X86079714Y-50090751D02*
X86014571Y-49909799D01*
X86014571Y-49909799D02*
X85949428Y-49547894D01*
X85949428Y-49547894D02*
X85949428Y-49276465D01*
X85949428Y-49276465D02*
X86014571Y-48914561D01*
X86014571Y-48914561D02*
X86079714Y-48733608D01*
X86079714Y-48733608D02*
X86209999Y-48552656D01*
X86209999Y-48552656D02*
X86405428Y-48462180D01*
X86405428Y-48462180D02*
X86535714Y-48462180D01*
X86535714Y-48462180D02*
X86731142Y-48552656D01*
X86731142Y-48552656D02*
X86796285Y-48643132D01*
X87382571Y-49366942D02*
X87838571Y-49366942D01*
X88033999Y-50362180D02*
X87382571Y-50362180D01*
X87382571Y-50362180D02*
X87382571Y-48462180D01*
X87382571Y-48462180D02*
X88033999Y-48462180D01*
D12*
X12650001Y-74597081D02*
X12581429Y-74692320D01*
X12581429Y-74692320D02*
X12375715Y-74787558D01*
X12375715Y-74787558D02*
X12238572Y-74787558D01*
X12238572Y-74787558D02*
X12032858Y-74692320D01*
X12032858Y-74692320D02*
X11895715Y-74501843D01*
X11895715Y-74501843D02*
X11827144Y-74311367D01*
X11827144Y-74311367D02*
X11758572Y-73930415D01*
X11758572Y-73930415D02*
X11758572Y-73644700D01*
X11758572Y-73644700D02*
X11827144Y-73263748D01*
X11827144Y-73263748D02*
X11895715Y-73073272D01*
X11895715Y-73073272D02*
X12032858Y-72882796D01*
X12032858Y-72882796D02*
X12238572Y-72787558D01*
X12238572Y-72787558D02*
X12375715Y-72787558D01*
X12375715Y-72787558D02*
X12581429Y-72882796D01*
X12581429Y-72882796D02*
X12650001Y-72978034D01*
X13541429Y-72787558D02*
X13815715Y-72787558D01*
X13815715Y-72787558D02*
X13952858Y-72882796D01*
X13952858Y-72882796D02*
X14090001Y-73073272D01*
X14090001Y-73073272D02*
X14158572Y-73454224D01*
X14158572Y-73454224D02*
X14158572Y-74120891D01*
X14158572Y-74120891D02*
X14090001Y-74501843D01*
X14090001Y-74501843D02*
X13952858Y-74692320D01*
X13952858Y-74692320D02*
X13815715Y-74787558D01*
X13815715Y-74787558D02*
X13541429Y-74787558D01*
X13541429Y-74787558D02*
X13404287Y-74692320D01*
X13404287Y-74692320D02*
X13267144Y-74501843D01*
X13267144Y-74501843D02*
X13198572Y-74120891D01*
X13198572Y-74120891D02*
X13198572Y-73454224D01*
X13198572Y-73454224D02*
X13267144Y-73073272D01*
X13267144Y-73073272D02*
X13404287Y-72882796D01*
X13404287Y-72882796D02*
X13541429Y-72787558D01*
X14775715Y-74787558D02*
X14775715Y-72787558D01*
X14775715Y-72787558D02*
X15598572Y-74787558D01*
X15598572Y-74787558D02*
X15598572Y-72787558D01*
X16078571Y-72787558D02*
X16901429Y-72787558D01*
X16490000Y-74787558D02*
X16490000Y-72787558D01*
X17655714Y-72787558D02*
X17930000Y-72787558D01*
X17930000Y-72787558D02*
X18067143Y-72882796D01*
X18067143Y-72882796D02*
X18204286Y-73073272D01*
X18204286Y-73073272D02*
X18272857Y-73454224D01*
X18272857Y-73454224D02*
X18272857Y-74120891D01*
X18272857Y-74120891D02*
X18204286Y-74501843D01*
X18204286Y-74501843D02*
X18067143Y-74692320D01*
X18067143Y-74692320D02*
X17930000Y-74787558D01*
X17930000Y-74787558D02*
X17655714Y-74787558D01*
X17655714Y-74787558D02*
X17518572Y-74692320D01*
X17518572Y-74692320D02*
X17381429Y-74501843D01*
X17381429Y-74501843D02*
X17312857Y-74120891D01*
X17312857Y-74120891D02*
X17312857Y-73454224D01*
X17312857Y-73454224D02*
X17381429Y-73073272D01*
X17381429Y-73073272D02*
X17518572Y-72882796D01*
X17518572Y-72882796D02*
X17655714Y-72787558D01*
X18890000Y-72787558D02*
X18890000Y-74406605D01*
X18890000Y-74406605D02*
X18958571Y-74597081D01*
X18958571Y-74597081D02*
X19027143Y-74692320D01*
X19027143Y-74692320D02*
X19164285Y-74787558D01*
X19164285Y-74787558D02*
X19438571Y-74787558D01*
X19438571Y-74787558D02*
X19575714Y-74692320D01*
X19575714Y-74692320D02*
X19644285Y-74597081D01*
X19644285Y-74597081D02*
X19712857Y-74406605D01*
X19712857Y-74406605D02*
X19712857Y-72787558D01*
X21221428Y-74787558D02*
X20741428Y-73835177D01*
X20398571Y-74787558D02*
X20398571Y-72787558D01*
X20398571Y-72787558D02*
X20947142Y-72787558D01*
X20947142Y-72787558D02*
X21084285Y-72882796D01*
X21084285Y-72882796D02*
X21152856Y-72978034D01*
X21152856Y-72978034D02*
X21221428Y-73168510D01*
X21221428Y-73168510D02*
X21221428Y-73454224D01*
X21221428Y-73454224D02*
X21152856Y-73644700D01*
X21152856Y-73644700D02*
X21084285Y-73739939D01*
X21084285Y-73739939D02*
X20947142Y-73835177D01*
X20947142Y-73835177D02*
X20398571Y-73835177D01*
D11*
X11527141Y-75660668D02*
X11527141Y-77160668D01*
X11527141Y-75732097D02*
X11629999Y-75660668D01*
X11629999Y-75660668D02*
X11835713Y-75660668D01*
X11835713Y-75660668D02*
X11938570Y-75732097D01*
X11938570Y-75732097D02*
X11989999Y-75803525D01*
X11989999Y-75803525D02*
X12041427Y-75946382D01*
X12041427Y-75946382D02*
X12041427Y-76374954D01*
X12041427Y-76374954D02*
X11989999Y-76517811D01*
X11989999Y-76517811D02*
X11938570Y-76589240D01*
X11938570Y-76589240D02*
X11835713Y-76660668D01*
X11835713Y-76660668D02*
X11629999Y-76660668D01*
X11629999Y-76660668D02*
X11527141Y-76589240D01*
X12967142Y-75660668D02*
X12967142Y-76660668D01*
X12504284Y-75660668D02*
X12504284Y-76446382D01*
X12504284Y-76446382D02*
X12555713Y-76589240D01*
X12555713Y-76589240D02*
X12658570Y-76660668D01*
X12658570Y-76660668D02*
X12812856Y-76660668D01*
X12812856Y-76660668D02*
X12915713Y-76589240D01*
X12915713Y-76589240D02*
X12967142Y-76517811D01*
X13429999Y-76589240D02*
X13532856Y-76660668D01*
X13532856Y-76660668D02*
X13738570Y-76660668D01*
X13738570Y-76660668D02*
X13841427Y-76589240D01*
X13841427Y-76589240D02*
X13892856Y-76446382D01*
X13892856Y-76446382D02*
X13892856Y-76374954D01*
X13892856Y-76374954D02*
X13841427Y-76232097D01*
X13841427Y-76232097D02*
X13738570Y-76160668D01*
X13738570Y-76160668D02*
X13584285Y-76160668D01*
X13584285Y-76160668D02*
X13481427Y-76089240D01*
X13481427Y-76089240D02*
X13429999Y-75946382D01*
X13429999Y-75946382D02*
X13429999Y-75874954D01*
X13429999Y-75874954D02*
X13481427Y-75732097D01*
X13481427Y-75732097D02*
X13584285Y-75660668D01*
X13584285Y-75660668D02*
X13738570Y-75660668D01*
X13738570Y-75660668D02*
X13841427Y-75732097D01*
X14355713Y-76660668D02*
X14355713Y-75160668D01*
X14818571Y-76660668D02*
X14818571Y-75874954D01*
X14818571Y-75874954D02*
X14767142Y-75732097D01*
X14767142Y-75732097D02*
X14664285Y-75660668D01*
X14664285Y-75660668D02*
X14509999Y-75660668D01*
X14509999Y-75660668D02*
X14407142Y-75732097D01*
X14407142Y-75732097D02*
X14355713Y-75803525D01*
X15332856Y-76517811D02*
X15384285Y-76589240D01*
X15384285Y-76589240D02*
X15332856Y-76660668D01*
X15332856Y-76660668D02*
X15281428Y-76589240D01*
X15281428Y-76589240D02*
X15332856Y-76517811D01*
X15332856Y-76517811D02*
X15332856Y-76660668D01*
X15332856Y-75732097D02*
X15384285Y-75803525D01*
X15384285Y-75803525D02*
X15332856Y-75874954D01*
X15332856Y-75874954D02*
X15281428Y-75803525D01*
X15281428Y-75803525D02*
X15332856Y-75732097D01*
X15332856Y-75732097D02*
X15332856Y-75874954D01*
X16669999Y-76660668D02*
X16669999Y-75160668D01*
X16669999Y-75160668D02*
X17029999Y-76232097D01*
X17029999Y-76232097D02*
X17389999Y-75160668D01*
X17389999Y-75160668D02*
X17389999Y-76660668D01*
X18110000Y-75160668D02*
X18315714Y-75160668D01*
X18315714Y-75160668D02*
X18418571Y-75232097D01*
X18418571Y-75232097D02*
X18521428Y-75374954D01*
X18521428Y-75374954D02*
X18572857Y-75660668D01*
X18572857Y-75660668D02*
X18572857Y-76160668D01*
X18572857Y-76160668D02*
X18521428Y-76446382D01*
X18521428Y-76446382D02*
X18418571Y-76589240D01*
X18418571Y-76589240D02*
X18315714Y-76660668D01*
X18315714Y-76660668D02*
X18110000Y-76660668D01*
X18110000Y-76660668D02*
X18007143Y-76589240D01*
X18007143Y-76589240D02*
X17904285Y-76446382D01*
X17904285Y-76446382D02*
X17852857Y-76160668D01*
X17852857Y-76160668D02*
X17852857Y-75660668D01*
X17852857Y-75660668D02*
X17904285Y-75374954D01*
X17904285Y-75374954D02*
X18007143Y-75232097D01*
X18007143Y-75232097D02*
X18110000Y-75160668D01*
X19035714Y-76660668D02*
X19035714Y-75160668D01*
X19035714Y-75160668D02*
X19292857Y-75160668D01*
X19292857Y-75160668D02*
X19447143Y-75232097D01*
X19447143Y-75232097D02*
X19550000Y-75374954D01*
X19550000Y-75374954D02*
X19601429Y-75517811D01*
X19601429Y-75517811D02*
X19652857Y-75803525D01*
X19652857Y-75803525D02*
X19652857Y-76017811D01*
X19652857Y-76017811D02*
X19601429Y-76303525D01*
X19601429Y-76303525D02*
X19550000Y-76446382D01*
X19550000Y-76446382D02*
X19447143Y-76589240D01*
X19447143Y-76589240D02*
X19292857Y-76660668D01*
X19292857Y-76660668D02*
X19035714Y-76660668D01*
X20115714Y-75874954D02*
X20475714Y-75874954D01*
X20630000Y-76660668D02*
X20115714Y-76660668D01*
X20115714Y-76660668D02*
X20115714Y-75160668D01*
X20115714Y-75160668D02*
X20630000Y-75160668D01*
X21607143Y-76660668D02*
X21092857Y-76660668D01*
X21092857Y-76660668D02*
X21092857Y-75160668D01*
D12*
X81538571Y-74216129D02*
X82224286Y-74216129D01*
X81401428Y-74787558D02*
X81881428Y-72787558D01*
X81881428Y-72787558D02*
X82361428Y-74787558D01*
X82772857Y-74692320D02*
X82978572Y-74787558D01*
X82978572Y-74787558D02*
X83321429Y-74787558D01*
X83321429Y-74787558D02*
X83458572Y-74692320D01*
X83458572Y-74692320D02*
X83527143Y-74597081D01*
X83527143Y-74597081D02*
X83595714Y-74406605D01*
X83595714Y-74406605D02*
X83595714Y-74216129D01*
X83595714Y-74216129D02*
X83527143Y-74025653D01*
X83527143Y-74025653D02*
X83458572Y-73930415D01*
X83458572Y-73930415D02*
X83321429Y-73835177D01*
X83321429Y-73835177D02*
X83047143Y-73739939D01*
X83047143Y-73739939D02*
X82910000Y-73644700D01*
X82910000Y-73644700D02*
X82841429Y-73549462D01*
X82841429Y-73549462D02*
X82772857Y-73358986D01*
X82772857Y-73358986D02*
X82772857Y-73168510D01*
X82772857Y-73168510D02*
X82841429Y-72978034D01*
X82841429Y-72978034D02*
X82910000Y-72882796D01*
X82910000Y-72882796D02*
X83047143Y-72787558D01*
X83047143Y-72787558D02*
X83390000Y-72787558D01*
X83390000Y-72787558D02*
X83595714Y-72882796D01*
X84144286Y-74692320D02*
X84350001Y-74787558D01*
X84350001Y-74787558D02*
X84692858Y-74787558D01*
X84692858Y-74787558D02*
X84830001Y-74692320D01*
X84830001Y-74692320D02*
X84898572Y-74597081D01*
X84898572Y-74597081D02*
X84967143Y-74406605D01*
X84967143Y-74406605D02*
X84967143Y-74216129D01*
X84967143Y-74216129D02*
X84898572Y-74025653D01*
X84898572Y-74025653D02*
X84830001Y-73930415D01*
X84830001Y-73930415D02*
X84692858Y-73835177D01*
X84692858Y-73835177D02*
X84418572Y-73739939D01*
X84418572Y-73739939D02*
X84281429Y-73644700D01*
X84281429Y-73644700D02*
X84212858Y-73549462D01*
X84212858Y-73549462D02*
X84144286Y-73358986D01*
X84144286Y-73358986D02*
X84144286Y-73168510D01*
X84144286Y-73168510D02*
X84212858Y-72978034D01*
X84212858Y-72978034D02*
X84281429Y-72882796D01*
X84281429Y-72882796D02*
X84418572Y-72787558D01*
X84418572Y-72787558D02*
X84761429Y-72787558D01*
X84761429Y-72787558D02*
X84967143Y-72882796D01*
X85584287Y-74787558D02*
X85584287Y-72787558D01*
X87024286Y-72882796D02*
X86887144Y-72787558D01*
X86887144Y-72787558D02*
X86681429Y-72787558D01*
X86681429Y-72787558D02*
X86475715Y-72882796D01*
X86475715Y-72882796D02*
X86338572Y-73073272D01*
X86338572Y-73073272D02*
X86270001Y-73263748D01*
X86270001Y-73263748D02*
X86201429Y-73644700D01*
X86201429Y-73644700D02*
X86201429Y-73930415D01*
X86201429Y-73930415D02*
X86270001Y-74311367D01*
X86270001Y-74311367D02*
X86338572Y-74501843D01*
X86338572Y-74501843D02*
X86475715Y-74692320D01*
X86475715Y-74692320D02*
X86681429Y-74787558D01*
X86681429Y-74787558D02*
X86818572Y-74787558D01*
X86818572Y-74787558D02*
X87024286Y-74692320D01*
X87024286Y-74692320D02*
X87092858Y-74597081D01*
X87092858Y-74597081D02*
X87092858Y-73930415D01*
X87092858Y-73930415D02*
X86818572Y-73930415D01*
X87710001Y-74787558D02*
X87710001Y-72787558D01*
X87710001Y-72787558D02*
X88532858Y-74787558D01*
X88532858Y-74787558D02*
X88532858Y-72787558D01*
D11*
X78667142Y-75660668D02*
X78667142Y-77160668D01*
X78667142Y-75732097D02*
X78770000Y-75660668D01*
X78770000Y-75660668D02*
X78975714Y-75660668D01*
X78975714Y-75660668D02*
X79078571Y-75732097D01*
X79078571Y-75732097D02*
X79130000Y-75803525D01*
X79130000Y-75803525D02*
X79181428Y-75946382D01*
X79181428Y-75946382D02*
X79181428Y-76374954D01*
X79181428Y-76374954D02*
X79130000Y-76517811D01*
X79130000Y-76517811D02*
X79078571Y-76589240D01*
X79078571Y-76589240D02*
X78975714Y-76660668D01*
X78975714Y-76660668D02*
X78770000Y-76660668D01*
X78770000Y-76660668D02*
X78667142Y-76589240D01*
X80107143Y-75660668D02*
X80107143Y-76660668D01*
X79644285Y-75660668D02*
X79644285Y-76446382D01*
X79644285Y-76446382D02*
X79695714Y-76589240D01*
X79695714Y-76589240D02*
X79798571Y-76660668D01*
X79798571Y-76660668D02*
X79952857Y-76660668D01*
X79952857Y-76660668D02*
X80055714Y-76589240D01*
X80055714Y-76589240D02*
X80107143Y-76517811D01*
X80570000Y-76589240D02*
X80672857Y-76660668D01*
X80672857Y-76660668D02*
X80878571Y-76660668D01*
X80878571Y-76660668D02*
X80981428Y-76589240D01*
X80981428Y-76589240D02*
X81032857Y-76446382D01*
X81032857Y-76446382D02*
X81032857Y-76374954D01*
X81032857Y-76374954D02*
X80981428Y-76232097D01*
X80981428Y-76232097D02*
X80878571Y-76160668D01*
X80878571Y-76160668D02*
X80724286Y-76160668D01*
X80724286Y-76160668D02*
X80621428Y-76089240D01*
X80621428Y-76089240D02*
X80570000Y-75946382D01*
X80570000Y-75946382D02*
X80570000Y-75874954D01*
X80570000Y-75874954D02*
X80621428Y-75732097D01*
X80621428Y-75732097D02*
X80724286Y-75660668D01*
X80724286Y-75660668D02*
X80878571Y-75660668D01*
X80878571Y-75660668D02*
X80981428Y-75732097D01*
X81495714Y-76660668D02*
X81495714Y-75160668D01*
X81958572Y-76660668D02*
X81958572Y-75874954D01*
X81958572Y-75874954D02*
X81907143Y-75732097D01*
X81907143Y-75732097D02*
X81804286Y-75660668D01*
X81804286Y-75660668D02*
X81650000Y-75660668D01*
X81650000Y-75660668D02*
X81547143Y-75732097D01*
X81547143Y-75732097D02*
X81495714Y-75803525D01*
X82472857Y-76517811D02*
X82524286Y-76589240D01*
X82524286Y-76589240D02*
X82472857Y-76660668D01*
X82472857Y-76660668D02*
X82421429Y-76589240D01*
X82421429Y-76589240D02*
X82472857Y-76517811D01*
X82472857Y-76517811D02*
X82472857Y-76660668D01*
X82472857Y-75732097D02*
X82524286Y-75803525D01*
X82524286Y-75803525D02*
X82472857Y-75874954D01*
X82472857Y-75874954D02*
X82421429Y-75803525D01*
X82421429Y-75803525D02*
X82472857Y-75732097D01*
X82472857Y-75732097D02*
X82472857Y-75874954D01*
X84427143Y-76517811D02*
X84375715Y-76589240D01*
X84375715Y-76589240D02*
X84221429Y-76660668D01*
X84221429Y-76660668D02*
X84118572Y-76660668D01*
X84118572Y-76660668D02*
X83964286Y-76589240D01*
X83964286Y-76589240D02*
X83861429Y-76446382D01*
X83861429Y-76446382D02*
X83810000Y-76303525D01*
X83810000Y-76303525D02*
X83758572Y-76017811D01*
X83758572Y-76017811D02*
X83758572Y-75803525D01*
X83758572Y-75803525D02*
X83810000Y-75517811D01*
X83810000Y-75517811D02*
X83861429Y-75374954D01*
X83861429Y-75374954D02*
X83964286Y-75232097D01*
X83964286Y-75232097D02*
X84118572Y-75160668D01*
X84118572Y-75160668D02*
X84221429Y-75160668D01*
X84221429Y-75160668D02*
X84375715Y-75232097D01*
X84375715Y-75232097D02*
X84427143Y-75303525D01*
X84735715Y-75160668D02*
X85095715Y-76660668D01*
X85095715Y-76660668D02*
X85455715Y-75160668D01*
X86587143Y-76232097D02*
X87101429Y-76232097D01*
X86484286Y-76660668D02*
X86844286Y-75160668D01*
X86844286Y-75160668D02*
X87204286Y-76660668D01*
X88335714Y-75089240D02*
X87410000Y-77017811D01*
X89055714Y-75874954D02*
X89210000Y-75946382D01*
X89210000Y-75946382D02*
X89261429Y-76017811D01*
X89261429Y-76017811D02*
X89312857Y-76160668D01*
X89312857Y-76160668D02*
X89312857Y-76374954D01*
X89312857Y-76374954D02*
X89261429Y-76517811D01*
X89261429Y-76517811D02*
X89210000Y-76589240D01*
X89210000Y-76589240D02*
X89107143Y-76660668D01*
X89107143Y-76660668D02*
X88695714Y-76660668D01*
X88695714Y-76660668D02*
X88695714Y-75160668D01*
X88695714Y-75160668D02*
X89055714Y-75160668D01*
X89055714Y-75160668D02*
X89158572Y-75232097D01*
X89158572Y-75232097D02*
X89210000Y-75303525D01*
X89210000Y-75303525D02*
X89261429Y-75446382D01*
X89261429Y-75446382D02*
X89261429Y-75589240D01*
X89261429Y-75589240D02*
X89210000Y-75732097D01*
X89210000Y-75732097D02*
X89158572Y-75803525D01*
X89158572Y-75803525D02*
X89055714Y-75874954D01*
X89055714Y-75874954D02*
X88695714Y-75874954D01*
X90547143Y-75089240D02*
X89621429Y-77017811D01*
X91524286Y-76517811D02*
X91472858Y-76589240D01*
X91472858Y-76589240D02*
X91318572Y-76660668D01*
X91318572Y-76660668D02*
X91215715Y-76660668D01*
X91215715Y-76660668D02*
X91061429Y-76589240D01*
X91061429Y-76589240D02*
X90958572Y-76446382D01*
X90958572Y-76446382D02*
X90907143Y-76303525D01*
X90907143Y-76303525D02*
X90855715Y-76017811D01*
X90855715Y-76017811D02*
X90855715Y-75803525D01*
X90855715Y-75803525D02*
X90907143Y-75517811D01*
X90907143Y-75517811D02*
X90958572Y-75374954D01*
X90958572Y-75374954D02*
X91061429Y-75232097D01*
X91061429Y-75232097D02*
X91215715Y-75160668D01*
X91215715Y-75160668D02*
X91318572Y-75160668D01*
X91318572Y-75160668D02*
X91472858Y-75232097D01*
X91472858Y-75232097D02*
X91524286Y-75303525D01*
D10*
X8788571Y-93162180D02*
X8788571Y-91262180D01*
X8788571Y-91262180D02*
X9244571Y-92619323D01*
X9244571Y-92619323D02*
X9700571Y-91262180D01*
X9700571Y-91262180D02*
X9700571Y-93162180D01*
X10352000Y-93162180D02*
X10352000Y-91262180D01*
X11003429Y-93162180D02*
X11003429Y-91262180D01*
X11003429Y-91262180D02*
X11329143Y-91262180D01*
X11329143Y-91262180D02*
X11524572Y-91352656D01*
X11524572Y-91352656D02*
X11654857Y-91533608D01*
X11654857Y-91533608D02*
X11720000Y-91714561D01*
X11720000Y-91714561D02*
X11785143Y-92076465D01*
X11785143Y-92076465D02*
X11785143Y-92347894D01*
X11785143Y-92347894D02*
X11720000Y-92709799D01*
X11720000Y-92709799D02*
X11654857Y-92890751D01*
X11654857Y-92890751D02*
X11524572Y-93071704D01*
X11524572Y-93071704D02*
X11329143Y-93162180D01*
X11329143Y-93162180D02*
X11003429Y-93162180D01*
X12371429Y-93162180D02*
X12371429Y-91262180D01*
X37265429Y-93562180D02*
X37265429Y-91662180D01*
X37265429Y-91662180D02*
X37786572Y-91662180D01*
X37786572Y-91662180D02*
X37916857Y-91752656D01*
X37916857Y-91752656D02*
X37982000Y-91843132D01*
X37982000Y-91843132D02*
X38047143Y-92024084D01*
X38047143Y-92024084D02*
X38047143Y-92295513D01*
X38047143Y-92295513D02*
X37982000Y-92476465D01*
X37982000Y-92476465D02*
X37916857Y-92566942D01*
X37916857Y-92566942D02*
X37786572Y-92657418D01*
X37786572Y-92657418D02*
X37265429Y-92657418D01*
X39284857Y-93562180D02*
X38633429Y-93562180D01*
X38633429Y-93562180D02*
X38633429Y-91662180D01*
X39675715Y-93019323D02*
X40327144Y-93019323D01*
X39545429Y-93562180D02*
X40001429Y-91662180D01*
X40001429Y-91662180D02*
X40457429Y-93562180D01*
X41174000Y-92657418D02*
X41174000Y-93562180D01*
X40718000Y-91662180D02*
X41174000Y-92657418D01*
X41174000Y-92657418D02*
X41630000Y-91662180D01*
X59962572Y-93562180D02*
X59962572Y-91662180D01*
X59962572Y-91662180D02*
X60483715Y-91662180D01*
X60483715Y-91662180D02*
X60614000Y-91752656D01*
X60614000Y-91752656D02*
X60679143Y-91843132D01*
X60679143Y-91843132D02*
X60744286Y-92024084D01*
X60744286Y-92024084D02*
X60744286Y-92295513D01*
X60744286Y-92295513D02*
X60679143Y-92476465D01*
X60679143Y-92476465D02*
X60614000Y-92566942D01*
X60614000Y-92566942D02*
X60483715Y-92657418D01*
X60483715Y-92657418D02*
X59962572Y-92657418D01*
X61265429Y-93019323D02*
X61916858Y-93019323D01*
X61135143Y-93562180D02*
X61591143Y-91662180D01*
X61591143Y-91662180D02*
X62047143Y-93562180D01*
X63219714Y-91752656D02*
X63089429Y-91662180D01*
X63089429Y-91662180D02*
X62894000Y-91662180D01*
X62894000Y-91662180D02*
X62698571Y-91752656D01*
X62698571Y-91752656D02*
X62568286Y-91933608D01*
X62568286Y-91933608D02*
X62503143Y-92114561D01*
X62503143Y-92114561D02*
X62438000Y-92476465D01*
X62438000Y-92476465D02*
X62438000Y-92747894D01*
X62438000Y-92747894D02*
X62503143Y-93109799D01*
X62503143Y-93109799D02*
X62568286Y-93290751D01*
X62568286Y-93290751D02*
X62698571Y-93471704D01*
X62698571Y-93471704D02*
X62894000Y-93562180D01*
X62894000Y-93562180D02*
X63024286Y-93562180D01*
X63024286Y-93562180D02*
X63219714Y-93471704D01*
X63219714Y-93471704D02*
X63284857Y-93381227D01*
X63284857Y-93381227D02*
X63284857Y-92747894D01*
X63284857Y-92747894D02*
X63024286Y-92747894D01*
X63871143Y-92566942D02*
X64327143Y-92566942D01*
X64522571Y-93562180D02*
X63871143Y-93562180D01*
X63871143Y-93562180D02*
X63871143Y-91662180D01*
X63871143Y-91662180D02*
X64522571Y-91662180D01*
D13*
X27316571Y-32973665D02*
X27261714Y-33049856D01*
X27261714Y-33049856D02*
X27097142Y-33126046D01*
X27097142Y-33126046D02*
X26987428Y-33126046D01*
X26987428Y-33126046D02*
X26822857Y-33049856D01*
X26822857Y-33049856D02*
X26713142Y-32897475D01*
X26713142Y-32897475D02*
X26658285Y-32745094D01*
X26658285Y-32745094D02*
X26603428Y-32440332D01*
X26603428Y-32440332D02*
X26603428Y-32211760D01*
X26603428Y-32211760D02*
X26658285Y-31906998D01*
X26658285Y-31906998D02*
X26713142Y-31754617D01*
X26713142Y-31754617D02*
X26822857Y-31602236D01*
X26822857Y-31602236D02*
X26987428Y-31526046D01*
X26987428Y-31526046D02*
X27097142Y-31526046D01*
X27097142Y-31526046D02*
X27261714Y-31602236D01*
X27261714Y-31602236D02*
X27316571Y-31678427D01*
X27755428Y-32668903D02*
X28304000Y-32668903D01*
X27645714Y-33126046D02*
X28029714Y-31526046D01*
X28029714Y-31526046D02*
X28413714Y-33126046D01*
X29346286Y-33126046D02*
X28797714Y-33126046D01*
X28797714Y-33126046D02*
X28797714Y-31526046D01*
D10*
X76657143Y-92602180D02*
X76657143Y-90702180D01*
X76657143Y-90702180D02*
X77178286Y-90702180D01*
X77178286Y-90702180D02*
X77308571Y-90792656D01*
X77308571Y-90792656D02*
X77373714Y-90883132D01*
X77373714Y-90883132D02*
X77438857Y-91064084D01*
X77438857Y-91064084D02*
X77438857Y-91335513D01*
X77438857Y-91335513D02*
X77373714Y-91516465D01*
X77373714Y-91516465D02*
X77308571Y-91606942D01*
X77308571Y-91606942D02*
X77178286Y-91697418D01*
X77178286Y-91697418D02*
X76657143Y-91697418D01*
X78806857Y-92602180D02*
X78350857Y-91697418D01*
X78025143Y-92602180D02*
X78025143Y-90702180D01*
X78025143Y-90702180D02*
X78546286Y-90702180D01*
X78546286Y-90702180D02*
X78676571Y-90792656D01*
X78676571Y-90792656D02*
X78741714Y-90883132D01*
X78741714Y-90883132D02*
X78806857Y-91064084D01*
X78806857Y-91064084D02*
X78806857Y-91335513D01*
X78806857Y-91335513D02*
X78741714Y-91516465D01*
X78741714Y-91516465D02*
X78676571Y-91606942D01*
X78676571Y-91606942D02*
X78546286Y-91697418D01*
X78546286Y-91697418D02*
X78025143Y-91697418D01*
X79653714Y-90702180D02*
X79914286Y-90702180D01*
X79914286Y-90702180D02*
X80044571Y-90792656D01*
X80044571Y-90792656D02*
X80174857Y-90973608D01*
X80174857Y-90973608D02*
X80240000Y-91335513D01*
X80240000Y-91335513D02*
X80240000Y-91968846D01*
X80240000Y-91968846D02*
X80174857Y-92330751D01*
X80174857Y-92330751D02*
X80044571Y-92511704D01*
X80044571Y-92511704D02*
X79914286Y-92602180D01*
X79914286Y-92602180D02*
X79653714Y-92602180D01*
X79653714Y-92602180D02*
X79523429Y-92511704D01*
X79523429Y-92511704D02*
X79393143Y-92330751D01*
X79393143Y-92330751D02*
X79328000Y-91968846D01*
X79328000Y-91968846D02*
X79328000Y-91335513D01*
X79328000Y-91335513D02*
X79393143Y-90973608D01*
X79393143Y-90973608D02*
X79523429Y-90792656D01*
X79523429Y-90792656D02*
X79653714Y-90702180D01*
X81542857Y-90792656D02*
X81412572Y-90702180D01*
X81412572Y-90702180D02*
X81217143Y-90702180D01*
X81217143Y-90702180D02*
X81021714Y-90792656D01*
X81021714Y-90792656D02*
X80891429Y-90973608D01*
X80891429Y-90973608D02*
X80826286Y-91154561D01*
X80826286Y-91154561D02*
X80761143Y-91516465D01*
X80761143Y-91516465D02*
X80761143Y-91787894D01*
X80761143Y-91787894D02*
X80826286Y-92149799D01*
X80826286Y-92149799D02*
X80891429Y-92330751D01*
X80891429Y-92330751D02*
X81021714Y-92511704D01*
X81021714Y-92511704D02*
X81217143Y-92602180D01*
X81217143Y-92602180D02*
X81347429Y-92602180D01*
X81347429Y-92602180D02*
X81542857Y-92511704D01*
X81542857Y-92511704D02*
X81608000Y-92421227D01*
X81608000Y-92421227D02*
X81608000Y-91787894D01*
X81608000Y-91787894D02*
X81347429Y-91787894D01*
X91820000Y-92602180D02*
X91820000Y-90702180D01*
X91820000Y-91606942D02*
X92601714Y-91606942D01*
X92601714Y-92602180D02*
X92601714Y-90702180D01*
X93513714Y-90702180D02*
X93774286Y-90702180D01*
X93774286Y-90702180D02*
X93904571Y-90792656D01*
X93904571Y-90792656D02*
X94034857Y-90973608D01*
X94034857Y-90973608D02*
X94100000Y-91335513D01*
X94100000Y-91335513D02*
X94100000Y-91968846D01*
X94100000Y-91968846D02*
X94034857Y-92330751D01*
X94034857Y-92330751D02*
X93904571Y-92511704D01*
X93904571Y-92511704D02*
X93774286Y-92602180D01*
X93774286Y-92602180D02*
X93513714Y-92602180D01*
X93513714Y-92602180D02*
X93383429Y-92511704D01*
X93383429Y-92511704D02*
X93253143Y-92330751D01*
X93253143Y-92330751D02*
X93188000Y-91968846D01*
X93188000Y-91968846D02*
X93188000Y-91335513D01*
X93188000Y-91335513D02*
X93253143Y-90973608D01*
X93253143Y-90973608D02*
X93383429Y-90792656D01*
X93383429Y-90792656D02*
X93513714Y-90702180D01*
X94621143Y-92511704D02*
X94816572Y-92602180D01*
X94816572Y-92602180D02*
X95142286Y-92602180D01*
X95142286Y-92602180D02*
X95272572Y-92511704D01*
X95272572Y-92511704D02*
X95337714Y-92421227D01*
X95337714Y-92421227D02*
X95402857Y-92240275D01*
X95402857Y-92240275D02*
X95402857Y-92059323D01*
X95402857Y-92059323D02*
X95337714Y-91878370D01*
X95337714Y-91878370D02*
X95272572Y-91787894D01*
X95272572Y-91787894D02*
X95142286Y-91697418D01*
X95142286Y-91697418D02*
X94881714Y-91606942D01*
X94881714Y-91606942D02*
X94751429Y-91516465D01*
X94751429Y-91516465D02*
X94686286Y-91425989D01*
X94686286Y-91425989D02*
X94621143Y-91245037D01*
X94621143Y-91245037D02*
X94621143Y-91064084D01*
X94621143Y-91064084D02*
X94686286Y-90883132D01*
X94686286Y-90883132D02*
X94751429Y-90792656D01*
X94751429Y-90792656D02*
X94881714Y-90702180D01*
X94881714Y-90702180D02*
X95207429Y-90702180D01*
X95207429Y-90702180D02*
X95402857Y-90792656D01*
X95793714Y-90702180D02*
X96575429Y-90702180D01*
X96184571Y-92602180D02*
X96184571Y-90702180D01*
D12*
X3937143Y-106907558D02*
X3937143Y-104907558D01*
X3937143Y-104907558D02*
X4485714Y-104907558D01*
X4485714Y-104907558D02*
X4622857Y-105002796D01*
X4622857Y-105002796D02*
X4691428Y-105098034D01*
X4691428Y-105098034D02*
X4760000Y-105288510D01*
X4760000Y-105288510D02*
X4760000Y-105574224D01*
X4760000Y-105574224D02*
X4691428Y-105764700D01*
X4691428Y-105764700D02*
X4622857Y-105859939D01*
X4622857Y-105859939D02*
X4485714Y-105955177D01*
X4485714Y-105955177D02*
X3937143Y-105955177D01*
X6131428Y-106907558D02*
X5308571Y-106907558D01*
X5720000Y-106907558D02*
X5720000Y-104907558D01*
X5720000Y-104907558D02*
X5582857Y-105193272D01*
X5582857Y-105193272D02*
X5445714Y-105383748D01*
X5445714Y-105383748D02*
X5308571Y-105478986D01*
D14*
X3656000Y-107601957D02*
X3656000Y-108735290D01*
X3656000Y-108735290D02*
X3608000Y-108868624D01*
X3608000Y-108868624D02*
X3560000Y-108935290D01*
X3560000Y-108935290D02*
X3464000Y-109001957D01*
X3464000Y-109001957D02*
X3320000Y-109001957D01*
X3320000Y-109001957D02*
X3224000Y-108935290D01*
X3656000Y-108468624D02*
X3560000Y-108535290D01*
X3560000Y-108535290D02*
X3368000Y-108535290D01*
X3368000Y-108535290D02*
X3272000Y-108468624D01*
X3272000Y-108468624D02*
X3224000Y-108401957D01*
X3224000Y-108401957D02*
X3176000Y-108268624D01*
X3176000Y-108268624D02*
X3176000Y-107868624D01*
X3176000Y-107868624D02*
X3224000Y-107735290D01*
X3224000Y-107735290D02*
X3272000Y-107668624D01*
X3272000Y-107668624D02*
X3368000Y-107601957D01*
X3368000Y-107601957D02*
X3560000Y-107601957D01*
X3560000Y-107601957D02*
X3656000Y-107668624D01*
X4520000Y-108468624D02*
X4424000Y-108535290D01*
X4424000Y-108535290D02*
X4232000Y-108535290D01*
X4232000Y-108535290D02*
X4136000Y-108468624D01*
X4136000Y-108468624D02*
X4088000Y-108335290D01*
X4088000Y-108335290D02*
X4088000Y-107801957D01*
X4088000Y-107801957D02*
X4136000Y-107668624D01*
X4136000Y-107668624D02*
X4232000Y-107601957D01*
X4232000Y-107601957D02*
X4424000Y-107601957D01*
X4424000Y-107601957D02*
X4520000Y-107668624D01*
X4520000Y-107668624D02*
X4568000Y-107801957D01*
X4568000Y-107801957D02*
X4568000Y-107935290D01*
X4568000Y-107935290D02*
X4088000Y-108068624D01*
X5144000Y-108535290D02*
X5048000Y-108468624D01*
X5048000Y-108468624D02*
X5000000Y-108401957D01*
X5000000Y-108401957D02*
X4952000Y-108268624D01*
X4952000Y-108268624D02*
X4952000Y-107868624D01*
X4952000Y-107868624D02*
X5000000Y-107735290D01*
X5000000Y-107735290D02*
X5048000Y-107668624D01*
X5048000Y-107668624D02*
X5144000Y-107601957D01*
X5144000Y-107601957D02*
X5288000Y-107601957D01*
X5288000Y-107601957D02*
X5384000Y-107668624D01*
X5384000Y-107668624D02*
X5432000Y-107735290D01*
X5432000Y-107735290D02*
X5480000Y-107868624D01*
X5480000Y-107868624D02*
X5480000Y-108268624D01*
X5480000Y-108268624D02*
X5432000Y-108401957D01*
X5432000Y-108401957D02*
X5384000Y-108468624D01*
X5384000Y-108468624D02*
X5288000Y-108535290D01*
X5288000Y-108535290D02*
X5144000Y-108535290D01*
X5912000Y-108535290D02*
X5912000Y-107601957D01*
X5912000Y-107735290D02*
X5960000Y-107668624D01*
X5960000Y-107668624D02*
X6056000Y-107601957D01*
X6056000Y-107601957D02*
X6200000Y-107601957D01*
X6200000Y-107601957D02*
X6296000Y-107668624D01*
X6296000Y-107668624D02*
X6344000Y-107801957D01*
X6344000Y-107801957D02*
X6344000Y-108535290D01*
X6344000Y-107801957D02*
X6392000Y-107668624D01*
X6392000Y-107668624D02*
X6488000Y-107601957D01*
X6488000Y-107601957D02*
X6632000Y-107601957D01*
X6632000Y-107601957D02*
X6728000Y-107668624D01*
X6728000Y-107668624D02*
X6776000Y-107801957D01*
X6776000Y-107801957D02*
X6776000Y-108535290D01*
D12*
X14097143Y-106907558D02*
X14097143Y-104907558D01*
X14097143Y-104907558D02*
X14645714Y-104907558D01*
X14645714Y-104907558D02*
X14782857Y-105002796D01*
X14782857Y-105002796D02*
X14851428Y-105098034D01*
X14851428Y-105098034D02*
X14920000Y-105288510D01*
X14920000Y-105288510D02*
X14920000Y-105574224D01*
X14920000Y-105574224D02*
X14851428Y-105764700D01*
X14851428Y-105764700D02*
X14782857Y-105859939D01*
X14782857Y-105859939D02*
X14645714Y-105955177D01*
X14645714Y-105955177D02*
X14097143Y-105955177D01*
X15468571Y-105098034D02*
X15537143Y-105002796D01*
X15537143Y-105002796D02*
X15674286Y-104907558D01*
X15674286Y-104907558D02*
X16017143Y-104907558D01*
X16017143Y-104907558D02*
X16154286Y-105002796D01*
X16154286Y-105002796D02*
X16222857Y-105098034D01*
X16222857Y-105098034D02*
X16291428Y-105288510D01*
X16291428Y-105288510D02*
X16291428Y-105478986D01*
X16291428Y-105478986D02*
X16222857Y-105764700D01*
X16222857Y-105764700D02*
X15400000Y-106907558D01*
X15400000Y-106907558D02*
X16291428Y-106907558D01*
D14*
X13888000Y-108535290D02*
X13888000Y-107135290D01*
X13888000Y-107668624D02*
X13984000Y-107601957D01*
X13984000Y-107601957D02*
X14176000Y-107601957D01*
X14176000Y-107601957D02*
X14272000Y-107668624D01*
X14272000Y-107668624D02*
X14320000Y-107735290D01*
X14320000Y-107735290D02*
X14368000Y-107868624D01*
X14368000Y-107868624D02*
X14368000Y-108268624D01*
X14368000Y-108268624D02*
X14320000Y-108401957D01*
X14320000Y-108401957D02*
X14272000Y-108468624D01*
X14272000Y-108468624D02*
X14176000Y-108535290D01*
X14176000Y-108535290D02*
X13984000Y-108535290D01*
X13984000Y-108535290D02*
X13888000Y-108468624D01*
X14800000Y-108535290D02*
X14800000Y-107601957D01*
X14800000Y-107868624D02*
X14848000Y-107735290D01*
X14848000Y-107735290D02*
X14896000Y-107668624D01*
X14896000Y-107668624D02*
X14992000Y-107601957D01*
X14992000Y-107601957D02*
X15088000Y-107601957D01*
X15856000Y-107601957D02*
X15856000Y-108735290D01*
X15856000Y-108735290D02*
X15808000Y-108868624D01*
X15808000Y-108868624D02*
X15760000Y-108935290D01*
X15760000Y-108935290D02*
X15664000Y-109001957D01*
X15664000Y-109001957D02*
X15520000Y-109001957D01*
X15520000Y-109001957D02*
X15424000Y-108935290D01*
X15856000Y-108468624D02*
X15760000Y-108535290D01*
X15760000Y-108535290D02*
X15568000Y-108535290D01*
X15568000Y-108535290D02*
X15472000Y-108468624D01*
X15472000Y-108468624D02*
X15424000Y-108401957D01*
X15424000Y-108401957D02*
X15376000Y-108268624D01*
X15376000Y-108268624D02*
X15376000Y-107868624D01*
X15376000Y-107868624D02*
X15424000Y-107735290D01*
X15424000Y-107735290D02*
X15472000Y-107668624D01*
X15472000Y-107668624D02*
X15568000Y-107601957D01*
X15568000Y-107601957D02*
X15760000Y-107601957D01*
X15760000Y-107601957D02*
X15856000Y-107668624D01*
X16192000Y-107601957D02*
X16576000Y-107601957D01*
X16336000Y-107135290D02*
X16336000Y-108335290D01*
X16336000Y-108335290D02*
X16384000Y-108468624D01*
X16384000Y-108468624D02*
X16480000Y-108535290D01*
X16480000Y-108535290D02*
X16576000Y-108535290D01*
D12*
X24257143Y-106907558D02*
X24257143Y-104907558D01*
X24257143Y-104907558D02*
X24805714Y-104907558D01*
X24805714Y-104907558D02*
X24942857Y-105002796D01*
X24942857Y-105002796D02*
X25011428Y-105098034D01*
X25011428Y-105098034D02*
X25080000Y-105288510D01*
X25080000Y-105288510D02*
X25080000Y-105574224D01*
X25080000Y-105574224D02*
X25011428Y-105764700D01*
X25011428Y-105764700D02*
X24942857Y-105859939D01*
X24942857Y-105859939D02*
X24805714Y-105955177D01*
X24805714Y-105955177D02*
X24257143Y-105955177D01*
X25560000Y-104907558D02*
X26451428Y-104907558D01*
X26451428Y-104907558D02*
X25971428Y-105669462D01*
X25971428Y-105669462D02*
X26177143Y-105669462D01*
X26177143Y-105669462D02*
X26314286Y-105764700D01*
X26314286Y-105764700D02*
X26382857Y-105859939D01*
X26382857Y-105859939D02*
X26451428Y-106050415D01*
X26451428Y-106050415D02*
X26451428Y-106526605D01*
X26451428Y-106526605D02*
X26382857Y-106717081D01*
X26382857Y-106717081D02*
X26314286Y-106812320D01*
X26314286Y-106812320D02*
X26177143Y-106907558D01*
X26177143Y-106907558D02*
X25765714Y-106907558D01*
X25765714Y-106907558D02*
X25628571Y-106812320D01*
X25628571Y-106812320D02*
X25560000Y-106717081D01*
D14*
X23952000Y-108535290D02*
X23952000Y-107135290D01*
X23952000Y-108468624D02*
X23856000Y-108535290D01*
X23856000Y-108535290D02*
X23664000Y-108535290D01*
X23664000Y-108535290D02*
X23568000Y-108468624D01*
X23568000Y-108468624D02*
X23520000Y-108401957D01*
X23520000Y-108401957D02*
X23472000Y-108268624D01*
X23472000Y-108268624D02*
X23472000Y-107868624D01*
X23472000Y-107868624D02*
X23520000Y-107735290D01*
X23520000Y-107735290D02*
X23568000Y-107668624D01*
X23568000Y-107668624D02*
X23664000Y-107601957D01*
X23664000Y-107601957D02*
X23856000Y-107601957D01*
X23856000Y-107601957D02*
X23952000Y-107668624D01*
X24864000Y-108535290D02*
X24864000Y-107801957D01*
X24864000Y-107801957D02*
X24816000Y-107668624D01*
X24816000Y-107668624D02*
X24720000Y-107601957D01*
X24720000Y-107601957D02*
X24528000Y-107601957D01*
X24528000Y-107601957D02*
X24432000Y-107668624D01*
X24864000Y-108468624D02*
X24768000Y-108535290D01*
X24768000Y-108535290D02*
X24528000Y-108535290D01*
X24528000Y-108535290D02*
X24432000Y-108468624D01*
X24432000Y-108468624D02*
X24384000Y-108335290D01*
X24384000Y-108335290D02*
X24384000Y-108201957D01*
X24384000Y-108201957D02*
X24432000Y-108068624D01*
X24432000Y-108068624D02*
X24528000Y-108001957D01*
X24528000Y-108001957D02*
X24768000Y-108001957D01*
X24768000Y-108001957D02*
X24864000Y-107935290D01*
X25344000Y-108535290D02*
X25344000Y-107601957D01*
X25344000Y-107735290D02*
X25392000Y-107668624D01*
X25392000Y-107668624D02*
X25488000Y-107601957D01*
X25488000Y-107601957D02*
X25632000Y-107601957D01*
X25632000Y-107601957D02*
X25728000Y-107668624D01*
X25728000Y-107668624D02*
X25776000Y-107801957D01*
X25776000Y-107801957D02*
X25776000Y-108535290D01*
X25776000Y-107801957D02*
X25824000Y-107668624D01*
X25824000Y-107668624D02*
X25920000Y-107601957D01*
X25920000Y-107601957D02*
X26064000Y-107601957D01*
X26064000Y-107601957D02*
X26160000Y-107668624D01*
X26160000Y-107668624D02*
X26208000Y-107801957D01*
X26208000Y-107801957D02*
X26208000Y-108535290D01*
X26688000Y-107601957D02*
X26688000Y-109001957D01*
X26688000Y-107668624D02*
X26784000Y-107601957D01*
X26784000Y-107601957D02*
X26976000Y-107601957D01*
X26976000Y-107601957D02*
X27072000Y-107668624D01*
X27072000Y-107668624D02*
X27120000Y-107735290D01*
X27120000Y-107735290D02*
X27168000Y-107868624D01*
X27168000Y-107868624D02*
X27168000Y-108268624D01*
X27168000Y-108268624D02*
X27120000Y-108401957D01*
X27120000Y-108401957D02*
X27072000Y-108468624D01*
X27072000Y-108468624D02*
X26976000Y-108535290D01*
X26976000Y-108535290D02*
X26784000Y-108535290D01*
X26784000Y-108535290D02*
X26688000Y-108468624D01*
D12*
X34417143Y-106907558D02*
X34417143Y-104907558D01*
X34417143Y-104907558D02*
X34965714Y-104907558D01*
X34965714Y-104907558D02*
X35102857Y-105002796D01*
X35102857Y-105002796D02*
X35171428Y-105098034D01*
X35171428Y-105098034D02*
X35240000Y-105288510D01*
X35240000Y-105288510D02*
X35240000Y-105574224D01*
X35240000Y-105574224D02*
X35171428Y-105764700D01*
X35171428Y-105764700D02*
X35102857Y-105859939D01*
X35102857Y-105859939D02*
X34965714Y-105955177D01*
X34965714Y-105955177D02*
X34417143Y-105955177D01*
X36474286Y-105574224D02*
X36474286Y-106907558D01*
X36131428Y-104812320D02*
X35788571Y-106240891D01*
X35788571Y-106240891D02*
X36680000Y-106240891D01*
D14*
X33944000Y-107601957D02*
X33944000Y-109001957D01*
X33944000Y-107668624D02*
X34040000Y-107601957D01*
X34040000Y-107601957D02*
X34232000Y-107601957D01*
X34232000Y-107601957D02*
X34328000Y-107668624D01*
X34328000Y-107668624D02*
X34376000Y-107735290D01*
X34376000Y-107735290D02*
X34424000Y-107868624D01*
X34424000Y-107868624D02*
X34424000Y-108268624D01*
X34424000Y-108268624D02*
X34376000Y-108401957D01*
X34376000Y-108401957D02*
X34328000Y-108468624D01*
X34328000Y-108468624D02*
X34232000Y-108535290D01*
X34232000Y-108535290D02*
X34040000Y-108535290D01*
X34040000Y-108535290D02*
X33944000Y-108468624D01*
X35000000Y-108535290D02*
X34904000Y-108468624D01*
X34904000Y-108468624D02*
X34856000Y-108401957D01*
X34856000Y-108401957D02*
X34808000Y-108268624D01*
X34808000Y-108268624D02*
X34808000Y-107868624D01*
X34808000Y-107868624D02*
X34856000Y-107735290D01*
X34856000Y-107735290D02*
X34904000Y-107668624D01*
X34904000Y-107668624D02*
X35000000Y-107601957D01*
X35000000Y-107601957D02*
X35144000Y-107601957D01*
X35144000Y-107601957D02*
X35240000Y-107668624D01*
X35240000Y-107668624D02*
X35288000Y-107735290D01*
X35288000Y-107735290D02*
X35336000Y-107868624D01*
X35336000Y-107868624D02*
X35336000Y-108268624D01*
X35336000Y-108268624D02*
X35288000Y-108401957D01*
X35288000Y-108401957D02*
X35240000Y-108468624D01*
X35240000Y-108468624D02*
X35144000Y-108535290D01*
X35144000Y-108535290D02*
X35000000Y-108535290D01*
X35720000Y-108468624D02*
X35816000Y-108535290D01*
X35816000Y-108535290D02*
X36008000Y-108535290D01*
X36008000Y-108535290D02*
X36104000Y-108468624D01*
X36104000Y-108468624D02*
X36152000Y-108335290D01*
X36152000Y-108335290D02*
X36152000Y-108268624D01*
X36152000Y-108268624D02*
X36104000Y-108135290D01*
X36104000Y-108135290D02*
X36008000Y-108068624D01*
X36008000Y-108068624D02*
X35864000Y-108068624D01*
X35864000Y-108068624D02*
X35768000Y-108001957D01*
X35768000Y-108001957D02*
X35720000Y-107868624D01*
X35720000Y-107868624D02*
X35720000Y-107801957D01*
X35720000Y-107801957D02*
X35768000Y-107668624D01*
X35768000Y-107668624D02*
X35864000Y-107601957D01*
X35864000Y-107601957D02*
X36008000Y-107601957D01*
X36008000Y-107601957D02*
X36104000Y-107668624D01*
X36584000Y-107601957D02*
X36584000Y-108535290D01*
X36584000Y-107735290D02*
X36632000Y-107668624D01*
X36632000Y-107668624D02*
X36728000Y-107601957D01*
X36728000Y-107601957D02*
X36872000Y-107601957D01*
X36872000Y-107601957D02*
X36968000Y-107668624D01*
X36968000Y-107668624D02*
X37016000Y-107801957D01*
X37016000Y-107801957D02*
X37016000Y-108535290D01*
D12*
X46431428Y-106717081D02*
X46362856Y-106812320D01*
X46362856Y-106812320D02*
X46157142Y-106907558D01*
X46157142Y-106907558D02*
X46019999Y-106907558D01*
X46019999Y-106907558D02*
X45814285Y-106812320D01*
X45814285Y-106812320D02*
X45677142Y-106621843D01*
X45677142Y-106621843D02*
X45608571Y-106431367D01*
X45608571Y-106431367D02*
X45539999Y-106050415D01*
X45539999Y-106050415D02*
X45539999Y-105764700D01*
X45539999Y-105764700D02*
X45608571Y-105383748D01*
X45608571Y-105383748D02*
X45677142Y-105193272D01*
X45677142Y-105193272D02*
X45814285Y-105002796D01*
X45814285Y-105002796D02*
X46019999Y-104907558D01*
X46019999Y-104907558D02*
X46157142Y-104907558D01*
X46157142Y-104907558D02*
X46362856Y-105002796D01*
X46362856Y-105002796D02*
X46431428Y-105098034D01*
X46842856Y-104907558D02*
X47322856Y-106907558D01*
X47322856Y-106907558D02*
X47802856Y-104907558D01*
X48282857Y-106145653D02*
X49380000Y-106145653D01*
X49928571Y-104907558D02*
X50888571Y-106907558D01*
X50888571Y-104907558D02*
X49928571Y-106907558D01*
D14*
X45900000Y-107135290D02*
X46236000Y-108535290D01*
X46236000Y-108535290D02*
X46572000Y-107135290D01*
X47628000Y-107068624D02*
X46764000Y-108868624D01*
X48156000Y-107135290D02*
X48348000Y-107135290D01*
X48348000Y-107135290D02*
X48444000Y-107201957D01*
X48444000Y-107201957D02*
X48540000Y-107335290D01*
X48540000Y-107335290D02*
X48588000Y-107601957D01*
X48588000Y-107601957D02*
X48588000Y-108068624D01*
X48588000Y-108068624D02*
X48540000Y-108335290D01*
X48540000Y-108335290D02*
X48444000Y-108468624D01*
X48444000Y-108468624D02*
X48348000Y-108535290D01*
X48348000Y-108535290D02*
X48156000Y-108535290D01*
X48156000Y-108535290D02*
X48060000Y-108468624D01*
X48060000Y-108468624D02*
X47964000Y-108335290D01*
X47964000Y-108335290D02*
X47916000Y-108068624D01*
X47916000Y-108068624D02*
X47916000Y-107601957D01*
X47916000Y-107601957D02*
X47964000Y-107335290D01*
X47964000Y-107335290D02*
X48060000Y-107201957D01*
X48060000Y-107201957D02*
X48156000Y-107135290D01*
X49596000Y-108401957D02*
X49548000Y-108468624D01*
X49548000Y-108468624D02*
X49404000Y-108535290D01*
X49404000Y-108535290D02*
X49308000Y-108535290D01*
X49308000Y-108535290D02*
X49164000Y-108468624D01*
X49164000Y-108468624D02*
X49068000Y-108335290D01*
X49068000Y-108335290D02*
X49020000Y-108201957D01*
X49020000Y-108201957D02*
X48972000Y-107935290D01*
X48972000Y-107935290D02*
X48972000Y-107735290D01*
X48972000Y-107735290D02*
X49020000Y-107468624D01*
X49020000Y-107468624D02*
X49068000Y-107335290D01*
X49068000Y-107335290D02*
X49164000Y-107201957D01*
X49164000Y-107201957D02*
X49308000Y-107135290D01*
X49308000Y-107135290D02*
X49404000Y-107135290D01*
X49404000Y-107135290D02*
X49548000Y-107201957D01*
X49548000Y-107201957D02*
X49596000Y-107268624D01*
X49884000Y-107135290D02*
X50460000Y-107135290D01*
X50172000Y-108535290D02*
X50172000Y-107135290D01*
D12*
X58479999Y-105002796D02*
X58342857Y-104907558D01*
X58342857Y-104907558D02*
X58137142Y-104907558D01*
X58137142Y-104907558D02*
X57931428Y-105002796D01*
X57931428Y-105002796D02*
X57794285Y-105193272D01*
X57794285Y-105193272D02*
X57725714Y-105383748D01*
X57725714Y-105383748D02*
X57657142Y-105764700D01*
X57657142Y-105764700D02*
X57657142Y-106050415D01*
X57657142Y-106050415D02*
X57725714Y-106431367D01*
X57725714Y-106431367D02*
X57794285Y-106621843D01*
X57794285Y-106621843D02*
X57931428Y-106812320D01*
X57931428Y-106812320D02*
X58137142Y-106907558D01*
X58137142Y-106907558D02*
X58274285Y-106907558D01*
X58274285Y-106907558D02*
X58479999Y-106812320D01*
X58479999Y-106812320D02*
X58548571Y-106717081D01*
X58548571Y-106717081D02*
X58548571Y-106050415D01*
X58548571Y-106050415D02*
X58274285Y-106050415D01*
X58959999Y-104907558D02*
X59782857Y-104907558D01*
X59371428Y-106907558D02*
X59371428Y-104907558D01*
X60262857Y-105859939D02*
X60742857Y-105859939D01*
X60948571Y-106907558D02*
X60262857Y-106907558D01*
X60262857Y-106907558D02*
X60262857Y-104907558D01*
X60262857Y-104907558D02*
X60948571Y-104907558D01*
X61565714Y-106145653D02*
X62662857Y-106145653D01*
X64102856Y-106907558D02*
X63279999Y-106907558D01*
X63691428Y-106907558D02*
X63691428Y-104907558D01*
X63691428Y-104907558D02*
X63554285Y-105193272D01*
X63554285Y-105193272D02*
X63417142Y-105383748D01*
X63417142Y-105383748D02*
X63279999Y-105478986D01*
X69291428Y-106717081D02*
X69222856Y-106812320D01*
X69222856Y-106812320D02*
X69017142Y-106907558D01*
X69017142Y-106907558D02*
X68879999Y-106907558D01*
X68879999Y-106907558D02*
X68674285Y-106812320D01*
X68674285Y-106812320D02*
X68537142Y-106621843D01*
X68537142Y-106621843D02*
X68468571Y-106431367D01*
X68468571Y-106431367D02*
X68399999Y-106050415D01*
X68399999Y-106050415D02*
X68399999Y-105764700D01*
X68399999Y-105764700D02*
X68468571Y-105383748D01*
X68468571Y-105383748D02*
X68537142Y-105193272D01*
X68537142Y-105193272D02*
X68674285Y-105002796D01*
X68674285Y-105002796D02*
X68879999Y-104907558D01*
X68879999Y-104907558D02*
X69017142Y-104907558D01*
X69017142Y-104907558D02*
X69222856Y-105002796D01*
X69222856Y-105002796D02*
X69291428Y-105098034D01*
X69702856Y-104907558D02*
X70182856Y-106907558D01*
X70182856Y-106907558D02*
X70662856Y-104907558D01*
X71142857Y-106145653D02*
X72240000Y-106145653D01*
X73679999Y-106907558D02*
X72857142Y-106907558D01*
X73268571Y-106907558D02*
X73268571Y-104907558D01*
X73268571Y-104907558D02*
X73131428Y-105193272D01*
X73131428Y-105193272D02*
X72994285Y-105383748D01*
X72994285Y-105383748D02*
X72857142Y-105478986D01*
X81511429Y-106907558D02*
X81511429Y-104907558D01*
X82197143Y-106907558D02*
X82197143Y-104907558D01*
X82197143Y-104907558D02*
X83020000Y-106907558D01*
X83020000Y-106907558D02*
X83020000Y-104907558D01*
X83705714Y-106145653D02*
X84802857Y-106145653D01*
X86174285Y-106907558D02*
X85488571Y-106907558D01*
X85488571Y-106907558D02*
X85488571Y-104907558D01*
X93525714Y-104907558D02*
X93800000Y-104907558D01*
X93800000Y-104907558D02*
X93937143Y-105002796D01*
X93937143Y-105002796D02*
X94074286Y-105193272D01*
X94074286Y-105193272D02*
X94142857Y-105574224D01*
X94142857Y-105574224D02*
X94142857Y-106240891D01*
X94142857Y-106240891D02*
X94074286Y-106621843D01*
X94074286Y-106621843D02*
X93937143Y-106812320D01*
X93937143Y-106812320D02*
X93800000Y-106907558D01*
X93800000Y-106907558D02*
X93525714Y-106907558D01*
X93525714Y-106907558D02*
X93388572Y-106812320D01*
X93388572Y-106812320D02*
X93251429Y-106621843D01*
X93251429Y-106621843D02*
X93182857Y-106240891D01*
X93182857Y-106240891D02*
X93182857Y-105574224D01*
X93182857Y-105574224D02*
X93251429Y-105193272D01*
X93251429Y-105193272D02*
X93388572Y-105002796D01*
X93388572Y-105002796D02*
X93525714Y-104907558D01*
X94760000Y-104907558D02*
X94760000Y-106526605D01*
X94760000Y-106526605D02*
X94828571Y-106717081D01*
X94828571Y-106717081D02*
X94897143Y-106812320D01*
X94897143Y-106812320D02*
X95034285Y-106907558D01*
X95034285Y-106907558D02*
X95308571Y-106907558D01*
X95308571Y-106907558D02*
X95445714Y-106812320D01*
X95445714Y-106812320D02*
X95514285Y-106717081D01*
X95514285Y-106717081D02*
X95582857Y-106526605D01*
X95582857Y-106526605D02*
X95582857Y-104907558D01*
X96062856Y-104907558D02*
X96885714Y-104907558D01*
X96474285Y-106907558D02*
X96474285Y-104907558D01*
X97365714Y-106145653D02*
X98462857Y-106145653D01*
X99834285Y-106907558D02*
X99148571Y-106907558D01*
X99148571Y-106907558D02*
X99148571Y-104907558D01*
X3320000Y-119417081D02*
X3251428Y-119512320D01*
X3251428Y-119512320D02*
X3045714Y-119607558D01*
X3045714Y-119607558D02*
X2908571Y-119607558D01*
X2908571Y-119607558D02*
X2702857Y-119512320D01*
X2702857Y-119512320D02*
X2565714Y-119321843D01*
X2565714Y-119321843D02*
X2497143Y-119131367D01*
X2497143Y-119131367D02*
X2428571Y-118750415D01*
X2428571Y-118750415D02*
X2428571Y-118464700D01*
X2428571Y-118464700D02*
X2497143Y-118083748D01*
X2497143Y-118083748D02*
X2565714Y-117893272D01*
X2565714Y-117893272D02*
X2702857Y-117702796D01*
X2702857Y-117702796D02*
X2908571Y-117607558D01*
X2908571Y-117607558D02*
X3045714Y-117607558D01*
X3045714Y-117607558D02*
X3251428Y-117702796D01*
X3251428Y-117702796D02*
X3320000Y-117798034D01*
X3731428Y-117607558D02*
X4211428Y-119607558D01*
X4211428Y-119607558D02*
X4691428Y-117607558D01*
X5171429Y-118845653D02*
X6268572Y-118845653D01*
X6885714Y-119036129D02*
X7571429Y-119036129D01*
X6748571Y-119607558D02*
X7228571Y-117607558D01*
X7228571Y-117607558D02*
X7708571Y-119607558D01*
D14*
X3560000Y-120301957D02*
X3944000Y-120301957D01*
X3704000Y-121235290D02*
X3704000Y-120035290D01*
X3704000Y-120035290D02*
X3752000Y-119901957D01*
X3752000Y-119901957D02*
X3848000Y-119835290D01*
X3848000Y-119835290D02*
X3944000Y-119835290D01*
X4424000Y-121235290D02*
X4328000Y-121168624D01*
X4328000Y-121168624D02*
X4280000Y-121035290D01*
X4280000Y-121035290D02*
X4280000Y-119835290D01*
X4952000Y-121235290D02*
X4856000Y-121168624D01*
X4856000Y-121168624D02*
X4808000Y-121101957D01*
X4808000Y-121101957D02*
X4760000Y-120968624D01*
X4760000Y-120968624D02*
X4760000Y-120568624D01*
X4760000Y-120568624D02*
X4808000Y-120435290D01*
X4808000Y-120435290D02*
X4856000Y-120368624D01*
X4856000Y-120368624D02*
X4952000Y-120301957D01*
X4952000Y-120301957D02*
X5096000Y-120301957D01*
X5096000Y-120301957D02*
X5192000Y-120368624D01*
X5192000Y-120368624D02*
X5240000Y-120435290D01*
X5240000Y-120435290D02*
X5288000Y-120568624D01*
X5288000Y-120568624D02*
X5288000Y-120968624D01*
X5288000Y-120968624D02*
X5240000Y-121101957D01*
X5240000Y-121101957D02*
X5192000Y-121168624D01*
X5192000Y-121168624D02*
X5096000Y-121235290D01*
X5096000Y-121235290D02*
X4952000Y-121235290D01*
X5624000Y-120301957D02*
X5816000Y-121235290D01*
X5816000Y-121235290D02*
X6008000Y-120568624D01*
X6008000Y-120568624D02*
X6200000Y-121235290D01*
X6200000Y-121235290D02*
X6392000Y-120301957D01*
D12*
X13377143Y-119417081D02*
X13308571Y-119512320D01*
X13308571Y-119512320D02*
X13102857Y-119607558D01*
X13102857Y-119607558D02*
X12965714Y-119607558D01*
X12965714Y-119607558D02*
X12760000Y-119512320D01*
X12760000Y-119512320D02*
X12622857Y-119321843D01*
X12622857Y-119321843D02*
X12554286Y-119131367D01*
X12554286Y-119131367D02*
X12485714Y-118750415D01*
X12485714Y-118750415D02*
X12485714Y-118464700D01*
X12485714Y-118464700D02*
X12554286Y-118083748D01*
X12554286Y-118083748D02*
X12622857Y-117893272D01*
X12622857Y-117893272D02*
X12760000Y-117702796D01*
X12760000Y-117702796D02*
X12965714Y-117607558D01*
X12965714Y-117607558D02*
X13102857Y-117607558D01*
X13102857Y-117607558D02*
X13308571Y-117702796D01*
X13308571Y-117702796D02*
X13377143Y-117798034D01*
X13788571Y-117607558D02*
X14268571Y-119607558D01*
X14268571Y-119607558D02*
X14748571Y-117607558D01*
X15228572Y-118845653D02*
X16325715Y-118845653D01*
X17491429Y-118559939D02*
X17697143Y-118655177D01*
X17697143Y-118655177D02*
X17765714Y-118750415D01*
X17765714Y-118750415D02*
X17834286Y-118940891D01*
X17834286Y-118940891D02*
X17834286Y-119226605D01*
X17834286Y-119226605D02*
X17765714Y-119417081D01*
X17765714Y-119417081D02*
X17697143Y-119512320D01*
X17697143Y-119512320D02*
X17560000Y-119607558D01*
X17560000Y-119607558D02*
X17011429Y-119607558D01*
X17011429Y-119607558D02*
X17011429Y-117607558D01*
X17011429Y-117607558D02*
X17491429Y-117607558D01*
X17491429Y-117607558D02*
X17628572Y-117702796D01*
X17628572Y-117702796D02*
X17697143Y-117798034D01*
X17697143Y-117798034D02*
X17765714Y-117988510D01*
X17765714Y-117988510D02*
X17765714Y-118178986D01*
X17765714Y-118178986D02*
X17697143Y-118369462D01*
X17697143Y-118369462D02*
X17628572Y-118464700D01*
X17628572Y-118464700D02*
X17491429Y-118559939D01*
X17491429Y-118559939D02*
X17011429Y-118559939D01*
D14*
X13024000Y-121235290D02*
X13024000Y-120301957D01*
X13024000Y-120435290D02*
X13072000Y-120368624D01*
X13072000Y-120368624D02*
X13168000Y-120301957D01*
X13168000Y-120301957D02*
X13312000Y-120301957D01*
X13312000Y-120301957D02*
X13408000Y-120368624D01*
X13408000Y-120368624D02*
X13456000Y-120501957D01*
X13456000Y-120501957D02*
X13456000Y-121235290D01*
X13456000Y-120501957D02*
X13504000Y-120368624D01*
X13504000Y-120368624D02*
X13600000Y-120301957D01*
X13600000Y-120301957D02*
X13744000Y-120301957D01*
X13744000Y-120301957D02*
X13840000Y-120368624D01*
X13840000Y-120368624D02*
X13888000Y-120501957D01*
X13888000Y-120501957D02*
X13888000Y-121235290D01*
X14800000Y-121235290D02*
X14800000Y-120501957D01*
X14800000Y-120501957D02*
X14752000Y-120368624D01*
X14752000Y-120368624D02*
X14656000Y-120301957D01*
X14656000Y-120301957D02*
X14464000Y-120301957D01*
X14464000Y-120301957D02*
X14368000Y-120368624D01*
X14800000Y-121168624D02*
X14704000Y-121235290D01*
X14704000Y-121235290D02*
X14464000Y-121235290D01*
X14464000Y-121235290D02*
X14368000Y-121168624D01*
X14368000Y-121168624D02*
X14320000Y-121035290D01*
X14320000Y-121035290D02*
X14320000Y-120901957D01*
X14320000Y-120901957D02*
X14368000Y-120768624D01*
X14368000Y-120768624D02*
X14464000Y-120701957D01*
X14464000Y-120701957D02*
X14704000Y-120701957D01*
X14704000Y-120701957D02*
X14800000Y-120635290D01*
X15424000Y-121235290D02*
X15328000Y-121168624D01*
X15328000Y-121168624D02*
X15280000Y-121035290D01*
X15280000Y-121035290D02*
X15280000Y-119835290D01*
X15952000Y-121235290D02*
X15856000Y-121168624D01*
X15856000Y-121168624D02*
X15808000Y-121035290D01*
X15808000Y-121035290D02*
X15808000Y-119835290D01*
X16720000Y-121168624D02*
X16624000Y-121235290D01*
X16624000Y-121235290D02*
X16432000Y-121235290D01*
X16432000Y-121235290D02*
X16336000Y-121168624D01*
X16336000Y-121168624D02*
X16288000Y-121035290D01*
X16288000Y-121035290D02*
X16288000Y-120501957D01*
X16288000Y-120501957D02*
X16336000Y-120368624D01*
X16336000Y-120368624D02*
X16432000Y-120301957D01*
X16432000Y-120301957D02*
X16624000Y-120301957D01*
X16624000Y-120301957D02*
X16720000Y-120368624D01*
X16720000Y-120368624D02*
X16768000Y-120501957D01*
X16768000Y-120501957D02*
X16768000Y-120635290D01*
X16768000Y-120635290D02*
X16288000Y-120768624D01*
X17056000Y-120301957D02*
X17440000Y-120301957D01*
X17200000Y-119835290D02*
X17200000Y-121035290D01*
X17200000Y-121035290D02*
X17248000Y-121168624D01*
X17248000Y-121168624D02*
X17344000Y-121235290D01*
X17344000Y-121235290D02*
X17440000Y-121235290D01*
D12*
X23537143Y-119417081D02*
X23468571Y-119512320D01*
X23468571Y-119512320D02*
X23262857Y-119607558D01*
X23262857Y-119607558D02*
X23125714Y-119607558D01*
X23125714Y-119607558D02*
X22920000Y-119512320D01*
X22920000Y-119512320D02*
X22782857Y-119321843D01*
X22782857Y-119321843D02*
X22714286Y-119131367D01*
X22714286Y-119131367D02*
X22645714Y-118750415D01*
X22645714Y-118750415D02*
X22645714Y-118464700D01*
X22645714Y-118464700D02*
X22714286Y-118083748D01*
X22714286Y-118083748D02*
X22782857Y-117893272D01*
X22782857Y-117893272D02*
X22920000Y-117702796D01*
X22920000Y-117702796D02*
X23125714Y-117607558D01*
X23125714Y-117607558D02*
X23262857Y-117607558D01*
X23262857Y-117607558D02*
X23468571Y-117702796D01*
X23468571Y-117702796D02*
X23537143Y-117798034D01*
X23948571Y-117607558D02*
X24428571Y-119607558D01*
X24428571Y-119607558D02*
X24908571Y-117607558D01*
X25388572Y-118845653D02*
X26485715Y-118845653D01*
X27994286Y-119417081D02*
X27925714Y-119512320D01*
X27925714Y-119512320D02*
X27720000Y-119607558D01*
X27720000Y-119607558D02*
X27582857Y-119607558D01*
X27582857Y-119607558D02*
X27377143Y-119512320D01*
X27377143Y-119512320D02*
X27240000Y-119321843D01*
X27240000Y-119321843D02*
X27171429Y-119131367D01*
X27171429Y-119131367D02*
X27102857Y-118750415D01*
X27102857Y-118750415D02*
X27102857Y-118464700D01*
X27102857Y-118464700D02*
X27171429Y-118083748D01*
X27171429Y-118083748D02*
X27240000Y-117893272D01*
X27240000Y-117893272D02*
X27377143Y-117702796D01*
X27377143Y-117702796D02*
X27582857Y-117607558D01*
X27582857Y-117607558D02*
X27720000Y-117607558D01*
X27720000Y-117607558D02*
X27925714Y-117702796D01*
X27925714Y-117702796D02*
X27994286Y-117798034D01*
D14*
X23568000Y-121235290D02*
X23568000Y-120501957D01*
X23568000Y-120501957D02*
X23520000Y-120368624D01*
X23520000Y-120368624D02*
X23424000Y-120301957D01*
X23424000Y-120301957D02*
X23232000Y-120301957D01*
X23232000Y-120301957D02*
X23136000Y-120368624D01*
X23568000Y-121168624D02*
X23472000Y-121235290D01*
X23472000Y-121235290D02*
X23232000Y-121235290D01*
X23232000Y-121235290D02*
X23136000Y-121168624D01*
X23136000Y-121168624D02*
X23088000Y-121035290D01*
X23088000Y-121035290D02*
X23088000Y-120901957D01*
X23088000Y-120901957D02*
X23136000Y-120768624D01*
X23136000Y-120768624D02*
X23232000Y-120701957D01*
X23232000Y-120701957D02*
X23472000Y-120701957D01*
X23472000Y-120701957D02*
X23568000Y-120635290D01*
X24000000Y-121168624D02*
X24096000Y-121235290D01*
X24096000Y-121235290D02*
X24288000Y-121235290D01*
X24288000Y-121235290D02*
X24384000Y-121168624D01*
X24384000Y-121168624D02*
X24432000Y-121035290D01*
X24432000Y-121035290D02*
X24432000Y-120968624D01*
X24432000Y-120968624D02*
X24384000Y-120835290D01*
X24384000Y-120835290D02*
X24288000Y-120768624D01*
X24288000Y-120768624D02*
X24144000Y-120768624D01*
X24144000Y-120768624D02*
X24048000Y-120701957D01*
X24048000Y-120701957D02*
X24000000Y-120568624D01*
X24000000Y-120568624D02*
X24000000Y-120501957D01*
X24000000Y-120501957D02*
X24048000Y-120368624D01*
X24048000Y-120368624D02*
X24144000Y-120301957D01*
X24144000Y-120301957D02*
X24288000Y-120301957D01*
X24288000Y-120301957D02*
X24384000Y-120368624D01*
X24816000Y-121168624D02*
X24912000Y-121235290D01*
X24912000Y-121235290D02*
X25104000Y-121235290D01*
X25104000Y-121235290D02*
X25200000Y-121168624D01*
X25200000Y-121168624D02*
X25248000Y-121035290D01*
X25248000Y-121035290D02*
X25248000Y-120968624D01*
X25248000Y-120968624D02*
X25200000Y-120835290D01*
X25200000Y-120835290D02*
X25104000Y-120768624D01*
X25104000Y-120768624D02*
X24960000Y-120768624D01*
X24960000Y-120768624D02*
X24864000Y-120701957D01*
X24864000Y-120701957D02*
X24816000Y-120568624D01*
X24816000Y-120568624D02*
X24816000Y-120501957D01*
X24816000Y-120501957D02*
X24864000Y-120368624D01*
X24864000Y-120368624D02*
X24960000Y-120301957D01*
X24960000Y-120301957D02*
X25104000Y-120301957D01*
X25104000Y-120301957D02*
X25200000Y-120368624D01*
X25680000Y-121235290D02*
X25680000Y-120301957D01*
X25680000Y-119835290D02*
X25632000Y-119901957D01*
X25632000Y-119901957D02*
X25680000Y-119968624D01*
X25680000Y-119968624D02*
X25728000Y-119901957D01*
X25728000Y-119901957D02*
X25680000Y-119835290D01*
X25680000Y-119835290D02*
X25680000Y-119968624D01*
X26592000Y-120301957D02*
X26592000Y-121435290D01*
X26592000Y-121435290D02*
X26544000Y-121568624D01*
X26544000Y-121568624D02*
X26496000Y-121635290D01*
X26496000Y-121635290D02*
X26400000Y-121701957D01*
X26400000Y-121701957D02*
X26256000Y-121701957D01*
X26256000Y-121701957D02*
X26160000Y-121635290D01*
X26592000Y-121168624D02*
X26496000Y-121235290D01*
X26496000Y-121235290D02*
X26304000Y-121235290D01*
X26304000Y-121235290D02*
X26208000Y-121168624D01*
X26208000Y-121168624D02*
X26160000Y-121101957D01*
X26160000Y-121101957D02*
X26112000Y-120968624D01*
X26112000Y-120968624D02*
X26112000Y-120568624D01*
X26112000Y-120568624D02*
X26160000Y-120435290D01*
X26160000Y-120435290D02*
X26208000Y-120368624D01*
X26208000Y-120368624D02*
X26304000Y-120301957D01*
X26304000Y-120301957D02*
X26496000Y-120301957D01*
X26496000Y-120301957D02*
X26592000Y-120368624D01*
X27072000Y-120301957D02*
X27072000Y-121235290D01*
X27072000Y-120435290D02*
X27120000Y-120368624D01*
X27120000Y-120368624D02*
X27216000Y-120301957D01*
X27216000Y-120301957D02*
X27360000Y-120301957D01*
X27360000Y-120301957D02*
X27456000Y-120368624D01*
X27456000Y-120368624D02*
X27504000Y-120501957D01*
X27504000Y-120501957D02*
X27504000Y-121235290D01*
D12*
X33697143Y-119417081D02*
X33628571Y-119512320D01*
X33628571Y-119512320D02*
X33422857Y-119607558D01*
X33422857Y-119607558D02*
X33285714Y-119607558D01*
X33285714Y-119607558D02*
X33080000Y-119512320D01*
X33080000Y-119512320D02*
X32942857Y-119321843D01*
X32942857Y-119321843D02*
X32874286Y-119131367D01*
X32874286Y-119131367D02*
X32805714Y-118750415D01*
X32805714Y-118750415D02*
X32805714Y-118464700D01*
X32805714Y-118464700D02*
X32874286Y-118083748D01*
X32874286Y-118083748D02*
X32942857Y-117893272D01*
X32942857Y-117893272D02*
X33080000Y-117702796D01*
X33080000Y-117702796D02*
X33285714Y-117607558D01*
X33285714Y-117607558D02*
X33422857Y-117607558D01*
X33422857Y-117607558D02*
X33628571Y-117702796D01*
X33628571Y-117702796D02*
X33697143Y-117798034D01*
X34108571Y-117607558D02*
X34588571Y-119607558D01*
X34588571Y-119607558D02*
X35068571Y-117607558D01*
X35548572Y-118845653D02*
X36645715Y-118845653D01*
X37331429Y-119607558D02*
X37331429Y-117607558D01*
X37331429Y-117607558D02*
X37674286Y-117607558D01*
X37674286Y-117607558D02*
X37880000Y-117702796D01*
X37880000Y-117702796D02*
X38017143Y-117893272D01*
X38017143Y-117893272D02*
X38085714Y-118083748D01*
X38085714Y-118083748D02*
X38154286Y-118464700D01*
X38154286Y-118464700D02*
X38154286Y-118750415D01*
X38154286Y-118750415D02*
X38085714Y-119131367D01*
X38085714Y-119131367D02*
X38017143Y-119321843D01*
X38017143Y-119321843D02*
X37880000Y-119512320D01*
X37880000Y-119512320D02*
X37674286Y-119607558D01*
X37674286Y-119607558D02*
X37331429Y-119607558D01*
D14*
X34472000Y-119901957D02*
X34376000Y-119835290D01*
X34376000Y-119835290D02*
X34232000Y-119835290D01*
X34232000Y-119835290D02*
X34088000Y-119901957D01*
X34088000Y-119901957D02*
X33992000Y-120035290D01*
X33992000Y-120035290D02*
X33944000Y-120168624D01*
X33944000Y-120168624D02*
X33896000Y-120435290D01*
X33896000Y-120435290D02*
X33896000Y-120635290D01*
X33896000Y-120635290D02*
X33944000Y-120901957D01*
X33944000Y-120901957D02*
X33992000Y-121035290D01*
X33992000Y-121035290D02*
X34088000Y-121168624D01*
X34088000Y-121168624D02*
X34232000Y-121235290D01*
X34232000Y-121235290D02*
X34328000Y-121235290D01*
X34328000Y-121235290D02*
X34472000Y-121168624D01*
X34472000Y-121168624D02*
X34520000Y-121101957D01*
X34520000Y-121101957D02*
X34520000Y-120635290D01*
X34520000Y-120635290D02*
X34328000Y-120635290D01*
X34904000Y-120835290D02*
X35384000Y-120835290D01*
X34808000Y-121235290D02*
X35144000Y-119835290D01*
X35144000Y-119835290D02*
X35480000Y-121235290D01*
X35672000Y-119835290D02*
X36248000Y-119835290D01*
X35960000Y-121235290D02*
X35960000Y-119835290D01*
X36584000Y-120501957D02*
X36920000Y-120501957D01*
X37064000Y-121235290D02*
X36584000Y-121235290D01*
X36584000Y-121235290D02*
X36584000Y-119835290D01*
X36584000Y-119835290D02*
X37064000Y-119835290D01*
D12*
X46500000Y-119417081D02*
X46431428Y-119512320D01*
X46431428Y-119512320D02*
X46225714Y-119607558D01*
X46225714Y-119607558D02*
X46088571Y-119607558D01*
X46088571Y-119607558D02*
X45882857Y-119512320D01*
X45882857Y-119512320D02*
X45745714Y-119321843D01*
X45745714Y-119321843D02*
X45677143Y-119131367D01*
X45677143Y-119131367D02*
X45608571Y-118750415D01*
X45608571Y-118750415D02*
X45608571Y-118464700D01*
X45608571Y-118464700D02*
X45677143Y-118083748D01*
X45677143Y-118083748D02*
X45745714Y-117893272D01*
X45745714Y-117893272D02*
X45882857Y-117702796D01*
X45882857Y-117702796D02*
X46088571Y-117607558D01*
X46088571Y-117607558D02*
X46225714Y-117607558D01*
X46225714Y-117607558D02*
X46431428Y-117702796D01*
X46431428Y-117702796D02*
X46500000Y-117798034D01*
X46911428Y-117607558D02*
X47391428Y-119607558D01*
X47391428Y-119607558D02*
X47871428Y-117607558D01*
X48351429Y-118845653D02*
X49448572Y-118845653D01*
X50408571Y-118655177D02*
X50408571Y-119607558D01*
X49928571Y-117607558D02*
X50408571Y-118655177D01*
X50408571Y-118655177D02*
X50888571Y-117607558D01*
D14*
X47748000Y-120501957D02*
X47412000Y-120501957D01*
X47412000Y-121235290D02*
X47412000Y-119835290D01*
X47412000Y-119835290D02*
X47892000Y-119835290D01*
X48276000Y-121235290D02*
X48276000Y-119835290D01*
X48276000Y-119835290D02*
X48612000Y-120835290D01*
X48612000Y-120835290D02*
X48948000Y-119835290D01*
X48948000Y-119835290D02*
X48948000Y-121235290D01*
D12*
X58479999Y-117702796D02*
X58342857Y-117607558D01*
X58342857Y-117607558D02*
X58137142Y-117607558D01*
X58137142Y-117607558D02*
X57931428Y-117702796D01*
X57931428Y-117702796D02*
X57794285Y-117893272D01*
X57794285Y-117893272D02*
X57725714Y-118083748D01*
X57725714Y-118083748D02*
X57657142Y-118464700D01*
X57657142Y-118464700D02*
X57657142Y-118750415D01*
X57657142Y-118750415D02*
X57725714Y-119131367D01*
X57725714Y-119131367D02*
X57794285Y-119321843D01*
X57794285Y-119321843D02*
X57931428Y-119512320D01*
X57931428Y-119512320D02*
X58137142Y-119607558D01*
X58137142Y-119607558D02*
X58274285Y-119607558D01*
X58274285Y-119607558D02*
X58479999Y-119512320D01*
X58479999Y-119512320D02*
X58548571Y-119417081D01*
X58548571Y-119417081D02*
X58548571Y-118750415D01*
X58548571Y-118750415D02*
X58274285Y-118750415D01*
X58959999Y-117607558D02*
X59782857Y-117607558D01*
X59371428Y-119607558D02*
X59371428Y-117607558D01*
X60262857Y-118559939D02*
X60742857Y-118559939D01*
X60948571Y-119607558D02*
X60262857Y-119607558D01*
X60262857Y-119607558D02*
X60262857Y-117607558D01*
X60262857Y-117607558D02*
X60948571Y-117607558D01*
X61565714Y-118845653D02*
X62662857Y-118845653D01*
X63279999Y-117798034D02*
X63348571Y-117702796D01*
X63348571Y-117702796D02*
X63485714Y-117607558D01*
X63485714Y-117607558D02*
X63828571Y-117607558D01*
X63828571Y-117607558D02*
X63965714Y-117702796D01*
X63965714Y-117702796D02*
X64034285Y-117798034D01*
X64034285Y-117798034D02*
X64102856Y-117988510D01*
X64102856Y-117988510D02*
X64102856Y-118178986D01*
X64102856Y-118178986D02*
X64034285Y-118464700D01*
X64034285Y-118464700D02*
X63211428Y-119607558D01*
X63211428Y-119607558D02*
X64102856Y-119607558D01*
X69291428Y-119417081D02*
X69222856Y-119512320D01*
X69222856Y-119512320D02*
X69017142Y-119607558D01*
X69017142Y-119607558D02*
X68879999Y-119607558D01*
X68879999Y-119607558D02*
X68674285Y-119512320D01*
X68674285Y-119512320D02*
X68537142Y-119321843D01*
X68537142Y-119321843D02*
X68468571Y-119131367D01*
X68468571Y-119131367D02*
X68399999Y-118750415D01*
X68399999Y-118750415D02*
X68399999Y-118464700D01*
X68399999Y-118464700D02*
X68468571Y-118083748D01*
X68468571Y-118083748D02*
X68537142Y-117893272D01*
X68537142Y-117893272D02*
X68674285Y-117702796D01*
X68674285Y-117702796D02*
X68879999Y-117607558D01*
X68879999Y-117607558D02*
X69017142Y-117607558D01*
X69017142Y-117607558D02*
X69222856Y-117702796D01*
X69222856Y-117702796D02*
X69291428Y-117798034D01*
X69702856Y-117607558D02*
X70182856Y-119607558D01*
X70182856Y-119607558D02*
X70662856Y-117607558D01*
X71142857Y-118845653D02*
X72240000Y-118845653D01*
X72857142Y-117798034D02*
X72925714Y-117702796D01*
X72925714Y-117702796D02*
X73062857Y-117607558D01*
X73062857Y-117607558D02*
X73405714Y-117607558D01*
X73405714Y-117607558D02*
X73542857Y-117702796D01*
X73542857Y-117702796D02*
X73611428Y-117798034D01*
X73611428Y-117798034D02*
X73679999Y-117988510D01*
X73679999Y-117988510D02*
X73679999Y-118178986D01*
X73679999Y-118178986D02*
X73611428Y-118464700D01*
X73611428Y-118464700D02*
X72788571Y-119607558D01*
X72788571Y-119607558D02*
X73679999Y-119607558D01*
X81374286Y-119607558D02*
X81374286Y-117607558D01*
X82060000Y-119607558D02*
X82060000Y-117607558D01*
X82060000Y-117607558D02*
X82882857Y-119607558D01*
X82882857Y-119607558D02*
X82882857Y-117607558D01*
X83568571Y-118845653D02*
X84665714Y-118845653D01*
X86174285Y-119607558D02*
X85694285Y-118655177D01*
X85351428Y-119607558D02*
X85351428Y-117607558D01*
X85351428Y-117607558D02*
X85899999Y-117607558D01*
X85899999Y-117607558D02*
X86037142Y-117702796D01*
X86037142Y-117702796D02*
X86105713Y-117798034D01*
X86105713Y-117798034D02*
X86174285Y-117988510D01*
X86174285Y-117988510D02*
X86174285Y-118274224D01*
X86174285Y-118274224D02*
X86105713Y-118464700D01*
X86105713Y-118464700D02*
X86037142Y-118559939D01*
X86037142Y-118559939D02*
X85899999Y-118655177D01*
X85899999Y-118655177D02*
X85351428Y-118655177D01*
X93388571Y-117607558D02*
X93662857Y-117607558D01*
X93662857Y-117607558D02*
X93800000Y-117702796D01*
X93800000Y-117702796D02*
X93937143Y-117893272D01*
X93937143Y-117893272D02*
X94005714Y-118274224D01*
X94005714Y-118274224D02*
X94005714Y-118940891D01*
X94005714Y-118940891D02*
X93937143Y-119321843D01*
X93937143Y-119321843D02*
X93800000Y-119512320D01*
X93800000Y-119512320D02*
X93662857Y-119607558D01*
X93662857Y-119607558D02*
X93388571Y-119607558D01*
X93388571Y-119607558D02*
X93251429Y-119512320D01*
X93251429Y-119512320D02*
X93114286Y-119321843D01*
X93114286Y-119321843D02*
X93045714Y-118940891D01*
X93045714Y-118940891D02*
X93045714Y-118274224D01*
X93045714Y-118274224D02*
X93114286Y-117893272D01*
X93114286Y-117893272D02*
X93251429Y-117702796D01*
X93251429Y-117702796D02*
X93388571Y-117607558D01*
X94622857Y-117607558D02*
X94622857Y-119226605D01*
X94622857Y-119226605D02*
X94691428Y-119417081D01*
X94691428Y-119417081D02*
X94760000Y-119512320D01*
X94760000Y-119512320D02*
X94897142Y-119607558D01*
X94897142Y-119607558D02*
X95171428Y-119607558D01*
X95171428Y-119607558D02*
X95308571Y-119512320D01*
X95308571Y-119512320D02*
X95377142Y-119417081D01*
X95377142Y-119417081D02*
X95445714Y-119226605D01*
X95445714Y-119226605D02*
X95445714Y-117607558D01*
X95925713Y-117607558D02*
X96748571Y-117607558D01*
X96337142Y-119607558D02*
X96337142Y-117607558D01*
X97228571Y-118845653D02*
X98325714Y-118845653D01*
X99834285Y-119607558D02*
X99354285Y-118655177D01*
X99011428Y-119607558D02*
X99011428Y-117607558D01*
X99011428Y-117607558D02*
X99559999Y-117607558D01*
X99559999Y-117607558D02*
X99697142Y-117702796D01*
X99697142Y-117702796D02*
X99765713Y-117798034D01*
X99765713Y-117798034D02*
X99834285Y-117988510D01*
X99834285Y-117988510D02*
X99834285Y-118274224D01*
X99834285Y-118274224D02*
X99765713Y-118464700D01*
X99765713Y-118464700D02*
X99697142Y-118559939D01*
X99697142Y-118559939D02*
X99559999Y-118655177D01*
X99559999Y-118655177D02*
X99011428Y-118655177D01*
D15*
X49467143Y-2514194D02*
X49261429Y-2371337D01*
X49261429Y-2371337D02*
X48952857Y-2371337D01*
X48952857Y-2371337D02*
X48644286Y-2514194D01*
X48644286Y-2514194D02*
X48438571Y-2799908D01*
X48438571Y-2799908D02*
X48335714Y-3085622D01*
X48335714Y-3085622D02*
X48232857Y-3657051D01*
X48232857Y-3657051D02*
X48232857Y-4085622D01*
X48232857Y-4085622D02*
X48335714Y-4657051D01*
X48335714Y-4657051D02*
X48438571Y-4942765D01*
X48438571Y-4942765D02*
X48644286Y-5228480D01*
X48644286Y-5228480D02*
X48952857Y-5371337D01*
X48952857Y-5371337D02*
X49158571Y-5371337D01*
X49158571Y-5371337D02*
X49467143Y-5228480D01*
X49467143Y-5228480D02*
X49570000Y-5085622D01*
X49570000Y-5085622D02*
X49570000Y-4085622D01*
X49570000Y-4085622D02*
X49158571Y-4085622D01*
X50495714Y-5371337D02*
X50495714Y-3371337D01*
X50495714Y-2371337D02*
X50392857Y-2514194D01*
X50392857Y-2514194D02*
X50495714Y-2657051D01*
X50495714Y-2657051D02*
X50598571Y-2514194D01*
X50598571Y-2514194D02*
X50495714Y-2371337D01*
X50495714Y-2371337D02*
X50495714Y-2657051D01*
X51524285Y-5371337D02*
X51524285Y-3371337D01*
X51524285Y-3942765D02*
X51627142Y-3657051D01*
X51627142Y-3657051D02*
X51730000Y-3514194D01*
X51730000Y-3514194D02*
X51935714Y-3371337D01*
X51935714Y-3371337D02*
X52141428Y-3371337D01*
X53170000Y-5371337D02*
X52964285Y-5228480D01*
X52964285Y-5228480D02*
X52861428Y-4942765D01*
X52861428Y-4942765D02*
X52861428Y-2371337D01*
X41495714Y-124279908D02*
X42215714Y-124279908D01*
X42524286Y-125851337D02*
X41495714Y-125851337D01*
X41495714Y-125851337D02*
X41495714Y-122851337D01*
X41495714Y-122851337D02*
X42524286Y-122851337D01*
X43450000Y-125851337D02*
X43450000Y-123851337D01*
X43450000Y-122851337D02*
X43347143Y-122994194D01*
X43347143Y-122994194D02*
X43450000Y-123137051D01*
X43450000Y-123137051D02*
X43552857Y-122994194D01*
X43552857Y-122994194D02*
X43450000Y-122851337D01*
X43450000Y-122851337D02*
X43450000Y-123137051D01*
X45404286Y-123851337D02*
X45404286Y-126279908D01*
X45404286Y-126279908D02*
X45301428Y-126565622D01*
X45301428Y-126565622D02*
X45198571Y-126708480D01*
X45198571Y-126708480D02*
X44992857Y-126851337D01*
X44992857Y-126851337D02*
X44684286Y-126851337D01*
X44684286Y-126851337D02*
X44478571Y-126708480D01*
X45404286Y-125708480D02*
X45198571Y-125851337D01*
X45198571Y-125851337D02*
X44787143Y-125851337D01*
X44787143Y-125851337D02*
X44581428Y-125708480D01*
X44581428Y-125708480D02*
X44478571Y-125565622D01*
X44478571Y-125565622D02*
X44375714Y-125279908D01*
X44375714Y-125279908D02*
X44375714Y-124422765D01*
X44375714Y-124422765D02*
X44478571Y-124137051D01*
X44478571Y-124137051D02*
X44581428Y-123994194D01*
X44581428Y-123994194D02*
X44787143Y-123851337D01*
X44787143Y-123851337D02*
X45198571Y-123851337D01*
X45198571Y-123851337D02*
X45404286Y-123994194D01*
X46432857Y-125851337D02*
X46432857Y-122851337D01*
X47358572Y-125851337D02*
X47358572Y-124279908D01*
X47358572Y-124279908D02*
X47255714Y-123994194D01*
X47255714Y-123994194D02*
X47050000Y-123851337D01*
X47050000Y-123851337D02*
X46741429Y-123851337D01*
X46741429Y-123851337D02*
X46535714Y-123994194D01*
X46535714Y-123994194D02*
X46432857Y-124137051D01*
X48078572Y-123851337D02*
X48901429Y-123851337D01*
X48387143Y-122851337D02*
X48387143Y-125422765D01*
X48387143Y-125422765D02*
X48490000Y-125708480D01*
X48490000Y-125708480D02*
X48695715Y-125851337D01*
X48695715Y-125851337D02*
X48901429Y-125851337D01*
X50547144Y-123851337D02*
X50547144Y-125851337D01*
X50032858Y-122708480D02*
X49518572Y-124851337D01*
X49518572Y-124851337D02*
X50855715Y-124851337D01*
X52604287Y-125851337D02*
X52604287Y-124279908D01*
X52604287Y-124279908D02*
X52501429Y-123994194D01*
X52501429Y-123994194D02*
X52295715Y-123851337D01*
X52295715Y-123851337D02*
X51884287Y-123851337D01*
X51884287Y-123851337D02*
X51678572Y-123994194D01*
X52604287Y-125708480D02*
X52398572Y-125851337D01*
X52398572Y-125851337D02*
X51884287Y-125851337D01*
X51884287Y-125851337D02*
X51678572Y-125708480D01*
X51678572Y-125708480D02*
X51575715Y-125422765D01*
X51575715Y-125422765D02*
X51575715Y-125137051D01*
X51575715Y-125137051D02*
X51678572Y-124851337D01*
X51678572Y-124851337D02*
X51884287Y-124708480D01*
X51884287Y-124708480D02*
X52398572Y-124708480D01*
X52398572Y-124708480D02*
X52604287Y-124565622D01*
X53427144Y-122851337D02*
X53941430Y-125851337D01*
X53941430Y-125851337D02*
X54352858Y-123708480D01*
X54352858Y-123708480D02*
X54764287Y-125851337D01*
X54764287Y-125851337D02*
X55278573Y-122851337D01*
X56101429Y-125851337D02*
X56101429Y-123851337D01*
X56101429Y-122851337D02*
X55998572Y-122994194D01*
X55998572Y-122994194D02*
X56101429Y-123137051D01*
X56101429Y-123137051D02*
X56204286Y-122994194D01*
X56204286Y-122994194D02*
X56101429Y-122851337D01*
X56101429Y-122851337D02*
X56101429Y-123137051D01*
X57027143Y-125708480D02*
X57232857Y-125851337D01*
X57232857Y-125851337D02*
X57644286Y-125851337D01*
X57644286Y-125851337D02*
X57850000Y-125708480D01*
X57850000Y-125708480D02*
X57952857Y-125422765D01*
X57952857Y-125422765D02*
X57952857Y-125279908D01*
X57952857Y-125279908D02*
X57850000Y-124994194D01*
X57850000Y-124994194D02*
X57644286Y-124851337D01*
X57644286Y-124851337D02*
X57335715Y-124851337D01*
X57335715Y-124851337D02*
X57130000Y-124708480D01*
X57130000Y-124708480D02*
X57027143Y-124422765D01*
X57027143Y-124422765D02*
X57027143Y-124279908D01*
X57027143Y-124279908D02*
X57130000Y-123994194D01*
X57130000Y-123994194D02*
X57335715Y-123851337D01*
X57335715Y-123851337D02*
X57644286Y-123851337D01*
X57644286Y-123851337D02*
X57850000Y-123994194D01*
X58878571Y-125851337D02*
X58878571Y-122851337D01*
X59804286Y-125851337D02*
X59804286Y-124279908D01*
X59804286Y-124279908D02*
X59701428Y-123994194D01*
X59701428Y-123994194D02*
X59495714Y-123851337D01*
X59495714Y-123851337D02*
X59187143Y-123851337D01*
X59187143Y-123851337D02*
X58981428Y-123994194D01*
X58981428Y-123994194D02*
X58878571Y-124137051D01*
D16*
X20490000Y-10471797D02*
X20490000Y-10471797D01*
X23418203Y-13400000D02*
X23418203Y-13400000D01*
X24490000Y-17400000D02*
X24490000Y-17400000D01*
X23418203Y-21400000D02*
X23418203Y-21400000D01*
X20490000Y-24328203D02*
X20490000Y-24328203D01*
X16490000Y-25400000D02*
X16490000Y-25400000D01*
X12490000Y-24328203D02*
X12490000Y-24328203D01*
X9561797Y-21400000D02*
X9561797Y-21400000D01*
X8490000Y-17400000D02*
X8490000Y-17400000D01*
X9561797Y-13400000D02*
X9561797Y-13400000D01*
X12490000Y-10471797D02*
X12490000Y-10471797D01*
X43350000Y-10471797D02*
X43350000Y-10471797D01*
X46278203Y-13400000D02*
X46278203Y-13400000D01*
X47350000Y-17400000D02*
X47350000Y-17400000D01*
X46278203Y-21400000D02*
X46278203Y-21400000D01*
X43350000Y-24328203D02*
X43350000Y-24328203D01*
X39350000Y-25400000D02*
X39350000Y-25400000D01*
X35350000Y-24328203D02*
X35350000Y-24328203D01*
X32421797Y-21400000D02*
X32421797Y-21400000D01*
X31350000Y-17400000D02*
X31350000Y-17400000D01*
X32421797Y-13400000D02*
X32421797Y-13400000D01*
X35350000Y-10471797D02*
X35350000Y-10471797D01*
X66210000Y-10471797D02*
X66210000Y-10471797D01*
X69138203Y-13400000D02*
X69138203Y-13400000D01*
X70210000Y-17400000D02*
X70210000Y-17400000D01*
X69138203Y-21400000D02*
X69138203Y-21400000D01*
X66210000Y-24328203D02*
X66210000Y-24328203D01*
X62210000Y-25400000D02*
X62210000Y-25400000D01*
X58210000Y-24328203D02*
X58210000Y-24328203D01*
X55281797Y-21400000D02*
X55281797Y-21400000D01*
X54210000Y-17400000D02*
X54210000Y-17400000D01*
X55281797Y-13400000D02*
X55281797Y-13400000D01*
X58210000Y-10471797D02*
X58210000Y-10471797D01*
X89070000Y-10471797D02*
X89070000Y-10471797D01*
X91998203Y-13400000D02*
X91998203Y-13400000D01*
X93070000Y-17400000D02*
X93070000Y-17400000D01*
X91998203Y-21400000D02*
X91998203Y-21400000D01*
X89070000Y-24328203D02*
X89070000Y-24328203D01*
X85070000Y-25400000D02*
X85070000Y-25400000D01*
X81070000Y-24328203D02*
X81070000Y-24328203D01*
X78141797Y-21400000D02*
X78141797Y-21400000D01*
X77070000Y-17400000D02*
X77070000Y-17400000D01*
X78141797Y-13400000D02*
X78141797Y-13400000D01*
X81070000Y-10471797D02*
X81070000Y-10471797D01*
X20490000Y-33371797D02*
X20490000Y-33371797D01*
X23418203Y-36300000D02*
X23418203Y-36300000D01*
X24490000Y-40300000D02*
X24490000Y-40300000D01*
X23418203Y-44300000D02*
X23418203Y-44300000D01*
X20490000Y-47228203D02*
X20490000Y-47228203D01*
X16490000Y-48300000D02*
X16490000Y-48300000D01*
X12490000Y-47228203D02*
X12490000Y-47228203D01*
X9561797Y-44300000D02*
X9561797Y-44300000D01*
X8490000Y-40300000D02*
X8490000Y-40300000D01*
X9561797Y-36300000D02*
X9561797Y-36300000D01*
X12490000Y-33371797D02*
X12490000Y-33371797D01*
X43350000Y-33371797D02*
X43350000Y-33371797D01*
X46278203Y-36300000D02*
X46278203Y-36300000D01*
X47350000Y-40300000D02*
X47350000Y-40300000D01*
X46278203Y-44300000D02*
X46278203Y-44300000D01*
X43350000Y-47228203D02*
X43350000Y-47228203D01*
X39350000Y-48300000D02*
X39350000Y-48300000D01*
X35350000Y-47228203D02*
X35350000Y-47228203D01*
X32421797Y-44300000D02*
X32421797Y-44300000D01*
X31350000Y-40300000D02*
X31350000Y-40300000D01*
X32421797Y-36300000D02*
X32421797Y-36300000D01*
X35350000Y-33371797D02*
X35350000Y-33371797D01*
X66210000Y-33371797D02*
X66210000Y-33371797D01*
X69138203Y-36300000D02*
X69138203Y-36300000D01*
X70210000Y-40300000D02*
X70210000Y-40300000D01*
X69138203Y-44300000D02*
X69138203Y-44300000D01*
X66210000Y-47228203D02*
X66210000Y-47228203D01*
X62210000Y-48300000D02*
X62210000Y-48300000D01*
X58210000Y-47228203D02*
X58210000Y-47228203D01*
X55281797Y-44300000D02*
X55281797Y-44300000D01*
X54210000Y-40300000D02*
X54210000Y-40300000D01*
X55281797Y-36300000D02*
X55281797Y-36300000D01*
X58210000Y-33371797D02*
X58210000Y-33371797D01*
X89070000Y-33371797D02*
X89070000Y-33371797D01*
X91998203Y-36300000D02*
X91998203Y-36300000D01*
X93070000Y-40300000D02*
X93070000Y-40300000D01*
X91998203Y-44300000D02*
X91998203Y-44300000D01*
X89070000Y-47228203D02*
X89070000Y-47228203D01*
X85070000Y-48300000D02*
X85070000Y-48300000D01*
X81070000Y-47228203D02*
X81070000Y-47228203D01*
X78141797Y-44300000D02*
X78141797Y-44300000D01*
X77070000Y-40300000D02*
X77070000Y-40300000D01*
X78141797Y-36300000D02*
X78141797Y-36300000D01*
X81070000Y-33371797D02*
X81070000Y-33371797D01*
M02*
