%TF.GenerationSoftware,KiCad,Pcbnew,9.0.7*%
%TF.CreationDate,2026-08-04T19:25:08+01:00*%
%TF.ProjectId,joy_10hp,6a6f795f-3130-4687-902e-6b696361645f,rev?*%
%TF.SameCoordinates,Original*%
%TF.FileFunction,Legend,Top*%
%TF.FilePolarity,Positive*%
%FSLAX46Y46*%
G04 Gerber Fmt 4.6, Leading zero omitted, Abs format (unit mm)*
G04 Created by KiCad (PCBNEW 9.0.7) date 2026-08-04 19:25:08*
%MOMM*%
%LPD*%
G01*
G04 APERTURE LIST*
%ADD10C,0.442000*%
%ADD11C,0.510000*%
G04 APERTURE END LIST*
D10*
X39683142Y-117479826D02*
X40039714Y-117479826D01*
X40039714Y-117479826D02*
X40217999Y-117603636D01*
X40217999Y-117603636D02*
X40396285Y-117851255D01*
X40396285Y-117851255D02*
X40485428Y-118346493D01*
X40485428Y-118346493D02*
X40485428Y-119213159D01*
X40485428Y-119213159D02*
X40396285Y-119708397D01*
X40396285Y-119708397D02*
X40217999Y-119956017D01*
X40217999Y-119956017D02*
X40039714Y-120079826D01*
X40039714Y-120079826D02*
X39683142Y-120079826D01*
X39683142Y-120079826D02*
X39504857Y-119956017D01*
X39504857Y-119956017D02*
X39326571Y-119708397D01*
X39326571Y-119708397D02*
X39237428Y-119213159D01*
X39237428Y-119213159D02*
X39237428Y-118346493D01*
X39237428Y-118346493D02*
X39326571Y-117851255D01*
X39326571Y-117851255D02*
X39504857Y-117603636D01*
X39504857Y-117603636D02*
X39683142Y-117479826D01*
X41287714Y-117479826D02*
X41287714Y-119584588D01*
X41287714Y-119584588D02*
X41376857Y-119832207D01*
X41376857Y-119832207D02*
X41466000Y-119956017D01*
X41466000Y-119956017D02*
X41644285Y-120079826D01*
X41644285Y-120079826D02*
X42000857Y-120079826D01*
X42000857Y-120079826D02*
X42179142Y-119956017D01*
X42179142Y-119956017D02*
X42268285Y-119832207D01*
X42268285Y-119832207D02*
X42357428Y-119584588D01*
X42357428Y-119584588D02*
X42357428Y-117479826D01*
X42981428Y-117479826D02*
X44051143Y-117479826D01*
X43516285Y-120079826D02*
X43516285Y-117479826D01*
X44675143Y-119089350D02*
X46101429Y-119089350D01*
X48062571Y-120079826D02*
X47438571Y-118841731D01*
X46992857Y-120079826D02*
X46992857Y-117479826D01*
X46992857Y-117479826D02*
X47706000Y-117479826D01*
X47706000Y-117479826D02*
X47884285Y-117603636D01*
X47884285Y-117603636D02*
X47973428Y-117727445D01*
X47973428Y-117727445D02*
X48062571Y-117975064D01*
X48062571Y-117975064D02*
X48062571Y-118346493D01*
X48062571Y-118346493D02*
X47973428Y-118594112D01*
X47973428Y-118594112D02*
X47884285Y-118717921D01*
X47884285Y-118717921D02*
X47706000Y-118841731D01*
X47706000Y-118841731D02*
X46992857Y-118841731D01*
X27694725Y-117479826D02*
X28051297Y-117479826D01*
X28051297Y-117479826D02*
X28229582Y-117603636D01*
X28229582Y-117603636D02*
X28407868Y-117851255D01*
X28407868Y-117851255D02*
X28497011Y-118346493D01*
X28497011Y-118346493D02*
X28497011Y-119213159D01*
X28497011Y-119213159D02*
X28407868Y-119708397D01*
X28407868Y-119708397D02*
X28229582Y-119956017D01*
X28229582Y-119956017D02*
X28051297Y-120079826D01*
X28051297Y-120079826D02*
X27694725Y-120079826D01*
X27694725Y-120079826D02*
X27516440Y-119956017D01*
X27516440Y-119956017D02*
X27338154Y-119708397D01*
X27338154Y-119708397D02*
X27249011Y-119213159D01*
X27249011Y-119213159D02*
X27249011Y-118346493D01*
X27249011Y-118346493D02*
X27338154Y-117851255D01*
X27338154Y-117851255D02*
X27516440Y-117603636D01*
X27516440Y-117603636D02*
X27694725Y-117479826D01*
X29299297Y-117479826D02*
X29299297Y-119584588D01*
X29299297Y-119584588D02*
X29388440Y-119832207D01*
X29388440Y-119832207D02*
X29477583Y-119956017D01*
X29477583Y-119956017D02*
X29655868Y-120079826D01*
X29655868Y-120079826D02*
X30012440Y-120079826D01*
X30012440Y-120079826D02*
X30190725Y-119956017D01*
X30190725Y-119956017D02*
X30279868Y-119832207D01*
X30279868Y-119832207D02*
X30369011Y-119584588D01*
X30369011Y-119584588D02*
X30369011Y-117479826D01*
X30993011Y-117479826D02*
X32062726Y-117479826D01*
X31527868Y-120079826D02*
X31527868Y-117479826D01*
X32686726Y-119089350D02*
X34113012Y-119089350D01*
X35895868Y-120079826D02*
X35004440Y-120079826D01*
X35004440Y-120079826D02*
X35004440Y-117479826D01*
X42847714Y-105129824D02*
X42223714Y-105129824D01*
X42223714Y-106491729D02*
X42223714Y-103891729D01*
X42223714Y-103891729D02*
X43115142Y-103891729D01*
X43828285Y-106491729D02*
X43828285Y-103891729D01*
X43828285Y-103891729D02*
X44452285Y-105748872D01*
X44452285Y-105748872D02*
X45076285Y-103891729D01*
X45076285Y-103891729D02*
X45076285Y-106491729D01*
X28407868Y-106244110D02*
X28318725Y-106367920D01*
X28318725Y-106367920D02*
X28051297Y-106491729D01*
X28051297Y-106491729D02*
X27873011Y-106491729D01*
X27873011Y-106491729D02*
X27605582Y-106367920D01*
X27605582Y-106367920D02*
X27427297Y-106120300D01*
X27427297Y-106120300D02*
X27338154Y-105872681D01*
X27338154Y-105872681D02*
X27249011Y-105377443D01*
X27249011Y-105377443D02*
X27249011Y-105006015D01*
X27249011Y-105006015D02*
X27338154Y-104510777D01*
X27338154Y-104510777D02*
X27427297Y-104263158D01*
X27427297Y-104263158D02*
X27605582Y-104015539D01*
X27605582Y-104015539D02*
X27873011Y-103891729D01*
X27873011Y-103891729D02*
X28051297Y-103891729D01*
X28051297Y-103891729D02*
X28318725Y-104015539D01*
X28318725Y-104015539D02*
X28407868Y-104139348D01*
X29566725Y-103891729D02*
X29923297Y-103891729D01*
X29923297Y-103891729D02*
X30101582Y-104015539D01*
X30101582Y-104015539D02*
X30279868Y-104263158D01*
X30279868Y-104263158D02*
X30369011Y-104758396D01*
X30369011Y-104758396D02*
X30369011Y-105625062D01*
X30369011Y-105625062D02*
X30279868Y-106120300D01*
X30279868Y-106120300D02*
X30101582Y-106367920D01*
X30101582Y-106367920D02*
X29923297Y-106491729D01*
X29923297Y-106491729D02*
X29566725Y-106491729D01*
X29566725Y-106491729D02*
X29388440Y-106367920D01*
X29388440Y-106367920D02*
X29210154Y-106120300D01*
X29210154Y-106120300D02*
X29121011Y-105625062D01*
X29121011Y-105625062D02*
X29121011Y-104758396D01*
X29121011Y-104758396D02*
X29210154Y-104263158D01*
X29210154Y-104263158D02*
X29388440Y-104015539D01*
X29388440Y-104015539D02*
X29566725Y-103891729D01*
X32062725Y-106491729D02*
X31171297Y-106491729D01*
X31171297Y-106491729D02*
X31171297Y-103891729D01*
X33043297Y-103891729D02*
X33399869Y-103891729D01*
X33399869Y-103891729D02*
X33578154Y-104015539D01*
X33578154Y-104015539D02*
X33756440Y-104263158D01*
X33756440Y-104263158D02*
X33845583Y-104758396D01*
X33845583Y-104758396D02*
X33845583Y-105625062D01*
X33845583Y-105625062D02*
X33756440Y-106120300D01*
X33756440Y-106120300D02*
X33578154Y-106367920D01*
X33578154Y-106367920D02*
X33399869Y-106491729D01*
X33399869Y-106491729D02*
X33043297Y-106491729D01*
X33043297Y-106491729D02*
X32865012Y-106367920D01*
X32865012Y-106367920D02*
X32686726Y-106120300D01*
X32686726Y-106120300D02*
X32597583Y-105625062D01*
X32597583Y-105625062D02*
X32597583Y-104758396D01*
X32597583Y-104758396D02*
X32686726Y-104263158D01*
X32686726Y-104263158D02*
X32865012Y-104015539D01*
X32865012Y-104015539D02*
X33043297Y-103891729D01*
X35717583Y-106491729D02*
X35093583Y-105253634D01*
X34647869Y-106491729D02*
X34647869Y-103891729D01*
X34647869Y-103891729D02*
X35361012Y-103891729D01*
X35361012Y-103891729D02*
X35539297Y-104015539D01*
X35539297Y-104015539D02*
X35628440Y-104139348D01*
X35628440Y-104139348D02*
X35717583Y-104386967D01*
X35717583Y-104386967D02*
X35717583Y-104758396D01*
X35717583Y-104758396D02*
X35628440Y-105006015D01*
X35628440Y-105006015D02*
X35539297Y-105129824D01*
X35539297Y-105129824D02*
X35361012Y-105253634D01*
X35361012Y-105253634D02*
X34647869Y-105253634D01*
X15840122Y-103891729D02*
X16909837Y-103891729D01*
X16374979Y-106491729D02*
X16374979Y-103891729D01*
X17533837Y-106491729D02*
X17533837Y-103891729D01*
X17533837Y-103891729D02*
X18157837Y-105748872D01*
X18157837Y-105748872D02*
X18781837Y-103891729D01*
X18781837Y-103891729D02*
X18781837Y-106491729D01*
X20297266Y-105129824D02*
X20564694Y-105253634D01*
X20564694Y-105253634D02*
X20653837Y-105377443D01*
X20653837Y-105377443D02*
X20742980Y-105625062D01*
X20742980Y-105625062D02*
X20742980Y-105996491D01*
X20742980Y-105996491D02*
X20653837Y-106244110D01*
X20653837Y-106244110D02*
X20564694Y-106367920D01*
X20564694Y-106367920D02*
X20386409Y-106491729D01*
X20386409Y-106491729D02*
X19673266Y-106491729D01*
X19673266Y-106491729D02*
X19673266Y-103891729D01*
X19673266Y-103891729D02*
X20297266Y-103891729D01*
X20297266Y-103891729D02*
X20475552Y-104015539D01*
X20475552Y-104015539D02*
X20564694Y-104139348D01*
X20564694Y-104139348D02*
X20653837Y-104386967D01*
X20653837Y-104386967D02*
X20653837Y-104634586D01*
X20653837Y-104634586D02*
X20564694Y-104882205D01*
X20564694Y-104882205D02*
X20475552Y-105006015D01*
X20475552Y-105006015D02*
X20297266Y-105129824D01*
X20297266Y-105129824D02*
X19673266Y-105129824D01*
X22614980Y-106491729D02*
X21990980Y-105253634D01*
X21545266Y-106491729D02*
X21545266Y-103891729D01*
X21545266Y-103891729D02*
X22258409Y-103891729D01*
X22258409Y-103891729D02*
X22436694Y-104015539D01*
X22436694Y-104015539D02*
X22525837Y-104139348D01*
X22525837Y-104139348D02*
X22614980Y-104386967D01*
X22614980Y-104386967D02*
X22614980Y-104758396D01*
X22614980Y-104758396D02*
X22525837Y-105006015D01*
X22525837Y-105006015D02*
X22436694Y-105129824D01*
X22436694Y-105129824D02*
X22258409Y-105253634D01*
X22258409Y-105253634D02*
X21545266Y-105253634D01*
X2915713Y-103891729D02*
X3539713Y-106491729D01*
X3539713Y-106491729D02*
X4163713Y-103891729D01*
X6124856Y-103767920D02*
X4520284Y-107110777D01*
X7105427Y-103891729D02*
X7461999Y-103891729D01*
X7461999Y-103891729D02*
X7640284Y-104015539D01*
X7640284Y-104015539D02*
X7818570Y-104263158D01*
X7818570Y-104263158D02*
X7907713Y-104758396D01*
X7907713Y-104758396D02*
X7907713Y-105625062D01*
X7907713Y-105625062D02*
X7818570Y-106120300D01*
X7818570Y-106120300D02*
X7640284Y-106367920D01*
X7640284Y-106367920D02*
X7461999Y-106491729D01*
X7461999Y-106491729D02*
X7105427Y-106491729D01*
X7105427Y-106491729D02*
X6927142Y-106367920D01*
X6927142Y-106367920D02*
X6748856Y-106120300D01*
X6748856Y-106120300D02*
X6659713Y-105625062D01*
X6659713Y-105625062D02*
X6659713Y-104758396D01*
X6659713Y-104758396D02*
X6748856Y-104263158D01*
X6748856Y-104263158D02*
X6927142Y-104015539D01*
X6927142Y-104015539D02*
X7105427Y-103891729D01*
X9779713Y-106244110D02*
X9690570Y-106367920D01*
X9690570Y-106367920D02*
X9423142Y-106491729D01*
X9423142Y-106491729D02*
X9244856Y-106491729D01*
X9244856Y-106491729D02*
X8977427Y-106367920D01*
X8977427Y-106367920D02*
X8799142Y-106120300D01*
X8799142Y-106120300D02*
X8709999Y-105872681D01*
X8709999Y-105872681D02*
X8620856Y-105377443D01*
X8620856Y-105377443D02*
X8620856Y-105006015D01*
X8620856Y-105006015D02*
X8709999Y-104510777D01*
X8709999Y-104510777D02*
X8799142Y-104263158D01*
X8799142Y-104263158D02*
X8977427Y-104015539D01*
X8977427Y-104015539D02*
X9244856Y-103891729D01*
X9244856Y-103891729D02*
X9423142Y-103891729D01*
X9423142Y-103891729D02*
X9690570Y-104015539D01*
X9690570Y-104015539D02*
X9779713Y-104139348D01*
X10314570Y-103891729D02*
X11384285Y-103891729D01*
X10849427Y-106491729D02*
X10849427Y-103891729D01*
X16062980Y-92617919D02*
X16330409Y-92741728D01*
X16330409Y-92741728D02*
X16776123Y-92741728D01*
X16776123Y-92741728D02*
X16954409Y-92617919D01*
X16954409Y-92617919D02*
X17043551Y-92494109D01*
X17043551Y-92494109D02*
X17132694Y-92246490D01*
X17132694Y-92246490D02*
X17132694Y-91998871D01*
X17132694Y-91998871D02*
X17043551Y-91751252D01*
X17043551Y-91751252D02*
X16954409Y-91627442D01*
X16954409Y-91627442D02*
X16776123Y-91503633D01*
X16776123Y-91503633D02*
X16419551Y-91379823D01*
X16419551Y-91379823D02*
X16241266Y-91256014D01*
X16241266Y-91256014D02*
X16152123Y-91132204D01*
X16152123Y-91132204D02*
X16062980Y-90884585D01*
X16062980Y-90884585D02*
X16062980Y-90636966D01*
X16062980Y-90636966D02*
X16152123Y-90389347D01*
X16152123Y-90389347D02*
X16241266Y-90265538D01*
X16241266Y-90265538D02*
X16419551Y-90141728D01*
X16419551Y-90141728D02*
X16865266Y-90141728D01*
X16865266Y-90141728D02*
X17132694Y-90265538D01*
X18291551Y-91503633D02*
X18291551Y-92741728D01*
X17667551Y-90141728D02*
X18291551Y-91503633D01*
X18291551Y-91503633D02*
X18915551Y-90141728D01*
X19539551Y-92741728D02*
X19539551Y-90141728D01*
X19539551Y-90141728D02*
X20609265Y-92741728D01*
X20609265Y-92741728D02*
X20609265Y-90141728D01*
X22570408Y-92494109D02*
X22481265Y-92617919D01*
X22481265Y-92617919D02*
X22213837Y-92741728D01*
X22213837Y-92741728D02*
X22035551Y-92741728D01*
X22035551Y-92741728D02*
X21768122Y-92617919D01*
X21768122Y-92617919D02*
X21589837Y-92370299D01*
X21589837Y-92370299D02*
X21500694Y-92122680D01*
X21500694Y-92122680D02*
X21411551Y-91627442D01*
X21411551Y-91627442D02*
X21411551Y-91256014D01*
X21411551Y-91256014D02*
X21500694Y-90760776D01*
X21500694Y-90760776D02*
X21589837Y-90513157D01*
X21589837Y-90513157D02*
X21768122Y-90265538D01*
X21768122Y-90265538D02*
X22035551Y-90141728D01*
X22035551Y-90141728D02*
X22213837Y-90141728D01*
X22213837Y-90141728D02*
X22481265Y-90265538D01*
X22481265Y-90265538D02*
X22570408Y-90389347D01*
X5277999Y-90265587D02*
X5099714Y-90141777D01*
X5099714Y-90141777D02*
X4832285Y-90141777D01*
X4832285Y-90141777D02*
X4564856Y-90265587D01*
X4564856Y-90265587D02*
X4386571Y-90513206D01*
X4386571Y-90513206D02*
X4297428Y-90760825D01*
X4297428Y-90760825D02*
X4208285Y-91256063D01*
X4208285Y-91256063D02*
X4208285Y-91627491D01*
X4208285Y-91627491D02*
X4297428Y-92122729D01*
X4297428Y-92122729D02*
X4386571Y-92370348D01*
X4386571Y-92370348D02*
X4564856Y-92617968D01*
X4564856Y-92617968D02*
X4832285Y-92741777D01*
X4832285Y-92741777D02*
X5010571Y-92741777D01*
X5010571Y-92741777D02*
X5277999Y-92617968D01*
X5277999Y-92617968D02*
X5367142Y-92494158D01*
X5367142Y-92494158D02*
X5367142Y-91627491D01*
X5367142Y-91627491D02*
X5010571Y-91627491D01*
X6080285Y-91998920D02*
X6971714Y-91998920D01*
X5901999Y-92741777D02*
X6525999Y-90141777D01*
X6525999Y-90141777D02*
X7149999Y-92741777D01*
X7506570Y-90141777D02*
X8576285Y-90141777D01*
X8041427Y-92741777D02*
X8041427Y-90141777D01*
X9200285Y-91379872D02*
X9824285Y-91379872D01*
X10091713Y-92741777D02*
X9200285Y-92741777D01*
X9200285Y-92741777D02*
X9200285Y-90141777D01*
X9200285Y-90141777D02*
X10091713Y-90141777D01*
X5262566Y-67468050D02*
X5262566Y-64868050D01*
X5262566Y-64868050D02*
X5886566Y-66725193D01*
X5886566Y-66725193D02*
X6510566Y-64868050D01*
X6510566Y-64868050D02*
X6510566Y-67468050D01*
X7758566Y-64868050D02*
X8115138Y-64868050D01*
X8115138Y-64868050D02*
X8293423Y-64991860D01*
X8293423Y-64991860D02*
X8471709Y-65239479D01*
X8471709Y-65239479D02*
X8560852Y-65734717D01*
X8560852Y-65734717D02*
X8560852Y-66601383D01*
X8560852Y-66601383D02*
X8471709Y-67096621D01*
X8471709Y-67096621D02*
X8293423Y-67344241D01*
X8293423Y-67344241D02*
X8115138Y-67468050D01*
X8115138Y-67468050D02*
X7758566Y-67468050D01*
X7758566Y-67468050D02*
X7580281Y-67344241D01*
X7580281Y-67344241D02*
X7401995Y-67096621D01*
X7401995Y-67096621D02*
X7312852Y-66601383D01*
X7312852Y-66601383D02*
X7312852Y-65734717D01*
X7312852Y-65734717D02*
X7401995Y-65239479D01*
X7401995Y-65239479D02*
X7580281Y-64991860D01*
X7580281Y-64991860D02*
X7758566Y-64868050D01*
X9363138Y-67468050D02*
X9363138Y-64868050D01*
X9363138Y-64868050D02*
X9808852Y-64868050D01*
X9808852Y-64868050D02*
X10076281Y-64991860D01*
X10076281Y-64991860D02*
X10254566Y-65239479D01*
X10254566Y-65239479D02*
X10343709Y-65487098D01*
X10343709Y-65487098D02*
X10432852Y-65982336D01*
X10432852Y-65982336D02*
X10432852Y-66353764D01*
X10432852Y-66353764D02*
X10343709Y-66849002D01*
X10343709Y-66849002D02*
X10254566Y-67096621D01*
X10254566Y-67096621D02*
X10076281Y-67344241D01*
X10076281Y-67344241D02*
X9808852Y-67468050D01*
X9808852Y-67468050D02*
X9363138Y-67468050D01*
X11235138Y-66106145D02*
X11859138Y-66106145D01*
X12126566Y-67468050D02*
X11235138Y-67468050D01*
X11235138Y-67468050D02*
X11235138Y-64868050D01*
X11235138Y-64868050D02*
X12126566Y-64868050D01*
X35772282Y-50207136D02*
X35772282Y-47607136D01*
X35772282Y-47607136D02*
X36217996Y-47607136D01*
X36217996Y-47607136D02*
X36485425Y-47730946D01*
X36485425Y-47730946D02*
X36663710Y-47978565D01*
X36663710Y-47978565D02*
X36752853Y-48226184D01*
X36752853Y-48226184D02*
X36841996Y-48721422D01*
X36841996Y-48721422D02*
X36841996Y-49092850D01*
X36841996Y-49092850D02*
X36752853Y-49588088D01*
X36752853Y-49588088D02*
X36663710Y-49835707D01*
X36663710Y-49835707D02*
X36485425Y-50083327D01*
X36485425Y-50083327D02*
X36217996Y-50207136D01*
X36217996Y-50207136D02*
X35772282Y-50207136D01*
X37644282Y-48845231D02*
X38268282Y-48845231D01*
X38535710Y-50207136D02*
X37644282Y-50207136D01*
X37644282Y-50207136D02*
X37644282Y-47607136D01*
X37644282Y-47607136D02*
X38535710Y-47607136D01*
X40407710Y-49959517D02*
X40318567Y-50083327D01*
X40318567Y-50083327D02*
X40051139Y-50207136D01*
X40051139Y-50207136D02*
X39872853Y-50207136D01*
X39872853Y-50207136D02*
X39605424Y-50083327D01*
X39605424Y-50083327D02*
X39427139Y-49835707D01*
X39427139Y-49835707D02*
X39337996Y-49588088D01*
X39337996Y-49588088D02*
X39248853Y-49092850D01*
X39248853Y-49092850D02*
X39248853Y-48721422D01*
X39248853Y-48721422D02*
X39337996Y-48226184D01*
X39337996Y-48226184D02*
X39427139Y-47978565D01*
X39427139Y-47978565D02*
X39605424Y-47730946D01*
X39605424Y-47730946D02*
X39872853Y-47607136D01*
X39872853Y-47607136D02*
X40051139Y-47607136D01*
X40051139Y-47607136D02*
X40318567Y-47730946D01*
X40318567Y-47730946D02*
X40407710Y-47854755D01*
X41120853Y-49464279D02*
X42012282Y-49464279D01*
X40942567Y-50207136D02*
X41566567Y-47607136D01*
X41566567Y-47607136D02*
X42190567Y-50207136D01*
X43171138Y-48969041D02*
X43171138Y-50207136D01*
X42547138Y-47607136D02*
X43171138Y-48969041D01*
X43171138Y-48969041D02*
X43795138Y-47607136D01*
X6629214Y-49464279D02*
X7520643Y-49464279D01*
X6450928Y-50207136D02*
X7074928Y-47607136D01*
X7074928Y-47607136D02*
X7698928Y-50207136D01*
X8055499Y-47607136D02*
X9125214Y-47607136D01*
X8590356Y-50207136D02*
X8590356Y-47607136D01*
X9481785Y-47607136D02*
X10551500Y-47607136D01*
X10016642Y-50207136D02*
X10016642Y-47607136D01*
X11086357Y-49464279D02*
X11977786Y-49464279D01*
X10908071Y-50207136D02*
X11532071Y-47607136D01*
X11532071Y-47607136D02*
X12156071Y-50207136D01*
X13849785Y-49959517D02*
X13760642Y-50083327D01*
X13760642Y-50083327D02*
X13493214Y-50207136D01*
X13493214Y-50207136D02*
X13314928Y-50207136D01*
X13314928Y-50207136D02*
X13047499Y-50083327D01*
X13047499Y-50083327D02*
X12869214Y-49835707D01*
X12869214Y-49835707D02*
X12780071Y-49588088D01*
X12780071Y-49588088D02*
X12690928Y-49092850D01*
X12690928Y-49092850D02*
X12690928Y-48721422D01*
X12690928Y-48721422D02*
X12780071Y-48226184D01*
X12780071Y-48226184D02*
X12869214Y-47978565D01*
X12869214Y-47978565D02*
X13047499Y-47730946D01*
X13047499Y-47730946D02*
X13314928Y-47607136D01*
X13314928Y-47607136D02*
X13493214Y-47607136D01*
X13493214Y-47607136D02*
X13760642Y-47730946D01*
X13760642Y-47730946D02*
X13849785Y-47854755D01*
X14652071Y-50207136D02*
X14652071Y-47607136D01*
X15721785Y-50207136D02*
X14919499Y-48721422D01*
X15721785Y-47607136D02*
X14652071Y-49092850D01*
X36574567Y-30836495D02*
X36485424Y-30960305D01*
X36485424Y-30960305D02*
X36217996Y-31084114D01*
X36217996Y-31084114D02*
X36039710Y-31084114D01*
X36039710Y-31084114D02*
X35772281Y-30960305D01*
X35772281Y-30960305D02*
X35593996Y-30712685D01*
X35593996Y-30712685D02*
X35504853Y-30465066D01*
X35504853Y-30465066D02*
X35415710Y-29969828D01*
X35415710Y-29969828D02*
X35415710Y-29598400D01*
X35415710Y-29598400D02*
X35504853Y-29103162D01*
X35504853Y-29103162D02*
X35593996Y-28855543D01*
X35593996Y-28855543D02*
X35772281Y-28607924D01*
X35772281Y-28607924D02*
X36039710Y-28484114D01*
X36039710Y-28484114D02*
X36217996Y-28484114D01*
X36217996Y-28484114D02*
X36485424Y-28607924D01*
X36485424Y-28607924D02*
X36574567Y-28731733D01*
X37733424Y-28484114D02*
X38089996Y-28484114D01*
X38089996Y-28484114D02*
X38268281Y-28607924D01*
X38268281Y-28607924D02*
X38446567Y-28855543D01*
X38446567Y-28855543D02*
X38535710Y-29350781D01*
X38535710Y-29350781D02*
X38535710Y-30217447D01*
X38535710Y-30217447D02*
X38446567Y-30712685D01*
X38446567Y-30712685D02*
X38268281Y-30960305D01*
X38268281Y-30960305D02*
X38089996Y-31084114D01*
X38089996Y-31084114D02*
X37733424Y-31084114D01*
X37733424Y-31084114D02*
X37555139Y-30960305D01*
X37555139Y-30960305D02*
X37376853Y-30712685D01*
X37376853Y-30712685D02*
X37287710Y-30217447D01*
X37287710Y-30217447D02*
X37287710Y-29350781D01*
X37287710Y-29350781D02*
X37376853Y-28855543D01*
X37376853Y-28855543D02*
X37555139Y-28607924D01*
X37555139Y-28607924D02*
X37733424Y-28484114D01*
X40229424Y-31084114D02*
X39337996Y-31084114D01*
X39337996Y-31084114D02*
X39337996Y-28484114D01*
X41209996Y-28484114D02*
X41566568Y-28484114D01*
X41566568Y-28484114D02*
X41744853Y-28607924D01*
X41744853Y-28607924D02*
X41923139Y-28855543D01*
X41923139Y-28855543D02*
X42012282Y-29350781D01*
X42012282Y-29350781D02*
X42012282Y-30217447D01*
X42012282Y-30217447D02*
X41923139Y-30712685D01*
X41923139Y-30712685D02*
X41744853Y-30960305D01*
X41744853Y-30960305D02*
X41566568Y-31084114D01*
X41566568Y-31084114D02*
X41209996Y-31084114D01*
X41209996Y-31084114D02*
X41031711Y-30960305D01*
X41031711Y-30960305D02*
X40853425Y-30712685D01*
X40853425Y-30712685D02*
X40764282Y-30217447D01*
X40764282Y-30217447D02*
X40764282Y-29350781D01*
X40764282Y-29350781D02*
X40853425Y-28855543D01*
X40853425Y-28855543D02*
X41031711Y-28607924D01*
X41031711Y-28607924D02*
X41209996Y-28484114D01*
X43884282Y-31084114D02*
X43260282Y-29846019D01*
X42814568Y-31084114D02*
X42814568Y-28484114D01*
X42814568Y-28484114D02*
X43527711Y-28484114D01*
X43527711Y-28484114D02*
X43705996Y-28607924D01*
X43705996Y-28607924D02*
X43795139Y-28731733D01*
X43795139Y-28731733D02*
X43884282Y-28979352D01*
X43884282Y-28979352D02*
X43884282Y-29350781D01*
X43884282Y-29350781D02*
X43795139Y-29598400D01*
X43795139Y-29598400D02*
X43705996Y-29722209D01*
X43705996Y-29722209D02*
X43527711Y-29846019D01*
X43527711Y-29846019D02*
X42814568Y-29846019D01*
X6406356Y-28484114D02*
X7476071Y-28484114D01*
X6941213Y-31084114D02*
X6941213Y-28484114D01*
X8100071Y-31084114D02*
X8100071Y-28484114D01*
X8991500Y-31084114D02*
X8991500Y-28484114D01*
X8991500Y-28484114D02*
X9615500Y-30341257D01*
X9615500Y-30341257D02*
X10239500Y-28484114D01*
X10239500Y-28484114D02*
X10239500Y-31084114D01*
X11754929Y-29722209D02*
X12022357Y-29846019D01*
X12022357Y-29846019D02*
X12111500Y-29969828D01*
X12111500Y-29969828D02*
X12200643Y-30217447D01*
X12200643Y-30217447D02*
X12200643Y-30588876D01*
X12200643Y-30588876D02*
X12111500Y-30836495D01*
X12111500Y-30836495D02*
X12022357Y-30960305D01*
X12022357Y-30960305D02*
X11844072Y-31084114D01*
X11844072Y-31084114D02*
X11130929Y-31084114D01*
X11130929Y-31084114D02*
X11130929Y-28484114D01*
X11130929Y-28484114D02*
X11754929Y-28484114D01*
X11754929Y-28484114D02*
X11933215Y-28607924D01*
X11933215Y-28607924D02*
X12022357Y-28731733D01*
X12022357Y-28731733D02*
X12111500Y-28979352D01*
X12111500Y-28979352D02*
X12111500Y-29226971D01*
X12111500Y-29226971D02*
X12022357Y-29474590D01*
X12022357Y-29474590D02*
X11933215Y-29598400D01*
X11933215Y-29598400D02*
X11754929Y-29722209D01*
X11754929Y-29722209D02*
X11130929Y-29722209D01*
X14072643Y-31084114D02*
X13448643Y-29846019D01*
X13002929Y-31084114D02*
X13002929Y-28484114D01*
X13002929Y-28484114D02*
X13716072Y-28484114D01*
X13716072Y-28484114D02*
X13894357Y-28607924D01*
X13894357Y-28607924D02*
X13983500Y-28731733D01*
X13983500Y-28731733D02*
X14072643Y-28979352D01*
X14072643Y-28979352D02*
X14072643Y-29350781D01*
X14072643Y-29350781D02*
X13983500Y-29598400D01*
X13983500Y-29598400D02*
X13894357Y-29722209D01*
X13894357Y-29722209D02*
X13716072Y-29846019D01*
X13716072Y-29846019D02*
X13002929Y-29846019D01*
X14874929Y-29722209D02*
X15498929Y-29722209D01*
X15766357Y-31084114D02*
X14874929Y-31084114D01*
X14874929Y-31084114D02*
X14874929Y-28484114D01*
X14874929Y-28484114D02*
X15766357Y-28484114D01*
D11*
X23908571Y-2371337D02*
X23908571Y-4514194D01*
X23908571Y-4514194D02*
X23805714Y-4942765D01*
X23805714Y-4942765D02*
X23600000Y-5228480D01*
X23600000Y-5228480D02*
X23291428Y-5371337D01*
X23291428Y-5371337D02*
X23085714Y-5371337D01*
X25245714Y-5371337D02*
X25039999Y-5228480D01*
X25039999Y-5228480D02*
X24937142Y-5085622D01*
X24937142Y-5085622D02*
X24834285Y-4799908D01*
X24834285Y-4799908D02*
X24834285Y-3942765D01*
X24834285Y-3942765D02*
X24937142Y-3657051D01*
X24937142Y-3657051D02*
X25039999Y-3514194D01*
X25039999Y-3514194D02*
X25245714Y-3371337D01*
X25245714Y-3371337D02*
X25554285Y-3371337D01*
X25554285Y-3371337D02*
X25759999Y-3514194D01*
X25759999Y-3514194D02*
X25862857Y-3657051D01*
X25862857Y-3657051D02*
X25965714Y-3942765D01*
X25965714Y-3942765D02*
X25965714Y-4799908D01*
X25965714Y-4799908D02*
X25862857Y-5085622D01*
X25862857Y-5085622D02*
X25759999Y-5228480D01*
X25759999Y-5228480D02*
X25554285Y-5371337D01*
X25554285Y-5371337D02*
X25245714Y-5371337D01*
X26685714Y-3371337D02*
X27200000Y-5371337D01*
X27714285Y-3371337D02*
X27200000Y-5371337D01*
X27200000Y-5371337D02*
X26994285Y-6085622D01*
X26994285Y-6085622D02*
X26891428Y-6228480D01*
X26891428Y-6228480D02*
X26685714Y-6371337D01*
X16245714Y-124279908D02*
X16965714Y-124279908D01*
X17274286Y-125851337D02*
X16245714Y-125851337D01*
X16245714Y-125851337D02*
X16245714Y-122851337D01*
X16245714Y-122851337D02*
X17274286Y-122851337D01*
X18200000Y-125851337D02*
X18200000Y-123851337D01*
X18200000Y-122851337D02*
X18097143Y-122994194D01*
X18097143Y-122994194D02*
X18200000Y-123137051D01*
X18200000Y-123137051D02*
X18302857Y-122994194D01*
X18302857Y-122994194D02*
X18200000Y-122851337D01*
X18200000Y-122851337D02*
X18200000Y-123137051D01*
X20154286Y-123851337D02*
X20154286Y-126279908D01*
X20154286Y-126279908D02*
X20051428Y-126565622D01*
X20051428Y-126565622D02*
X19948571Y-126708480D01*
X19948571Y-126708480D02*
X19742857Y-126851337D01*
X19742857Y-126851337D02*
X19434286Y-126851337D01*
X19434286Y-126851337D02*
X19228571Y-126708480D01*
X20154286Y-125708480D02*
X19948571Y-125851337D01*
X19948571Y-125851337D02*
X19537143Y-125851337D01*
X19537143Y-125851337D02*
X19331428Y-125708480D01*
X19331428Y-125708480D02*
X19228571Y-125565622D01*
X19228571Y-125565622D02*
X19125714Y-125279908D01*
X19125714Y-125279908D02*
X19125714Y-124422765D01*
X19125714Y-124422765D02*
X19228571Y-124137051D01*
X19228571Y-124137051D02*
X19331428Y-123994194D01*
X19331428Y-123994194D02*
X19537143Y-123851337D01*
X19537143Y-123851337D02*
X19948571Y-123851337D01*
X19948571Y-123851337D02*
X20154286Y-123994194D01*
X21182857Y-125851337D02*
X21182857Y-122851337D01*
X22108572Y-125851337D02*
X22108572Y-124279908D01*
X22108572Y-124279908D02*
X22005714Y-123994194D01*
X22005714Y-123994194D02*
X21800000Y-123851337D01*
X21800000Y-123851337D02*
X21491429Y-123851337D01*
X21491429Y-123851337D02*
X21285714Y-123994194D01*
X21285714Y-123994194D02*
X21182857Y-124137051D01*
X22828572Y-123851337D02*
X23651429Y-123851337D01*
X23137143Y-122851337D02*
X23137143Y-125422765D01*
X23137143Y-125422765D02*
X23240000Y-125708480D01*
X23240000Y-125708480D02*
X23445715Y-125851337D01*
X23445715Y-125851337D02*
X23651429Y-125851337D01*
X25297144Y-123851337D02*
X25297144Y-125851337D01*
X24782858Y-122708480D02*
X24268572Y-124851337D01*
X24268572Y-124851337D02*
X25605715Y-124851337D01*
X27354287Y-125851337D02*
X27354287Y-124279908D01*
X27354287Y-124279908D02*
X27251429Y-123994194D01*
X27251429Y-123994194D02*
X27045715Y-123851337D01*
X27045715Y-123851337D02*
X26634287Y-123851337D01*
X26634287Y-123851337D02*
X26428572Y-123994194D01*
X27354287Y-125708480D02*
X27148572Y-125851337D01*
X27148572Y-125851337D02*
X26634287Y-125851337D01*
X26634287Y-125851337D02*
X26428572Y-125708480D01*
X26428572Y-125708480D02*
X26325715Y-125422765D01*
X26325715Y-125422765D02*
X26325715Y-125137051D01*
X26325715Y-125137051D02*
X26428572Y-124851337D01*
X26428572Y-124851337D02*
X26634287Y-124708480D01*
X26634287Y-124708480D02*
X27148572Y-124708480D01*
X27148572Y-124708480D02*
X27354287Y-124565622D01*
X28177144Y-122851337D02*
X28691430Y-125851337D01*
X28691430Y-125851337D02*
X29102858Y-123708480D01*
X29102858Y-123708480D02*
X29514287Y-125851337D01*
X29514287Y-125851337D02*
X30028573Y-122851337D01*
X30851429Y-125851337D02*
X30851429Y-123851337D01*
X30851429Y-122851337D02*
X30748572Y-122994194D01*
X30748572Y-122994194D02*
X30851429Y-123137051D01*
X30851429Y-123137051D02*
X30954286Y-122994194D01*
X30954286Y-122994194D02*
X30851429Y-122851337D01*
X30851429Y-122851337D02*
X30851429Y-123137051D01*
X31777143Y-125708480D02*
X31982857Y-125851337D01*
X31982857Y-125851337D02*
X32394286Y-125851337D01*
X32394286Y-125851337D02*
X32600000Y-125708480D01*
X32600000Y-125708480D02*
X32702857Y-125422765D01*
X32702857Y-125422765D02*
X32702857Y-125279908D01*
X32702857Y-125279908D02*
X32600000Y-124994194D01*
X32600000Y-124994194D02*
X32394286Y-124851337D01*
X32394286Y-124851337D02*
X32085715Y-124851337D01*
X32085715Y-124851337D02*
X31880000Y-124708480D01*
X31880000Y-124708480D02*
X31777143Y-124422765D01*
X31777143Y-124422765D02*
X31777143Y-124279908D01*
X31777143Y-124279908D02*
X31880000Y-123994194D01*
X31880000Y-123994194D02*
X32085715Y-123851337D01*
X32085715Y-123851337D02*
X32394286Y-123851337D01*
X32394286Y-123851337D02*
X32600000Y-123994194D01*
X33628571Y-125851337D02*
X33628571Y-122851337D01*
X34554286Y-125851337D02*
X34554286Y-124279908D01*
X34554286Y-124279908D02*
X34451428Y-123994194D01*
X34451428Y-123994194D02*
X34245714Y-123851337D01*
X34245714Y-123851337D02*
X33937143Y-123851337D01*
X33937143Y-123851337D02*
X33731428Y-123994194D01*
X33731428Y-123994194D02*
X33628571Y-124137051D01*
M02*
