%TF.GenerationSoftware,KiCad,Pcbnew,9.0.7*%
%TF.CreationDate,2026-08-24T12:02:19+01:00*%
%TF.ProjectId,sorrow_10hp,736f7272-6f77-45f3-9130-68702e6b6963,rev?*%
%TF.SameCoordinates,Original*%
%TF.FileFunction,Legend,Top*%
%TF.FilePolarity,Positive*%
%FSLAX46Y46*%
G04 Gerber Fmt 4.6, Leading zero omitted, Abs format (unit mm)*
G04 Created by KiCad (PCBNEW 9.0.7) date 2026-08-24 12:02:19*
%MOMM*%
%LPD*%
G01*
G04 APERTURE LIST*
%ADD10C,0.442000*%
%ADD11C,0.345000*%
%ADD12C,0.510000*%
G04 APERTURE END LIST*
D10*
X39683142Y-117479826D02*
X40039714Y-117479826D01*
X40039714Y-117479826D02*
X40217999Y-117603636D01*
X40217999Y-117603636D02*
X40396285Y-117851255D01*
X40396285Y-117851255D02*
X40485428Y-118346493D01*
X40485428Y-118346493D02*
X40485428Y-119213159D01*
X40485428Y-119213159D02*
X40396285Y-119708397D01*
X40396285Y-119708397D02*
X40217999Y-119956017D01*
X40217999Y-119956017D02*
X40039714Y-120079826D01*
X40039714Y-120079826D02*
X39683142Y-120079826D01*
X39683142Y-120079826D02*
X39504857Y-119956017D01*
X39504857Y-119956017D02*
X39326571Y-119708397D01*
X39326571Y-119708397D02*
X39237428Y-119213159D01*
X39237428Y-119213159D02*
X39237428Y-118346493D01*
X39237428Y-118346493D02*
X39326571Y-117851255D01*
X39326571Y-117851255D02*
X39504857Y-117603636D01*
X39504857Y-117603636D02*
X39683142Y-117479826D01*
X41287714Y-117479826D02*
X41287714Y-119584588D01*
X41287714Y-119584588D02*
X41376857Y-119832207D01*
X41376857Y-119832207D02*
X41466000Y-119956017D01*
X41466000Y-119956017D02*
X41644285Y-120079826D01*
X41644285Y-120079826D02*
X42000857Y-120079826D01*
X42000857Y-120079826D02*
X42179142Y-119956017D01*
X42179142Y-119956017D02*
X42268285Y-119832207D01*
X42268285Y-119832207D02*
X42357428Y-119584588D01*
X42357428Y-119584588D02*
X42357428Y-117479826D01*
X42981428Y-117479826D02*
X44051143Y-117479826D01*
X43516285Y-120079826D02*
X43516285Y-117479826D01*
X44675143Y-119089350D02*
X46101429Y-119089350D01*
X48062571Y-120079826D02*
X47438571Y-118841731D01*
X46992857Y-120079826D02*
X46992857Y-117479826D01*
X46992857Y-117479826D02*
X47706000Y-117479826D01*
X47706000Y-117479826D02*
X47884285Y-117603636D01*
X47884285Y-117603636D02*
X47973428Y-117727445D01*
X47973428Y-117727445D02*
X48062571Y-117975064D01*
X48062571Y-117975064D02*
X48062571Y-118346493D01*
X48062571Y-118346493D02*
X47973428Y-118594112D01*
X47973428Y-118594112D02*
X47884285Y-118717921D01*
X47884285Y-118717921D02*
X47706000Y-118841731D01*
X47706000Y-118841731D02*
X46992857Y-118841731D01*
X27694725Y-117479826D02*
X28051297Y-117479826D01*
X28051297Y-117479826D02*
X28229582Y-117603636D01*
X28229582Y-117603636D02*
X28407868Y-117851255D01*
X28407868Y-117851255D02*
X28497011Y-118346493D01*
X28497011Y-118346493D02*
X28497011Y-119213159D01*
X28497011Y-119213159D02*
X28407868Y-119708397D01*
X28407868Y-119708397D02*
X28229582Y-119956017D01*
X28229582Y-119956017D02*
X28051297Y-120079826D01*
X28051297Y-120079826D02*
X27694725Y-120079826D01*
X27694725Y-120079826D02*
X27516440Y-119956017D01*
X27516440Y-119956017D02*
X27338154Y-119708397D01*
X27338154Y-119708397D02*
X27249011Y-119213159D01*
X27249011Y-119213159D02*
X27249011Y-118346493D01*
X27249011Y-118346493D02*
X27338154Y-117851255D01*
X27338154Y-117851255D02*
X27516440Y-117603636D01*
X27516440Y-117603636D02*
X27694725Y-117479826D01*
X29299297Y-117479826D02*
X29299297Y-119584588D01*
X29299297Y-119584588D02*
X29388440Y-119832207D01*
X29388440Y-119832207D02*
X29477583Y-119956017D01*
X29477583Y-119956017D02*
X29655868Y-120079826D01*
X29655868Y-120079826D02*
X30012440Y-120079826D01*
X30012440Y-120079826D02*
X30190725Y-119956017D01*
X30190725Y-119956017D02*
X30279868Y-119832207D01*
X30279868Y-119832207D02*
X30369011Y-119584588D01*
X30369011Y-119584588D02*
X30369011Y-117479826D01*
X30993011Y-117479826D02*
X32062726Y-117479826D01*
X31527868Y-120079826D02*
X31527868Y-117479826D01*
X32686726Y-119089350D02*
X34113012Y-119089350D01*
X35895868Y-120079826D02*
X35004440Y-120079826D01*
X35004440Y-120079826D02*
X35004440Y-117479826D01*
X40574571Y-106244110D02*
X40485428Y-106367920D01*
X40485428Y-106367920D02*
X40218000Y-106491729D01*
X40218000Y-106491729D02*
X40039714Y-106491729D01*
X40039714Y-106491729D02*
X39772285Y-106367920D01*
X39772285Y-106367920D02*
X39594000Y-106120300D01*
X39594000Y-106120300D02*
X39504857Y-105872681D01*
X39504857Y-105872681D02*
X39415714Y-105377443D01*
X39415714Y-105377443D02*
X39415714Y-105006015D01*
X39415714Y-105006015D02*
X39504857Y-104510777D01*
X39504857Y-104510777D02*
X39594000Y-104263158D01*
X39594000Y-104263158D02*
X39772285Y-104015539D01*
X39772285Y-104015539D02*
X40039714Y-103891729D01*
X40039714Y-103891729D02*
X40218000Y-103891729D01*
X40218000Y-103891729D02*
X40485428Y-104015539D01*
X40485428Y-104015539D02*
X40574571Y-104139348D01*
X41376857Y-106491729D02*
X41376857Y-103891729D01*
X41376857Y-105129824D02*
X42446571Y-105129824D01*
X42446571Y-106491729D02*
X42446571Y-103891729D01*
X43248857Y-105748872D02*
X44140286Y-105748872D01*
X43070571Y-106491729D02*
X43694571Y-103891729D01*
X43694571Y-103891729D02*
X44318571Y-106491729D01*
X45299142Y-103891729D02*
X45655714Y-103891729D01*
X45655714Y-103891729D02*
X45833999Y-104015539D01*
X45833999Y-104015539D02*
X46012285Y-104263158D01*
X46012285Y-104263158D02*
X46101428Y-104758396D01*
X46101428Y-104758396D02*
X46101428Y-105625062D01*
X46101428Y-105625062D02*
X46012285Y-106120300D01*
X46012285Y-106120300D02*
X45833999Y-106367920D01*
X45833999Y-106367920D02*
X45655714Y-106491729D01*
X45655714Y-106491729D02*
X45299142Y-106491729D01*
X45299142Y-106491729D02*
X45120857Y-106367920D01*
X45120857Y-106367920D02*
X44942571Y-106120300D01*
X44942571Y-106120300D02*
X44853428Y-105625062D01*
X44853428Y-105625062D02*
X44853428Y-104758396D01*
X44853428Y-104758396D02*
X44942571Y-104263158D01*
X44942571Y-104263158D02*
X45120857Y-104015539D01*
X45120857Y-104015539D02*
X45299142Y-103891729D01*
X46814571Y-106367920D02*
X47082000Y-106491729D01*
X47082000Y-106491729D02*
X47527714Y-106491729D01*
X47527714Y-106491729D02*
X47706000Y-106367920D01*
X47706000Y-106367920D02*
X47795142Y-106244110D01*
X47795142Y-106244110D02*
X47884285Y-105996491D01*
X47884285Y-105996491D02*
X47884285Y-105748872D01*
X47884285Y-105748872D02*
X47795142Y-105501253D01*
X47795142Y-105501253D02*
X47706000Y-105377443D01*
X47706000Y-105377443D02*
X47527714Y-105253634D01*
X47527714Y-105253634D02*
X47171142Y-105129824D01*
X47171142Y-105129824D02*
X46992857Y-105006015D01*
X46992857Y-105006015D02*
X46903714Y-104882205D01*
X46903714Y-104882205D02*
X46814571Y-104634586D01*
X46814571Y-104634586D02*
X46814571Y-104386967D01*
X46814571Y-104386967D02*
X46903714Y-104139348D01*
X46903714Y-104139348D02*
X46992857Y-104015539D01*
X46992857Y-104015539D02*
X47171142Y-103891729D01*
X47171142Y-103891729D02*
X47616857Y-103891729D01*
X47616857Y-103891729D02*
X47884285Y-104015539D01*
X28274154Y-106491729D02*
X28274154Y-103891729D01*
X28274154Y-103891729D02*
X28719868Y-103891729D01*
X28719868Y-103891729D02*
X28987297Y-104015539D01*
X28987297Y-104015539D02*
X29165582Y-104263158D01*
X29165582Y-104263158D02*
X29254725Y-104510777D01*
X29254725Y-104510777D02*
X29343868Y-105006015D01*
X29343868Y-105006015D02*
X29343868Y-105377443D01*
X29343868Y-105377443D02*
X29254725Y-105872681D01*
X29254725Y-105872681D02*
X29165582Y-106120300D01*
X29165582Y-106120300D02*
X28987297Y-106367920D01*
X28987297Y-106367920D02*
X28719868Y-106491729D01*
X28719868Y-106491729D02*
X28274154Y-106491729D01*
X30146154Y-105129824D02*
X30770154Y-105129824D01*
X31037582Y-106491729D02*
X30146154Y-106491729D01*
X30146154Y-106491729D02*
X30146154Y-103891729D01*
X30146154Y-103891729D02*
X31037582Y-103891729D01*
X31839868Y-106491729D02*
X31839868Y-103891729D01*
X31839868Y-103891729D02*
X32909582Y-106491729D01*
X32909582Y-106491729D02*
X32909582Y-103891729D01*
X33711868Y-106367920D02*
X33979297Y-106491729D01*
X33979297Y-106491729D02*
X34425011Y-106491729D01*
X34425011Y-106491729D02*
X34603297Y-106367920D01*
X34603297Y-106367920D02*
X34692439Y-106244110D01*
X34692439Y-106244110D02*
X34781582Y-105996491D01*
X34781582Y-105996491D02*
X34781582Y-105748872D01*
X34781582Y-105748872D02*
X34692439Y-105501253D01*
X34692439Y-105501253D02*
X34603297Y-105377443D01*
X34603297Y-105377443D02*
X34425011Y-105253634D01*
X34425011Y-105253634D02*
X34068439Y-105129824D01*
X34068439Y-105129824D02*
X33890154Y-105006015D01*
X33890154Y-105006015D02*
X33801011Y-104882205D01*
X33801011Y-104882205D02*
X33711868Y-104634586D01*
X33711868Y-104634586D02*
X33711868Y-104386967D01*
X33711868Y-104386967D02*
X33801011Y-104139348D01*
X33801011Y-104139348D02*
X33890154Y-104015539D01*
X33890154Y-104015539D02*
X34068439Y-103891729D01*
X34068439Y-103891729D02*
X34514154Y-103891729D01*
X34514154Y-103891729D02*
X34781582Y-104015539D01*
X19316694Y-105253634D02*
X19316694Y-106491729D01*
X18692694Y-103891729D02*
X19316694Y-105253634D01*
X19316694Y-105253634D02*
X19940694Y-103891729D01*
X6525999Y-103891729D02*
X7773999Y-106491729D01*
X7773999Y-103891729D02*
X6525999Y-106491729D01*
X39549429Y-92617919D02*
X39816858Y-92741728D01*
X39816858Y-92741728D02*
X40262572Y-92741728D01*
X40262572Y-92741728D02*
X40440858Y-92617919D01*
X40440858Y-92617919D02*
X40530000Y-92494109D01*
X40530000Y-92494109D02*
X40619143Y-92246490D01*
X40619143Y-92246490D02*
X40619143Y-91998871D01*
X40619143Y-91998871D02*
X40530000Y-91751252D01*
X40530000Y-91751252D02*
X40440858Y-91627442D01*
X40440858Y-91627442D02*
X40262572Y-91503633D01*
X40262572Y-91503633D02*
X39906000Y-91379823D01*
X39906000Y-91379823D02*
X39727715Y-91256014D01*
X39727715Y-91256014D02*
X39638572Y-91132204D01*
X39638572Y-91132204D02*
X39549429Y-90884585D01*
X39549429Y-90884585D02*
X39549429Y-90636966D01*
X39549429Y-90636966D02*
X39638572Y-90389347D01*
X39638572Y-90389347D02*
X39727715Y-90265538D01*
X39727715Y-90265538D02*
X39906000Y-90141728D01*
X39906000Y-90141728D02*
X40351715Y-90141728D01*
X40351715Y-90141728D02*
X40619143Y-90265538D01*
X41421429Y-92741728D02*
X41421429Y-90141728D01*
X41421429Y-90141728D02*
X42491143Y-92741728D01*
X42491143Y-92741728D02*
X42491143Y-90141728D01*
X43293429Y-91998871D02*
X44184858Y-91998871D01*
X43115143Y-92741728D02*
X43739143Y-90141728D01*
X43739143Y-90141728D02*
X44363143Y-92741728D01*
X46056857Y-92741728D02*
X45432857Y-91503633D01*
X44987143Y-92741728D02*
X44987143Y-90141728D01*
X44987143Y-90141728D02*
X45700286Y-90141728D01*
X45700286Y-90141728D02*
X45878571Y-90265538D01*
X45878571Y-90265538D02*
X45967714Y-90389347D01*
X45967714Y-90389347D02*
X46056857Y-90636966D01*
X46056857Y-90636966D02*
X46056857Y-91008395D01*
X46056857Y-91008395D02*
X45967714Y-91256014D01*
X45967714Y-91256014D02*
X45878571Y-91379823D01*
X45878571Y-91379823D02*
X45700286Y-91503633D01*
X45700286Y-91503633D02*
X44987143Y-91503633D01*
X46859143Y-91379823D02*
X47483143Y-91379823D01*
X47750571Y-92741728D02*
X46859143Y-92741728D01*
X46859143Y-92741728D02*
X46859143Y-90141728D01*
X46859143Y-90141728D02*
X47750571Y-90141728D01*
X28675297Y-92741728D02*
X28675297Y-90141728D01*
X29745011Y-92741728D02*
X28942725Y-91256014D01*
X29745011Y-90141728D02*
X28675297Y-91627442D01*
X30547297Y-92741728D02*
X30547297Y-90141728D01*
X32508440Y-92494109D02*
X32419297Y-92617919D01*
X32419297Y-92617919D02*
X32151869Y-92741728D01*
X32151869Y-92741728D02*
X31973583Y-92741728D01*
X31973583Y-92741728D02*
X31706154Y-92617919D01*
X31706154Y-92617919D02*
X31527869Y-92370299D01*
X31527869Y-92370299D02*
X31438726Y-92122680D01*
X31438726Y-92122680D02*
X31349583Y-91627442D01*
X31349583Y-91627442D02*
X31349583Y-91256014D01*
X31349583Y-91256014D02*
X31438726Y-90760776D01*
X31438726Y-90760776D02*
X31527869Y-90513157D01*
X31527869Y-90513157D02*
X31706154Y-90265538D01*
X31706154Y-90265538D02*
X31973583Y-90141728D01*
X31973583Y-90141728D02*
X32151869Y-90141728D01*
X32151869Y-90141728D02*
X32419297Y-90265538D01*
X32419297Y-90265538D02*
X32508440Y-90389347D01*
X33310726Y-92741728D02*
X33310726Y-90141728D01*
X34380440Y-92741728D02*
X33578154Y-91256014D01*
X34380440Y-90141728D02*
X33310726Y-91627442D01*
X16597837Y-92741728D02*
X15973837Y-91503633D01*
X15528123Y-92741728D02*
X15528123Y-90141728D01*
X15528123Y-90141728D02*
X16241266Y-90141728D01*
X16241266Y-90141728D02*
X16419551Y-90265538D01*
X16419551Y-90265538D02*
X16508694Y-90389347D01*
X16508694Y-90389347D02*
X16597837Y-90636966D01*
X16597837Y-90636966D02*
X16597837Y-91008395D01*
X16597837Y-91008395D02*
X16508694Y-91256014D01*
X16508694Y-91256014D02*
X16419551Y-91379823D01*
X16419551Y-91379823D02*
X16241266Y-91503633D01*
X16241266Y-91503633D02*
X15528123Y-91503633D01*
X17400123Y-91379823D02*
X18024123Y-91379823D01*
X18291551Y-92741728D02*
X17400123Y-92741728D01*
X17400123Y-92741728D02*
X17400123Y-90141728D01*
X17400123Y-90141728D02*
X18291551Y-90141728D01*
X19004694Y-92617919D02*
X19272123Y-92741728D01*
X19272123Y-92741728D02*
X19717837Y-92741728D01*
X19717837Y-92741728D02*
X19896123Y-92617919D01*
X19896123Y-92617919D02*
X19985265Y-92494109D01*
X19985265Y-92494109D02*
X20074408Y-92246490D01*
X20074408Y-92246490D02*
X20074408Y-91998871D01*
X20074408Y-91998871D02*
X19985265Y-91751252D01*
X19985265Y-91751252D02*
X19896123Y-91627442D01*
X19896123Y-91627442D02*
X19717837Y-91503633D01*
X19717837Y-91503633D02*
X19361265Y-91379823D01*
X19361265Y-91379823D02*
X19182980Y-91256014D01*
X19182980Y-91256014D02*
X19093837Y-91132204D01*
X19093837Y-91132204D02*
X19004694Y-90884585D01*
X19004694Y-90884585D02*
X19004694Y-90636966D01*
X19004694Y-90636966D02*
X19093837Y-90389347D01*
X19093837Y-90389347D02*
X19182980Y-90265538D01*
X19182980Y-90265538D02*
X19361265Y-90141728D01*
X19361265Y-90141728D02*
X19806980Y-90141728D01*
X19806980Y-90141728D02*
X20074408Y-90265538D01*
X20876694Y-91379823D02*
X21500694Y-91379823D01*
X21768122Y-92741728D02*
X20876694Y-92741728D01*
X20876694Y-92741728D02*
X20876694Y-90141728D01*
X20876694Y-90141728D02*
X21768122Y-90141728D01*
X22302979Y-90141728D02*
X23372694Y-90141728D01*
X22837836Y-92741728D02*
X22837836Y-90141728D01*
X4119141Y-92494158D02*
X4029998Y-92617968D01*
X4029998Y-92617968D02*
X3762570Y-92741777D01*
X3762570Y-92741777D02*
X3584284Y-92741777D01*
X3584284Y-92741777D02*
X3316855Y-92617968D01*
X3316855Y-92617968D02*
X3138570Y-92370348D01*
X3138570Y-92370348D02*
X3049427Y-92122729D01*
X3049427Y-92122729D02*
X2960284Y-91627491D01*
X2960284Y-91627491D02*
X2960284Y-91256063D01*
X2960284Y-91256063D02*
X3049427Y-90760825D01*
X3049427Y-90760825D02*
X3138570Y-90513206D01*
X3138570Y-90513206D02*
X3316855Y-90265587D01*
X3316855Y-90265587D02*
X3584284Y-90141777D01*
X3584284Y-90141777D02*
X3762570Y-90141777D01*
X3762570Y-90141777D02*
X4029998Y-90265587D01*
X4029998Y-90265587D02*
X4119141Y-90389396D01*
X5812855Y-92741777D02*
X4921427Y-92741777D01*
X4921427Y-92741777D02*
X4921427Y-90141777D01*
X6793427Y-90141777D02*
X7149999Y-90141777D01*
X7149999Y-90141777D02*
X7328284Y-90265587D01*
X7328284Y-90265587D02*
X7506570Y-90513206D01*
X7506570Y-90513206D02*
X7595713Y-91008444D01*
X7595713Y-91008444D02*
X7595713Y-91875110D01*
X7595713Y-91875110D02*
X7506570Y-92370348D01*
X7506570Y-92370348D02*
X7328284Y-92617968D01*
X7328284Y-92617968D02*
X7149999Y-92741777D01*
X7149999Y-92741777D02*
X6793427Y-92741777D01*
X6793427Y-92741777D02*
X6615142Y-92617968D01*
X6615142Y-92617968D02*
X6436856Y-92370348D01*
X6436856Y-92370348D02*
X6347713Y-91875110D01*
X6347713Y-91875110D02*
X6347713Y-91008444D01*
X6347713Y-91008444D02*
X6436856Y-90513206D01*
X6436856Y-90513206D02*
X6615142Y-90265587D01*
X6615142Y-90265587D02*
X6793427Y-90141777D01*
X9467713Y-92494158D02*
X9378570Y-92617968D01*
X9378570Y-92617968D02*
X9111142Y-92741777D01*
X9111142Y-92741777D02*
X8932856Y-92741777D01*
X8932856Y-92741777D02*
X8665427Y-92617968D01*
X8665427Y-92617968D02*
X8487142Y-92370348D01*
X8487142Y-92370348D02*
X8397999Y-92122729D01*
X8397999Y-92122729D02*
X8308856Y-91627491D01*
X8308856Y-91627491D02*
X8308856Y-91256063D01*
X8308856Y-91256063D02*
X8397999Y-90760825D01*
X8397999Y-90760825D02*
X8487142Y-90513206D01*
X8487142Y-90513206D02*
X8665427Y-90265587D01*
X8665427Y-90265587D02*
X8932856Y-90141777D01*
X8932856Y-90141777D02*
X9111142Y-90141777D01*
X9111142Y-90141777D02*
X9378570Y-90265587D01*
X9378570Y-90265587D02*
X9467713Y-90389396D01*
X10269999Y-92741777D02*
X10269999Y-90141777D01*
X11339713Y-92741777D02*
X10537427Y-91256063D01*
X11339713Y-90141777D02*
X10269999Y-91627491D01*
X23630894Y-68774517D02*
X23006894Y-68774517D01*
X23006894Y-70136422D02*
X23006894Y-67536422D01*
X23006894Y-67536422D02*
X23898322Y-67536422D01*
X25502893Y-70136422D02*
X24611465Y-70136422D01*
X24611465Y-70136422D02*
X24611465Y-67536422D01*
X26126894Y-70136422D02*
X26126894Y-67536422D01*
X27018323Y-70136422D02*
X27018323Y-67536422D01*
X27018323Y-67536422D02*
X27731466Y-67536422D01*
X27731466Y-67536422D02*
X27909751Y-67660232D01*
X27909751Y-67660232D02*
X27998894Y-67784041D01*
X27998894Y-67784041D02*
X28088037Y-68031660D01*
X28088037Y-68031660D02*
X28088037Y-68403089D01*
X28088037Y-68403089D02*
X27998894Y-68650708D01*
X27998894Y-68650708D02*
X27909751Y-68774517D01*
X27909751Y-68774517D02*
X27731466Y-68898327D01*
X27731466Y-68898327D02*
X27018323Y-68898327D01*
X40104801Y-67468031D02*
X40104801Y-64868031D01*
X40104801Y-66106126D02*
X41174515Y-66106126D01*
X41174515Y-67468031D02*
X41174515Y-64868031D01*
X41976801Y-66725174D02*
X42868230Y-66725174D01*
X41798515Y-67468031D02*
X42422515Y-64868031D01*
X42422515Y-64868031D02*
X43046515Y-67468031D01*
X43403086Y-64868031D02*
X44472801Y-64868031D01*
X43937943Y-67468031D02*
X43937943Y-64868031D01*
X5262566Y-67468050D02*
X5262566Y-64868050D01*
X5262566Y-64868050D02*
X5886566Y-66725193D01*
X5886566Y-66725193D02*
X6510566Y-64868050D01*
X6510566Y-64868050D02*
X6510566Y-67468050D01*
X7758566Y-64868050D02*
X8115138Y-64868050D01*
X8115138Y-64868050D02*
X8293423Y-64991860D01*
X8293423Y-64991860D02*
X8471709Y-65239479D01*
X8471709Y-65239479D02*
X8560852Y-65734717D01*
X8560852Y-65734717D02*
X8560852Y-66601383D01*
X8560852Y-66601383D02*
X8471709Y-67096621D01*
X8471709Y-67096621D02*
X8293423Y-67344241D01*
X8293423Y-67344241D02*
X8115138Y-67468050D01*
X8115138Y-67468050D02*
X7758566Y-67468050D01*
X7758566Y-67468050D02*
X7580281Y-67344241D01*
X7580281Y-67344241D02*
X7401995Y-67096621D01*
X7401995Y-67096621D02*
X7312852Y-66601383D01*
X7312852Y-66601383D02*
X7312852Y-65734717D01*
X7312852Y-65734717D02*
X7401995Y-65239479D01*
X7401995Y-65239479D02*
X7580281Y-64991860D01*
X7580281Y-64991860D02*
X7758566Y-64868050D01*
X9363138Y-67468050D02*
X9363138Y-64868050D01*
X9363138Y-64868050D02*
X9808852Y-64868050D01*
X9808852Y-64868050D02*
X10076281Y-64991860D01*
X10076281Y-64991860D02*
X10254566Y-65239479D01*
X10254566Y-65239479D02*
X10343709Y-65487098D01*
X10343709Y-65487098D02*
X10432852Y-65982336D01*
X10432852Y-65982336D02*
X10432852Y-66353764D01*
X10432852Y-66353764D02*
X10343709Y-66849002D01*
X10343709Y-66849002D02*
X10254566Y-67096621D01*
X10254566Y-67096621D02*
X10076281Y-67344241D01*
X10076281Y-67344241D02*
X9808852Y-67468050D01*
X9808852Y-67468050D02*
X9363138Y-67468050D01*
X11235138Y-66106145D02*
X11859138Y-66106145D01*
X12126566Y-67468050D02*
X11235138Y-67468050D01*
X11235138Y-67468050D02*
X11235138Y-64868050D01*
X11235138Y-64868050D02*
X12126566Y-64868050D01*
D11*
X34780724Y-47919562D02*
X34874891Y-49947562D01*
X34874891Y-49947562D02*
X35334096Y-48498991D01*
X35334096Y-48498991D02*
X35431157Y-49947562D01*
X35431157Y-49947562D02*
X36032324Y-47919562D01*
X36335091Y-49947562D02*
X36588591Y-47919562D01*
X37725757Y-49947562D02*
X37030424Y-49947562D01*
X37030424Y-49947562D02*
X37283924Y-47919562D01*
X38212491Y-49947562D02*
X38465991Y-47919562D01*
X38465991Y-47919562D02*
X38813657Y-47919562D01*
X38813657Y-47919562D02*
X39010186Y-48016133D01*
X39010186Y-48016133D02*
X39125110Y-48209276D01*
X39125110Y-48209276D02*
X39170500Y-48402419D01*
X39170500Y-48402419D02*
X39191748Y-48788705D01*
X39191748Y-48788705D02*
X39155534Y-49078419D01*
X39155534Y-49078419D02*
X39037715Y-49464705D01*
X39037715Y-49464705D02*
X38944038Y-49657848D01*
X38944038Y-49657848D02*
X38780829Y-49850991D01*
X38780829Y-49850991D02*
X38560157Y-49947562D01*
X38560157Y-49947562D02*
X38212491Y-49947562D01*
X39672691Y-49947562D02*
X39926191Y-47919562D01*
X39926191Y-47919562D02*
X40507091Y-49947562D01*
X40507091Y-49947562D02*
X40760591Y-47919562D01*
X41335209Y-48885276D02*
X41821943Y-48885276D01*
X41897757Y-49947562D02*
X41202424Y-49947562D01*
X41202424Y-49947562D02*
X41455924Y-47919562D01*
X41455924Y-47919562D02*
X42151257Y-47919562D01*
X42466095Y-49850991D02*
X42662623Y-49947562D01*
X42662623Y-49947562D02*
X43010290Y-49947562D01*
X43010290Y-49947562D02*
X43161428Y-49850991D01*
X43161428Y-49850991D02*
X43243033Y-49754419D01*
X43243033Y-49754419D02*
X43336709Y-49561276D01*
X43336709Y-49561276D02*
X43360852Y-49368133D01*
X43360852Y-49368133D02*
X43315462Y-49174991D01*
X43315462Y-49174991D02*
X43258000Y-49078419D01*
X43258000Y-49078419D02*
X43131004Y-48981848D01*
X43131004Y-48981848D02*
X42864942Y-48885276D01*
X42864942Y-48885276D02*
X42737947Y-48788705D01*
X42737947Y-48788705D02*
X42680485Y-48692133D01*
X42680485Y-48692133D02*
X42635095Y-48498991D01*
X42635095Y-48498991D02*
X42659238Y-48305848D01*
X42659238Y-48305848D02*
X42752914Y-48112705D01*
X42752914Y-48112705D02*
X42834519Y-48016133D01*
X42834519Y-48016133D02*
X42985657Y-47919562D01*
X42985657Y-47919562D02*
X43333323Y-47919562D01*
X43333323Y-47919562D02*
X43529852Y-48016133D01*
X43856762Y-49850991D02*
X44053290Y-49947562D01*
X44053290Y-49947562D02*
X44400957Y-49947562D01*
X44400957Y-49947562D02*
X44552095Y-49850991D01*
X44552095Y-49850991D02*
X44633700Y-49754419D01*
X44633700Y-49754419D02*
X44727376Y-49561276D01*
X44727376Y-49561276D02*
X44751519Y-49368133D01*
X44751519Y-49368133D02*
X44706129Y-49174991D01*
X44706129Y-49174991D02*
X44648667Y-49078419D01*
X44648667Y-49078419D02*
X44521671Y-48981848D01*
X44521671Y-48981848D02*
X44255609Y-48885276D01*
X44255609Y-48885276D02*
X44128614Y-48788705D01*
X44128614Y-48788705D02*
X44071152Y-48692133D01*
X44071152Y-48692133D02*
X44025762Y-48498991D01*
X44025762Y-48498991D02*
X44049905Y-48305848D01*
X44049905Y-48305848D02*
X44143581Y-48112705D01*
X44143581Y-48112705D02*
X44225186Y-48016133D01*
X44225186Y-48016133D02*
X44376324Y-47919562D01*
X44376324Y-47919562D02*
X44723990Y-47919562D01*
X44723990Y-47919562D02*
X44920519Y-48016133D01*
D10*
X36574567Y-35959517D02*
X36485424Y-36083327D01*
X36485424Y-36083327D02*
X36217996Y-36207136D01*
X36217996Y-36207136D02*
X36039710Y-36207136D01*
X36039710Y-36207136D02*
X35772281Y-36083327D01*
X35772281Y-36083327D02*
X35593996Y-35835707D01*
X35593996Y-35835707D02*
X35504853Y-35588088D01*
X35504853Y-35588088D02*
X35415710Y-35092850D01*
X35415710Y-35092850D02*
X35415710Y-34721422D01*
X35415710Y-34721422D02*
X35504853Y-34226184D01*
X35504853Y-34226184D02*
X35593996Y-33978565D01*
X35593996Y-33978565D02*
X35772281Y-33730946D01*
X35772281Y-33730946D02*
X36039710Y-33607136D01*
X36039710Y-33607136D02*
X36217996Y-33607136D01*
X36217996Y-33607136D02*
X36485424Y-33730946D01*
X36485424Y-33730946D02*
X36574567Y-33854755D01*
X37376853Y-36207136D02*
X37376853Y-33607136D01*
X37376853Y-34845231D02*
X38446567Y-34845231D01*
X38446567Y-36207136D02*
X38446567Y-33607136D01*
X39248853Y-35464279D02*
X40140282Y-35464279D01*
X39070567Y-36207136D02*
X39694567Y-33607136D01*
X39694567Y-33607136D02*
X40318567Y-36207136D01*
X41299138Y-33607136D02*
X41655710Y-33607136D01*
X41655710Y-33607136D02*
X41833995Y-33730946D01*
X41833995Y-33730946D02*
X42012281Y-33978565D01*
X42012281Y-33978565D02*
X42101424Y-34473803D01*
X42101424Y-34473803D02*
X42101424Y-35340469D01*
X42101424Y-35340469D02*
X42012281Y-35835707D01*
X42012281Y-35835707D02*
X41833995Y-36083327D01*
X41833995Y-36083327D02*
X41655710Y-36207136D01*
X41655710Y-36207136D02*
X41299138Y-36207136D01*
X41299138Y-36207136D02*
X41120853Y-36083327D01*
X41120853Y-36083327D02*
X40942567Y-35835707D01*
X40942567Y-35835707D02*
X40853424Y-35340469D01*
X40853424Y-35340469D02*
X40853424Y-34473803D01*
X40853424Y-34473803D02*
X40942567Y-33978565D01*
X40942567Y-33978565D02*
X41120853Y-33730946D01*
X41120853Y-33730946D02*
X41299138Y-33607136D01*
X42814567Y-36083327D02*
X43081996Y-36207136D01*
X43081996Y-36207136D02*
X43527710Y-36207136D01*
X43527710Y-36207136D02*
X43705996Y-36083327D01*
X43705996Y-36083327D02*
X43795138Y-35959517D01*
X43795138Y-35959517D02*
X43884281Y-35711898D01*
X43884281Y-35711898D02*
X43884281Y-35464279D01*
X43884281Y-35464279D02*
X43795138Y-35216660D01*
X43795138Y-35216660D02*
X43705996Y-35092850D01*
X43705996Y-35092850D02*
X43527710Y-34969041D01*
X43527710Y-34969041D02*
X43171138Y-34845231D01*
X43171138Y-34845231D02*
X42992853Y-34721422D01*
X42992853Y-34721422D02*
X42903710Y-34597612D01*
X42903710Y-34597612D02*
X42814567Y-34349993D01*
X42814567Y-34349993D02*
X42814567Y-34102374D01*
X42814567Y-34102374D02*
X42903710Y-33854755D01*
X42903710Y-33854755D02*
X42992853Y-33730946D01*
X42992853Y-33730946D02*
X43171138Y-33607136D01*
X43171138Y-33607136D02*
X43616853Y-33607136D01*
X43616853Y-33607136D02*
X43884281Y-33730946D01*
D11*
X6435162Y-49947562D02*
X6688662Y-47919562D01*
X6688662Y-47919562D02*
X7036328Y-47919562D01*
X7036328Y-47919562D02*
X7232857Y-48016133D01*
X7232857Y-48016133D02*
X7347781Y-48209276D01*
X7347781Y-48209276D02*
X7393171Y-48402419D01*
X7393171Y-48402419D02*
X7414419Y-48788705D01*
X7414419Y-48788705D02*
X7378205Y-49078419D01*
X7378205Y-49078419D02*
X7260386Y-49464705D01*
X7260386Y-49464705D02*
X7166709Y-49657848D01*
X7166709Y-49657848D02*
X7003500Y-49850991D01*
X7003500Y-49850991D02*
X6782828Y-49947562D01*
X6782828Y-49947562D02*
X6435162Y-49947562D01*
X8028147Y-48885276D02*
X8514881Y-48885276D01*
X8590695Y-49947562D02*
X7895362Y-49947562D01*
X7895362Y-49947562D02*
X8148862Y-47919562D01*
X8148862Y-47919562D02*
X8844195Y-47919562D01*
X9216495Y-49947562D02*
X9469995Y-47919562D01*
X9469995Y-47919562D02*
X10050895Y-49947562D01*
X10050895Y-49947562D02*
X10304395Y-47919562D01*
X10688766Y-49850991D02*
X10885294Y-49947562D01*
X10885294Y-49947562D02*
X11232961Y-49947562D01*
X11232961Y-49947562D02*
X11384099Y-49850991D01*
X11384099Y-49850991D02*
X11465704Y-49754419D01*
X11465704Y-49754419D02*
X11559380Y-49561276D01*
X11559380Y-49561276D02*
X11583523Y-49368133D01*
X11583523Y-49368133D02*
X11538133Y-49174991D01*
X11538133Y-49174991D02*
X11480671Y-49078419D01*
X11480671Y-49078419D02*
X11353675Y-48981848D01*
X11353675Y-48981848D02*
X11087613Y-48885276D01*
X11087613Y-48885276D02*
X10960618Y-48788705D01*
X10960618Y-48788705D02*
X10903156Y-48692133D01*
X10903156Y-48692133D02*
X10857766Y-48498991D01*
X10857766Y-48498991D02*
X10881909Y-48305848D01*
X10881909Y-48305848D02*
X10975585Y-48112705D01*
X10975585Y-48112705D02*
X11057190Y-48016133D01*
X11057190Y-48016133D02*
X11208328Y-47919562D01*
X11208328Y-47919562D02*
X11555994Y-47919562D01*
X11555994Y-47919562D02*
X11752523Y-48016133D01*
X12233466Y-49174991D02*
X13346000Y-49174991D01*
X13944762Y-49947562D02*
X14198262Y-47919562D01*
X14077547Y-48885276D02*
X14911947Y-48885276D01*
X14779162Y-49947562D02*
X15032662Y-47919562D01*
X15519395Y-47919562D02*
X16353795Y-47919562D01*
X15683095Y-49947562D02*
X15936595Y-47919562D01*
D10*
X6005214Y-36207136D02*
X6005214Y-33607136D01*
X6005214Y-33607136D02*
X6450928Y-33607136D01*
X6450928Y-33607136D02*
X6718357Y-33730946D01*
X6718357Y-33730946D02*
X6896642Y-33978565D01*
X6896642Y-33978565D02*
X6985785Y-34226184D01*
X6985785Y-34226184D02*
X7074928Y-34721422D01*
X7074928Y-34721422D02*
X7074928Y-35092850D01*
X7074928Y-35092850D02*
X6985785Y-35588088D01*
X6985785Y-35588088D02*
X6896642Y-35835707D01*
X6896642Y-35835707D02*
X6718357Y-36083327D01*
X6718357Y-36083327D02*
X6450928Y-36207136D01*
X6450928Y-36207136D02*
X6005214Y-36207136D01*
X7877214Y-34845231D02*
X8501214Y-34845231D01*
X8768642Y-36207136D02*
X7877214Y-36207136D01*
X7877214Y-36207136D02*
X7877214Y-33607136D01*
X7877214Y-33607136D02*
X8768642Y-33607136D01*
X9570928Y-36207136D02*
X9570928Y-33607136D01*
X9570928Y-33607136D02*
X10640642Y-36207136D01*
X10640642Y-36207136D02*
X10640642Y-33607136D01*
X11442928Y-36083327D02*
X11710357Y-36207136D01*
X11710357Y-36207136D02*
X12156071Y-36207136D01*
X12156071Y-36207136D02*
X12334357Y-36083327D01*
X12334357Y-36083327D02*
X12423499Y-35959517D01*
X12423499Y-35959517D02*
X12512642Y-35711898D01*
X12512642Y-35711898D02*
X12512642Y-35464279D01*
X12512642Y-35464279D02*
X12423499Y-35216660D01*
X12423499Y-35216660D02*
X12334357Y-35092850D01*
X12334357Y-35092850D02*
X12156071Y-34969041D01*
X12156071Y-34969041D02*
X11799499Y-34845231D01*
X11799499Y-34845231D02*
X11621214Y-34721422D01*
X11621214Y-34721422D02*
X11532071Y-34597612D01*
X11532071Y-34597612D02*
X11442928Y-34349993D01*
X11442928Y-34349993D02*
X11442928Y-34102374D01*
X11442928Y-34102374D02*
X11532071Y-33854755D01*
X11532071Y-33854755D02*
X11621214Y-33730946D01*
X11621214Y-33730946D02*
X11799499Y-33607136D01*
X11799499Y-33607136D02*
X12245214Y-33607136D01*
X12245214Y-33607136D02*
X12512642Y-33730946D01*
X13314928Y-36207136D02*
X13314928Y-33607136D01*
X13938928Y-33607136D02*
X15008643Y-33607136D01*
X14473785Y-36207136D02*
X14473785Y-33607136D01*
X15989214Y-34969041D02*
X15989214Y-36207136D01*
X15365214Y-33607136D02*
X15989214Y-34969041D01*
X15989214Y-34969041D02*
X16613214Y-33607136D01*
D11*
X34770591Y-30824540D02*
X35024091Y-28796540D01*
X35024091Y-28796540D02*
X35371757Y-28796540D01*
X35371757Y-28796540D02*
X35568286Y-28893111D01*
X35568286Y-28893111D02*
X35683210Y-29086254D01*
X35683210Y-29086254D02*
X35728600Y-29279397D01*
X35728600Y-29279397D02*
X35749848Y-29665683D01*
X35749848Y-29665683D02*
X35713634Y-29955397D01*
X35713634Y-29955397D02*
X35595815Y-30341683D01*
X35595815Y-30341683D02*
X35502138Y-30534826D01*
X35502138Y-30534826D02*
X35338929Y-30727969D01*
X35338929Y-30727969D02*
X35118257Y-30824540D01*
X35118257Y-30824540D02*
X34770591Y-30824540D01*
X36363576Y-29762254D02*
X36850310Y-29762254D01*
X36926124Y-30824540D02*
X36230791Y-30824540D01*
X36230791Y-30824540D02*
X36484291Y-28796540D01*
X36484291Y-28796540D02*
X37179624Y-28796540D01*
X37551924Y-30824540D02*
X37805424Y-28796540D01*
X37805424Y-28796540D02*
X38386324Y-30824540D01*
X38386324Y-30824540D02*
X38639824Y-28796540D01*
X39024195Y-30727969D02*
X39220723Y-30824540D01*
X39220723Y-30824540D02*
X39568390Y-30824540D01*
X39568390Y-30824540D02*
X39719528Y-30727969D01*
X39719528Y-30727969D02*
X39801133Y-30631397D01*
X39801133Y-30631397D02*
X39894809Y-30438254D01*
X39894809Y-30438254D02*
X39918952Y-30245111D01*
X39918952Y-30245111D02*
X39873562Y-30051969D01*
X39873562Y-30051969D02*
X39816100Y-29955397D01*
X39816100Y-29955397D02*
X39689104Y-29858826D01*
X39689104Y-29858826D02*
X39423042Y-29762254D01*
X39423042Y-29762254D02*
X39296047Y-29665683D01*
X39296047Y-29665683D02*
X39238585Y-29569111D01*
X39238585Y-29569111D02*
X39193195Y-29375969D01*
X39193195Y-29375969D02*
X39217338Y-29182826D01*
X39217338Y-29182826D02*
X39311014Y-28989683D01*
X39311014Y-28989683D02*
X39392619Y-28893111D01*
X39392619Y-28893111D02*
X39543757Y-28796540D01*
X39543757Y-28796540D02*
X39891423Y-28796540D01*
X39891423Y-28796540D02*
X40087952Y-28893111D01*
X40568895Y-30051969D02*
X41681429Y-30051969D01*
X42222729Y-30727969D02*
X42419257Y-30824540D01*
X42419257Y-30824540D02*
X42766924Y-30824540D01*
X42766924Y-30824540D02*
X42918062Y-30727969D01*
X42918062Y-30727969D02*
X42999667Y-30631397D01*
X42999667Y-30631397D02*
X43093343Y-30438254D01*
X43093343Y-30438254D02*
X43117486Y-30245111D01*
X43117486Y-30245111D02*
X43072096Y-30051969D01*
X43072096Y-30051969D02*
X43014634Y-29955397D01*
X43014634Y-29955397D02*
X42887638Y-29858826D01*
X42887638Y-29858826D02*
X42621576Y-29762254D01*
X42621576Y-29762254D02*
X42494581Y-29665683D01*
X42494581Y-29665683D02*
X42437119Y-29569111D01*
X42437119Y-29569111D02*
X42391729Y-29375969D01*
X42391729Y-29375969D02*
X42415872Y-29182826D01*
X42415872Y-29182826D02*
X42509548Y-28989683D01*
X42509548Y-28989683D02*
X42591153Y-28893111D01*
X42591153Y-28893111D02*
X42742291Y-28796540D01*
X42742291Y-28796540D02*
X43089957Y-28796540D01*
X43089957Y-28796540D02*
X43286486Y-28893111D01*
X43670858Y-30824540D02*
X43924358Y-28796540D01*
X43924358Y-28796540D02*
X44505258Y-30824540D01*
X44505258Y-30824540D02*
X44758758Y-28796540D01*
D10*
X39649996Y-15846019D02*
X39649996Y-17084114D01*
X39025996Y-14484114D02*
X39649996Y-15846019D01*
X39649996Y-15846019D02*
X40273996Y-14484114D01*
D11*
X6296095Y-30824540D02*
X6549595Y-28796540D01*
X6549595Y-28796540D02*
X6897261Y-28796540D01*
X6897261Y-28796540D02*
X7093790Y-28893111D01*
X7093790Y-28893111D02*
X7208714Y-29086254D01*
X7208714Y-29086254D02*
X7254104Y-29279397D01*
X7254104Y-29279397D02*
X7275352Y-29665683D01*
X7275352Y-29665683D02*
X7239138Y-29955397D01*
X7239138Y-29955397D02*
X7121319Y-30341683D01*
X7121319Y-30341683D02*
X7027642Y-30534826D01*
X7027642Y-30534826D02*
X6864433Y-30727969D01*
X6864433Y-30727969D02*
X6643761Y-30824540D01*
X6643761Y-30824540D02*
X6296095Y-30824540D01*
X7889080Y-29762254D02*
X8375814Y-29762254D01*
X8451628Y-30824540D02*
X7756295Y-30824540D01*
X7756295Y-30824540D02*
X8009795Y-28796540D01*
X8009795Y-28796540D02*
X8705128Y-28796540D01*
X9077428Y-30824540D02*
X9330928Y-28796540D01*
X9330928Y-28796540D02*
X9911828Y-30824540D01*
X9911828Y-30824540D02*
X10165328Y-28796540D01*
X10549699Y-30727969D02*
X10746227Y-30824540D01*
X10746227Y-30824540D02*
X11093894Y-30824540D01*
X11093894Y-30824540D02*
X11245032Y-30727969D01*
X11245032Y-30727969D02*
X11326637Y-30631397D01*
X11326637Y-30631397D02*
X11420313Y-30438254D01*
X11420313Y-30438254D02*
X11444456Y-30245111D01*
X11444456Y-30245111D02*
X11399066Y-30051969D01*
X11399066Y-30051969D02*
X11341604Y-29955397D01*
X11341604Y-29955397D02*
X11214608Y-29858826D01*
X11214608Y-29858826D02*
X10948546Y-29762254D01*
X10948546Y-29762254D02*
X10821551Y-29665683D01*
X10821551Y-29665683D02*
X10764089Y-29569111D01*
X10764089Y-29569111D02*
X10718699Y-29375969D01*
X10718699Y-29375969D02*
X10742842Y-29182826D01*
X10742842Y-29182826D02*
X10836518Y-28989683D01*
X10836518Y-28989683D02*
X10918123Y-28893111D01*
X10918123Y-28893111D02*
X11069261Y-28796540D01*
X11069261Y-28796540D02*
X11416927Y-28796540D01*
X11416927Y-28796540D02*
X11613456Y-28893111D01*
X12094399Y-30051969D02*
X13206933Y-30051969D01*
X13805695Y-30824540D02*
X14059195Y-28796540D01*
X14640095Y-30824540D02*
X14159152Y-29665683D01*
X14893595Y-28796540D02*
X13914338Y-29955397D01*
X16124438Y-30631397D02*
X16042833Y-30727969D01*
X16042833Y-30727969D02*
X15822161Y-30824540D01*
X15822161Y-30824540D02*
X15683095Y-30824540D01*
X15683095Y-30824540D02*
X15486566Y-30727969D01*
X15486566Y-30727969D02*
X15371642Y-30534826D01*
X15371642Y-30534826D02*
X15326252Y-30341683D01*
X15326252Y-30341683D02*
X15305004Y-29955397D01*
X15305004Y-29955397D02*
X15341219Y-29665683D01*
X15341219Y-29665683D02*
X15459038Y-29279397D01*
X15459038Y-29279397D02*
X15552714Y-29086254D01*
X15552714Y-29086254D02*
X15715923Y-28893111D01*
X15715923Y-28893111D02*
X15936595Y-28796540D01*
X15936595Y-28796540D02*
X16075661Y-28796540D01*
X16075661Y-28796540D02*
X16272190Y-28893111D01*
X16272190Y-28893111D02*
X16329652Y-28989683D01*
D10*
X10551500Y-14484114D02*
X11799500Y-17084114D01*
X11799500Y-14484114D02*
X10551500Y-17084114D01*
D12*
X20359999Y-5228480D02*
X20668571Y-5371337D01*
X20668571Y-5371337D02*
X21182856Y-5371337D01*
X21182856Y-5371337D02*
X21388571Y-5228480D01*
X21388571Y-5228480D02*
X21491428Y-5085622D01*
X21491428Y-5085622D02*
X21594285Y-4799908D01*
X21594285Y-4799908D02*
X21594285Y-4514194D01*
X21594285Y-4514194D02*
X21491428Y-4228480D01*
X21491428Y-4228480D02*
X21388571Y-4085622D01*
X21388571Y-4085622D02*
X21182856Y-3942765D01*
X21182856Y-3942765D02*
X20771428Y-3799908D01*
X20771428Y-3799908D02*
X20565713Y-3657051D01*
X20565713Y-3657051D02*
X20462856Y-3514194D01*
X20462856Y-3514194D02*
X20359999Y-3228480D01*
X20359999Y-3228480D02*
X20359999Y-2942765D01*
X20359999Y-2942765D02*
X20462856Y-2657051D01*
X20462856Y-2657051D02*
X20565713Y-2514194D01*
X20565713Y-2514194D02*
X20771428Y-2371337D01*
X20771428Y-2371337D02*
X21285713Y-2371337D01*
X21285713Y-2371337D02*
X21594285Y-2514194D01*
X22828571Y-5371337D02*
X22622856Y-5228480D01*
X22622856Y-5228480D02*
X22519999Y-5085622D01*
X22519999Y-5085622D02*
X22417142Y-4799908D01*
X22417142Y-4799908D02*
X22417142Y-3942765D01*
X22417142Y-3942765D02*
X22519999Y-3657051D01*
X22519999Y-3657051D02*
X22622856Y-3514194D01*
X22622856Y-3514194D02*
X22828571Y-3371337D01*
X22828571Y-3371337D02*
X23137142Y-3371337D01*
X23137142Y-3371337D02*
X23342856Y-3514194D01*
X23342856Y-3514194D02*
X23445714Y-3657051D01*
X23445714Y-3657051D02*
X23548571Y-3942765D01*
X23548571Y-3942765D02*
X23548571Y-4799908D01*
X23548571Y-4799908D02*
X23445714Y-5085622D01*
X23445714Y-5085622D02*
X23342856Y-5228480D01*
X23342856Y-5228480D02*
X23137142Y-5371337D01*
X23137142Y-5371337D02*
X22828571Y-5371337D01*
X24474285Y-5371337D02*
X24474285Y-3371337D01*
X24474285Y-3942765D02*
X24577142Y-3657051D01*
X24577142Y-3657051D02*
X24680000Y-3514194D01*
X24680000Y-3514194D02*
X24885714Y-3371337D01*
X24885714Y-3371337D02*
X25091428Y-3371337D01*
X25811428Y-5371337D02*
X25811428Y-3371337D01*
X25811428Y-3942765D02*
X25914285Y-3657051D01*
X25914285Y-3657051D02*
X26017143Y-3514194D01*
X26017143Y-3514194D02*
X26222857Y-3371337D01*
X26222857Y-3371337D02*
X26428571Y-3371337D01*
X27457143Y-5371337D02*
X27251428Y-5228480D01*
X27251428Y-5228480D02*
X27148571Y-5085622D01*
X27148571Y-5085622D02*
X27045714Y-4799908D01*
X27045714Y-4799908D02*
X27045714Y-3942765D01*
X27045714Y-3942765D02*
X27148571Y-3657051D01*
X27148571Y-3657051D02*
X27251428Y-3514194D01*
X27251428Y-3514194D02*
X27457143Y-3371337D01*
X27457143Y-3371337D02*
X27765714Y-3371337D01*
X27765714Y-3371337D02*
X27971428Y-3514194D01*
X27971428Y-3514194D02*
X28074286Y-3657051D01*
X28074286Y-3657051D02*
X28177143Y-3942765D01*
X28177143Y-3942765D02*
X28177143Y-4799908D01*
X28177143Y-4799908D02*
X28074286Y-5085622D01*
X28074286Y-5085622D02*
X27971428Y-5228480D01*
X27971428Y-5228480D02*
X27765714Y-5371337D01*
X27765714Y-5371337D02*
X27457143Y-5371337D01*
X28897143Y-3371337D02*
X29308572Y-5371337D01*
X29308572Y-5371337D02*
X29720000Y-3942765D01*
X29720000Y-3942765D02*
X30131429Y-5371337D01*
X30131429Y-5371337D02*
X30542857Y-3371337D01*
X16245714Y-124279908D02*
X16965714Y-124279908D01*
X17274286Y-125851337D02*
X16245714Y-125851337D01*
X16245714Y-125851337D02*
X16245714Y-122851337D01*
X16245714Y-122851337D02*
X17274286Y-122851337D01*
X18200000Y-125851337D02*
X18200000Y-123851337D01*
X18200000Y-122851337D02*
X18097143Y-122994194D01*
X18097143Y-122994194D02*
X18200000Y-123137051D01*
X18200000Y-123137051D02*
X18302857Y-122994194D01*
X18302857Y-122994194D02*
X18200000Y-122851337D01*
X18200000Y-122851337D02*
X18200000Y-123137051D01*
X20154286Y-123851337D02*
X20154286Y-126279908D01*
X20154286Y-126279908D02*
X20051428Y-126565622D01*
X20051428Y-126565622D02*
X19948571Y-126708480D01*
X19948571Y-126708480D02*
X19742857Y-126851337D01*
X19742857Y-126851337D02*
X19434286Y-126851337D01*
X19434286Y-126851337D02*
X19228571Y-126708480D01*
X20154286Y-125708480D02*
X19948571Y-125851337D01*
X19948571Y-125851337D02*
X19537143Y-125851337D01*
X19537143Y-125851337D02*
X19331428Y-125708480D01*
X19331428Y-125708480D02*
X19228571Y-125565622D01*
X19228571Y-125565622D02*
X19125714Y-125279908D01*
X19125714Y-125279908D02*
X19125714Y-124422765D01*
X19125714Y-124422765D02*
X19228571Y-124137051D01*
X19228571Y-124137051D02*
X19331428Y-123994194D01*
X19331428Y-123994194D02*
X19537143Y-123851337D01*
X19537143Y-123851337D02*
X19948571Y-123851337D01*
X19948571Y-123851337D02*
X20154286Y-123994194D01*
X21182857Y-125851337D02*
X21182857Y-122851337D01*
X22108572Y-125851337D02*
X22108572Y-124279908D01*
X22108572Y-124279908D02*
X22005714Y-123994194D01*
X22005714Y-123994194D02*
X21800000Y-123851337D01*
X21800000Y-123851337D02*
X21491429Y-123851337D01*
X21491429Y-123851337D02*
X21285714Y-123994194D01*
X21285714Y-123994194D02*
X21182857Y-124137051D01*
X22828572Y-123851337D02*
X23651429Y-123851337D01*
X23137143Y-122851337D02*
X23137143Y-125422765D01*
X23137143Y-125422765D02*
X23240000Y-125708480D01*
X23240000Y-125708480D02*
X23445715Y-125851337D01*
X23445715Y-125851337D02*
X23651429Y-125851337D01*
X25297144Y-123851337D02*
X25297144Y-125851337D01*
X24782858Y-122708480D02*
X24268572Y-124851337D01*
X24268572Y-124851337D02*
X25605715Y-124851337D01*
X27354287Y-125851337D02*
X27354287Y-124279908D01*
X27354287Y-124279908D02*
X27251429Y-123994194D01*
X27251429Y-123994194D02*
X27045715Y-123851337D01*
X27045715Y-123851337D02*
X26634287Y-123851337D01*
X26634287Y-123851337D02*
X26428572Y-123994194D01*
X27354287Y-125708480D02*
X27148572Y-125851337D01*
X27148572Y-125851337D02*
X26634287Y-125851337D01*
X26634287Y-125851337D02*
X26428572Y-125708480D01*
X26428572Y-125708480D02*
X26325715Y-125422765D01*
X26325715Y-125422765D02*
X26325715Y-125137051D01*
X26325715Y-125137051D02*
X26428572Y-124851337D01*
X26428572Y-124851337D02*
X26634287Y-124708480D01*
X26634287Y-124708480D02*
X27148572Y-124708480D01*
X27148572Y-124708480D02*
X27354287Y-124565622D01*
X28177144Y-122851337D02*
X28691430Y-125851337D01*
X28691430Y-125851337D02*
X29102858Y-123708480D01*
X29102858Y-123708480D02*
X29514287Y-125851337D01*
X29514287Y-125851337D02*
X30028573Y-122851337D01*
X30851429Y-125851337D02*
X30851429Y-123851337D01*
X30851429Y-122851337D02*
X30748572Y-122994194D01*
X30748572Y-122994194D02*
X30851429Y-123137051D01*
X30851429Y-123137051D02*
X30954286Y-122994194D01*
X30954286Y-122994194D02*
X30851429Y-122851337D01*
X30851429Y-122851337D02*
X30851429Y-123137051D01*
X31777143Y-125708480D02*
X31982857Y-125851337D01*
X31982857Y-125851337D02*
X32394286Y-125851337D01*
X32394286Y-125851337D02*
X32600000Y-125708480D01*
X32600000Y-125708480D02*
X32702857Y-125422765D01*
X32702857Y-125422765D02*
X32702857Y-125279908D01*
X32702857Y-125279908D02*
X32600000Y-124994194D01*
X32600000Y-124994194D02*
X32394286Y-124851337D01*
X32394286Y-124851337D02*
X32085715Y-124851337D01*
X32085715Y-124851337D02*
X31880000Y-124708480D01*
X31880000Y-124708480D02*
X31777143Y-124422765D01*
X31777143Y-124422765D02*
X31777143Y-124279908D01*
X31777143Y-124279908D02*
X31880000Y-123994194D01*
X31880000Y-123994194D02*
X32085715Y-123851337D01*
X32085715Y-123851337D02*
X32394286Y-123851337D01*
X32394286Y-123851337D02*
X32600000Y-123994194D01*
X33628571Y-125851337D02*
X33628571Y-122851337D01*
X34554286Y-125851337D02*
X34554286Y-124279908D01*
X34554286Y-124279908D02*
X34451428Y-123994194D01*
X34451428Y-123994194D02*
X34245714Y-123851337D01*
X34245714Y-123851337D02*
X33937143Y-123851337D01*
X33937143Y-123851337D02*
X33731428Y-123994194D01*
X33731428Y-123994194D02*
X33628571Y-124137051D01*
M02*
