%TF.GenerationSoftware,KiCad,Pcbnew,9.0.7*%
%TF.CreationDate,2026-08-24T11:40:21+01:00*%
%TF.ProjectId,sorrow_10hp,736f7272-6f77-45f3-9130-68702e6b6963,rev?*%
%TF.SameCoordinates,Original*%
%TF.FileFunction,Legend,Bot*%
%TF.FilePolarity,Positive*%
%FSLAX46Y46*%
G04 Gerber Fmt 4.6, Leading zero omitted, Abs format (unit mm)*
G04 Created by KiCad (PCBNEW 9.0.7) date 2026-08-24 11:40:21*
%MOMM*%
%LPD*%
G01*
G04 APERTURE LIST*
%ADD10C,0.150000*%
G04 APERTURE END LIST*
D10*
X30019048Y-74454819D02*
X30019048Y-75169104D01*
X30019048Y-75169104D02*
X30066667Y-75311961D01*
X30066667Y-75311961D02*
X30161905Y-75407200D01*
X30161905Y-75407200D02*
X30304762Y-75454819D01*
X30304762Y-75454819D02*
X30400000Y-75454819D01*
X29066667Y-75454819D02*
X29542857Y-75454819D01*
X29542857Y-75454819D02*
X29542857Y-74454819D01*
X28161905Y-75359580D02*
X28209524Y-75407200D01*
X28209524Y-75407200D02*
X28352381Y-75454819D01*
X28352381Y-75454819D02*
X28447619Y-75454819D01*
X28447619Y-75454819D02*
X28590476Y-75407200D01*
X28590476Y-75407200D02*
X28685714Y-75311961D01*
X28685714Y-75311961D02*
X28733333Y-75216723D01*
X28733333Y-75216723D02*
X28780952Y-75026247D01*
X28780952Y-75026247D02*
X28780952Y-74883390D01*
X28780952Y-74883390D02*
X28733333Y-74692914D01*
X28733333Y-74692914D02*
X28685714Y-74597676D01*
X28685714Y-74597676D02*
X28590476Y-74502438D01*
X28590476Y-74502438D02*
X28447619Y-74454819D01*
X28447619Y-74454819D02*
X28352381Y-74454819D01*
X28352381Y-74454819D02*
X28209524Y-74502438D01*
X28209524Y-74502438D02*
X28161905Y-74550057D01*
X27447619Y-74454819D02*
X27447619Y-75169104D01*
X27447619Y-75169104D02*
X27495238Y-75311961D01*
X27495238Y-75311961D02*
X27590476Y-75407200D01*
X27590476Y-75407200D02*
X27733333Y-75454819D01*
X27733333Y-75454819D02*
X27828571Y-75454819D01*
X26495238Y-75454819D02*
X26971428Y-75454819D01*
X26971428Y-75454819D02*
X26971428Y-74454819D01*
X25590476Y-75359580D02*
X25638095Y-75407200D01*
X25638095Y-75407200D02*
X25780952Y-75454819D01*
X25780952Y-75454819D02*
X25876190Y-75454819D01*
X25876190Y-75454819D02*
X26019047Y-75407200D01*
X26019047Y-75407200D02*
X26114285Y-75311961D01*
X26114285Y-75311961D02*
X26161904Y-75216723D01*
X26161904Y-75216723D02*
X26209523Y-75026247D01*
X26209523Y-75026247D02*
X26209523Y-74883390D01*
X26209523Y-74883390D02*
X26161904Y-74692914D01*
X26161904Y-74692914D02*
X26114285Y-74597676D01*
X26114285Y-74597676D02*
X26019047Y-74502438D01*
X26019047Y-74502438D02*
X25876190Y-74454819D01*
X25876190Y-74454819D02*
X25780952Y-74454819D01*
X25780952Y-74454819D02*
X25638095Y-74502438D01*
X25638095Y-74502438D02*
X25590476Y-74550057D01*
X24876190Y-74454819D02*
X24876190Y-75169104D01*
X24876190Y-75169104D02*
X24923809Y-75311961D01*
X24923809Y-75311961D02*
X25019047Y-75407200D01*
X25019047Y-75407200D02*
X25161904Y-75454819D01*
X25161904Y-75454819D02*
X25257142Y-75454819D01*
X23923809Y-75454819D02*
X24399999Y-75454819D01*
X24399999Y-75454819D02*
X24399999Y-74454819D01*
X23019047Y-75359580D02*
X23066666Y-75407200D01*
X23066666Y-75407200D02*
X23209523Y-75454819D01*
X23209523Y-75454819D02*
X23304761Y-75454819D01*
X23304761Y-75454819D02*
X23447618Y-75407200D01*
X23447618Y-75407200D02*
X23542856Y-75311961D01*
X23542856Y-75311961D02*
X23590475Y-75216723D01*
X23590475Y-75216723D02*
X23638094Y-75026247D01*
X23638094Y-75026247D02*
X23638094Y-74883390D01*
X23638094Y-74883390D02*
X23590475Y-74692914D01*
X23590475Y-74692914D02*
X23542856Y-74597676D01*
X23542856Y-74597676D02*
X23447618Y-74502438D01*
X23447618Y-74502438D02*
X23304761Y-74454819D01*
X23304761Y-74454819D02*
X23209523Y-74454819D01*
X23209523Y-74454819D02*
X23066666Y-74502438D01*
X23066666Y-74502438D02*
X23019047Y-74550057D01*
X22304761Y-74454819D02*
X22304761Y-75169104D01*
X22304761Y-75169104D02*
X22352380Y-75311961D01*
X22352380Y-75311961D02*
X22447618Y-75407200D01*
X22447618Y-75407200D02*
X22590475Y-75454819D01*
X22590475Y-75454819D02*
X22685713Y-75454819D01*
X21352380Y-75454819D02*
X21828570Y-75454819D01*
X21828570Y-75454819D02*
X21828570Y-74454819D01*
X20447618Y-75359580D02*
X20495237Y-75407200D01*
X20495237Y-75407200D02*
X20638094Y-75454819D01*
X20638094Y-75454819D02*
X20733332Y-75454819D01*
X20733332Y-75454819D02*
X20876189Y-75407200D01*
X20876189Y-75407200D02*
X20971427Y-75311961D01*
X20971427Y-75311961D02*
X21019046Y-75216723D01*
X21019046Y-75216723D02*
X21066665Y-75026247D01*
X21066665Y-75026247D02*
X21066665Y-74883390D01*
X21066665Y-74883390D02*
X21019046Y-74692914D01*
X21019046Y-74692914D02*
X20971427Y-74597676D01*
X20971427Y-74597676D02*
X20876189Y-74502438D01*
X20876189Y-74502438D02*
X20733332Y-74454819D01*
X20733332Y-74454819D02*
X20638094Y-74454819D01*
X20638094Y-74454819D02*
X20495237Y-74502438D01*
X20495237Y-74502438D02*
X20447618Y-74550057D01*
M02*
