M48
; DRILL file {KiCad 9.0.7} date 2026-08-24T06:50:24+0100
; FORMAT={-:-/ absolute / metric / decimal}
; #@! TF.CreationDate,2026-08-24T06:50:24+01:00
; #@! TF.GenerationSoftware,Kicad,Pcbnew,9.0.7
; #@! TF.FileFunction,NonPlated,1,2,NPTH
FMAT,2
METRIC
; #@! TA.AperFunction,NonPlated,NPTH,ComponentDrill
T1C3.000
; #@! TA.AperFunction,NonPlated,NPTH,ComponentDrill
T2C3.200
; #@! TA.AperFunction,NonPlated,NPTH,ComponentDrill
T3C6.200
; #@! TA.AperFunction,NonPlated,NPTH,ComponentDrill
T4C7.200
%
G90
G05
T2
X25.4Y-19.252
T3
X7.15Y-84.562
X7.15Y-98.312
X7.15Y-111.9
X8.65Y-59.288
X19.317Y-84.562
X19.317Y-98.312
X19.317Y-111.9
X25.503Y-61.957
X31.483Y-84.562
X31.483Y-98.312
X31.483Y-111.9
X42.155Y-59.288
X43.65Y-84.562
X43.65Y-98.312
X43.65Y-111.9
T4
X11.175Y-22.904
X11.175Y-42.027
X39.65Y-22.904
X39.65Y-42.027
T1
X6.5Y-3.0G85X8.5Y-3.0
G05
X42.1Y-125.5G85X44.1Y-125.5
G05
M30
